<svg width="129" height="14.999999999999998" xmlns="http://www.w3.org/2000/svg" preserveAspectRatio="xMinYMid" class="u30-oicn">

 <g>
  <title>background</title>
  <rect fill="none" id="canvas_background" height="17" width="131" y="-1" x="-1"/>
 </g>
 <g>
  <title>Layer 1</title>
  <path stroke="null" id="svg_1" fill="#C74634" d="m48.517905,9.949141l7.454699,0l-3.937685,-6.627414l-7.239471,11.97013l-3.292003,0l8.804762,-14.361097a2.098468,2.187047 0 0 1 3.424074,-0.02549l8.82922,14.386587l-3.292003,0l-1.550616,-2.676456l-7.542746,0l-1.643556,-2.66626m34.206502,2.66626l0,-12.474833l-2.797958,0l0,13.703454a1.350064,1.407051 0 0 0 0.41578,1.019602a1.413654,1.473325 0 0 0 1.017439,0.443527l12.71799,0l1.65823,-2.676456l-13.026157,0m-46.244568,-2.243125a4.891535,5.098011 0 0 0 0,-10.247002l-12.228837,0l0,15.151289l2.793066,0l0,-12.469735l9.264567,0a2.352828,2.452143 0 0 1 0,4.904287l-7.880262,0l8.344958,7.565448l4.055082,0l-5.605699,-4.904287l1.257124,0m-29.407906,4.904287l8.44768,0a7.26882,7.575644 0 0 0 0,-15.146191l-8.44768,0a7.26882,7.575644 0 1 0 0,15.146191m8.25691,-2.66626l-8.071032,0a4.705656,4.904287 0 0 1 0,-9.803475l8.071032,0a4.705656,4.904287 0 1 1 0,9.803475m53.068259,2.66626l8.623776,0l1.633773,-2.66626l-10.066778,0a4.705656,4.904287 0 1 1 0,-9.803475l8.19332,0l1.653339,-2.676456l-10.037429,0a7.26882,7.575644 0 1 0 0,15.146191m34.177152,-2.66626a4.705656,4.904287 0 0 1 -4.529561,-3.568608l11.945128,0l1.643556,-2.671358l-13.588683,0a4.700765,4.899189 0 0 1 4.529561,-3.568608l8.198212,0l1.638664,-2.676456l-10.027646,0a7.26882,7.575644 0 0 0 0,15.146191l8.623776,0l1.638664,-2.66626l-10.076561,0"/>
  <text transform="matrix(0.5228891280932456,0,0,0.5236504603228543,51.081951133246974,-6.497887099647053) " font-style="normal" font-weight="bold" xml:space="preserve" text-anchor="start" font-family="Arvo, sans-serif" font-size="33" id="svg_2" y="38.200802" x="116.725034" stroke-width="0" fill="#C74634">云</text>
 </g>
</svg>