<svg width="265" height="30" xmlns="http://www.w3.org/2000/svg" preserveAspectRatio="xMinYMid" class="u30-oicn">

 <g>
  <title>background</title>
  <rect fill="none" id="canvas_background" height="32" width="267" y="-1" x="-1"/>
 </g>
 <g>
  <title>Layer 1</title>
  <path id="svg_1" fill="#C74634" d="m99.59,19.52l15.24,0l-8.05,-13l-14.8,23.48l-6.73,0l18,-28.17a4.29,4.29 0 0 1 7,-0.05l18.05,28.22l-6.73,0l-3.17,-5.25l-15.42,0l-3.36,-5.23m69.93,5.23l0,-24.47l-5.72,0l0,26.88a2.76,2.76 0 0 0 0.85,2a2.89,2.89 0 0 0 2.08,0.87l26,0l3.39,-5.25l-26.63,0m-94.54,-4.4a10,10 0 0 0 0,-20.1l-25,0l0,29.72l5.71,0l0,-24.46l18.94,0a4.81,4.81 0 0 1 0,9.62l-16.11,0l17.06,14.84l8.29,0l-11.46,-9.62l2.57,0m-60.12,9.62l17.27,0a14.86,14.86 0 0 0 0,-29.71l-17.27,0a14.86,14.86 0 1 0 0,29.71m16.88,-5.23l-16.5,0a9.62,9.62 0 0 1 0,-19.23l16.5,0a9.62,9.62 0 1 1 0,19.23m108.49,5.23l17.63,0l3.34,-5.23l-20.58,0a9.62,9.62 0 1 1 0,-19.23l16.75,0l3.38,-5.25l-20.52,0a14.86,14.86 0 1 0 0,29.71m69.87,-5.23a9.62,9.62 0 0 1 -9.26,-7l24.42,0l3.36,-5.24l-27.78,0a9.61,9.61 0 0 1 9.26,-7l16.76,0l3.35,-5.25l-20.5,0a14.86,14.86 0 0 0 0,29.71l17.63,0l3.35,-5.23l-20.6,0"/>
  <text transform="matrix(1.0957856221538544,0,0,1.0315359825545685,-140.76441704103124,0.22353487500911368) " font-style="normal" font-weight="bold" xml:space="preserve" text-anchor="start" font-family="Arvo, sans-serif" font-size="33" id="svg_2" y="25.695833" x="338.207376" stroke-width="0" fill="#C74634">云</text>
 </g>
</svg>