<?xml version="1.0" standalone="no"?><!DOCTYPE svg PUBLIC "-//W3C//DTD SVG 1.1//EN" "http://www.w3.org/Graphics/SVG/1.1/DTD/svg11.dtd"><svg t="1709617166114" class="icon" viewBox="0 0 2004 1024" version="1.1" xmlns="http://www.w3.org/2000/svg" p-id="17009" xmlns:xlink="http://www.w3.org/1999/xlink" width="391.40625" height="200"><path d="M836.989792 549.746611h128.117075l-67.660851-109.00915-125.297873 197.34415h-55.757554l151.297182-236.81298a36.023139 36.023139 0 0 1 58.89 0l151.610427 237.126225h-56.384043L995.178357 595.16709h-129.996544l-28.192021-44.167501zM1424.636817 595.16709v-206.741491H1378.276604v225.536172a24.74633 24.74633 0 0 0 6.891383 16.915213 25.999309 25.999309 0 0 0 17.541702 7.204627h219.271278l26.625798-42.914521zM630.561546 557.264483a84.576064 84.576064 0 0 0 0-168.838884h-210.187182v250.595746H469.867024v-206.74149h156.622341a40.721809 40.721809 0 0 1 28.505266 11.903298 39.155585 39.155585 0 0 1 11.903298 28.505266 40.721809 40.721809 0 0 1-11.903298 28.505266 39.155585 39.155585 0 0 1-28.505266 11.903298h-134.695213l143.15282 125.297873h69.853564l-96.479362-80.817128zM270.016916 388.425599H125.297873a125.297873 125.297873 0 1 0 0 250.595746h144.719043a125.297873 125.297873 0 0 0 0-250.595746z m53.878086 181.995161a81.130373 81.130373 0 0 1-57.323777 24.74633H128.117075a80.817128 80.817128 0 0 1 0-161.634257h138.45415a81.130373 81.130373 0 0 1 57.323777 138.140906zM1178.426496 638.081611a125.297873 125.297873 0 1 1 0-250.595746h172.59782l-28.192021 43.854256h-140.960107a80.817128 80.817128 0 1 0 0 161.634256h172.911064l-28.192021 44.1675zM1765.760276 595.16709a80.503883 80.503883 0 0 1-77.684681-58.576756h205.175267l28.192021-44.1675h-233.367288a80.817128 80.817128 0 0 1 77.684681-58.890001h140.960107l28.192022-43.854255h-172.284576a125.297873 125.297873 0 0 0 0 250.595746H1910.792564l28.192022-45.107234zM1985.971288 404.087833a14.7225 14.7225 0 0 0-5.951649 0h-1.566223v9.084096h3.758936a6.578138 6.578138 0 0 0 5.325159-1.879468 4.69867 4.69867 0 0 0 0-2.819202 4.385426 4.385426 0 0 0-1.566223-4.385426z" fill="#d81e06" p-id="17010"></path><path d="M1982.838841 392.811025a22.240372 22.240372 0 1 0 21.927128 22.240372 22.240372 22.240372 0 0 0-21.927128-22.240372z m6.264894 36.962872l-6.578139-11.903298h-4.07218v11.903298H1973.441501v-31.324468h7.831117a25.999309 25.999309 0 0 1 8.144361 0 9.084096 9.084096 0 0 1 6.264894 8.770851 9.084096 9.084096 0 0 1-4.385425 8.144362l7.204627 13.156277zM421.940588 317.319056a306.979789 306.979789 0 0 1 237.439469-112.454841h682.560163a306.979789 306.979789 0 0 1 237.752715 112.454841H1816.819159A511.841811 511.841811 0 0 0 1341.94022 0.002193H659.380057A512.155056 512.155056 0 0 0 185.754097 317.319056zM1579.692935 706.682197a306.979789 306.979789 0 0 1-237.752715 112.454841H659.380057a306.979789 306.979789 0 0 1-237.439469-112.454841H185.754097a512.781545 512.781545 0 0 0 473.62596 317.316863h682.560163A512.468301 512.468301 0 0 0 1816.819159 706.682197z" fill="#d81e06" p-id="17011"></path></svg>