<?xml version="1.0" standalone="no"?><!DOCTYPE svg PUBLIC "-//W3C//DTD SVG 1.1//EN" "http://www.w3.org/Graphics/SVG/1.1/DTD/svg11.dtd"><svg t="1709618005617" class="icon" viewBox="0 0 1024 1024" version="1.1" xmlns="http://www.w3.org/2000/svg" p-id="20504" xmlns:xlink="http://www.w3.org/1999/xlink" width="200" height="200"><path d="M436.861156 529.692444h58.1632l-30.72-49.516088-56.411023 89.508977-25.7024 0.022756L450.855822 462.222222c3.015111-4.437333 8.044089-7.054222 13.403022-6.997333 5.404444 0 10.365156 2.548622 13.289245 6.803911l68.892444 107.679289-25.713777-0.022756-12.060445-20.002133h-58.936889l-12.856889-19.990756h-0.011377z m266.843022 20.002134V456.339911h-21.8112v102.491022c0 2.833067 1.160533 5.540978 3.185778 7.566223a11.264 11.264 0 0 0 7.9872 3.288177h99.396266l12.822756-19.979377h-101.5808zM343.108267 532.992a38.331733 38.331733 0 0 0 0-76.652089h-95.391289v113.345422h21.799822V476.319289h72.0896a18.318222 18.318222 0 0 1 18.340978 18.340978 18.3296 18.3296 0 0 1-18.340978 18.363733l-61.417244-0.022756 65.035377 56.684089h31.675734l-43.770311-36.716089 9.978311 0.022756zM113.572978 569.685333a56.672711 56.672711 0 1 1 0-113.345422h65.877333a56.672711 56.672711 0 0 1 0 113.368178l-65.877333-0.022756z m64.420978-19.968a36.681956 36.681956 0 1 0 0-73.386666H115.029333a36.704711 36.704711 0 0 0 0 73.386666h62.964623z m413.923555 19.968a56.672711 56.672711 0 1 1 0-113.345422h78.290489l-12.822756 19.979378h-63.988622a36.704711 36.704711 0 1 0 0 73.386667h78.574934l-12.8 19.979377h-67.254045z m266.626845-19.968a36.681956 36.681956 0 0 1-35.282489-26.669511h93.172622l12.822755-19.979378h-106.029511a36.693333 36.693333 0 0 1 35.316623-26.749155h63.954488l12.856889-19.979378h-78.301866a56.672711 56.672711 0 0 0 0 113.345422h67.265422l12.8-19.968h-78.574933z m88.4736-81.3056a10.012444 10.012444 0 1 1 20.024888 0 10.012444 10.012444 0 0 1-20.024888 0z m8.817777-7.520711c1.956978 0 2.776178 0.022756 3.731911 0.386845 2.514489 0.841956 2.776178 3.151644 2.776178 3.9936a5.575111 5.575111 0 0 1-0.159289 1.171911 3.8912 3.8912 0 0 1-1.763555 2.4576c-0.147911 0.113778-0.227556 0.182044-0.648534 0.341333l3.322312 5.927822h-3.208534l-2.901333-5.461333h-1.934222v5.461333h-2.798934V460.879644h3.584z m1.001245 6.4512c0.853333-0.011378 1.820444-0.079644 2.366578-0.898844 0.227556-0.364089 0.341333-0.796444 0.329955-1.217422a1.888711 1.888711 0 0 0-1.080889-1.729423c-0.637156-0.250311-1.297067-0.250311-2.616889-0.250311h-0.796444v4.096h1.797689z" fill="#d81e06" p-id="20505"></path></svg>