<svg xmlns="http://www.w3.org/2000/svg" xmlns:xlink="http://www.w3.org/1999/xlink" width="37.0319986641407" height="9.731999397277832" viewBox="0 0 37.0319986641407 9.731999397277832" fill="none">
<g >
<path     fill="#D81E06"  d="M1.764 8.952Q0.936 8.952 0.468 8.37Q0 7.788 0 6.744Q0 5.412 0.714 4.452Q1.428 3.492 2.688 3.492L3.12 3.516Q3.324 3.408 3.576 3.408Q4.524 3.408 4.524 5.196Q5.016 5.172 5.52 5.064L5.712 5.016L5.784 5.484Q5.388 5.652 4.716 5.784L4.476 5.832Q4.248 7.092 3.552 8.022Q2.856 8.952 1.764 8.952ZM2.412 7.92Q2.916 7.92 3.318 7.272Q3.72 6.624 3.876 5.904Q2.592 5.904 2.592 4.944Q2.592 4.56 2.748 4.224L2.808 4.104Q2.76 4.08 2.688 4.08Q2.616 4.08 2.58 4.104Q2.28 4.296 2.016 5.004Q1.752 5.712 1.752 6.624Q1.752 7.92 2.412 7.92ZM5.232 8.844L5.148 8.844Q5.124 8.748 5.124 8.406Q5.124 8.064 5.448 6.564Q5.772 5.064 5.772 4.848Q5.772 4.476 5.436 4.032L5.328 3.888L5.34 3.732Q5.988 3.552 7.416 3.552Q7.56 3.864 7.56 4.428Q7.692 4.212 8.112 3.852Q8.532 3.492 8.976 3.492Q9.624 3.492 9.624 4.62Q9.564 4.692 9.462 4.806Q9.36 4.92 9.054 5.124Q8.748 5.328 8.46 5.376Q8.448 5.376 8.256 5.052Q8.064 4.728 7.968 4.728Q7.668 4.836 7.44 5.088Q6.888 7.572 6.888 8.304Q6.888 8.568 6.9 8.676Q6.48 8.844 5.232 8.844ZM12.936 3.84Q12.96 3.816 13.068 3.528Q13.632 3.528 14.58 3.864Q14.28 4.86 14.1 5.946Q13.92 7.032 13.92 7.494Q13.92 7.956 14.016 7.956Q14.088 7.956 14.544 7.728L14.688 7.656L14.904 8.076Q14.796 8.172 14.622 8.316Q14.448 8.46 13.968 8.706Q13.488 8.952 13.104 8.952Q12.36 8.952 12.24 8.28Q11.472 8.952 10.854 8.952Q10.236 8.952 9.81 8.472Q9.384 7.992 9.384 6.96Q9.384 5.352 10.044 4.422Q10.704 3.492 11.64 3.492Q12.312 3.492 12.936 3.84ZM11.568 7.932Q11.856 7.932 12.216 7.704Q12.3 6.012 12.78 4.356Q12.42 4.2 12.168 4.2Q11.736 4.2 11.43 5.046Q11.124 5.892 11.124 6.912Q11.124 7.932 11.568 7.932ZM17.88 4.092Q17.4 4.092 17.112 4.89Q16.824 5.688 16.824 6.6Q16.824 8.04 17.712 8.04Q18 8.04 18.324 7.902Q18.648 7.764 18.84 7.632L19.02 7.488L19.296 7.86Q19.2 7.992 18.912 8.208Q18.624 8.424 18.372 8.568Q18.12 8.712 17.724 8.832Q17.328 8.952 16.944 8.952Q16.008 8.952 15.54 8.34Q15.072 7.728 15.072 6.696Q15.072 5.268 15.858 4.38Q16.644 3.492 17.88 3.492Q18.684 3.492 19.158 3.858Q19.632 4.224 19.632 4.758Q19.632 5.292 19.296 5.676Q18.996 5.676 18.6 5.544Q18.204 5.412 18 5.22L18.18 4.164Q18.072 4.092 17.88 4.092ZM20.814 8.952Q20.814 8.952 20.607 8.952Q20.4 8.952 20.13 8.676Q19.86 8.4 19.86 7.902Q19.86 7.404 20.454 4.722Q21.048 2.04 21.048 0.852L20.976 0.323999Q21.912 0 22.728 0Q22.848 0.167999 22.848 0.587999Q22.848 1.548 22.242 4.302Q21.636 7.056 21.636 7.506Q21.636 7.956 21.744 7.956L22.584 7.656L22.8 8.076Q22.392 8.4 21.81 8.676Q21.228 8.952 20.814 8.952ZM23.028 6.732Q23.028 5.232 23.934 4.362Q24.84 3.492 25.992 3.492Q26.7 3.492 27.156 3.84Q27.612 4.188 27.612 4.77Q27.612 5.352 27.318 5.748Q27.024 6.144 26.604 6.36Q25.752 6.78 25.044 6.888L24.756 6.924Q24.84 8.052 25.68 8.052Q25.968 8.052 26.292 7.908Q26.616 7.764 26.796 7.62L26.976 7.476L27.264 7.86Q27.168 7.992 26.88 8.208Q26.592 8.424 26.34 8.568Q25.644 8.952 24.816 8.952Q23.988 8.952 23.508 8.364Q23.028 7.776 23.028 6.732ZM24.744 6.336Q25.356 6.228 25.716 5.82Q26.076 5.412 26.076 4.764Q26.076 4.116 25.692 4.116Q25.236 4.116 24.99 4.89Q24.744 5.664 24.744 6.336ZM35.226 3.216Q35.226 3.216 35.259 3.216Q35.292 3.216 35.34 3.15Q35.388 3.084 35.406 3.084Q35.424 3.084 35.664 3.216L35.976 3.384Q36.06 3.444 36.06 3.474Q36.06 3.504 36.144 3.504Q36.228 3.504 36.252 3.54Q36.276 3.576 36.444 3.66Q36.492 3.672 36.534 3.696Q36.576 3.72 36.594 3.732Q36.612 3.744 36.612 3.744Q36.6 3.756 36.57 3.852Q36.54 3.948 36.612 3.96Q36.684 3.972 36.696 4.116Q36.708 4.212 36.804 4.332Q36.9 4.452 36.972 4.452Q36.996 4.452 36.996 4.482Q36.996 4.512 36.894 4.512Q36.792 4.512 36.804 4.56Q36.804 4.572 36.78 4.596Q36.756 4.62 36.708 4.644Q36.408 4.788 36.348 4.788Q36.3 4.788 36.222 4.842Q36.144 4.896 36.084 4.884Q35.928 4.86 35.772 5.004Q35.712 5.04 35.532 5.118Q35.352 5.196 35.328 5.172Q35.316 5.172 35.232 5.244Q35.148 5.316 35.1 5.316Q35.052 5.316 34.944 5.37Q34.836 5.424 34.788 5.382Q34.74 5.34 34.68 5.394Q34.62 5.448 34.572 5.448Q34.524 5.448 34.548 5.508Q34.572 5.568 34.53 5.568Q34.488 5.568 34.488 5.526Q34.488 5.484 34.416 5.556Q34.344 5.628 34.272 5.628Q34.2 5.628 34.134 5.706Q34.068 5.784 34.092 5.958Q34.116 6.132 34.026 6.444Q33.936 6.756 33.954 6.81Q33.972 6.864 33.9 6.948Q33.828 7.032 33.828 7.098Q33.828 7.164 33.792 7.164Q33.756 7.164 33.756 7.248Q33.756 7.332 33.726 7.332Q33.696 7.332 33.696 7.44Q33.696 7.536 33.744 7.536Q33.792 7.524 34.2 7.404Q34.548 7.272 34.56 7.224Q34.572 7.176 34.608 7.152Q34.644 7.128 34.566 7.05Q34.488 6.972 34.488 6.942Q34.488 6.912 34.386 6.804Q34.284 6.696 34.284 6.606Q34.284 6.516 34.236 6.456Q34.212 6.432 34.272 6.432Q34.404 6.432 34.716 6.588Q34.956 6.696 35.052 6.72Q35.136 6.756 35.964 7.212Q36.072 7.26 36.264 7.32Q36.408 7.38 36.408 7.416Q36.348 7.44 36.396 7.44Q36.444 7.44 36.426 7.488Q36.408 7.536 36.474 7.662Q36.54 7.788 36.54 7.848Q36.54 7.908 36.588 7.956Q36.612 7.98 36.624 8.058Q36.636 8.136 36.63 8.202Q36.624 8.268 36.612 8.268Q36.516 8.268 36.78 8.796Q37.032 9.276 36.96 9.348L36.888 9.216Q36.852 9.084 36.822 9.084Q36.792 9.084 36.792 9Q36.792 8.916 36.72 8.832L36.648 8.76L36.636 8.964Q36.576 9.456 36.636 9.54Q36.684 9.576 36.684 9.636Q36.684 9.708 36.252 9.204Q36.132 9.084 36.096 9.084Q36.06 9.084 35.982 8.994Q35.904 8.904 35.844 8.922Q35.784 8.94 35.652 8.832Q35.532 8.748 35.49 8.742Q35.448 8.736 35.328 8.76Q35.172 8.808 35.118 8.826Q35.064 8.844 35.028 8.844Q34.992 8.844 34.926 8.88Q34.86 8.916 34.566 9.036Q34.272 9.156 34.2 9.18Q33.876 9.336 33.132 9.528L32.748 9.636Q32.412 9.732 32.34 9.732Q32.268 9.732 32.184 9.636Q31.932 9.372 31.728 9.24Q31.632 9.18 31.632 9.132Q31.632 9.084 31.56 9.042Q31.488 9 31.488 8.952Q31.488 8.904 31.386 8.886Q31.284 8.868 31.284 8.838Q31.284 8.808 31.218 8.784Q31.152 8.76 31.152 8.706Q31.152 8.652 31.092 8.634Q31.032 8.616 31.032 8.55Q31.032 8.484 31.002 8.466Q30.972 8.448 30.99 8.28Q31.008 8.112 30.96 8.076Q30.828 7.968 30.924 7.932Q30.936 7.92 30.972 7.932Q31.164 7.992 31.356 7.8Q31.44 7.716 31.488 7.716Q31.536 7.716 31.596 7.686Q31.656 7.656 31.824 7.596Q31.992 7.536 32.034 7.428Q32.076 7.32 32.136 7.272Q32.196 7.224 32.196 7.158Q32.196 7.092 32.268 7.002Q32.34 6.912 32.34 6.888Q32.34 6.864 32.388 6.762Q32.436 6.66 32.46 6.528L32.472 6.408L32.064 6.408Q31.332 6.408 30.96 6.168Q30.78 6.048 30.606 5.97Q30.432 5.892 30.396 5.826Q30.36 5.76 30.3 5.724Q30.048 5.604 30.06 5.556Q30.072 5.508 30.024 5.412Q29.988 5.304 30.042 5.268Q30.096 5.232 30.336 5.22Q30.624 5.22 30.996 5.052Q31.104 5.004 31.14 5.004Q31.176 5.004 31.302 4.914Q31.428 4.824 31.458 4.842Q31.488 4.86 31.512 4.824Q31.536 4.788 31.596 4.806Q31.656 4.824 31.698 4.776Q31.74 4.728 31.788 4.728Q31.836 4.728 31.908 4.692Q32.4 4.404 32.532 4.404Q32.58 4.404 32.67 4.356Q32.76 4.308 32.952 4.23Q33.144 4.152 33.36 4.056Q33.576 3.96 33.678 3.936Q33.78 3.912 33.954 3.816Q34.128 3.72 34.278 3.696Q34.428 3.672 34.494 3.618Q34.56 3.564 34.656 3.552Q34.752 3.54 34.806 3.492Q34.86 3.444 34.992 3.402Q35.124 3.36 35.142 3.288Q35.16 3.216 35.226 3.216ZM35.076 5.232Q35.076 5.232 35.076 5.262Q35.076 5.292 35.118 5.256Q35.16 5.22 35.148 5.178Q35.136 5.136 35.106 5.154Q35.076 5.172 35.076 5.232ZM34.572 0.78Q34.608 0.684 34.614 0.684Q34.62 0.684 34.752 0.773999Q34.884 0.864 35.016 0.894Q35.148 0.924 35.148 0.96Q35.148 0.996 35.202 0.978Q35.256 0.96 35.316 1.014Q35.376 1.068 35.424 1.044Q35.472 1.02 35.532 1.08Q35.592 1.14 35.532 1.158Q35.472 1.176 35.472 1.206Q35.472 1.236 35.526 1.212Q35.58 1.188 35.628 1.23Q35.676 1.272 35.676 1.236Q35.676 1.2 35.784 1.2L35.892 1.2L35.808 1.272Q35.676 1.38 35.784 1.56Q35.856 1.692 35.808 1.704Q35.772 1.74 35.784 1.782Q35.796 1.824 35.868 1.824Q36.06 1.824 36.06 1.92Q36.06 1.968 36.114 1.968Q36.168 1.968 36.156 2.028Q36.144 2.088 36.096 2.088Q36.048 2.088 36.006 2.148Q35.964 2.208 35.91 2.208Q35.856 2.208 35.838 2.256Q35.82 2.304 35.706 2.31Q35.592 2.316 35.55 2.352Q35.508 2.388 35.49 2.364Q35.472 2.34 35.472 2.376Q35.472 2.412 35.292 2.472Q35.112 2.532 35.028 2.52Q34.944 2.496 34.92 2.532Q34.896 2.568 34.848 2.55Q34.8 2.532 34.752 2.616Q34.704 2.652 34.47 2.76Q34.236 2.868 34.164 2.868Q34.128 2.868 34.068 2.928Q34.02 2.964 33.744 3.024Q33.468 3.084 33.288 3.084Q33.144 3.084 32.916 3.006Q32.688 2.928 32.628 2.856Q32.544 2.796 32.28 2.658Q32.016 2.52 32.016 2.454Q32.016 2.388 31.902 2.316Q31.788 2.244 31.728 2.112Q31.68 2.028 31.692 2.004Q31.704 1.98 31.788 1.908Q31.908 1.812 32.136 1.788Q32.364 1.764 32.586 1.662Q32.808 1.56 32.928 1.518Q33.048 1.476 33.156 1.428Q33.264 1.38 33.402 1.338Q33.54 1.296 33.636 1.248Q33.852 1.164 33.924 1.152Q33.948 1.152 34.092 1.08Q34.392 0.96 34.47 0.912Q34.548 0.864 34.572 0.78Z">
</path>
</g>
</svg>
