<svg xmlns="http://www.w3.org/2000/svg" xmlns:xlink="http://www.w3.org/1999/xlink" width="38.49992370605469" height="5.000220538648136" viewBox="0 0 38.49992370605469 5.000220538648136" fill="none">
<path     fill="#C74634"  d="M16.6571 3.25041L19.1962 3.25041L17.855 1.08624L15.3892 4.99508L14.2679 4.99508L17.2669 0.305474C17.275 0.293827 17.2835 0.282435 17.2924 0.271295C17.3012 0.260154 17.3103 0.249287 17.3197 0.238692C17.3292 0.228096 17.339 0.217791 17.349 0.20778C17.3592 0.197768 17.3695 0.188064 17.3802 0.17867C17.3908 0.169274 17.4018 0.160205 17.413 0.151462C17.4243 0.142718 17.4356 0.134317 17.4473 0.126256C17.459 0.118196 17.471 0.110491 17.4831 0.103141C17.4953 0.0957922 17.5076 0.0888117 17.5201 0.0822C17.5328 0.0755881 17.5456 0.0693568 17.5584 0.063506C17.5714 0.057655 17.5846 0.052195 17.5978 0.0471258C17.6111 0.0420566 17.6246 0.0373873 17.6381 0.0331181C17.6517 0.0288487 17.6654 0.0249868 17.6791 0.0215322C17.6929 0.0180777 17.7067 0.0150369 17.7207 0.0124097C17.7347 0.00978246 17.7489 0.0075735 17.7629 0.00578283C17.777 0.00399215 17.7912 0.00262296 17.8052 0.00167521C17.8195 0.000727471 17.8337 0.00020288 17.8478 0.00010144C17.8622 0 17.8763 0.000321892 17.8905 0.00106711C17.9048 0.00181234 17.919 0.00297956 17.933 0.00456879C17.9471 0.00615803 17.9611 0.00816645 17.9751 0.010594C17.9891 0.0130216 18.0031 0.0158641 18.0169 0.0191215C18.0308 0.0223788 18.0444 0.0260452 18.0581 0.0301207C18.0718 0.0341962 18.0853 0.0386734 18.0986 0.0435524C18.1119 0.0484316 18.1251 0.0537039 18.1381 0.0593694C18.1511 0.0650347 18.1639 0.0710833 18.1766 0.0775149C18.1894 0.0839465 18.2019 0.0907497 18.2141 0.0979246C18.2264 0.1051 18.2384 0.112633 18.2502 0.120526C18.262 0.128419 18.2735 0.136656 18.2849 0.145238C18.2962 0.153821 18.3074 0.162733 18.318 0.171976C18.3288 0.181217 18.3393 0.190771 18.3497 0.200639C18.36 0.210506 18.3698 0.22067 18.3793 0.231129C18.389 0.241587 18.3983 0.252325 18.4072 0.263339C18.4162 0.274351 18.4248 0.285622 18.4331 0.29715L21.4405 4.99508L20.3192 4.99508L19.791 4.12108L17.2219 4.12108L16.6621 3.25041M28.3133 4.12108L28.3133 0.0474365L27.3602 0.0474365L27.3602 4.52229C27.3602 4.55338 27.3632 4.58417 27.3694 4.61463C27.3756 4.64511 27.3847 4.67466 27.3969 4.70328C27.409 4.7319 27.424 4.759 27.4417 4.78458C27.4594 4.81017 27.4795 4.83373 27.5019 4.85524C27.5245 4.87829 27.549 4.89887 27.5757 4.91698C27.6025 4.9351 27.6308 4.95038 27.6605 4.96281C27.6903 4.97527 27.7209 4.98462 27.7526 4.99088C27.7843 4.99716 27.8162 5.00022 27.8484 5.00007L32.1803 5.00007L32.7451 4.12608L28.3083 4.12608M12.5568 3.39358C12.5842 3.39358 12.6116 3.39292 12.639 3.39157C12.6663 3.39024 12.6937 3.38822 12.7209 3.38553C12.7482 3.38285 12.7754 3.3795 12.8025 3.37547C12.8296 3.37146 12.8566 3.36678 12.8835 3.36144C12.9103 3.35611 12.9371 3.3501 12.9636 3.34344C12.9902 3.3368 13.0166 3.32951 13.0429 3.32155C13.0691 3.31359 13.0951 3.305 13.1209 3.29578C13.1467 3.28656 13.1723 3.27672 13.1976 3.26623C13.2229 3.25576 13.2479 3.24467 13.2727 3.23295C13.2975 3.22125 13.322 3.20895 13.3461 3.19603C13.3703 3.18313 13.3941 3.16964 13.4176 3.15556C13.4411 3.14147 13.4643 3.12684 13.4871 3.11162C13.5099 3.09641 13.5323 3.08064 13.5543 3.06433C13.5763 3.04803 13.5979 3.0312 13.6191 3.01382C13.6402 2.99644 13.661 2.97856 13.6813 2.96018C13.7016 2.9418 13.7215 2.92292 13.7408 2.90355C13.7602 2.8842 13.7791 2.86437 13.7975 2.84408C13.8159 2.8238 13.8338 2.80308 13.8512 2.7819C13.8686 2.76073 13.8854 2.73915 13.9017 2.71716C13.9181 2.69517 13.9338 2.6728 13.9491 2.65002C13.9643 2.62725 13.9789 2.60412 13.993 2.58063C14.0071 2.55716 14.0206 2.53334 14.0335 2.50918C14.0465 2.48504 14.0588 2.46061 14.0705 2.43583C14.0822 2.4111 14.0933 2.38607 14.1038 2.36077C14.1143 2.33547 14.1241 2.30993 14.1334 2.28414C14.1426 2.25837 14.1512 2.23238 14.1591 2.20618C14.1671 2.17998 14.1744 2.15359 14.1811 2.12702C14.1877 2.10047 14.1937 2.07377 14.1991 2.04691C14.2044 2.02006 14.2091 1.99309 14.2131 1.96599C14.2171 1.93892 14.2205 1.91175 14.2232 1.8845C14.2259 1.85725 14.2279 1.82995 14.2292 1.8026C14.2306 1.77526 14.2313 1.74789 14.2313 1.72051C14.2313 1.69314 14.2306 1.66577 14.2292 1.63842C14.2279 1.61107 14.2259 1.58377 14.2232 1.55652C14.2205 1.52927 14.2171 1.50211 14.2131 1.47502C14.2091 1.44794 14.2044 1.42097 14.1991 1.39411C14.1937 1.36726 14.1877 1.34055 14.1811 1.31399C14.1744 1.28743 14.1671 1.26105 14.1591 1.23485C14.1512 1.20864 14.1426 1.18265 14.1334 1.15687C14.1241 1.13109 14.1143 1.10555 14.1038 1.08026C14.0933 1.05496 14.0822 1.02993 14.0705 1.00518C14.0588 0.980428 14.0465 0.955978 14.0335 0.931831C14.0206 0.907682 14.0071 0.883866 13.993 0.860381C13.9789 0.836895 13.9643 0.813768 13.9491 0.791003C13.9338 0.768235 13.9181 0.745854 13.9017 0.723863C13.8854 0.70187 13.8686 0.680292 13.8512 0.659126C13.8338 0.63796 13.8159 0.617232 13.7975 0.596944C13.7791 0.576656 13.7602 0.556832 13.7408 0.537471C13.7215 0.518108 13.7016 0.499233 13.6813 0.480846C13.661 0.462457 13.6402 0.444577 13.6191 0.427207C13.5979 0.409837 13.5763 0.392997 13.5543 0.376685C13.5323 0.360374 13.5099 0.344614 13.4871 0.329401C13.4643 0.314189 13.4411 0.299544 13.4176 0.285469C13.3941 0.271391 13.3703 0.257899 13.3461 0.244992C13.322 0.232083 13.2975 0.219777 13.2727 0.208071C13.2479 0.196363 13.2229 0.18527 13.1976 0.174792C13.1723 0.164313 13.1467 0.154462 13.1209 0.145238C13.0951 0.136013 13.0691 0.127427 13.0429 0.119479C13.0166 0.11153 12.9902 0.10423 12.9636 0.0975765C12.9371 0.0909233 12.9103 0.0849259 12.8835 0.0795842C12.8566 0.0742423 12.8296 0.0695625 12.8025 0.065545C12.7754 0.0615274 12.7482 0.0581766 12.7209 0.0554927C12.6937 0.052809 12.6663 0.0507953 12.639 0.0494518C12.6116 0.0481082 12.5842 0.0474365 12.5568 0.0474365L8.39149 0.0474365L8.39149 4.99508L9.34285 4.99508L9.34285 0.923097L12.4985 0.923097C12.5116 0.923097 12.5247 0.923419 12.5378 0.924061C12.5509 0.924704 12.564 0.925668 12.577 0.926953C12.5901 0.928238 12.6031 0.929841 12.6161 0.931764C12.6291 0.933687 12.642 0.935926 12.6548 0.938483C12.6677 0.94104 12.6805 0.94391 12.6932 0.947095C12.7059 0.950278 12.7186 0.953772 12.7311 0.957578C12.7437 0.96138 12.7561 0.96549 12.7685 0.969905C12.7808 0.97432 12.7931 0.979035 12.8052 0.984051C12.8173 0.989065 12.8293 0.994374 12.8411 0.999977C12.853 1.00558 12.8647 1.01147 12.8763 1.01765C12.8878 1.02383 12.8992 1.03028 12.9105 1.03702C12.9217 1.04376 12.9328 1.05077 12.9437 1.05805C12.9546 1.06533 12.9653 1.07287 12.9759 1.08068C12.9864 1.08848 12.9968 1.09654 13.0069 1.10486C13.017 1.11317 13.027 1.12173 13.0367 1.13053C13.0464 1.13933 13.0559 1.14836 13.0652 1.15763C13.0744 1.1669 13.0835 1.17638 13.0923 1.1861C13.1011 1.1958 13.1097 1.20572 13.118 1.21586C13.1263 1.22598 13.1344 1.23631 13.1422 1.24684C13.15 1.25736 13.1576 1.26808 13.1648 1.27897C13.1721 1.28987 13.1791 1.30094 13.1859 1.31218C13.1926 1.32342 13.1991 1.33482 13.2053 1.34637C13.2114 1.35793 13.2173 1.36963 13.2229 1.38148C13.2286 1.39333 13.2339 1.4053 13.2389 1.41741C13.2439 1.42952 13.2486 1.44174 13.253 1.45408C13.2575 1.46642 13.2616 1.47886 13.2654 1.4914C13.2692 1.50394 13.2727 1.51657 13.2759 1.52928C13.279 1.54199 13.2819 1.55477 13.2845 1.56763C13.2871 1.58048 13.2893 1.59339 13.2912 1.60635C13.2931 1.61931 13.2948 1.63232 13.296 1.64536C13.2973 1.6584 13.2983 1.67146 13.2989 1.68455C13.2996 1.69763 13.2999 1.71073 13.2999 1.72384C13.2999 1.73695 13.2996 1.75004 13.2989 1.76312C13.2983 1.77623 13.2973 1.78929 13.296 1.80233C13.2948 1.81538 13.2931 1.82838 13.2912 1.84133C13.2893 1.8543 13.2871 1.8672 13.2845 1.88006C13.2819 1.89291 13.2791 1.90569 13.2759 1.9184C13.2727 1.93111 13.2692 1.94375 13.2654 1.95629C13.2616 1.96884 13.2575 1.98127 13.253 1.99359C13.2486 2.00594 13.2439 2.01816 13.2389 2.03027C13.2339 2.04239 13.2286 2.05436 13.2229 2.06619C13.2173 2.07805 13.2114 2.08975 13.2053 2.1013C13.1991 2.11287 13.1926 2.12428 13.1859 2.1355C13.1791 2.14675 13.1721 2.15782 13.1648 2.16871C13.1576 2.17961 13.15 2.19032 13.1422 2.20084C13.1344 2.21138 13.1263 2.2217 13.118 2.23182C13.1097 2.24196 13.1011 2.25188 13.0923 2.26158C13.0835 2.27131 13.0744 2.2808 13.0652 2.29005C13.0559 2.29932 13.0464 2.30836 13.0367 2.31715C13.027 2.32596 13.017 2.33452 13.0069 2.34282C12.9968 2.35115 12.9864 2.35921 12.9759 2.367C12.9653 2.37482 12.9546 2.38236 12.9437 2.38964C12.9328 2.39693 12.9217 2.40394 12.9105 2.41066C12.8993 2.41741 12.8878 2.42386 12.8763 2.43002C12.8647 2.43622 12.853 2.44211 12.8411 2.4477C12.8293 2.45331 12.8173 2.45862 12.8052 2.46364C12.7931 2.46865 12.7808 2.47336 12.7685 2.47777C12.7561 2.4822 12.7437 2.48631 12.7311 2.49011C12.7186 2.49392 12.7059 2.49741 12.6932 2.50058C12.6805 2.50377 12.6677 2.50664 12.6548 2.5092C12.642 2.51176 12.6291 2.51399 12.6161 2.51591C12.6031 2.51784 12.5901 2.51945 12.577 2.52072C12.564 2.52202 12.5509 2.52298 12.5378 2.52362C12.5247 2.52427 12.5116 2.52458 12.4985 2.52458L9.81436 2.52458L12.6568 4.99508L14.038 4.99508L12.1286 3.39358L12.5568 3.39358ZM2.54007 4.99508L5.41746 4.99508C5.45732 4.99404 5.4971 4.99206 5.53682 4.9891C5.57658 4.98615 5.61622 4.98224 5.65577 4.97738C5.69532 4.97252 5.73474 4.96669 5.774 4.95993C5.81328 4.95317 5.85236 4.94545 5.89124 4.93679C5.93015 4.92815 5.96882 4.91856 6.00725 4.90804C6.04569 4.89752 6.08385 4.88609 6.12172 4.87373C6.1596 4.86138 6.19718 4.84811 6.23441 4.83393C6.27165 4.81976 6.30852 4.8047 6.34504 4.78875C6.38157 4.7728 6.41767 4.75598 6.45336 4.73829C6.48906 4.72061 6.52432 4.70206 6.55911 4.68267C6.59393 4.66327 6.62823 4.64305 6.66206 4.62201C6.69588 4.60096 6.72919 4.5791 6.76196 4.55645C6.79473 4.53379 6.82694 4.51035 6.85858 4.48615C6.89022 4.46194 6.92126 4.43698 6.95168 4.41128C6.9821 4.38558 7.01189 4.35914 7.04105 4.33201C7.07021 4.30487 7.0987 4.27704 7.12651 4.2485C7.15433 4.22 7.18142 4.19083 7.20781 4.161C7.23422 4.13117 7.2599 4.10072 7.28482 4.06966C7.30975 4.03859 7.33392 4.00695 7.35731 3.97472C7.38071 3.94249 7.40332 3.90972 7.42512 3.8764C7.44695 3.84308 7.46796 3.80926 7.48812 3.77491C7.50831 3.74058 7.52766 3.70579 7.54615 3.67052C7.56465 3.63526 7.58229 3.59956 7.59907 3.56344C7.61585 3.52733 7.63174 3.49082 7.64674 3.45393C7.66176 3.41706 7.67588 3.37983 7.68907 3.34226C7.7023 3.3047 7.7146 3.26683 7.72596 3.22867C7.73736 3.19052 7.7478 3.15211 7.75733 3.11344C7.76686 3.07478 7.77544 3.03593 7.78309 2.99684C7.79074 2.95777 7.79744 2.91853 7.80318 2.87912C7.80895 2.83974 7.81375 2.80022 7.81758 2.76058C7.82143 2.72096 7.82431 2.68125 7.82623 2.64146C7.82816 2.60171 7.82911 2.56191 7.82911 2.52208C7.82911 2.48226 7.82816 2.44248 7.82623 2.40271C7.82431 2.36293 7.82143 2.32323 7.81758 2.28359C7.81375 2.24397 7.80895 2.20447 7.80318 2.16505C7.79744 2.12566 7.79074 2.08642 7.78309 2.04733C7.77544 2.00826 7.76686 1.96939 7.75733 1.93073C7.7478 1.89208 7.73736 1.85365 7.72596 1.8155C7.7146 1.77734 7.7023 1.73948 7.68907 1.70191C7.67588 1.66435 7.66176 1.62713 7.64674 1.59024C7.63174 1.55336 7.61585 1.51686 7.59907 1.48074C7.58229 1.44462 7.56465 1.40893 7.54615 1.37366C7.52766 1.3384 7.50831 1.3036 7.48812 1.26926C7.46796 1.23493 7.44695 1.2011 7.42512 1.16778C7.40332 1.13446 7.38071 1.10169 7.35731 1.06946C7.33392 1.03723 7.30975 1.00558 7.28482 0.974518C7.2599 0.943454 7.23422 0.913011 7.20781 0.883185C7.18142 0.853359 7.15433 0.824188 7.12651 0.795671C7.0987 0.767152 7.07021 0.73932 7.04105 0.712178C7.01189 0.685034 6.9821 0.65861 6.95168 0.632904C6.92126 0.607197 6.89022 0.582241 6.85858 0.558032C6.82694 0.533823 6.79473 0.51039 6.76196 0.487736C6.72919 0.46508 6.69588 0.443229 6.66206 0.42218C6.62823 0.401131 6.59393 0.380911 6.55911 0.361518C6.52432 0.342125 6.48906 0.323583 6.45336 0.30589C6.41767 0.288197 6.38157 0.271376 6.34504 0.255428C6.30852 0.239476 6.27165 0.224417 6.23441 0.210247C6.19718 0.196075 6.1596 0.18281 6.12172 0.170451C6.08385 0.158092 6.04569 0.146654 6.00725 0.136136C5.96882 0.125618 5.93015 0.116033 5.89124 0.107381C5.85236 0.0987289 5.81328 0.0910195 5.774 0.084253C5.73474 0.0774863 5.69532 0.0716704 5.65577 0.0668054C5.61622 0.0619401 5.57658 0.0580314 5.53682 0.055079C5.4971 0.0521266 5.45732 0.050134 5.41746 0.0491014L2.54007 0.0491014C2.4989 0.0480339 2.45773 0.0479931 2.41654 0.048979C2.37537 0.0499651 2.33425 0.0519764 2.29317 0.0550131C2.2521 0.0580498 2.21113 0.0621083 2.17024 0.0671884C2.12937 0.0722684 2.08865 0.0783639 2.04808 0.0854747C2.00751 0.0925854 1.96714 0.100703 1.92697 0.109826C1.88682 0.11895 1.8469 0.129069 1.80724 0.140183C1.76759 0.151297 1.72822 0.163392 1.68918 0.176469C1.65012 0.189545 1.61142 0.203588 1.57306 0.218594C1.53471 0.2336 1.49676 0.249553 1.4592 0.266454C1.42165 0.283353 1.38454 0.301177 1.34787 0.319927C1.3112 0.338676 1.27503 0.358328 1.23935 0.378883C1.20366 0.399436 1.16851 0.420866 1.1339 0.443174C1.09929 0.46548 1.06525 0.488635 1.03179 0.512639C0.998336 0.536642 0.9655 0.561465 0.933282 0.587107C0.901064 0.612747 0.869508 0.639177 0.838611 0.666393C0.807713 0.693606 0.777514 0.721574 0.748014 0.750296C0.718515 0.779016 0.68975 0.808456 0.661721 0.838611C0.633691 0.868767 0.606432 0.899601 0.579942 0.931117C0.553453 0.96263 0.527766 0.994785 0.502882 1.02758C0.477999 1.06038 0.45395 1.09377 0.430734 1.12777C0.40752 1.16176 0.385168 1.19632 0.363678 1.23142C0.342188 1.26653 0.321588 1.30216 0.301878 1.33829C0.282168 1.37443 0.263372 1.41104 0.245491 1.44811C0.227611 1.48518 0.210665 1.52268 0.194656 1.5606C0.178647 1.59852 0.163595 1.63681 0.149499 1.67547C0.135403 1.71415 0.122281 1.75315 0.110133 1.79247C0.0979852 1.83179 0.0868261 1.8714 0.0766563 1.91127C0.0664864 1.95116 0.0573183 1.99128 0.0491518 2.0316C0.0409853 2.07195 0.0338308 2.11246 0.0276881 2.15314C0.0215455 2.19385 0.0164223 2.23467 0.0123186 2.27562C0.00821498 2.31657 0.00513599 2.35761 0.00308166 2.39869C0.00102722 2.43981 0 2.48093 0 2.52208C0 2.56324 0.00102722 2.60437 0.00308166 2.64548C0.00513599 2.68658 0.00821498 2.7276 0.0123186 2.76855C0.0164223 2.8095 0.0215455 2.85034 0.0276881 2.89103C0.0338308 2.93171 0.0409854 2.97223 0.0491519 3.01257C0.0573183 3.05291 0.0664864 3.09301 0.0766565 3.1329C0.0868263 3.17279 0.0979853 3.21238 0.110133 3.2517C0.122281 3.29103 0.135403 3.33004 0.149499 3.3687C0.163595 3.40737 0.178647 3.44566 0.194656 3.48358C0.210665 3.5215 0.227611 3.55901 0.245491 3.59607C0.263372 3.63316 0.282168 3.66977 0.301878 3.70589C0.321588 3.74203 0.342188 3.77766 0.363678 3.81275C0.385168 3.84788 0.40752 3.88242 0.430734 3.91642C0.45395 3.95041 0.477999 3.98381 0.502882 4.0166C0.527766 4.0494 0.553453 4.08156 0.579942 4.11306C0.606432 4.14459 0.633691 4.17542 0.661721 4.20557C0.68975 4.23573 0.718515 4.26517 0.748016 4.29388C0.777514 4.32262 0.807713 4.35058 0.838611 4.37779C0.869508 4.405 0.901064 4.43144 0.933282 4.45708C0.9655 4.48272 0.998336 4.50754 1.03179 4.53154C1.06525 4.55555 1.09929 4.57871 1.1339 4.60101C1.16851 4.62332 1.20366 4.64475 1.23935 4.66529C1.27503 4.68585 1.3112 4.70551 1.34787 4.72425C1.38454 4.743 1.42165 4.76083 1.4592 4.77773C1.49676 4.79464 1.53471 4.81059 1.57307 4.82559C1.61142 4.8406 1.65012 4.85464 1.68918 4.86771C1.72822 4.88079 1.76759 4.89288 1.80724 4.904C1.8469 4.91512 1.88682 4.92522 1.92697 4.93435C1.96714 4.94347 2.00751 4.95159 2.04808 4.9587C2.08865 4.96583 2.12937 4.97192 2.17024 4.977C2.21113 4.98207 2.2521 4.98614 2.29317 4.98917C2.33425 4.99221 2.37537 4.99423 2.41654 4.99519C2.45773 4.99619 2.4989 4.99614 2.54007 4.99508ZM5.35249 4.12441L2.60338 4.12441C2.57771 4.12358 2.55207 4.12215 2.52646 4.12008C2.50085 4.11802 2.47531 4.11535 2.44982 4.11206C2.42434 4.10878 2.39895 4.10488 2.37366 4.10037C2.34837 4.09588 2.32319 4.09077 2.29813 4.08504C2.27309 4.07933 2.2482 4.07302 2.22346 4.06609C2.19872 4.05919 2.17416 4.05168 2.14976 4.04359C2.12539 4.0355 2.10121 4.02682 2.07724 4.01757C2.05328 4.00831 2.02955 3.99849 2.00606 3.98808C1.98257 3.9777 1.95934 3.96674 1.93637 3.95522C1.91341 3.94372 1.89073 3.93167 1.86834 3.91906C1.84596 3.90648 1.8239 3.89334 1.80214 3.87967C1.78039 3.86602 1.75898 3.85184 1.7379 3.83714C1.71684 3.82246 1.69613 3.80727 1.6758 3.79158C1.65545 3.77589 1.6355 3.75975 1.61594 3.7431C1.59638 3.72645 1.57723 3.70935 1.55849 3.69177C1.53975 3.67423 1.52145 3.65621 1.50358 3.63777C1.4857 3.61932 1.46829 3.60046 1.45132 3.58118C1.43436 3.56191 1.41787 3.54225 1.40185 3.52217C1.38583 3.50209 1.37031 3.48165 1.35527 3.46082C1.34024 3.44001 1.32571 3.41885 1.3117 3.39733C1.29769 3.37582 1.2842 3.35398 1.27123 3.3318C1.25827 3.30965 1.24585 3.28719 1.23396 3.26442C1.22208 3.24166 1.21075 3.21863 1.19998 3.19533C1.1892 3.17202 1.179 3.14848 1.16936 3.12468C1.15972 3.10087 1.15066 3.07686 1.14217 3.05263C1.13368 3.0284 1.12579 3.00398 1.11848 2.97936C1.11117 2.95475 1.10446 2.92998 1.09834 2.90504C1.09222 2.88012 1.08671 2.85505 1.0818 2.82985C1.07689 2.80466 1.07258 2.77936 1.06889 2.75395C1.0652 2.72855 1.06212 2.70308 1.05965 2.67751C1.05718 2.65197 1.05533 2.62637 1.0541 2.60073C1.05286 2.57509 1.05225 2.54942 1.05225 2.52375C1.05225 2.49808 1.05286 2.47243 1.0541 2.44679C1.05533 2.42115 1.05718 2.39555 1.05965 2.36999C1.06212 2.34444 1.0652 2.31895 1.06889 2.29355C1.07258 2.26814 1.07689 2.24286 1.0818 2.21765C1.08671 2.19245 1.09222 2.16739 1.09834 2.14245C1.10446 2.11752 1.11117 2.09275 1.11848 2.06814C1.12579 2.04353 1.13368 2.01911 1.14217 1.99487C1.15066 1.97065 1.15972 1.94663 1.16936 1.92282C1.179 1.89903 1.1892 1.87548 1.19998 1.85217C1.21075 1.82888 1.22208 1.80586 1.23396 1.78308C1.24585 1.76033 1.25827 1.73787 1.27123 1.7157C1.2842 1.69354 1.29769 1.6717 1.3117 1.65018C1.32572 1.62866 1.34024 1.6075 1.35527 1.58668C1.37031 1.56586 1.38583 1.54542 1.40185 1.52535C1.41787 1.50527 1.43436 1.4856 1.45132 1.46632C1.46829 1.44704 1.4857 1.42818 1.50358 1.40973C1.52145 1.39129 1.53975 1.37329 1.55849 1.35573C1.57723 1.33816 1.59638 1.32106 1.61594 1.30442C1.6355 1.28777 1.65546 1.27161 1.6758 1.25593C1.69613 1.24024 1.71684 1.22505 1.7379 1.21036C1.75898 1.19567 1.78039 1.1815 1.80214 1.16784C1.8239 1.15418 1.84596 1.14105 1.86836 1.12845C1.89075 1.11585 1.91341 1.10379 1.93637 1.09228C1.95934 1.08077 1.98257 1.06982 2.00606 1.05942C2.02955 1.04903 2.05328 1.0392 2.07724 1.02995C2.10121 1.02069 2.12539 1.01202 2.14976 1.00393C2.17416 0.995834 2.19872 0.988333 2.22346 0.98142C2.2482 0.974507 2.27309 0.968192 2.29813 0.962476C2.32319 0.956759 2.34837 0.951646 2.37366 0.94714C2.39895 0.942632 2.42434 0.938736 2.44982 0.93545C2.47531 0.932162 2.50085 0.929488 2.52646 0.927429C2.55207 0.925368 2.57771 0.923925 2.60338 0.923097L5.35249 0.923097C5.37924 0.922235 5.406 0.922042 5.43276 0.92252C5.45953 0.922998 5.48627 0.924145 5.51298 0.925961C5.53969 0.927775 5.56633 0.930259 5.59292 0.933411C5.61951 0.93656 5.64599 0.940373 5.67238 0.944849C5.69877 0.949324 5.72505 0.954458 5.75117 0.96025C5.77731 0.96604 5.80329 0.972481 5.8291 0.979573C5.8549 0.986664 5.88051 0.994397 5.90594 1.00277C5.93136 1.01114 5.95657 1.02015 5.98155 1.02978C6.00652 1.03942 6.03123 1.04967 6.05569 1.06055C6.08015 1.07142 6.10432 1.0829 6.1282 1.09498C6.15209 1.10706 6.17565 1.11974 6.19889 1.133C6.22215 1.14626 6.24504 1.1601 6.26759 1.17451C6.29015 1.18892 6.31234 1.20388 6.33413 1.2194C6.35594 1.23492 6.37733 1.25097 6.39833 1.26757C6.41934 1.28416 6.43991 1.30126 6.46004 1.31888C6.48018 1.3365 6.49986 1.35462 6.51909 1.37322C6.53833 1.39183 6.55709 1.41091 6.57535 1.43045C6.59365 1.45 6.61142 1.46998 6.62868 1.49042C6.64596 1.51086 6.66271 1.53171 6.67894 1.55298C6.69516 1.57426 6.71084 1.59592 6.72599 1.61798C6.74113 1.64004 6.75571 1.66246 6.76971 1.68525C6.78373 1.70804 6.79716 1.73116 6.81003 1.75462C6.82289 1.77809 6.83513 1.80185 6.8468 1.82592C6.85848 1.85001 6.86954 1.87436 6.87997 1.89898C6.89042 1.92362 6.90023 1.94849 6.90943 1.9736C6.91862 1.99874 6.92719 2.02407 6.9351 2.04961C6.94303 2.07517 6.95031 2.10089 6.95694 2.12679C6.96359 2.15271 6.96957 2.17878 6.97489 2.20498C6.98022 2.2312 6.9849 2.25754 6.9889 2.28398C6.99292 2.31043 6.99626 2.33696 6.99893 2.36357C7.00161 2.39019 7.00361 2.41686 7.00495 2.44356C7.00629 2.47028 7.00696 2.49701 7.00696 2.52375C7.00696 2.5505 7.00629 2.57724 7.00496 2.60394C7.00363 2.63066 7.00161 2.65733 6.99893 2.68393C6.99626 2.71055 6.99292 2.73709 6.9889 2.76352C6.9849 2.78998 6.98022 2.81631 6.97489 2.84252C6.96957 2.86874 6.96359 2.89481 6.95694 2.92071C6.95031 2.94661 6.94303 2.97235 6.9351 2.99789C6.92719 3.02344 6.91862 3.04878 6.90943 3.0739C6.90023 3.09902 6.89042 3.12389 6.87997 3.14852C6.86954 3.17315 6.85848 3.19751 6.8468 3.22158C6.83513 3.24565 6.82289 3.26943 6.81003 3.29288C6.79716 3.31636 6.78373 3.33948 6.76971 3.36225C6.75571 3.38504 6.74113 3.40747 6.72599 3.42953C6.71084 3.4516 6.69516 3.47326 6.67894 3.49452C6.66271 3.51579 6.64596 3.53665 6.62868 3.5571C6.61142 3.57754 6.59365 3.59752 6.57535 3.61706C6.55709 3.6366 6.53833 3.65568 6.51909 3.67428C6.49986 3.69289 6.48018 3.71102 6.46004 3.72863C6.43991 3.74624 6.41934 3.76336 6.39833 3.77994C6.37733 3.79654 6.35594 3.81259 6.33413 3.8281C6.31234 3.84363 6.29015 3.8586 6.26759 3.873C6.24504 3.88742 6.22215 3.90125 6.19889 3.9145C6.17565 3.92777 6.15209 3.94044 6.1282 3.95252C6.10432 3.96461 6.08015 3.9761 6.05569 3.98697C6.03123 3.99784 6.00652 4.00809 5.98155 4.01772C5.95657 4.02737 5.93136 4.03638 5.90594 4.04474C5.88051 4.05313 5.8549 4.06085 5.8291 4.06794C5.80329 4.07503 5.77731 4.08148 5.75117 4.08725C5.72505 4.09305 5.69877 4.09819 5.67238 4.10265C5.64599 4.10715 5.61951 4.11096 5.59292 4.11411C5.56633 4.11725 5.53969 4.11973 5.51298 4.12155C5.48627 4.12338 5.45953 4.12453 5.43278 4.12499C5.40602 4.12548 5.37924 4.12528 5.35249 4.12441ZM23.4282 4.99508L26.3656 4.99508L26.922 4.12441L23.4932 4.12441C23.4665 4.12528 23.4397 4.12548 23.4129 4.12499C23.3862 4.12453 23.3594 4.12338 23.3327 4.12155C23.3061 4.11973 23.2794 4.11725 23.2527 4.11411C23.2262 4.11096 23.1998 4.10715 23.1733 4.10265C23.1469 4.09819 23.1206 4.09305 23.0945 4.08725C23.0685 4.08148 23.0425 4.07503 23.0165 4.06794C22.9908 4.06085 22.9652 4.05313 22.9397 4.04474C22.9143 4.03638 22.889 4.02737 22.864 4.01772C22.8392 4.00809 22.8145 3.99784 22.7899 3.98697C22.7656 3.9761 22.7414 3.96461 22.7174 3.95252C22.6936 3.94044 22.6701 3.92777 22.6468 3.9145C22.6236 3.90125 22.6008 3.88742 22.5781 3.873C22.5556 3.8586 22.5335 3.84363 22.5115 3.8281C22.4898 3.81259 22.4683 3.79654 22.4473 3.77994C22.4263 3.76336 22.4058 3.74624 22.3857 3.72863C22.3655 3.71102 22.3459 3.69289 22.3265 3.67428C22.3074 3.65568 22.2886 3.6366 22.2702 3.61706C22.2521 3.59752 22.2342 3.57754 22.2169 3.5571C22.1997 3.53665 22.1831 3.51581 22.1668 3.49453C22.1506 3.47326 22.1349 3.4516 22.1196 3.42953C22.1046 3.40748 22.09 3.38506 22.076 3.36225C22.062 3.33948 22.0486 3.31636 22.0356 3.29288C22.0228 3.26943 22.0105 3.24565 21.9988 3.22158C21.9872 3.19751 21.9762 3.17315 21.9657 3.14852C21.9553 3.12389 21.9455 3.09902 21.9362 3.0739C21.9272 3.04878 21.9185 3.02344 21.9105 2.99789C21.9027 2.97235 21.8953 2.94661 21.8887 2.92071C21.882 2.89481 21.876 2.86874 21.8707 2.84252C21.8654 2.81631 21.8607 2.78998 21.8567 2.76352C21.8527 2.73709 21.8494 2.71055 21.8467 2.68393C21.844 2.65733 21.842 2.63066 21.8407 2.60394C21.8394 2.57724 21.8387 2.5505 21.8387 2.52375C21.8387 2.49701 21.8394 2.47028 21.8407 2.44356C21.842 2.41686 21.844 2.39019 21.8467 2.36357C21.8494 2.33696 21.8527 2.31043 21.8567 2.28398C21.8607 2.25754 21.8654 2.2312 21.8707 2.20498C21.876 2.17878 21.882 2.15271 21.8887 2.12679C21.8953 2.10089 21.9027 2.07517 21.9105 2.04961C21.9185 2.02407 21.9272 1.99874 21.9362 1.9736C21.9455 1.94849 21.9553 1.92362 21.9657 1.89898C21.9762 1.87436 21.9872 1.85001 21.9988 1.82592C22.0105 1.80185 22.0228 1.77809 22.0356 1.75462C22.0486 1.73116 22.062 1.70804 22.076 1.68525C22.09 1.66246 22.1046 1.64004 22.1196 1.61798C22.1349 1.59592 22.1506 1.57426 22.1668 1.55298C22.1831 1.53171 22.1997 1.51085 22.2169 1.49042C22.2342 1.46998 22.2521 1.44999 22.2702 1.43045C22.2886 1.4109 22.3074 1.39183 22.3265 1.37322C22.3459 1.35462 22.3655 1.3365 22.3857 1.31888C22.4058 1.30126 22.4263 1.28416 22.4473 1.26757C22.4683 1.25097 22.4898 1.23492 22.5115 1.2194C22.5335 1.20388 22.5556 1.18892 22.5781 1.17451C22.6008 1.1601 22.6236 1.14626 22.6468 1.133C22.6701 1.11974 22.6936 1.10706 22.7174 1.09498C22.7414 1.0829 22.7656 1.07142 22.7899 1.06055C22.8145 1.04967 22.8392 1.03942 22.864 1.02978C22.889 1.02015 22.9143 1.01114 22.9397 1.00277C22.9652 0.994397 22.9908 0.986664 23.0165 0.979573C23.0425 0.972481 23.0685 0.96604 23.0945 0.96025C23.1206 0.954458 23.1469 0.949324 23.1733 0.944849C23.1998 0.940373 23.2262 0.936559 23.2527 0.933409C23.2794 0.930259 23.3061 0.927775 23.3327 0.925961C23.3594 0.924145 23.3862 0.922998 23.4129 0.92252C23.4397 0.922042 23.4665 0.922235 23.4932 0.923097L26.2839 0.923097L26.8471 0.0491014L23.4282 0.0491014C23.387 0.0480339 23.3459 0.0479931 23.3047 0.048979C23.2636 0.0499649 23.2224 0.0519762 23.1813 0.0550131C23.1403 0.0580498 23.0993 0.0621083 23.0583 0.0671883C23.0175 0.0722684 22.9768 0.0783639 22.9362 0.0854746C22.8957 0.0925852 22.8554 0.100703 22.815 0.109826C22.7751 0.11895 22.7351 0.129069 22.6954 0.140183C22.6558 0.151297 22.6164 0.163392 22.5773 0.176469C22.5383 0.189545 22.4995 0.203588 22.4612 0.218594C22.4228 0.2336 22.385 0.249553 22.3474 0.266454C22.3099 0.283351 22.2727 0.301176 22.2359 0.319927C22.1992 0.338676 22.1631 0.358328 22.1274 0.378883C22.0918 0.399436 22.0566 0.420866 22.022 0.443174C21.9875 0.46548 21.9535 0.488635 21.9198 0.512639C21.8865 0.536642 21.8537 0.561465 21.8214 0.587107C21.7892 0.612747 21.7577 0.639177 21.7267 0.666393C21.6959 0.693606 21.6658 0.721574 21.6361 0.750296C21.6068 0.779016 21.578 0.808454 21.5498 0.838611C21.5218 0.868767 21.4946 0.899601 21.468 0.931115C21.4417 0.962629 21.416 0.994785 21.391 1.02758C21.3662 1.06038 21.3422 1.09377 21.3189 1.12777C21.2957 1.16176 21.2734 1.19632 21.2517 1.23142C21.2304 1.26653 21.2097 1.30216 21.1899 1.33829C21.1703 1.37443 21.1516 1.41104 21.1336 1.44811C21.1158 1.48518 21.0988 1.52268 21.0828 1.5606C21.0668 1.59852 21.0518 1.63681 21.0376 1.67547C21.0236 1.71415 21.0105 1.75315 20.9983 1.79247C20.9861 1.83179 20.975 1.8714 20.9648 1.91127C20.9547 1.95116 20.9455 1.99128 20.9373 2.0316C20.9292 2.07195 20.922 2.11246 20.9158 2.15314C20.9097 2.19385 20.9045 2.23467 20.9005 2.27562C20.8965 2.31657 20.8933 2.35761 20.8912 2.39869C20.8892 2.43981 20.8882 2.48093 20.8882 2.52208C20.8882 2.56324 20.8892 2.60437 20.8912 2.64548C20.8933 2.68658 20.8965 2.7276 20.9005 2.76855C20.9045 2.8095 20.9097 2.85034 20.9158 2.89103C20.922 2.93171 20.9292 2.97223 20.9373 3.01257C20.9455 3.05291 20.9547 3.09301 20.9648 3.1329C20.975 3.17279 20.9861 3.21238 20.9983 3.2517C21.0105 3.29103 21.0236 3.33004 21.0376 3.3687C21.0518 3.40737 21.0668 3.44566 21.0828 3.48358C21.0988 3.5215 21.1158 3.55901 21.1336 3.59607C21.1516 3.63316 21.1703 3.66977 21.1899 3.70589C21.2097 3.74203 21.2304 3.77766 21.2517 3.81275C21.2734 3.84788 21.2957 3.88242 21.3189 3.91642C21.3422 3.95041 21.3662 3.98381 21.391 4.0166C21.416 4.0494 21.4417 4.08156 21.468 4.11306C21.4946 4.14459 21.5218 4.17542 21.5498 4.20557C21.578 4.23573 21.6068 4.26517 21.6361 4.29388C21.6658 4.32262 21.6959 4.35058 21.7267 4.37779C21.7577 4.405 21.7892 4.43144 21.8214 4.45708C21.8537 4.48272 21.8865 4.50754 21.9198 4.53154C21.9535 4.55555 21.9875 4.57871 22.022 4.60101C22.0566 4.62332 22.0918 4.64475 22.1274 4.66529C22.1631 4.68585 22.1992 4.70551 22.2359 4.72425C22.2727 4.743 22.3099 4.76083 22.3474 4.77773C22.385 4.79464 22.4228 4.81059 22.4612 4.82559C22.4995 4.8406 22.5383 4.85464 22.5773 4.86771C22.6164 4.88079 22.6558 4.89288 22.6954 4.904C22.7351 4.91512 22.7751 4.92522 22.815 4.93435C22.8554 4.94347 22.8957 4.95159 22.9362 4.9587C22.9768 4.96583 23.0175 4.97192 23.0583 4.977C23.0993 4.98207 23.1403 4.98614 23.1813 4.98917C23.2224 4.99221 23.2636 4.99423 23.3047 4.99519C23.3459 4.99619 23.387 4.99614 23.4282 4.99508ZM35.0694 4.12441C35.0261 4.12443 34.9829 4.1227 34.9398 4.11922C34.8968 4.11574 34.8538 4.11053 34.811 4.10357C34.7683 4.09661 34.726 4.08794 34.6838 4.07755C34.6419 4.06718 34.6004 4.05511 34.5594 4.04136C34.5184 4.02762 34.4779 4.01224 34.4381 3.99523C34.3984 3.97821 34.3593 3.95962 34.321 3.93944C34.2828 3.91926 34.2455 3.89759 34.2088 3.87438C34.1723 3.85117 34.1368 3.82654 34.1022 3.80047C34.0677 3.7744 34.0344 3.74696 34.0021 3.71818C33.9697 3.68941 33.9387 3.65936 33.9088 3.62806C33.8789 3.59677 33.8504 3.56432 33.8231 3.53071C33.796 3.49711 33.7701 3.46245 33.7456 3.42675C33.7213 3.39105 33.6983 3.35443 33.6768 3.31687C33.6555 3.27931 33.6355 3.24096 33.617 3.2018C33.5987 3.16265 33.582 3.12279 33.5669 3.08227C33.5519 3.04175 33.5384 3.0007 33.5266 2.95908L37.5952 2.95908L38.155 2.08675L33.5266 2.08675C33.5384 2.04513 33.5519 2.00406 33.5669 1.96351C33.582 1.92299 33.5987 1.88312 33.617 1.84393C33.6353 1.80476 33.6553 1.76639 33.6767 1.7288C33.6982 1.69124 33.721 1.6546 33.7453 1.61889C33.7698 1.58317 33.7956 1.54851 33.8228 1.51489C33.8501 1.48126 33.8786 1.4488 33.9084 1.41749C33.9384 1.38619 33.9694 1.35614 34.0017 1.32735C34.034 1.29856 34.0675 1.27113 34.102 1.24505C34.1367 1.21896 34.1722 1.19432 34.2085 1.17112C34.2451 1.14792 34.2825 1.12624 34.3208 1.10607C34.3591 1.0859 34.3983 1.06731 34.4379 1.0503C34.4777 1.03329 34.5182 1.01793 34.5592 1.0042C34.6002 0.990465 34.6419 0.978417 34.6838 0.968053C34.7258 0.957688 34.7683 0.949039 34.811 0.942109C34.8536 0.935177 34.8966 0.929986 34.9398 0.926535C34.9829 0.923083 35.0261 0.921383 35.0694 0.921433L37.8618 0.921433L38.42 0.0474366L35.0044 0.0474366C34.9646 0.0484694 34.9248 0.050462 34.8851 0.0534144C34.8455 0.0563669 34.8058 0.0602757 34.7661 0.0651409C34.7267 0.0700062 34.6872 0.075822 34.6479 0.0825887C34.6087 0.0893555 34.5695 0.0970649 34.5306 0.105717C34.4917 0.114369 34.4531 0.123955 34.4146 0.134472C34.3763 0.14499 34.3381 0.156428 34.3001 0.168788C34.2623 0.181147 34.2248 0.194412 34.1875 0.208582C34.1502 0.222752 34.1134 0.237813 34.0769 0.253763C34.0404 0.269713 34.0042 0.286534 33.9686 0.304227C33.9329 0.321918 33.8976 0.34046 33.8628 0.359855C33.8281 0.379247 33.7938 0.399468 33.7598 0.420517C33.726 0.441566 33.6927 0.463417 33.6598 0.486073C33.6272 0.508727 33.595 0.53216 33.5634 0.556369C33.5317 0.580576 33.5007 0.605534 33.4702 0.631241C33.4399 0.656947 33.4101 0.683371 33.3808 0.710515C33.3518 0.737657 33.3233 0.765489 33.2953 0.794008C33.2676 0.822525 33.2405 0.851696 33.214 0.881522C33.1877 0.911348 33.162 0.941791 33.137 0.972855C33.1122 1.00392 33.088 1.03557 33.0645 1.0678C33.0412 1.10003 33.0185 1.1328 32.9967 1.16612C32.9751 1.19944 32.9541 1.23327 32.9337 1.2676C32.9136 1.30193 32.8943 1.33673 32.8758 1.372C32.8573 1.40727 32.8396 1.44296 32.8228 1.47908C32.8061 1.51519 32.7901 1.5517 32.7751 1.58858C32.7601 1.62546 32.7461 1.66269 32.7328 1.70025C32.7196 1.73782 32.7073 1.77568 32.696 1.81383C32.6847 1.85199 32.6742 1.89041 32.6645 1.92907C32.6552 1.96772 32.6465 2.00659 32.6388 2.04567C32.6312 2.08475 32.6245 2.12399 32.6187 2.16338C32.613 2.2028 32.6082 2.24231 32.6044 2.28193C32.6005 2.32157 32.5977 2.36127 32.5957 2.40104C32.5937 2.44081 32.5927 2.4806 32.5927 2.52042C32.5927 2.56024 32.5937 2.60005 32.5957 2.6398C32.5977 2.67959 32.6005 2.71929 32.6044 2.75891C32.6082 2.79855 32.613 2.83807 32.6187 2.87746C32.6245 2.91686 32.6312 2.9561 32.6388 2.99517C32.6465 3.03426 32.6552 3.07312 32.6645 3.11177C32.6742 3.15045 32.6847 3.18885 32.696 3.22701C32.7073 3.26516 32.7196 3.30304 32.7328 3.34059C32.7461 3.37817 32.7601 3.41539 32.7751 3.45227C32.7901 3.48916 32.8061 3.52567 32.8228 3.56177C32.8396 3.5979 32.8573 3.63359 32.8758 3.66885C32.8943 3.70411 32.9136 3.73892 32.9337 3.77325C32.9541 3.80759 32.9751 3.84142 32.9967 3.87473C33.0185 3.90806 33.0412 3.94082 33.0645 3.97305C33.088 4.00528 33.1122 4.03693 33.137 4.06799C33.162 4.09906 33.1877 4.1295 33.214 4.15932C33.2405 4.18915 33.2676 4.21834 33.2953 4.24684C33.3233 4.27537 33.3518 4.30321 33.3808 4.33034C33.4101 4.35748 33.4399 4.38391 33.4702 4.40962C33.5007 4.43532 33.5317 4.46027 33.5634 4.48448C33.595 4.50869 33.6272 4.53213 33.6598 4.55478C33.6927 4.57744 33.726 4.5993 33.7598 4.62034C33.7938 4.64138 33.8281 4.66161 33.8628 4.68099C33.8976 4.7004 33.9329 4.71894 33.9686 4.73662C34.0042 4.75432 34.0404 4.77113 34.0769 4.78708C34.1134 4.80303 34.1502 4.8181 34.1875 4.83226C34.2248 4.84645 34.2623 4.85972 34.3001 4.87207C34.3381 4.88442 34.3763 4.89586 34.4146 4.90638C34.4531 4.9169 34.4917 4.92649 34.5306 4.93513C34.5695 4.94379 34.6087 4.95149 34.6479 4.95825C34.6872 4.96503 34.7267 4.97085 34.7661 4.97572C34.8058 4.98058 34.8455 4.98449 34.8851 4.98744C34.9248 4.9904 34.9646 4.99238 35.0044 4.99341L37.9418 4.99341L38.4999 4.12275L35.0677 4.12275">
</path>
</svg>
