<svg xmlns="http://www.w3.org/2000/svg" xmlns:xlink="http://www.w3.org/1999/xlink" width="76.9998550415039" height="10.000441077296273" viewBox="0 0 76.9998550415039 10.000441077296273" fill="none">
<path     fill="#C74634"  d="M33.3143 6.50083L38.3925 6.50083L35.71 2.17249L30.7784 9.99015L28.5358 9.99015L34.5337 0.610948C34.55 0.587655 34.567 0.564871 34.5847 0.54259C34.6024 0.520309 34.6207 0.498574 34.6394 0.477385C34.6583 0.456192 34.678 0.435583 34.698 0.415559C34.7183 0.395535 34.739 0.376128 34.7603 0.357339C34.7816 0.338548 34.8036 0.320409 34.826 0.302923C34.8486 0.285437 34.8713 0.268634 34.8946 0.252512C34.9179 0.236391 34.9419 0.220982 34.9662 0.206283C34.9906 0.191584 35.0152 0.177623 35.0402 0.1644C35.0655 0.151176 35.0912 0.138714 35.1169 0.127012C35.1429 0.11531 35.1692 0.10439 35.1955 0.0942516C35.2222 0.0841133 35.2492 0.0747747 35.2761 0.0662362C35.3035 0.0576973 35.3308 0.0499735 35.3581 0.0430645C35.3858 0.0361554 35.4134 0.0300739 35.4414 0.0248194C35.4694 0.0195649 35.4977 0.015147 35.5257 0.0115657C35.5541 0.0079843 35.5824 0.00524592 35.6104 0.00335043C35.639 0.00145494 35.6674 0.00040576 35.6957 0.00020288C35.7243 0 35.7527 0.000643784 35.781 0.00213423C35.8096 0.00362468 35.838 0.00595913 35.866 0.00913758C35.8943 0.0123161 35.9223 0.0163329 35.9503 0.0211881C35.9782 0.0260433 36.0062 0.0317282 36.0339 0.038243C36.0616 0.0447575 36.0889 0.0520904 36.1162 0.0602414C36.1435 0.0683923 36.1705 0.0773467 36.1972 0.0871048C36.2238 0.0968633 36.2502 0.107408 36.2762 0.118739C36.3021 0.130069 36.3278 0.142167 36.3531 0.15503C36.3788 0.167893 36.4038 0.181499 36.4281 0.195849C36.4528 0.210199 36.4768 0.225266 36.5004 0.241052C36.5241 0.256837 36.5471 0.273312 36.5697 0.290477C36.5924 0.307641 36.6147 0.325466 36.636 0.343951C36.6577 0.362433 36.6787 0.381541 36.6993 0.401279C36.72 0.421013 36.7397 0.441339 36.7587 0.462259C36.778 0.483175 36.7966 0.50465 36.8143 0.526678C36.8323 0.548703 36.8496 0.571243 36.8663 0.5943L42.881 9.99015L40.6384 9.99015L39.5821 8.24216L34.4437 8.24216L33.3241 6.50083M56.6265 8.24216L56.6265 0.0948729L54.7205 0.0948729L54.7205 9.04457C54.7205 9.10677 54.7265 9.16833 54.7388 9.22926C54.7511 9.29022 54.7694 9.34932 54.7938 9.40656C54.8181 9.46379 54.8481 9.518 54.8834 9.56917C54.9187 9.62035 54.9591 9.66746 55.0037 9.71047C55.049 9.75659 55.098 9.79774 55.1513 9.83397C55.205 9.87019 55.2616 9.90076 55.3209 9.92563C55.3806 9.95053 55.4419 9.96924 55.5052 9.98176C55.5685 9.99432 55.6325 10.0004 55.6968 10.0001L64.3606 10.0001L65.4903 8.25215L56.6165 8.25215M25.1136 6.78717C25.1684 6.78717 25.2232 6.78584 25.2779 6.78314C25.3327 6.78047 25.3873 6.77645 25.4419 6.77105C25.4964 6.76569 25.5508 6.759 25.605 6.75094C25.6592 6.74292 25.7132 6.73356 25.7669 6.72287C25.8207 6.71222 25.8741 6.7002 25.9273 6.68688C25.9805 6.6736 26.0333 6.65901 26.0857 6.6431C26.1382 6.62718 26.1902 6.61 26.2418 6.59156C26.2934 6.57311 26.3445 6.55344 26.3952 6.53246C26.4458 6.51152 26.4959 6.48934 26.5454 6.4659C26.595 6.4425 26.6439 6.41789 26.6922 6.39205C26.7406 6.36625 26.7883 6.33928 26.8353 6.31111C26.8823 6.28295 26.9286 6.25368 26.9742 6.22325C27.0197 6.19282 27.0645 6.16129 27.1085 6.12866C27.1526 6.09606 27.1958 6.0624 27.2381 6.02764C27.2805 5.99288 27.322 5.95712 27.3626 5.92036C27.4032 5.88361 27.4429 5.84585 27.4816 5.80709C27.5204 5.7684 27.5582 5.72875 27.595 5.68816C27.6318 5.64761 27.6676 5.60616 27.7024 5.56381C27.7371 5.52145 27.7708 5.4783 27.8035 5.43432C27.8361 5.39034 27.8677 5.34559 27.8981 5.30004C27.9285 5.2545 27.9579 5.20825 27.9861 5.16127C28.0143 5.11432 28.0412 5.06668 28.0671 5.01837C28.0929 4.97009 28.1176 4.92121 28.141 4.87167C28.1644 4.82219 28.1866 4.77215 28.2076 4.72154C28.2285 4.67093 28.2483 4.61986 28.2667 4.56828C28.2852 4.51674 28.3024 4.46477 28.3183 4.41236C28.3342 4.35996 28.3488 4.30718 28.3621 4.25404C28.3755 4.20094 28.3875 4.14753 28.3982 4.09383C28.4089 4.04012 28.4182 3.98619 28.4263 3.93198C28.4343 3.87784 28.441 3.82351 28.4464 3.769C28.4517 3.7145 28.4558 3.65989 28.4585 3.60519C28.4612 3.55052 28.4625 3.49578 28.4625 3.44101C28.4625 3.38628 28.4612 3.33154 28.4585 3.27684C28.4558 3.22214 28.4517 3.16755 28.4464 3.11305C28.441 3.05855 28.4343 3.00421 28.4263 2.95005C28.4182 2.89588 28.4089 2.84193 28.3982 2.78823C28.3875 2.73451 28.3755 2.6811 28.3621 2.62798C28.3488 2.57486 28.3342 2.52209 28.3183 2.46969C28.3024 2.41729 28.2852 2.36531 28.2667 2.31374C28.2483 2.26218 28.2285 2.2111 28.2076 2.16051C28.1866 2.10992 28.1644 2.05987 28.141 2.01036C28.1176 1.96086 28.0929 1.91196 28.0671 1.86366C28.0412 1.81536 28.0143 1.76773 27.9861 1.72076C27.9579 1.67379 27.9285 1.62754 27.8981 1.58201C27.8677 1.53647 27.8361 1.49171 27.8035 1.44773C27.7708 1.40374 27.7371 1.36058 27.7024 1.31825C27.6676 1.27592 27.6318 1.23446 27.595 1.19389C27.5582 1.15331 27.5204 1.11366 27.4816 1.07494C27.4429 1.03622 27.4032 0.998466 27.3626 0.961691C27.322 0.924914 27.2805 0.889155 27.2381 0.854415C27.1958 0.819675 27.1526 0.785993 27.1085 0.753371C27.0645 0.720748 27.0197 0.689228 26.9742 0.658803C26.9286 0.628378 26.8823 0.599088 26.8353 0.570937C26.7883 0.542783 26.7406 0.515797 26.6922 0.489984C26.6439 0.464167 26.595 0.439555 26.5454 0.416142C26.4959 0.392725 26.4458 0.370541 26.3952 0.349585C26.3445 0.328627 26.2934 0.308924 26.2418 0.290475C26.1902 0.272027 26.1382 0.254854 26.0857 0.238957C26.0333 0.22306 25.9805 0.208459 25.9273 0.195153C25.8741 0.181847 25.8207 0.169852 25.7669 0.159168C25.7132 0.148485 25.6592 0.139125 25.605 0.13109C25.5508 0.123055 25.4964 0.116353 25.4419 0.110985C25.3873 0.105618 25.3327 0.101591 25.2779 0.0989036C25.2232 0.0962164 25.1684 0.0948729 25.1136 0.0948729L16.783 0.0948729L16.783 9.99015L18.6857 9.99015L18.6857 1.84619L24.997 1.84619C25.0232 1.84619 25.0494 1.84684 25.0756 1.84812C25.1018 1.84941 25.128 1.85134 25.1541 1.85391C25.1802 1.85648 25.2062 1.85968 25.2322 1.86353C25.2581 1.86737 25.2839 1.87185 25.3097 1.87697C25.3354 1.88208 25.361 1.88782 25.3864 1.89419C25.4119 1.90056 25.4372 1.90754 25.4623 1.91516C25.4874 1.92276 25.5123 1.93098 25.5369 1.93981C25.5617 1.94864 25.5861 1.95807 25.6103 1.9681C25.6346 1.97813 25.6586 1.98875 25.6822 1.99995C25.706 2.01116 25.7294 2.02294 25.7525 2.0353C25.7756 2.04765 25.7985 2.06057 25.821 2.07404C25.8435 2.08751 25.8657 2.10153 25.8874 2.11609C25.9093 2.13065 25.9307 2.14574 25.9518 2.16136C25.9729 2.17697 25.9935 2.19309 26.0138 2.20972C26.0341 2.22634 26.0539 2.24346 26.0734 2.26106C26.0928 2.27866 26.1118 2.29673 26.1303 2.31526C26.1489 2.33379 26.167 2.35277 26.1846 2.37219C26.2022 2.39161 26.2193 2.41145 26.236 2.43171C26.2526 2.45197 26.2687 2.47263 26.2843 2.49368C26.3 2.51473 26.3151 2.53615 26.3297 2.55795C26.3442 2.57974 26.3583 2.60188 26.3718 2.62436C26.3853 2.64684 26.3982 2.66964 26.4105 2.69275C26.4229 2.71586 26.4347 2.73927 26.4459 2.76296C26.4571 2.78665 26.4678 2.81061 26.4778 2.83482C26.4878 2.85903 26.4972 2.88348 26.5061 2.90816C26.5149 2.93284 26.5232 2.95772 26.5308 2.9828C26.5384 3.00788 26.5454 3.03313 26.5517 3.05856C26.5581 3.08398 26.5639 3.10954 26.569 3.13525C26.5741 3.16095 26.5786 3.18677 26.5824 3.2127C26.5863 3.23862 26.5895 3.26463 26.5921 3.29071C26.5946 3.3168 26.5966 3.34293 26.5978 3.36909C26.5991 3.39526 26.5998 3.42147 26.5998 3.44767C26.5998 3.47391 26.5991 3.50008 26.5978 3.52625C26.5966 3.55245 26.5946 3.57859 26.5921 3.60466C26.5895 3.63076 26.5863 3.65676 26.5824 3.68267C26.5786 3.7086 26.5741 3.73441 26.569 3.76011C26.5639 3.78582 26.5581 3.81139 26.5518 3.83679C26.5454 3.86223 26.5384 3.8875 26.5308 3.91257C26.5232 3.93767 26.5149 3.96255 26.5061 3.98718C26.4972 4.01189 26.4878 4.03633 26.4778 4.06053C26.4678 4.08477 26.4571 4.10871 26.4459 4.13238C26.4347 4.15609 26.4229 4.1795 26.4105 4.2026C26.3982 4.22574 26.3853 4.24855 26.3718 4.27099C26.3583 4.2935 26.3442 4.31564 26.3297 4.33742C26.3151 4.35922 26.3 4.38063 26.2843 4.40167C26.2687 4.42275 26.2526 4.44339 26.236 4.46364C26.2193 4.48391 26.2022 4.50376 26.1846 4.52317C26.167 4.54261 26.1489 4.56159 26.1303 4.5801C26.1118 4.59865 26.0928 4.61673 26.0734 4.63431C26.0539 4.65192 26.0341 4.66903 26.0138 4.68565C25.9935 4.7023 25.9729 4.71841 25.9518 4.73399C25.9307 4.74964 25.9093 4.76472 25.8874 4.77927C25.8657 4.79386 25.8435 4.80787 25.821 4.82133C25.7985 4.83481 25.7757 4.84773 25.7525 4.86005C25.7294 4.87243 25.706 4.88422 25.6822 4.89541C25.6586 4.90663 25.6346 4.91725 25.6103 4.92727C25.5861 4.93729 25.5617 4.94672 25.5369 4.95554C25.5123 4.9644 25.4874 4.97262 25.4623 4.98021C25.4372 4.98783 25.4119 4.99483 25.3864 5.00115C25.361 5.00755 25.3354 5.01327 25.3097 5.0184C25.2839 5.02353 25.2581 5.02799 25.2322 5.03182C25.2062 5.03568 25.1802 5.03891 25.1541 5.04144C25.128 5.04404 25.1018 5.04597 25.0756 5.04723C25.0494 5.04853 25.0232 5.04916 24.997 5.04916L19.6287 5.04916L25.3135 9.99015L28.076 9.99015L24.2572 6.78717L25.1136 6.78717ZM5.08014 9.99015L10.8349 9.99015C10.9146 9.98809 10.9942 9.98413 11.0737 9.9782C11.1532 9.97231 11.2324 9.96448 11.3115 9.95476C11.3906 9.94504 11.4695 9.93338 11.548 9.91987C11.6266 9.90635 11.7047 9.8909 11.7825 9.87359C11.8603 9.85631 11.9376 9.83713 12.0145 9.81609C12.0914 9.79504 12.1677 9.77217 12.2434 9.74747C12.3192 9.72276 12.3944 9.69622 12.4688 9.66786C12.5433 9.63952 12.617 9.60939 12.6901 9.57749C12.7631 9.5456 12.8353 9.51197 12.9067 9.47658C12.9781 9.44122 13.0486 9.40413 13.1182 9.36534C13.1879 9.32655 13.2565 9.2861 13.3241 9.24401C13.3918 9.20193 13.4584 9.15821 13.5239 9.1129C13.5895 9.06758 13.6539 9.0207 13.7172 8.97229C13.7804 8.92388 13.8425 8.87397 13.9034 8.82256C13.9642 8.77115 14.0238 8.71828 14.0821 8.66401C14.1404 8.60974 14.1974 8.55407 14.253 8.497C14.3087 8.44 14.3628 8.38167 14.4156 8.322C14.4684 8.26234 14.5198 8.20144 14.5696 8.13931C14.6195 8.07718 14.6678 8.01389 14.7146 7.94943C14.7614 7.88497 14.8066 7.81945 14.8503 7.75279C14.8939 7.68617 14.9359 7.61851 14.9762 7.54982C15.0166 7.48117 15.0553 7.41158 15.0923 7.34103C15.1293 7.27051 15.1646 7.19913 15.1981 7.12688C15.2317 7.05466 15.2635 6.98164 15.2935 6.90786C15.3235 6.83411 15.3518 6.75967 15.3781 6.68452C15.4046 6.6094 15.4292 6.53366 15.4519 6.45735C15.4747 6.38103 15.4956 6.30422 15.5147 6.22688C15.5337 6.14957 15.5509 6.07186 15.5662 5.99368C15.5815 5.91554 15.5949 5.83706 15.6064 5.75825C15.6179 5.67947 15.6275 5.60043 15.6352 5.52116C15.6429 5.44191 15.6486 5.3625 15.6525 5.28293C15.6563 5.20342 15.6582 5.12381 15.6582 5.04417C15.6582 4.96453 15.6563 4.88495 15.6525 4.80541C15.6486 4.72587 15.6429 4.64646 15.6352 4.56718C15.6275 4.48794 15.6179 4.40893 15.6064 4.33009C15.5949 4.25131 15.5815 4.17284 15.5662 4.09466C15.5509 4.01652 15.5337 3.93877 15.5147 3.86146C15.4956 3.78415 15.4747 3.70731 15.4519 3.63099C15.4292 3.55468 15.4046 3.47897 15.3781 3.40382C15.3518 3.3287 15.3235 3.25425 15.2935 3.18049C15.2635 3.10672 15.2317 3.03372 15.1981 2.96148C15.1646 2.88924 15.1293 2.81786 15.0923 2.74733C15.0553 2.6768 15.0166 2.6072 14.9762 2.53853C14.9359 2.46986 14.8939 2.40221 14.8503 2.33557C14.8066 2.26893 14.7614 2.20338 14.7146 2.13892C14.6678 2.07446 14.6195 2.01117 14.5696 1.94904C14.5198 1.88691 14.4684 1.82602 14.4156 1.76637C14.3628 1.70672 14.3087 1.64838 14.253 1.59134C14.1974 1.5343 14.1404 1.47864 14.0821 1.42436C14.0238 1.37007 13.9642 1.31722 13.9034 1.26581C13.8425 1.21439 13.7804 1.16448 13.7172 1.11606C13.6539 1.06765 13.5895 1.02078 13.5239 0.975472C13.4584 0.930161 13.3918 0.886458 13.3241 0.84436C13.2565 0.802261 13.1879 0.761821 13.1182 0.723036C13.0486 0.68425 12.9781 0.647166 12.9067 0.61178C12.8353 0.576394 12.7631 0.542753 12.6901 0.510856C12.617 0.478953 12.5433 0.448834 12.4688 0.420493C12.3944 0.392149 12.3192 0.36562 12.2434 0.340902C12.1677 0.316184 12.0914 0.293308 12.0145 0.272272C11.9376 0.251237 11.8603 0.232067 11.7825 0.214762C11.7047 0.197458 11.6266 0.182039 11.548 0.168506C11.4695 0.154973 11.3906 0.143341 11.3115 0.133611C11.2324 0.12388 11.1532 0.116063 11.0737 0.110158C10.9942 0.104253 10.9146 0.100268 10.8349 0.0982028L5.08014 0.0982028C4.9978 0.0960679 4.91546 0.0959863 4.83309 0.097958C4.75075 0.0999301 4.66851 0.103953 4.58634 0.110026C4.5042 0.1161 4.42226 0.124217 4.34048 0.134377C4.25874 0.144537 4.1773 0.156728 4.09616 0.170949C4.01502 0.185171 3.93428 0.201405 3.85394 0.219653C3.77363 0.2379 3.69379 0.258138 3.61449 0.280366C3.53518 0.302594 3.45644 0.326784 3.37836 0.352938C3.30024 0.379091 3.22283 0.407175 3.14613 0.437188C3.06942 0.4672 2.99352 0.499106 2.9184 0.532908C2.84329 0.566705 2.76907 0.602354 2.69574 0.639855C2.62241 0.677352 2.55006 0.716656 2.47869 0.757766C2.40732 0.798872 2.33703 0.841733 2.2678 0.886348C2.19857 0.93096 2.1305 0.97727 2.06359 1.02528C1.99667 1.07328 1.931 1.12293 1.86656 1.17421C1.80213 1.22549 1.73902 1.27835 1.67722 1.33279C1.61543 1.38721 1.55503 1.44315 1.49603 1.50059C1.43703 1.55803 1.3795 1.61691 1.32344 1.67722C1.26738 1.73753 1.21286 1.7992 1.15988 1.86223C1.10691 1.92526 1.05553 1.98957 1.00576 2.05516C0.955998 2.12076 0.9079 2.18755 0.861469 2.25553C0.81504 2.32352 0.770335 2.39263 0.727356 2.46285C0.684376 2.53307 0.643177 2.60431 0.603756 2.67659C0.564336 2.74886 0.526745 2.82207 0.490983 2.89622C0.455221 2.97037 0.421329 3.04536 0.389313 3.1212C0.357293 3.19704 0.32719 3.27363 0.298998 3.35095C0.270806 3.42829 0.244562 3.5063 0.220266 3.58495C0.19597 3.66359 0.173652 3.7428 0.153313 3.82254C0.132973 3.90232 0.114637 3.98256 0.0983036 4.0632C0.0819706 4.1439 0.0676616 4.22491 0.0553763 4.30628C0.0430909 4.38769 0.0328446 4.46933 0.0246373 4.55124C0.01643 4.63314 0.010272 4.71521 0.00616332 4.79739C0.00205444 4.87963 0 4.96186 0 5.04417C0 5.12648 0.00205444 5.20875 0.00616332 5.29095C0.010272 5.37316 0.01643 5.4552 0.0246373 5.5371C0.0328446 5.61901 0.0430909 5.70068 0.0553763 5.78206C0.0676616 5.86343 0.0819709 5.94447 0.0983039 6.02514C0.114637 6.10582 0.132973 6.18602 0.153313 6.2658C0.173653 6.34557 0.195971 6.42475 0.220266 6.50339C0.244562 6.58207 0.270806 6.66008 0.298998 6.73739C0.32719 6.81474 0.357293 6.89131 0.389313 6.96716C0.421329 7.04301 0.455221 7.11802 0.490983 7.19213C0.526745 7.26632 0.564336 7.33953 0.603756 7.41178C0.643177 7.48407 0.684376 7.55532 0.727356 7.6255C0.770335 7.69576 0.81504 7.76484 0.861469 7.83283C0.9079 7.90082 0.955998 7.96761 1.00576 8.0332C1.05553 8.09879 1.10691 8.16312 1.15988 8.22611C1.21286 8.28918 1.26738 8.35084 1.32344 8.41113C1.3795 8.47147 1.43703 8.53033 1.49603 8.58776C1.55503 8.64523 1.61543 8.70117 1.67722 8.75557C1.73902 8.81001 1.80213 8.86288 1.86656 8.91416C1.931 8.96543 1.99667 9.01507 2.06359 9.06309C2.1305 9.1111 2.19857 9.15741 2.2678 9.20203C2.33703 9.24664 2.40732 9.28949 2.47869 9.33058C2.55006 9.3717 2.62241 9.41102 2.69574 9.44851C2.76907 9.486 2.84329 9.52166 2.9184 9.55545C2.99352 9.58928 3.06943 9.62118 3.14613 9.65118C3.22284 9.68121 3.30024 9.70928 3.37836 9.73541C3.45644 9.76158 3.53518 9.78576 3.61449 9.808C3.69379 9.83024 3.77363 9.85045 3.85394 9.86869C3.93428 9.88694 4.01502 9.90319 4.09616 9.9174C4.1773 9.93165 4.25874 9.94384 4.34048 9.95399C4.42226 9.96415 4.5042 9.97227 4.58634 9.97833C4.66851 9.98443 4.75075 9.98845 4.83309 9.99039C4.91546 9.99238 4.9978 9.99228 5.08014 9.99015ZM10.705 8.24882L5.20677 8.24882C5.15542 8.24716 5.10413 8.24429 5.05292 8.24016C5.0017 8.23604 4.95062 8.23071 4.89963 8.22412C4.84868 8.21756 4.7979 8.20977 4.74732 8.20074C4.69673 8.19175 4.64638 8.18153 4.59627 8.17008C4.54618 8.15866 4.4964 8.14604 4.44691 8.13219C4.39743 8.11837 4.34831 8.10335 4.29953 8.08717C4.25078 8.07099 4.20243 8.05365 4.15448 8.03513C4.10656 8.01662 4.05911 7.99698 4.01212 7.97617C3.96514 7.95539 3.91869 7.93348 3.87274 7.91044C3.82682 7.88744 3.78147 7.86333 3.73668 7.83813C3.69193 7.81295 3.64781 7.78668 3.60429 7.75935C3.56077 7.73205 3.51795 7.70368 3.4758 7.67428C3.43368 7.64491 3.39226 7.61455 3.35161 7.58315C3.31091 7.55179 3.27101 7.51949 3.23188 7.4862C3.19276 7.4529 3.15446 7.41871 3.11699 7.38355C3.07951 7.34846 3.0429 7.31243 3.00715 7.27554C2.97141 7.23865 2.93657 7.20092 2.90264 7.16237C2.86871 7.12381 2.83573 7.08449 2.8037 7.04434C2.77166 7.00418 2.74061 6.9633 2.71054 6.92165C2.68048 6.88003 2.65143 6.83771 2.6234 6.79466C2.59537 6.75164 2.56839 6.70796 2.54247 6.66361C2.51654 6.61929 2.49169 6.57438 2.46793 6.52883C2.44416 6.48332 2.42151 6.43727 2.39996 6.39066C2.37841 6.34404 2.358 6.29696 2.33872 6.24935C2.31944 6.20174 2.30131 6.15373 2.28434 6.10525C2.26737 6.05681 2.25157 6.00796 2.23696 5.95872C2.22234 5.90951 2.20891 5.85997 2.19668 5.81009C2.18444 5.76025 2.17341 5.7101 2.16359 5.6597C2.15377 5.60932 2.14517 5.55871 2.13778 5.5079C2.1304 5.4571 2.12424 5.40615 2.1193 5.35501C2.11437 5.30394 2.11067 5.25273 2.1082 5.20146C2.10573 5.15018 2.1045 5.09884 2.1045 5.0475C2.1045 4.99616 2.10573 4.94485 2.1082 4.89358C2.11067 4.8423 2.11437 4.79109 2.1193 4.73999C2.12424 4.68888 2.1304 4.6379 2.13778 4.5871C2.14517 4.53629 2.15377 4.48571 2.16359 4.4353C2.17342 4.38489 2.18445 4.33478 2.19668 4.28491C2.20891 4.23503 2.22234 4.18549 2.23696 4.13628C2.25158 4.08707 2.26737 4.03823 2.28434 3.98975C2.30131 3.9413 2.31944 3.89326 2.33872 3.84565C2.358 3.79807 2.37841 3.75096 2.39996 3.70434C2.42151 3.65776 2.44416 3.61172 2.46793 3.56617C2.49169 3.52065 2.51654 3.47574 2.54247 3.43139C2.56839 3.38707 2.59537 3.34339 2.6234 3.30036C2.65143 3.25733 2.68048 3.215 2.71054 3.17336C2.74061 3.13172 2.77166 3.09083 2.8037 3.05069C2.83573 3.01054 2.86871 2.97119 2.90264 2.93264C2.93657 2.89407 2.97141 2.85635 3.00715 2.81947C3.0429 2.78258 3.07951 2.74658 3.11699 2.71145C3.15446 2.67632 3.19276 2.64212 3.23188 2.60883C3.27101 2.57554 3.31091 2.54322 3.35161 2.51185C3.39226 2.48048 3.43368 2.45011 3.4758 2.42073C3.51795 2.39135 3.56077 2.363 3.60429 2.33568C3.64781 2.30836 3.69193 2.28209 3.73671 2.2569C3.7815 2.23169 3.82682 2.20758 3.87274 2.18456C3.91869 2.16154 3.96514 2.13963 4.01212 2.11884C4.05911 2.09806 4.10656 2.0784 4.15448 2.0599C4.20243 2.04139 4.25078 2.02404 4.29953 2.00786C4.34831 1.99167 4.39743 1.97667 4.44691 1.96284C4.4964 1.94901 4.54618 1.93638 4.59627 1.92495C4.64638 1.91352 4.69673 1.90329 4.74732 1.89428C4.7979 1.88526 4.84868 1.87747 4.89963 1.8709C4.95062 1.86432 5.0017 1.85898 5.05292 1.85486C5.10413 1.85074 5.15542 1.84785 5.20677 1.84619L10.705 1.84619C10.7585 1.84447 10.812 1.84408 10.8655 1.84504C10.9191 1.846 10.9725 1.84829 11.026 1.85192C11.0794 1.85555 11.1327 1.86052 11.1858 1.86682C11.239 1.87312 11.292 1.88075 11.3448 1.8897C11.3975 1.89865 11.4501 1.90892 11.5023 1.9205C11.5546 1.93208 11.6066 1.94496 11.6582 1.95915C11.7098 1.97333 11.761 1.98879 11.8119 2.00554C11.8627 2.02229 11.9131 2.0403 11.9631 2.05957C12.013 2.07884 12.0625 2.09935 12.1114 2.1211C12.1603 2.14284 12.2086 2.1658 12.2564 2.18996C12.3042 2.21413 12.3513 2.23947 12.3978 2.266C12.4443 2.29252 12.4901 2.32019 12.5352 2.34901C12.5803 2.37783 12.6247 2.40776 12.6683 2.4388C12.7119 2.46984 12.7547 2.50195 12.7967 2.53513C12.8387 2.56831 12.8798 2.60252 12.9201 2.63777C12.9604 2.673 12.9997 2.70923 13.0382 2.74645C13.0767 2.78366 13.1142 2.82181 13.1507 2.8609C13.1873 2.89999 13.2228 2.93997 13.2574 2.98084C13.2919 3.02171 13.3254 3.06342 13.3579 3.10597C13.3903 3.14851 13.4217 3.19185 13.452 3.23596C13.4823 3.28008 13.5114 3.32493 13.5394 3.37049C13.5675 3.41607 13.5943 3.46232 13.6201 3.50923C13.6458 3.55618 13.6703 3.60369 13.6936 3.65184C13.717 3.70001 13.7391 3.74873 13.7599 3.79797C13.7808 3.84725 13.8005 3.89699 13.8189 3.9472C13.8372 3.99747 13.8544 4.04815 13.8702 4.09922C13.8861 4.15033 13.9006 4.20177 13.9139 4.25358C13.9272 4.30542 13.9391 4.35756 13.9498 4.40997C13.9604 4.46241 13.9698 4.51508 13.9778 4.56795C13.9858 4.62086 13.9925 4.67393 13.9979 4.72713C14.0032 4.78037 14.0072 4.83371 14.0099 4.88712C14.0126 4.94056 14.0139 4.99403 14.0139 5.0475C14.0139 5.101 14.0126 5.15448 14.0099 5.20788C14.0073 5.26132 14.0032 5.31466 13.9979 5.36786C13.9925 5.4211 13.9858 5.47418 13.9778 5.52705C13.9698 5.57995 13.9604 5.63263 13.9498 5.68503C13.9391 5.73747 13.9272 5.78961 13.9139 5.84142C13.9006 5.89323 13.8861 5.9447 13.8702 5.99578C13.8544 6.04688 13.8372 6.09756 13.8189 6.1478C13.8005 6.19804 13.7808 6.24779 13.7599 6.29703C13.7391 6.34631 13.717 6.39502 13.6936 6.44316C13.6703 6.49131 13.6458 6.53885 13.6201 6.58576C13.5943 6.63271 13.5675 6.67896 13.5394 6.72451C13.5114 6.77009 13.4823 6.81494 13.452 6.85905C13.4217 6.9032 13.3903 6.94652 13.3579 6.98904C13.3254 7.03159 13.2919 7.0733 13.2574 7.11419C13.2228 7.15508 13.1873 7.19503 13.1507 7.23412C13.1142 7.27321 13.0767 7.31136 13.0382 7.34856C12.9997 7.38578 12.9604 7.42204 12.9201 7.45726C12.8798 7.49249 12.8387 7.52672 12.7967 7.55988C12.7547 7.59307 12.7119 7.62517 12.6683 7.6562C12.6247 7.68727 12.5803 7.7172 12.5352 7.746C12.4901 7.77483 12.4443 7.8025 12.3978 7.829C12.3513 7.85554 12.3042 7.88088 12.2564 7.90505C12.2086 7.92922 12.1603 7.95219 12.1114 7.97394C12.0625 7.99568 12.013 8.01619 11.9631 8.03543C11.9131 8.05474 11.8627 8.07276 11.8119 8.08947C11.761 8.10625 11.7098 8.1217 11.6582 8.13588C11.6066 8.15007 11.5546 8.16295 11.5023 8.17451C11.4501 8.18609 11.3975 8.19638 11.3448 8.2053C11.292 8.21429 11.239 8.22192 11.1858 8.22821C11.1327 8.2345 11.0794 8.23946 11.026 8.24309C10.9725 8.24676 10.9191 8.24905 10.8656 8.24999C10.812 8.25095 10.7585 8.25055 10.705 8.24882ZM46.8564 9.99015L52.7311 9.99015L53.8441 8.24882L46.9863 8.24882C46.933 8.25055 46.8794 8.25095 46.8257 8.24999C46.7724 8.24905 46.7187 8.24676 46.6654 8.24309C46.6121 8.23946 46.5588 8.2345 46.5055 8.22821C46.4525 8.22192 46.3995 8.21429 46.3465 8.2053C46.2939 8.19638 46.2412 8.18609 46.1889 8.17451C46.1369 8.16295 46.0849 8.15007 46.033 8.13588C45.9817 8.1217 45.9303 8.10625 45.8793 8.08947C45.8287 8.07276 45.778 8.05474 45.7281 8.03543C45.6784 8.01619 45.6291 7.99568 45.5798 7.97394C45.5311 7.95219 45.4828 7.92922 45.4348 7.90505C45.3872 7.88088 45.3402 7.85554 45.2935 7.829C45.2472 7.8025 45.2016 7.77483 45.1563 7.746C45.1113 7.7172 45.0669 7.68727 45.023 7.6562C44.9796 7.62517 44.9367 7.59307 44.8947 7.55988C44.8527 7.52672 44.8117 7.49249 44.7714 7.45726C44.7311 7.42204 44.6917 7.38578 44.6531 7.34856C44.6148 7.31136 44.5771 7.27321 44.5405 7.23412C44.5041 7.19503 44.4685 7.15508 44.4338 7.11419C44.3995 7.0733 44.3662 7.03162 44.3335 6.98907C44.3012 6.94652 44.2699 6.9032 44.2392 6.85905C44.2092 6.81497 44.1799 6.77012 44.1519 6.72451C44.1239 6.67896 44.0973 6.63271 44.0713 6.58576C44.0456 6.53885 44.021 6.49131 43.9976 6.44316C43.9743 6.39502 43.9523 6.34631 43.9313 6.29703C43.9107 6.24779 43.891 6.19804 43.8723 6.1478C43.8543 6.09756 43.837 6.04688 43.821 5.99578C43.8054 5.9447 43.7907 5.89323 43.7774 5.84142C43.764 5.78961 43.752 5.73747 43.7414 5.68503C43.7307 5.63263 43.7214 5.57995 43.7134 5.52705C43.7054 5.47418 43.6987 5.4211 43.6934 5.36786C43.6881 5.31466 43.6841 5.26132 43.6814 5.20788C43.6787 5.15448 43.6774 5.101 43.6774 5.0475C43.6774 4.99403 43.6787 4.94056 43.6814 4.88712C43.6841 4.83371 43.6881 4.78037 43.6934 4.72713C43.6987 4.67393 43.7054 4.62086 43.7134 4.56795C43.7214 4.51508 43.7307 4.46241 43.7414 4.40997C43.752 4.35756 43.764 4.30542 43.7774 4.25358C43.7907 4.20177 43.8054 4.15033 43.821 4.09922C43.837 4.04815 43.8543 3.99747 43.8723 3.9472C43.891 3.89699 43.9107 3.84725 43.9313 3.79797C43.9523 3.74873 43.9743 3.70001 43.9976 3.65184C44.021 3.60369 44.0456 3.55618 44.0713 3.50923C44.0973 3.46232 44.1239 3.41607 44.1519 3.37049C44.1799 3.32493 44.2092 3.28008 44.2392 3.23596C44.2699 3.19185 44.3012 3.14851 44.3335 3.10597C44.3662 3.06342 44.3995 3.02171 44.4338 2.98084C44.4685 2.93997 44.5041 2.89999 44.5405 2.8609C44.5771 2.82181 44.6148 2.78366 44.6531 2.74645C44.6917 2.70923 44.7311 2.673 44.7714 2.63777C44.8117 2.60252 44.8527 2.56831 44.8947 2.53513C44.9367 2.50195 44.9796 2.46984 45.023 2.4388C45.0669 2.40776 45.1113 2.37783 45.1563 2.34901C45.2016 2.32019 45.2472 2.29252 45.2935 2.266C45.3402 2.23947 45.3872 2.21413 45.4348 2.18996C45.4828 2.16579 45.5311 2.14284 45.5798 2.1211C45.6291 2.09935 45.6784 2.07884 45.7281 2.05957C45.778 2.0403 45.8287 2.02229 45.8793 2.00554C45.9303 1.98879 45.9817 1.97333 46.033 1.95915C46.0849 1.94496 46.1369 1.93208 46.1889 1.9205C46.2412 1.90892 46.2939 1.89865 46.3465 1.8897C46.3995 1.88075 46.4525 1.87312 46.5055 1.86682C46.5588 1.86052 46.6121 1.85555 46.6654 1.85192C46.7187 1.84829 46.7724 1.846 46.8257 1.84504C46.8794 1.84408 46.933 1.84447 46.9863 1.84619L52.5678 1.84619L53.6941 0.0982028L46.8564 0.0982028C46.7741 0.0960679 46.6917 0.0959863 46.6094 0.097958C46.5271 0.0999298 46.4448 0.103952 46.3625 0.110026C46.2806 0.1161 46.1986 0.124217 46.1166 0.134377C46.035 0.144537 45.9537 0.156728 45.8724 0.170949C45.7914 0.18517 45.7107 0.201405 45.6301 0.219653C45.5501 0.2379 45.4701 0.258138 45.3908 0.280366C45.3115 0.302594 45.2329 0.326784 45.1546 0.352938C45.0766 0.379091 44.999 0.407175 44.9223 0.437188C44.8457 0.4672 44.77 0.499106 44.6947 0.532908C44.6198 0.566702 44.5455 0.602351 44.4718 0.639855C44.3985 0.677352 44.3262 0.716656 44.2549 0.757766C44.1836 0.798872 44.1133 0.841733 44.0439 0.886348C43.975 0.93096 43.907 0.97727 43.8397 1.02528C43.773 1.07328 43.7074 1.12293 43.6427 1.17421C43.5784 1.22549 43.5155 1.27835 43.4535 1.33279C43.3918 1.38721 43.3315 1.44315 43.2722 1.50059C43.2136 1.55803 43.1559 1.61691 43.0996 1.67722C43.0436 1.73753 42.9893 1.7992 42.936 1.86223C42.8833 1.92526 42.832 1.98957 42.782 2.05516C42.7324 2.12075 42.6844 2.18754 42.6377 2.25553C42.5914 2.32352 42.5468 2.39263 42.5035 2.46285C42.4608 2.53307 42.4195 2.60431 42.3798 2.67659C42.3405 2.74886 42.3032 2.82207 42.2672 2.89622C42.2315 2.97037 42.1976 3.04536 42.1656 3.1212C42.1336 3.19704 42.1036 3.27363 42.0753 3.35095C42.0473 3.42829 42.0209 3.5063 41.9966 3.58495C41.9723 3.66359 41.95 3.7428 41.9296 3.82254C41.9093 3.90232 41.891 3.98256 41.8747 4.0632C41.8583 4.1439 41.844 4.22491 41.8317 4.30628C41.8193 4.38769 41.809 4.46933 41.801 4.55124C41.793 4.63314 41.7867 4.71521 41.7824 4.79739C41.7784 4.87963 41.7764 4.96186 41.7764 5.04417C41.7764 5.12648 41.7784 5.20875 41.7824 5.29095C41.7867 5.37316 41.793 5.4552 41.801 5.5371C41.809 5.61901 41.8193 5.70068 41.8317 5.78206C41.844 5.86343 41.8583 5.94447 41.8747 6.02514C41.891 6.10582 41.9093 6.18602 41.9296 6.2658C41.95 6.34557 41.9723 6.42475 41.9966 6.50339C42.0209 6.58207 42.0473 6.66008 42.0753 6.73739C42.1036 6.81474 42.1336 6.89131 42.1656 6.96716C42.1976 7.04301 42.2315 7.11802 42.2672 7.19213C42.3032 7.26632 42.3405 7.33953 42.3798 7.41178C42.4195 7.48407 42.4608 7.55532 42.5035 7.6255C42.5468 7.69576 42.5914 7.76484 42.6377 7.83283C42.6844 7.90082 42.7324 7.96761 42.782 8.0332C42.832 8.09879 42.8833 8.16312 42.936 8.22611C42.9893 8.28918 43.0436 8.35084 43.0996 8.41113C43.1559 8.47147 43.2136 8.53033 43.2722 8.58776C43.3315 8.64523 43.3918 8.70117 43.4535 8.75557C43.5155 8.81001 43.5784 8.86288 43.6427 8.91416C43.7074 8.96543 43.773 9.01507 43.8397 9.06309C43.907 9.1111 43.975 9.15741 44.0439 9.20203C44.1133 9.24664 44.1836 9.28949 44.2549 9.33058C44.3262 9.3717 44.3985 9.41102 44.4718 9.44851C44.5455 9.486 44.6198 9.52166 44.6947 9.55545C44.77 9.58928 44.8457 9.62118 44.9223 9.65118C44.999 9.68121 45.0766 9.70928 45.1546 9.73541C45.2329 9.76158 45.3115 9.78576 45.3908 9.808C45.4701 9.83024 45.5501 9.85045 45.6301 9.86869C45.7107 9.88694 45.7914 9.90319 45.8724 9.9174C45.9537 9.93165 46.035 9.94384 46.1166 9.95399C46.1986 9.96415 46.2806 9.97227 46.3625 9.97833C46.4448 9.98443 46.5271 9.98845 46.6094 9.99039C46.6917 9.99238 46.7741 9.99228 46.8564 9.99015ZM70.1388 8.24882C70.0521 8.24885 69.9658 8.24539 69.8795 8.23843C69.7935 8.23147 69.7076 8.22105 69.6219 8.20714C69.5366 8.19322 69.452 8.17587 69.3677 8.1551C69.2837 8.13435 69.2007 8.11021 69.1188 8.08271C69.0368 8.05524 68.9558 8.02448 68.8762 7.99045C68.7969 7.95642 68.7186 7.91923 68.6419 7.87888C68.5656 7.83853 68.491 7.79518 68.4177 7.74876C68.3447 7.70235 68.2737 7.65307 68.2044 7.60093C68.1354 7.54879 68.0688 7.49392 68.0041 7.43635C67.9395 7.37882 67.8775 7.31872 67.8175 7.25613C67.7579 7.19353 67.7009 7.12864 67.6462 7.06142C67.5919 6.99423 67.5403 6.92491 67.4913 6.85349C67.4426 6.78211 67.3967 6.70886 67.3537 6.63374C67.311 6.55863 67.271 6.48192 67.234 6.40361C67.1974 6.3253 67.1641 6.24559 67.1337 6.16455C67.1038 6.08351 67.0768 6.0014 67.0531 5.91817L75.1904 5.91817L76.3101 4.1735L67.0531 4.1735C67.0768 4.09027 67.1038 4.00813 67.1337 3.92702C67.1641 3.84598 67.1974 3.76624 67.234 3.68786C67.2707 3.60952 67.3107 3.53277 67.3533 3.45759C67.3963 3.38248 67.442 3.30919 67.4906 3.23777C67.5396 3.16634 67.5913 3.09701 67.6456 3.02977C67.7002 2.96253 67.7572 2.8976 67.8168 2.83499C67.8768 2.77237 67.9388 2.71228 68.0035 2.6547C68.0681 2.59712 68.1351 2.54225 68.2041 2.49009C68.2734 2.43793 68.3443 2.38864 68.417 2.34224C68.4903 2.29584 68.5649 2.25247 68.6416 2.21213C68.7182 2.17179 68.7965 2.13461 68.8758 2.1006C68.9555 2.06659 69.0365 2.03585 69.1184 2.00839C69.2004 1.98093 69.2837 1.95683 69.3677 1.93611C69.4517 1.91538 69.5366 1.89808 69.6219 1.88422C69.7072 1.87035 69.7932 1.85997 69.8795 1.85307C69.9658 1.84617 70.0521 1.84277 70.1388 1.84287L75.7236 1.84287L76.8399 0.0948732L70.0088 0.0948732C69.9292 0.0969389 69.8495 0.100924 69.7702 0.106829C69.6909 0.112734 69.6116 0.120551 69.5323 0.130282C69.4533 0.140012 69.3743 0.151644 69.2957 0.165177C69.2174 0.178711 69.1391 0.19413 69.0611 0.211434C68.9835 0.228739 68.9062 0.247909 68.8292 0.268945C68.7525 0.28998 68.6762 0.312857 68.6003 0.337575C68.5246 0.362294 68.4496 0.388823 68.375 0.417164C68.3004 0.445505 68.2267 0.475627 68.1537 0.507527C68.0808 0.539427 68.0085 0.573068 67.9371 0.608454C67.8658 0.643837 67.7952 0.680921 67.7255 0.71971C67.6562 0.758495 67.5876 0.798935 67.5196 0.841033C67.452 0.883132 67.3853 0.926835 67.3197 0.972146C67.2544 1.01745 67.1901 1.06432 67.1267 1.11274C67.0634 1.16115 67.0014 1.21107 66.9405 1.26248C66.8798 1.31389 66.8202 1.36674 66.7615 1.42103C66.7035 1.47531 66.6466 1.53098 66.5906 1.58802C66.5353 1.64505 66.4809 1.70339 66.428 1.76304C66.3753 1.8227 66.324 1.88358 66.274 1.94571C66.2244 2.00784 66.1761 2.07113 66.1291 2.13559C66.0824 2.20005 66.0371 2.2656 65.9934 2.33224C65.9501 2.39888 65.9081 2.46654 65.8675 2.5352C65.8272 2.60387 65.7885 2.67347 65.7515 2.744C65.7145 2.81454 65.6792 2.88592 65.6456 2.95815C65.6122 3.03039 65.5802 3.10339 65.5503 3.17716C65.5203 3.25093 65.4923 3.32538 65.4656 3.40049C65.4393 3.47564 65.4146 3.55135 65.392 3.62766C65.3693 3.70398 65.3483 3.78082 65.329 3.85813C65.3103 3.93544 65.293 4.01319 65.2777 4.09133C65.2624 4.16951 65.249 4.24798 65.2374 4.32676C65.226 4.4056 65.2164 4.48461 65.2087 4.56386C65.201 4.64313 65.1954 4.72254 65.1914 4.80208C65.1874 4.88162 65.1854 4.9612 65.1854 5.04084C65.1854 5.12048 65.1874 5.20009 65.1914 5.2796C65.1954 5.35917 65.201 5.43858 65.2087 5.51783C65.2164 5.5971 65.226 5.67614 65.2374 5.75492C65.249 5.83373 65.2624 5.91221 65.2777 5.99035C65.293 6.06853 65.3103 6.14624 65.329 6.22355C65.3483 6.30089 65.3693 6.3777 65.392 6.45402C65.4146 6.53033 65.4393 6.60607 65.4656 6.68119C65.4923 6.75634 65.5203 6.83078 65.5503 6.90453C65.5802 6.97831 65.6122 7.05133 65.6456 7.12355C65.6792 7.1958 65.7145 7.26718 65.7515 7.3377C65.7885 7.40822 65.8272 7.47784 65.8675 7.54649C65.9081 7.61518 65.9501 7.68284 65.9934 7.74946C66.0371 7.81612 66.0824 7.88164 66.1291 7.9461C66.1761 8.01056 66.2244 8.07386 66.274 8.13598C66.324 8.19811 66.3753 8.25901 66.428 8.31864C66.4809 8.37831 66.5353 8.43667 66.5906 8.49367C66.6466 8.55074 66.7035 8.60641 66.7615 8.66068C66.8202 8.71495 66.8798 8.76782 66.9405 8.81923C67.0014 8.87064 67.0634 8.92055 67.1267 8.96896C67.1901 9.01737 67.2544 9.06425 67.3197 9.10956C67.3853 9.15488 67.452 9.1986 67.5196 9.24068C67.5876 9.28277 67.6562 9.32322 67.7255 9.36197C67.7952 9.4008 67.8658 9.43789 67.9371 9.47325C68.0085 9.50864 68.0808 9.54227 68.1537 9.57416C68.2267 9.60606 68.3004 9.63619 68.375 9.66453C68.4496 9.69289 68.5246 9.71943 68.6003 9.74414C68.6762 9.76884 68.7525 9.79171 68.8292 9.81276C68.9062 9.8338 68.9835 9.85298 69.0611 9.87026C69.1391 9.88757 69.2174 9.90299 69.2957 9.9165C69.3743 9.93006 69.4533 9.94171 69.5323 9.95143C69.6116 9.96115 69.6909 9.96898 69.7702 9.97487C69.8495 9.9808 69.9292 9.98476 70.0088 9.98682L75.8836 9.98682L76.9999 8.24549L70.1354 8.24549">
</path>
</svg>
