<svg xmlns="http://www.w3.org/2000/svg" xmlns:xlink="http://www.w3.org/1999/xlink" width="38.5" height="5" viewBox="0 0 38.5 5" fill="none">
<path     fill="#C74634"  d="M16.66 3.25L19.2 3.25L17.86 1.09L15.39 4.99L14.27 4.99L17.27 0.31C17.27 0.298353 17.29 0.281141 17.29 0.27C17.29 0.258859 17.32 0.250594 17.32 0.24C17.32 0.229404 17.35 0.220012 17.35 0.21C17.3602 0.199988 17.3693 0.18 17.38 0.18C17.3907 0.18 17.3988 0.15 17.41 0.15C17.4213 0.15 17.4383 0.13 17.45 0.13C17.4617 0.13 17.4678 0.1 17.48 0.1C17.4922 0.1 17.5075 0.08 17.52 0.08C17.5327 0.08 17.5472 0.06 17.56 0.06C17.573 0.06 17.5868 0.05 17.6 0.05C17.6133 0.05 17.6265 0.03 17.64 0.03C17.6537 0.03 17.6663 0.02 17.68 0.02C17.6938 0.02 17.706 0.01 17.72 0.01C17.734 0.01 17.746 0.01 17.76 0.01C17.7742 0.01 17.796 0 17.81 0C17.8243 0 17.8358 0 17.85 0C17.8643 0 17.8758 0 17.89 0C17.9043 0 17.916 0 17.93 0C17.9442 0 17.966 0.01 17.98 0.01C17.994 0.01 18.0062 0.02 18.02 0.02C18.0338 0.02 18.0463 0.03 18.06 0.03C18.0737 0.03 18.0867 0.04 18.1 0.04C18.1133 0.04 18.127 0.06 18.14 0.06C18.153 0.06 18.1673 0.08 18.18 0.08C18.1928 0.08 18.1978 0.1 18.21 0.1C18.2223 0.1 18.2382 0.12 18.25 0.12C18.2618 0.12 18.2687 0.15 18.28 0.15C18.2913 0.15 18.3093 0.17 18.32 0.17C18.3308 0.17 18.3397 0.2 18.35 0.2C18.3603 0.2 18.38 0.21954 18.38 0.23C18.38 0.240458 18.41 0.248986 18.41 0.26C18.41 0.271012 18.43 0.288472 18.43 0.3L21.44 4.99L20.32 4.99L19.79 4.12L17.22 4.12L16.66 3.25ZM28.31 4.12L28.31 0.05L27.36 0.05L27.36 4.52C27.36 4.5511 27.37 4.57954 27.37 4.61C27.37 4.64048 27.3878 4.67138 27.4 4.7C27.4122 4.72862 27.4223 4.75441 27.44 4.78C27.4577 4.80559 27.4777 4.83849 27.5 4.86C27.5227 4.88306 27.5533 4.90189 27.58 4.92C27.6068 4.93811 27.6303 4.94756 27.66 4.96C27.6898 4.97245 27.7183 4.99 27.75 4.99C27.7817 4.99 27.8178 5 27.85 5L32.18 5L32.75 4.13L28.31 4.13M12.56 3.39C12.5874 3.39 12.6126 3.39 12.64 3.39C12.6674 3.39 12.6927 3.39 12.72 3.39C12.7473 3.39 12.7729 3.38 12.8 3.38C12.8271 3.38 12.8531 3.36 12.88 3.36C12.9069 3.36 12.9334 3.34 12.96 3.34C12.9866 3.34 13.0138 3.32 13.04 3.32C13.0662 3.32 13.0942 3.3 13.12 3.3C13.1458 3.3 13.1747 3.28049 13.2 3.27C13.2253 3.25953 13.2452 3.24172 13.27 3.23C13.2948 3.2183 13.3258 3.21292 13.35 3.2C13.3742 3.1871 13.3965 3.17408 13.42 3.16C13.4435 3.14592 13.4672 3.12522 13.49 3.11C13.5128 3.09478 13.528 3.07631 13.55 3.06C13.572 3.0437 13.5988 3.02738 13.62 3.01C13.6412 2.99262 13.6597 2.97838 13.68 2.96C13.7003 2.94162 13.7206 2.91938 13.74 2.9C13.7594 2.88066 13.7816 2.86029 13.8 2.84C13.8184 2.81972 13.8326 2.80118 13.85 2.78C13.8674 2.75882 13.8837 2.74199 13.9 2.72C13.9163 2.69801 13.9348 2.67277 13.95 2.65C13.9652 2.62723 13.9759 2.60349 13.99 2.58C14.0041 2.55653 14.0171 2.53416 14.03 2.51C14.0429 2.48586 14.0583 2.46477 14.07 2.44C14.0817 2.41526 14.0895 2.3853 14.1 2.36C14.1105 2.3347 14.13 2.30579 14.13 2.28C14.13 2.25423 14.16 2.2362 14.16 2.21C14.16 2.1838 14.18 2.15657 14.18 2.13C14.18 2.10345 14.2 2.07685 14.2 2.05C14.2 2.02315 14.21 1.9971 14.21 1.97C14.21 1.94293 14.22 1.90725 14.22 1.88C14.22 1.85275 14.23 1.82735 14.23 1.8C14.23 1.77266 14.23 1.74739 14.23 1.72C14.23 1.69263 14.23 1.66735 14.23 1.64C14.23 1.61265 14.22 1.58725 14.22 1.56C14.22 1.53275 14.21 1.49708 14.21 1.47C14.21 1.44291 14.2 1.41685 14.2 1.39C14.2 1.36314 14.18 1.33656 14.18 1.31C14.18 1.28344 14.16 1.2562 14.16 1.23C14.16 1.2038 14.13 1.18578 14.13 1.16C14.13 1.13422 14.1105 1.1053 14.1 1.08C14.0895 1.0547 14.0817 1.03475 14.07 1.01C14.0583 0.985247 14.0429 0.954147 14.03 0.93C14.0171 0.905851 14.0041 0.883485 13.99 0.86C13.9759 0.836514 13.9652 0.812765 13.95 0.79C13.9348 0.767233 13.9163 0.741991 13.9 0.72C13.8837 0.698007 13.8674 0.681166 13.85 0.66C13.8326 0.638834 13.8184 0.620288 13.8 0.6C13.7816 0.579712 13.7594 0.559361 13.74 0.54C13.7206 0.520637 13.7003 0.498387 13.68 0.48C13.6597 0.461611 13.6412 0.44737 13.62 0.43C13.5988 0.41263 13.572 0.396311 13.55 0.38C13.528 0.363689 13.5128 0.345213 13.49 0.33C13.4672 0.314787 13.4435 0.304075 13.42 0.29C13.3965 0.275923 13.3742 0.252907 13.35 0.24C13.3258 0.227092 13.2948 0.221707 13.27 0.21C13.2452 0.198292 13.2253 0.180478 13.2 0.17C13.1747 0.159521 13.1458 0.15 13.12 0.15C13.0942 0.15 13.0662 0.12 13.04 0.12C13.0138 0.12 12.9866 0.1 12.96 0.1C12.9334 0.1 12.9069 0.08 12.88 0.08C12.8531 0.08 12.8271 0.07 12.8 0.07C12.7729 0.07 12.7473 0.06 12.72 0.06C12.6927 0.06 12.6674 0.05 12.64 0.05C12.6126 0.05 12.5874 0.05 12.56 0.05L8.39 0.05L8.39 4.99L9.34 4.99L9.34 0.92L12.5 0.92C12.5131 0.92 12.5269 0.92 12.54 0.92C12.5531 0.92 12.567 0.93 12.58 0.93C12.5931 0.93 12.607 0.93 12.62 0.93C12.633 0.93 12.6371 0.94 12.65 0.94C12.6629 0.94 12.6773 0.95 12.69 0.95C12.7027 0.95 12.7175 0.96 12.73 0.96C12.7426 0.96 12.7577 0.97 12.77 0.97C12.7824 0.97 12.7979 0.98 12.81 0.98C12.8221 0.98 12.8282 1 12.84 1C12.8519 1 12.8684 1.02 12.88 1.02C12.8916 1.02 12.8988 1.04 12.91 1.04C12.9212 1.04 12.9291 1.06 12.94 1.06C12.9509 1.06 12.9695 1.08 12.98 1.08C12.9905 1.08 12.9999 1.1 13.01 1.1C13.0201 1.1 13.04 1.13 13.04 1.13L13.07 1.16L13.09 1.19C13.09 1.19 13.12 1.20987 13.12 1.22C13.12 1.23013 13.14 1.23947 13.14 1.25C13.14 1.26052 13.16 1.2691 13.16 1.28C13.16 1.2909 13.19 1.29876 13.19 1.31C13.19 1.32124 13.21 1.33844 13.21 1.35C13.21 1.36156 13.22 1.36815 13.22 1.38C13.22 1.39185 13.24 1.40789 13.24 1.42C13.24 1.43211 13.25 1.43766 13.25 1.45C13.25 1.46234 13.27 1.47746 13.27 1.49C13.27 1.50254 13.28 1.51729 13.28 1.53C13.28 1.54271 13.28 1.55715 13.28 1.57C13.28 1.58285 13.29 1.59703 13.29 1.61C13.29 1.62296 13.3 1.63696 13.3 1.65C13.3 1.66304 13.3 1.66692 13.3 1.68C13.3 1.69308 13.3 1.7069 13.3 1.72C13.3 1.73312 13.3 1.74691 13.3 1.76C13.3 1.7731 13.3 1.78697 13.3 1.8C13.3 1.81305 13.29 1.82705 13.29 1.84C13.29 1.85297 13.28 1.86715 13.28 1.88C13.28 1.89285 13.28 1.9073 13.28 1.92C13.28 1.93272 13.27 1.94746 13.27 1.96C13.27 1.97255 13.25 1.97768 13.25 1.99C13.25 2.00235 13.24 2.0179 13.24 2.03C13.24 2.04212 13.22 2.05816 13.22 2.07C13.22 2.08185 13.21 2.08845 13.21 2.1C13.21 2.11157 13.19 2.12878 13.19 2.14C13.19 2.15125 13.16 2.15911 13.16 2.17C13.16 2.1809 13.14 2.18948 13.14 2.2C13.14 2.21054 13.12 2.21988 13.12 2.23C13.12 2.24014 13.09 2.26 13.09 2.26L13.07 2.29L13.04 2.32C13.04 2.32 13.0201 2.34 13.01 2.34C12.9999 2.34 12.9905 2.37 12.98 2.37C12.9695 2.37 12.9509 2.39 12.94 2.39C12.9291 2.39 12.9212 2.41 12.91 2.41C12.8988 2.41 12.8916 2.43 12.88 2.43C12.8684 2.43 12.8519 2.45 12.84 2.45C12.8282 2.45 12.8221 2.46 12.81 2.46C12.7979 2.46 12.7824 2.48 12.77 2.48C12.7577 2.48 12.7426 2.49 12.73 2.49C12.7175 2.49 12.7027 2.5 12.69 2.5C12.6773 2.5 12.6629 2.51 12.65 2.51C12.6371 2.51 12.633 2.52 12.62 2.52C12.607 2.52 12.5931 2.52 12.58 2.52C12.567 2.52 12.5531 2.52 12.54 2.52C12.5269 2.52 12.5131 2.52 12.5 2.52L9.81 2.52L12.66 4.99L14.04 4.99L12.13 3.39L12.56 3.39ZM2.54 4.99L5.42 4.99C5.45985 4.99 5.50028 4.99 5.54 4.99C5.57975 4.99 5.62045 4.98 5.66 4.98C5.69955 4.98 5.73075 4.96 5.77 4.96C5.80929 4.96 5.85111 4.94 5.89 4.94C5.9289 4.94 5.97156 4.92052 6.01 4.91C6.04844 4.89948 6.08213 4.88235 6.12 4.87C6.15789 4.85765 6.19276 4.84418 6.23 4.83C6.26724 4.81583 6.31348 4.80595 6.35 4.79C6.38652 4.77405 6.41431 4.7577 6.45 4.74C6.4857 4.72232 6.52521 4.69939 6.56 4.68C6.59482 4.66061 6.62618 4.64104 6.66 4.62C6.69382 4.59896 6.72723 4.58266 6.76 4.56C6.79277 4.53734 6.82836 4.51421 6.86 4.49C6.89164 4.46579 6.91958 4.4357 6.95 4.41C6.98042 4.3843 7.01084 4.35714 7.04 4.33C7.06916 4.30286 7.10219 4.27853 7.13 4.25C7.15782 4.2215 7.18361 4.18983 7.21 4.16C7.23641 4.13017 7.25507 4.10106 7.28 4.07C7.30492 4.03894 7.33661 4.00223 7.36 3.97C7.38339 3.93777 7.40819 3.91333 7.43 3.88C7.45183 3.84669 7.46984 3.80434 7.49 3.77C7.51019 3.73567 7.53151 3.70528 7.55 3.67C7.56849 3.63474 7.58322 3.59613 7.6 3.56C7.61678 3.52389 7.635 3.48689 7.65 3.45C7.66503 3.41313 7.6768 3.37757 7.69 3.34C7.70323 3.30244 7.71864 3.26816 7.73 3.23C7.7414 3.19184 7.76 3.14867 7.76 3.11C7.76 3.07134 7.78 3.03909 7.78 3C7.78 2.96093 7.8 2.9194 7.8 2.88C7.8 2.84061 7.82 2.79964 7.82 2.76C7.82 2.72038 7.83 2.67979 7.83 2.64C7.83 2.60025 7.83 2.55982 7.83 2.52C7.83 2.48018 7.83 2.43977 7.83 2.4C7.83 2.36023 7.82 2.31964 7.82 2.28C7.82 2.24038 7.8 2.19942 7.8 2.16C7.8 2.12061 7.78 2.08909 7.78 2.05C7.78 2.01093 7.76 1.96866 7.76 1.93C7.76 1.89134 7.7414 1.85816 7.73 1.82C7.71864 1.78184 7.70323 1.73757 7.69 1.7C7.6768 1.66244 7.66503 1.62688 7.65 1.59C7.635 1.55312 7.61678 1.51612 7.6 1.48C7.58322 1.44388 7.56849 1.40527 7.55 1.37C7.53151 1.33473 7.51019 1.30433 7.49 1.27C7.46984 1.23567 7.45183 1.20332 7.43 1.17C7.40819 1.13668 7.38339 1.10223 7.36 1.07C7.33661 1.03777 7.30492 1.00106 7.28 0.97C7.25507 0.938936 7.23641 0.909826 7.21 0.88C7.18361 0.850174 7.15782 0.828517 7.13 0.8C7.10219 0.771481 7.06916 0.737142 7.04 0.71C7.01084 0.682856 6.98042 0.655705 6.95 0.63C6.91958 0.604293 6.89164 0.584209 6.86 0.56C6.82836 0.535791 6.79277 0.512654 6.76 0.49C6.72723 0.467344 6.69382 0.441049 6.66 0.42C6.62618 0.398951 6.59482 0.379393 6.56 0.36C6.52521 0.340607 6.4857 0.327693 6.45 0.31C6.41431 0.292307 6.38652 0.275948 6.35 0.26C6.31348 0.244048 6.26724 0.22417 6.23 0.21C6.19276 0.195828 6.15789 0.182359 6.12 0.17C6.08213 0.157641 6.04844 0.150518 6.01 0.14C5.97156 0.129482 5.9289 0.11 5.89 0.11C5.85111 0.11 5.80929 0.08 5.77 0.08C5.73075 0.08 5.69955 0.07 5.66 0.07C5.62045 0.07 5.57975 0.05 5.54 0.05C5.50028 0.05 5.45985 0.05 5.42 0.05L2.54 0.05C2.49883 0.05 2.46119 0.05 2.42 0.05C2.37883 0.05 2.33109 0.05 2.29 0.05C2.24893 0.05 2.21089 0.07 2.17 0.07C2.12913 0.07 2.09057 0.09 2.05 0.09C2.00943 0.09 1.97017 0.11 1.93 0.11C1.88985 0.11 1.84965 0.128886 1.81 0.14C1.77035 0.151114 1.72904 0.166923 1.69 0.18C1.65094 0.193077 1.60835 0.204994 1.57 0.22C1.53165 0.235006 1.49756 0.253099 1.46 0.27C1.42244 0.286899 1.38667 0.30125 1.35 0.32C1.31333 0.338748 1.27568 0.359445 1.24 0.38C1.20432 0.400553 1.16461 0.417692 1.13 0.44C1.09539 0.462306 1.06346 0.485996 1.03 0.51C0.996543 0.534002 0.962218 0.564358 0.93 0.59C0.897782 0.615641 0.870897 0.642785 0.84 0.67C0.809102 0.697214 0.7795 0.721278 0.75 0.75C0.720501 0.77872 0.688029 0.809845 0.66 0.84C0.631971 0.870155 0.60649 0.898485 0.58 0.93C0.55351 0.961514 0.524884 0.997203 0.5 1.03C0.475116 1.0628 0.453216 1.09601 0.43 1.13C0.406786 1.16399 0.38149 1.19489 0.36 1.23C0.33851 1.26511 0.31971 1.30386 0.3 1.34C0.28029 1.37614 0.267881 1.41293 0.25 1.45C0.232119 1.48707 0.206008 1.52208 0.19 1.56C0.17399 1.59792 0.164096 1.64134 0.15 1.68C0.135904 1.71867 0.122148 1.75068 0.11 1.79C0.097852 1.82932 0.0901698 1.87013 0.08 1.91C0.0698302 1.94989 0.05 1.98968 0.05 2.03C0.05 2.07035 0.03 2.10931 0.03 2.15C0.03 2.1907 0.01 2.23905 0.01 2.28C0.01 2.32095 0 2.35891 0 2.4C0 2.44112 0 2.47885 0 2.52C0 2.56115 0 2.6089 0 2.65C0 2.6911 0.01 2.72905 0.01 2.77C0.01 2.81095 0.03 2.84931 0.03 2.89C0.03 2.93069 0.05 2.96966 0.05 3.01C0.05 3.05034 0.06983 3.09011 0.08 3.13C0.0901698 3.16989 0.0978521 3.21068 0.11 3.25C0.122148 3.28934 0.135904 3.33134 0.15 3.37C0.164096 3.40867 0.17399 3.44208 0.19 3.48C0.206008 3.51792 0.232119 3.56294 0.25 3.6C0.267881 3.63709 0.28029 3.67387 0.3 3.71C0.31971 3.74614 0.33851 3.77491 0.36 3.81C0.38149 3.84513 0.406786 3.88601 0.43 3.92C0.453216 3.95399 0.475116 3.9872 0.5 4.02C0.524884 4.0528 0.55351 4.0785 0.58 4.11C0.60649 4.14153 0.631971 4.17985 0.66 4.21C0.688029 4.24017 0.7205 4.26128 0.75 4.29C0.779499 4.31873 0.809102 4.3528 0.84 4.38C0.870897 4.40722 0.897782 4.43436 0.93 4.46C0.962218 4.48564 0.996543 4.50599 1.03 4.53C1.06346 4.55401 1.09539 4.57769 1.13 4.6C1.16461 4.62231 1.20432 4.64946 1.24 4.67C1.27568 4.69056 1.31333 4.70125 1.35 4.72C1.38667 4.73875 1.42244 4.7631 1.46 4.78C1.49756 4.79691 1.53165 4.815 1.57 4.83C1.60835 4.84502 1.65094 4.85693 1.69 4.87C1.72904 4.88308 1.77035 4.88888 1.81 4.9C1.84965 4.91112 1.88985 4.93 1.93 4.93C1.97017 4.93 2.00943 4.96 2.05 4.96C2.09057 4.96 2.12913 4.98 2.17 4.98C2.21089 4.98 2.24893 4.99 2.29 4.99C2.33109 4.99 2.37883 5 2.42 5C2.46119 5 2.49883 4.99 2.54 4.99ZM5.35 4.12L2.6 4.12C2.57433 4.12 2.55561 4.12 2.53 4.12C2.50439 4.12 2.47549 4.11 2.45 4.11C2.42453 4.11 2.39529 4.1 2.37 4.1C2.34471 4.1 2.32506 4.08 2.3 4.08C2.27496 4.08 2.24474 4.07 2.22 4.07C2.19526 4.07 2.17439 4.04 2.15 4.04C2.12562 4.04 2.10398 4.02 2.08 4.02C2.05604 4.02 2.03349 4.0004 2.01 3.99C1.98651 3.97961 1.96298 3.97152 1.94 3.96C1.91704 3.9485 1.89239 3.9326 1.87 3.92C1.84762 3.90741 1.82176 3.89367 1.8 3.88C1.77824 3.86635 1.76108 3.8547 1.74 3.84C1.71894 3.82532 1.70033 3.8057 1.68 3.79C1.65965 3.77432 1.63956 3.75665 1.62 3.74C1.60044 3.72335 1.57874 3.70758 1.56 3.69C1.54126 3.67245 1.51787 3.65845 1.5 3.64C1.48213 3.62155 1.46696 3.59928 1.45 3.58C1.43304 3.56072 1.41602 3.54008 1.4 3.52C1.38398 3.49992 1.37503 3.48083 1.36 3.46C1.34497 3.43919 1.32401 3.42153 1.31 3.4C1.29599 3.37849 1.28296 3.35217 1.27 3.33C1.25704 3.30784 1.24188 3.28277 1.23 3.26C1.21812 3.23724 1.21077 3.22331 1.2 3.2C1.18923 3.17669 1.17 3.14381 1.17 3.12C1.17 3.09619 1.14 3.07424 1.14 3.05C1.14 3.02578 1.12 3.00462 1.12 2.98C1.12 2.95539 1.1 2.92494 1.1 2.9C1.1 2.87508 1.08 2.8552 1.08 2.83C1.08 2.80481 1.07 2.7754 1.07 2.75C1.07 2.7246 1.06 2.70557 1.06 2.68C1.06 2.65446 1.05 2.62564 1.05 2.6C1.05 2.57436 1.05 2.54567 1.05 2.52C1.05 2.49433 1.05 2.47564 1.05 2.45C1.05 2.42436 1.06 2.39555 1.06 2.37C1.06 2.34445 1.07 2.3154 1.07 2.29C1.07 2.2646 1.08 2.2452 1.08 2.22C1.08 2.1948 1.1 2.16494 1.1 2.14C1.1 2.11506 1.12 2.0946 1.12 2.07C1.12 2.04539 1.14 2.01424 1.14 1.99C1.14 1.96578 1.17 1.94381 1.17 1.92C1.17 1.89621 1.18923 1.87331 1.2 1.85C1.21077 1.82671 1.21812 1.80277 1.23 1.78C1.24188 1.75724 1.25704 1.74217 1.27 1.72C1.28296 1.69784 1.29599 1.67151 1.31 1.65C1.32402 1.62848 1.34497 1.61082 1.36 1.59C1.37503 1.56918 1.38398 1.55007 1.4 1.53C1.41602 1.50993 1.43304 1.48928 1.45 1.47C1.46696 1.45072 1.48213 1.42844 1.5 1.41C1.51787 1.39156 1.54126 1.37756 1.56 1.36C1.57874 1.34244 1.60044 1.31664 1.62 1.3C1.63956 1.28336 1.65965 1.27568 1.68 1.26C1.70033 1.24431 1.71894 1.22469 1.74 1.21C1.76108 1.19531 1.77824 1.18366 1.8 1.17C1.82176 1.15634 1.84761 1.1426 1.87 1.13C1.89239 1.1174 1.91704 1.10151 1.94 1.09C1.96298 1.07849 1.98651 1.07039 2.01 1.06C2.03349 1.04961 2.05604 1.03 2.08 1.03C2.10398 1.03 2.12562 1 2.15 1C2.17439 1 2.19526 0.98 2.22 0.98C2.24474 0.98 2.27496 0.96 2.3 0.96C2.32506 0.96 2.34471 0.95 2.37 0.95C2.39529 0.95 2.42453 0.94 2.45 0.94C2.47549 0.94 2.50439 0.93 2.53 0.93C2.55561 0.93 2.57433 0.92 2.6 0.92L5.35 0.92C5.37676 0.92 5.40324 0.92 5.43 0.92C5.45677 0.92 5.48329 0.93 5.51 0.93C5.53671 0.93 5.56341 0.93 5.59 0.93C5.61659 0.93 5.64361 0.94 5.67 0.94C5.69639 0.94 5.72388 0.96 5.75 0.96C5.77614 0.96 5.80419 0.98 5.83 0.98C5.85581 0.98 5.88457 1 5.91 1C5.93542 1 5.95502 1.03 5.98 1.03C6.00498 1.03 6.03554 1.04913 6.06 1.06C6.08446 1.07087 6.10612 1.07792 6.13 1.09C6.15389 1.10208 6.17676 1.11674 6.2 1.13C6.22326 1.14326 6.24746 1.15559 6.27 1.17C6.29256 1.18441 6.30821 1.20448 6.33 1.22C6.35181 1.23552 6.37901 1.25341 6.4 1.27C6.42101 1.28659 6.43987 1.30238 6.46 1.32C6.48014 1.33762 6.50077 1.35139 6.52 1.37C6.53924 1.38861 6.56174 1.41045 6.58 1.43C6.59829 1.44954 6.61274 1.46956 6.63 1.49C6.64728 1.51043 6.66377 1.52873 6.68 1.55C6.69623 1.57127 6.71485 1.59794 6.73 1.62C6.74514 1.64206 6.756 1.66722 6.77 1.69C6.78403 1.71279 6.79714 1.72654 6.81 1.75C6.82286 1.77347 6.83834 1.80593 6.85 1.83C6.86168 1.85409 6.86957 1.87538 6.88 1.9C6.89045 1.92464 6.91 1.9449 6.91 1.97C6.91 1.99514 6.94 2.02446 6.94 2.05C6.94 2.07555 6.96 2.1041 6.96 2.13C6.96 2.15592 6.97 2.1738 6.97 2.2C6.97 2.22622 6.99 2.25356 6.99 2.28C6.99 2.30645 7 2.3334 7 2.36C7 2.38662 7 2.4133 7 2.44C7 2.46672 7.01 2.49326 7.01 2.52C7.01 2.54675 7 2.5733 7 2.6C7 2.62672 7 2.6534 7 2.68C7 2.70662 6.99 2.73356 6.99 2.76C6.99 2.78645 6.97 2.8138 6.97 2.84C6.97 2.86622 6.96 2.8941 6.96 2.92C6.96 2.9459 6.94 2.97446 6.94 3C6.94 3.02555 6.91 3.04488 6.91 3.07C6.91 3.09512 6.89045 3.12538 6.88 3.15C6.86957 3.17464 6.86168 3.19593 6.85 3.22C6.83834 3.24407 6.82286 3.26654 6.81 3.29C6.79714 3.31347 6.78403 3.33723 6.77 3.36C6.756 3.38279 6.74514 3.40794 6.73 3.43C6.71485 3.45207 6.69623 3.46874 6.68 3.49C6.66377 3.51128 6.64728 3.53956 6.63 3.56C6.61274 3.58044 6.59829 3.60046 6.58 3.62C6.56174 3.63954 6.53924 3.6514 6.52 3.67C6.50077 3.68861 6.48014 3.71239 6.46 3.73C6.43987 3.74761 6.42101 3.76342 6.4 3.78C6.37901 3.7966 6.35181 3.81448 6.33 3.83C6.30821 3.84553 6.29256 3.8556 6.27 3.87C6.24746 3.88442 6.22326 3.89675 6.2 3.91C6.17676 3.92327 6.15389 3.93791 6.13 3.95C6.10612 3.96209 6.08446 3.97913 6.06 3.99C6.03554 4.00087 6.00498 4.02 5.98 4.02C5.95502 4.02 5.93542 4.04 5.91 4.04C5.88457 4.04 5.85581 4.07 5.83 4.07C5.80419 4.07 5.77614 4.09 5.75 4.09C5.72388 4.09 5.69639 4.1 5.67 4.1C5.64361 4.1 5.61659 4.11 5.59 4.11C5.56341 4.11 5.53671 4.12 5.51 4.12C5.48329 4.12 5.45676 4.12 5.43 4.12C5.40324 4.12 5.37676 4.12 5.35 4.12ZM23.43 4.99L26.37 4.99L26.92 4.12L23.49 4.12C23.4633 4.12 23.4368 4.12 23.41 4.12C23.3833 4.12 23.3567 4.12 23.33 4.12C23.3033 4.12 23.2767 4.11 23.25 4.11C23.2235 4.11 23.1965 4.1 23.17 4.1C23.1437 4.1 23.1162 4.09 23.09 4.09C23.064 4.09 23.046 4.07 23.02 4.07C22.9943 4.07 22.9655 4.04 22.94 4.04C22.9147 4.04 22.885 4.02 22.86 4.02C22.8352 4.02 22.8147 4.00087 22.79 3.99C22.7657 3.97913 22.744 3.96209 22.72 3.95C22.6962 3.93791 22.6733 3.92327 22.65 3.91C22.6268 3.89675 22.6027 3.88442 22.58 3.87C22.5575 3.8556 22.532 3.84553 22.51 3.83C22.4883 3.81448 22.471 3.7966 22.45 3.78C22.429 3.76342 22.4102 3.74761 22.39 3.73C22.3698 3.71239 22.3493 3.68861 22.33 3.67C22.3108 3.6514 22.2883 3.63954 22.27 3.62C22.2518 3.60046 22.2373 3.58044 22.22 3.56C22.2028 3.53956 22.1863 3.51128 22.17 3.49C22.1538 3.46872 22.1353 3.45207 22.12 3.43C22.105 3.40796 22.094 3.38281 22.08 3.36C22.066 3.33723 22.053 3.31347 22.04 3.29C22.0272 3.26654 22.0117 3.24407 22 3.22C21.9883 3.19593 21.9805 3.17464 21.97 3.15C21.9597 3.12538 21.94 3.09512 21.94 3.07C21.94 3.04488 21.91 3.02555 21.91 3C21.91 2.97446 21.89 2.9459 21.89 2.92C21.89 2.8941 21.87 2.86622 21.87 2.84C21.87 2.8138 21.86 2.78645 21.86 2.76C21.86 2.73356 21.85 2.70662 21.85 2.68C21.85 2.6534 21.84 2.62672 21.84 2.6C21.84 2.5733 21.84 2.54675 21.84 2.52C21.84 2.49326 21.84 2.46672 21.84 2.44C21.84 2.4133 21.85 2.38662 21.85 2.36C21.85 2.3334 21.86 2.30645 21.86 2.28C21.86 2.25356 21.87 2.22622 21.87 2.2C21.87 2.1738 21.89 2.15592 21.89 2.13C21.89 2.1041 21.91 2.07555 21.91 2.05C21.91 2.02446 21.94 1.99514 21.94 1.97C21.94 1.9449 21.9597 1.92464 21.97 1.9C21.9805 1.87538 21.9883 1.85409 22 1.83C22.0117 1.80593 22.0272 1.77347 22.04 1.75C22.053 1.72654 22.066 1.71279 22.08 1.69C22.094 1.66722 22.105 1.64206 22.12 1.62C22.1353 1.59794 22.1538 1.57127 22.17 1.55C22.1863 1.52872 22.2028 1.51043 22.22 1.49C22.2373 1.46956 22.2518 1.44954 22.27 1.43C22.2883 1.41045 22.3108 1.38861 22.33 1.37C22.3493 1.35139 22.3698 1.33762 22.39 1.32C22.4102 1.30238 22.429 1.28659 22.45 1.27C22.471 1.25341 22.4883 1.23552 22.51 1.22C22.532 1.20448 22.5575 1.18441 22.58 1.17C22.6027 1.15559 22.6268 1.14326 22.65 1.13C22.6733 1.11674 22.6962 1.10208 22.72 1.09C22.744 1.07792 22.7657 1.07087 22.79 1.06C22.8147 1.04913 22.8352 1.03 22.86 1.03C22.885 1.03 22.9147 1 22.94 1C22.9655 1 22.9943 0.98 23.02 0.98C23.046 0.98 23.064 0.96 23.09 0.96C23.1162 0.96 23.1437 0.94 23.17 0.94C23.1965 0.94 23.2235 0.93 23.25 0.93C23.2767 0.93 23.3033 0.93 23.33 0.93C23.3567 0.93 23.3833 0.92 23.41 0.92C23.4368 0.92 23.4633 0.92 23.49 0.92L26.28 0.92L26.85 0.05L23.43 0.05C23.3888 0.05 23.3412 0.05 23.3 0.05C23.2588 0.05 23.2212 0.05 23.18 0.05C23.139 0.05 23.101 0.07 23.06 0.07C23.0192 0.07 22.9807 0.09 22.94 0.09C22.8995 0.09 22.8603 0.11 22.82 0.11C22.78 0.11 22.7397 0.128886 22.7 0.14C22.6603 0.151114 22.6192 0.166923 22.58 0.18C22.541 0.193077 22.4983 0.204994 22.46 0.22C22.4217 0.235006 22.3877 0.253099 22.35 0.27C22.3125 0.286897 22.2768 0.301248 22.24 0.32C22.2033 0.338748 22.1657 0.359445 22.13 0.38C22.0943 0.400553 22.0547 0.417692 22.02 0.44C21.9855 0.462306 21.9537 0.485996 21.92 0.51C21.8867 0.534002 21.8523 0.564358 21.82 0.59C21.7878 0.615641 21.761 0.642785 21.73 0.67C21.6992 0.697214 21.6697 0.721278 21.64 0.75C21.6107 0.77872 21.5782 0.809843 21.55 0.84C21.522 0.870155 21.4967 0.898486 21.47 0.93C21.4437 0.961514 21.415 0.997204 21.39 1.03C21.3652 1.0628 21.3433 1.096 21.32 1.13C21.2968 1.16399 21.2717 1.19489 21.25 1.23C21.2287 1.26511 21.2098 1.30386 21.19 1.34C21.1703 1.37614 21.148 1.41293 21.13 1.45C21.1122 1.48707 21.096 1.52208 21.08 1.56C21.064 1.59792 21.0542 1.64134 21.04 1.68C21.026 1.71867 21.0122 1.75068 21 1.79C20.9878 1.82932 20.9702 1.87013 20.96 1.91C20.9498 1.94989 20.94 1.98968 20.94 2.03C20.94 2.07035 20.92 2.10931 20.92 2.15C20.92 2.1907 20.9 2.23905 20.9 2.28C20.9 2.32095 20.89 2.35891 20.89 2.4C20.89 2.44112 20.89 2.47885 20.89 2.52C20.89 2.56115 20.89 2.6089 20.89 2.65C20.89 2.6911 20.9 2.72905 20.9 2.77C20.9 2.81095 20.92 2.84931 20.92 2.89C20.92 2.93069 20.94 2.96966 20.94 3.01C20.94 3.05034 20.9498 3.09011 20.96 3.13C20.9702 3.16989 20.9878 3.21068 21 3.25C21.0122 3.28934 21.026 3.33134 21.04 3.37C21.0542 3.40867 21.064 3.44208 21.08 3.48C21.096 3.51792 21.1122 3.56294 21.13 3.6C21.148 3.63709 21.1703 3.67387 21.19 3.71C21.2098 3.74614 21.2287 3.77491 21.25 3.81C21.2717 3.84513 21.2968 3.88601 21.32 3.92C21.3433 3.95399 21.3652 3.9872 21.39 4.02C21.415 4.0528 21.4437 4.0785 21.47 4.11C21.4967 4.14153 21.522 4.17985 21.55 4.21C21.5782 4.24017 21.6107 4.26128 21.64 4.29C21.6697 4.31873 21.6992 4.3528 21.73 4.38C21.761 4.40722 21.7878 4.43436 21.82 4.46C21.8523 4.48564 21.8867 4.50599 21.92 4.53C21.9537 4.55401 21.9855 4.57769 22.02 4.6C22.0547 4.62231 22.0943 4.64946 22.13 4.67C22.1657 4.69056 22.2033 4.70125 22.24 4.72C22.2768 4.73875 22.3125 4.7631 22.35 4.78C22.3877 4.79691 22.4217 4.815 22.46 4.83C22.4983 4.84502 22.541 4.85693 22.58 4.87C22.6192 4.88308 22.6603 4.88888 22.7 4.9C22.7397 4.91112 22.78 4.93 22.82 4.93C22.8603 4.93 22.8995 4.96 22.94 4.96C22.9807 4.96 23.0192 4.98 23.06 4.98C23.101 4.98 23.139 4.99 23.18 4.99C23.2212 4.99 23.2588 5 23.3 5C23.3412 5 23.3888 4.99 23.43 4.99ZM35.07 4.12C35.0267 4.12 34.9832 4.12 34.94 4.12C34.897 4.12 34.8528 4.1 34.81 4.1C34.7673 4.1 34.7222 4.09039 34.68 4.08C34.638 4.06963 34.601 4.05375 34.56 4.04C34.519 4.02627 34.4798 4.01701 34.44 4C34.4003 3.98299 34.3583 3.96018 34.32 3.94C34.2818 3.91982 34.2467 3.89321 34.21 3.87C34.1735 3.84679 34.1347 3.82607 34.1 3.8C34.0655 3.77393 34.0323 3.74878 34 3.72C33.9677 3.69123 33.94 3.6613 33.91 3.63C33.8802 3.5987 33.8473 3.56361 33.82 3.53C33.7928 3.49641 33.7745 3.46571 33.75 3.43C33.7257 3.39431 33.7015 3.35756 33.68 3.32C33.6587 3.28244 33.6385 3.23916 33.62 3.2C33.6017 3.16085 33.5852 3.12052 33.57 3.08C33.555 3.03948 33.5418 3.00162 33.53 2.96L37.6 2.96L38.16 2.09L33.53 2.09C33.5418 2.04838 33.555 2.00055 33.57 1.96C33.5852 1.91948 33.6017 1.87919 33.62 1.84C33.6383 1.80083 33.6587 1.76759 33.68 1.73C33.7015 1.69244 33.7257 1.65571 33.75 1.62C33.7745 1.58429 33.7928 1.54362 33.82 1.51C33.8473 1.47638 33.8802 1.45131 33.91 1.42C33.94 1.38869 33.9677 1.35879 34 1.33C34.0323 1.30121 34.0655 1.26608 34.1 1.24C34.1347 1.21392 34.1737 1.1932 34.21 1.17C34.2467 1.1468 34.2817 1.13017 34.32 1.11C34.3583 1.08983 34.4003 1.06701 34.44 1.05C34.4798 1.03299 34.519 1.01373 34.56 1C34.601 0.986269 34.638 0.980365 34.68 0.97C34.722 0.959635 34.7673 0.94 34.81 0.94C34.8527 0.94 34.8968 0.93 34.94 0.93C34.9832 0.93 35.0267 0.92 35.07 0.92L37.86 0.92L38.42 0.05L35 0.05C34.9602 0.05 34.9297 0.05 34.89 0.05C34.8503 0.05 34.8097 0.07 34.77 0.07C34.7305 0.07 34.6893 0.08 34.65 0.08C34.6108 0.08 34.569 0.11 34.53 0.11C34.4912 0.11 34.4485 0.119482 34.41 0.13C34.3717 0.140518 34.338 0.157641 34.3 0.17C34.2622 0.182359 34.2273 0.19583 34.19 0.21C34.1527 0.22417 34.1165 0.23405 34.08 0.25C34.0435 0.26595 34.0057 0.282307 33.97 0.3C33.9343 0.317691 33.8948 0.340606 33.86 0.36C33.8253 0.379393 33.794 0.398951 33.76 0.42C33.7262 0.441049 33.6928 0.467344 33.66 0.49C33.6273 0.512654 33.5917 0.535791 33.56 0.56C33.5283 0.584207 33.5005 0.604293 33.47 0.63C33.4397 0.655705 33.4093 0.682856 33.38 0.71C33.351 0.737142 33.328 0.761481 33.3 0.79C33.2723 0.818517 33.2365 0.850174 33.21 0.88C33.1837 0.909826 33.165 0.938936 33.14 0.97C33.1152 1.00106 33.0835 1.03777 33.06 1.07C33.0367 1.10223 33.0218 1.13668 33 1.17C32.9783 1.20332 32.9503 1.23567 32.93 1.27C32.9098 1.30433 32.8985 1.33473 32.88 1.37C32.8615 1.40527 32.8368 1.44388 32.82 1.48C32.8033 1.51612 32.795 1.55312 32.78 1.59C32.765 1.62688 32.7433 1.66244 32.73 1.7C32.7168 1.73757 32.7113 1.77184 32.7 1.81C32.6887 1.84816 32.66 1.89134 32.66 1.93C32.66 1.96866 32.64 2.01093 32.64 2.05C32.64 2.08909 32.62 2.12061 32.62 2.16C32.62 2.19942 32.6 2.24038 32.6 2.28C32.6 2.31964 32.6 2.36023 32.6 2.4C32.6 2.43977 32.59 2.48018 32.59 2.52C32.59 2.55982 32.6 2.60025 32.6 2.64C32.6 2.67979 32.6 2.72038 32.6 2.76C32.6 2.79964 32.62 2.84061 32.62 2.88C32.62 2.9194 32.64 2.96093 32.64 3C32.64 3.03909 32.66 3.07134 32.66 3.11C32.66 3.14867 32.6887 3.19184 32.7 3.23C32.7113 3.26816 32.7168 3.30244 32.73 3.34C32.7433 3.37757 32.765 3.41313 32.78 3.45C32.795 3.48689 32.8033 3.52389 32.82 3.56C32.8368 3.59613 32.8615 3.63474 32.88 3.67C32.8985 3.70526 32.9098 3.73567 32.93 3.77C32.9503 3.80434 32.9783 3.83669 33 3.87C33.0218 3.90333 33.0367 3.93777 33.06 3.97C33.0835 4.00223 33.1152 4.03894 33.14 4.07C33.165 4.10106 33.1837 4.13018 33.21 4.16C33.2365 4.18983 33.2723 4.2215 33.3 4.25C33.328 4.27853 33.351 4.30286 33.38 4.33C33.4093 4.35714 33.4397 4.3843 33.47 4.41C33.5005 4.4357 33.5283 4.45579 33.56 4.48C33.5917 4.50421 33.6273 4.52734 33.66 4.55C33.6928 4.57266 33.7262 4.59896 33.76 4.62C33.794 4.64104 33.8253 4.66062 33.86 4.68C33.8948 4.69941 33.9343 4.72232 33.97 4.74C34.0057 4.7577 34.0435 4.77405 34.08 4.79C34.1165 4.80595 34.1527 4.81583 34.19 4.83C34.2273 4.84418 34.2622 4.85765 34.3 4.87C34.338 4.88235 34.3717 4.89948 34.41 4.91C34.4485 4.92052 34.4912 4.94 34.53 4.94C34.569 4.94 34.6108 4.96 34.65 4.96C34.6893 4.96 34.7305 4.98 34.77 4.98C34.8097 4.98 34.8503 4.99 34.89 4.99C34.9297 4.99 34.9602 4.99 35 4.99L37.94 4.99L38.5 4.12L35.07 4.12Z">
</path>
</svg>
