<svg xmlns="http://www.w3.org/2000/svg" xmlns:xlink="http://www.w3.org/1999/xlink" width="24.600000083446503" height="5.71999979019165" viewBox="0 0 24.600000083446503 5.71999979019165" fill="none">
<g >
<path     fill="#D81E06"  d="M2.12 5.72Q1.128 5.72 0.564 5.156Q0 4.592 0 3.6Q0 2.608 0.564 2.044Q1.128 1.48 2.12 1.48Q3.112 1.48 3.676 2.044Q4.24 2.608 4.24 3.6Q4.24 4.592 3.676 5.156Q3.112 5.72 2.12 5.72ZM2.12 5.56Q2.44 5.56 2.66 5.112Q2.88 4.664 2.88 3.6Q2.88 2.536 2.66 2.088Q2.44 1.64 2.12 1.64Q1.8 1.64 1.58 2.088Q1.36 2.536 1.36 3.6Q1.36 4.664 1.58 5.112Q1.8 5.56 2.12 5.56ZM4.88 5.48L5.36 5.36L5.36 1.84L4.88 1.72L4.88 1.6L5.6 1.6Q6.072 1.6 6.344 1.904Q6.448 2.024 6.52 2.2Q6.64 2.024 6.816 1.88Q7.216 1.56 7.712 1.56Q8.136 1.56 8.348 1.756Q8.56 1.952 8.56 2.32Q8.56 2.592 8.396 2.756Q8.232 2.92 7.96 2.92Q7.848 2.92 7.736 2.904L7.64 2.88L7.64 1.76Q7.232 1.76 6.896 2.08Q6.736 2.24 6.64 2.4L6.64 5.36L7.12 5.48L7.12 5.6L4.88 5.6L4.88 5.48ZM10.48 5.72Q9.768 5.72 9.384 5.416Q9 5.112 9 4.64Q9 4.328 9.136 4.024Q9.192 3.88 9.28 3.76Q9.608 3.68 9.992 3.616Q10.856 3.472 11.52 3.44L11.52 3.2Q11.52 2.312 11.304 1.976Q11.088 1.64 10.64 1.64Q10.472 1.64 10.352 1.68L10.24 1.72L10.24 2.92L10.136 2.944Q10.008 2.96 9.92 2.96Q9.648 2.96 9.484 2.796Q9.32 2.632 9.32 2.36Q9.32 1.992 9.692 1.736Q10.064 1.48 10.8 1.48Q11.424 1.48 11.876 1.7Q12.328 1.92 12.564 2.308Q12.8 2.696 12.8 3.2L12.8 5.36L13.28 5.48L13.28 5.6L12.56 5.6Q12.08 5.6 11.816 5.304Q11.704 5.184 11.64 5Q11.528 5.2 11.376 5.36Q11.016 5.72 10.48 5.72ZM10.8 5.44Q11.096 5.44 11.336 5.12Q11.424 5 11.52 4.8L11.52 3.64Q11.152 3.64 10.816 3.68Q10.568 3.712 10.48 3.72Q10.44 3.808 10.4 3.96Q10.32 4.264 10.32 4.56Q10.32 5.008 10.456 5.224Q10.592 5.44 10.8 5.44ZM15.92 5.72Q14.896 5.72 14.328 5.156Q13.76 4.592 13.76 3.6Q13.76 2.608 14.328 2.044Q14.896 1.48 15.92 1.48Q16.656 1.48 17.028 1.736Q17.4 1.992 17.4 2.36Q17.4 2.632 17.236 2.796Q17.072 2.96 16.8 2.96Q16.688 2.96 16.576 2.944L16.48 2.92L16.48 1.72L16.368 1.68Q16.248 1.64 16.08 1.64Q15.624 1.64 15.372 2.072Q15.12 2.504 15.12 3.6Q15.12 4.664 15.372 5.092Q15.624 5.52 16.08 5.52Q16.392 5.52 16.66 5.372Q16.928 5.224 17.084 4.98Q17.24 4.736 17.24 4.48L17.44 4.48Q17.44 4.8 17.248 5.088Q17.056 5.376 16.712 5.548Q16.368 5.72 15.92 5.72ZM18 5.48L18.48 5.36L18.48 0.24L18 0.119999L18 0L19.04 0Q19.76 0 19.76 0.72L19.76 5.36L20.24 5.48L20.24 5.6L18 5.6L18 5.48ZM22.88 5.72Q21.856 5.72 21.288 5.156Q20.72 4.592 20.72 3.6Q20.72 2.952 20.968 2.472Q21.216 1.992 21.66 1.736Q22.104 1.48 22.68 1.48Q23.256 1.48 23.692 1.696Q24.128 1.912 24.364 2.276Q24.6 2.64 24.6 3.08Q24.6 3.28 24.56 3.424L24.52 3.56Q24.176 3.632 23.776 3.68Q22.936 3.8 22.08 3.8Q22.08 4.728 22.336 5.124Q22.592 5.52 23.04 5.52Q23.352 5.52 23.62 5.372Q23.888 5.224 24.044 4.98Q24.2 4.736 24.2 4.48L24.4 4.48Q24.4 4.8 24.208 5.088Q24.016 5.376 23.672 5.548Q23.328 5.72 22.88 5.72ZM22.08 3.6Q22.592 3.6 22.912 3.56Q23.048 3.552 23.2 3.52Q23.208 3.48 23.24 3.344Q23.28 3.144 23.28 2.92Q23.28 2.256 23.104 1.948Q22.928 1.64 22.68 1.64Q22.08 1.64 22.08 3.6Z">
</path>
</g>
</svg>
