<svg xmlns="http://www.w3.org/2000/svg" xmlns:xlink="http://www.w3.org/1999/xlink" width="12.300000041723251" height="2.859999895095825" viewBox="0 0 12.300000041723251 2.859999895095825" fill="none">
<g >
<path     fill="#D81E06"  d="M1.06 2.86Q0.564 2.86 0.282 2.578Q0 2.296 0 1.8Q0 1.304 0.282 1.022Q0.564 0.74 1.06 0.74Q1.556 0.74 1.838 1.022Q2.12 1.304 2.12 1.8Q2.12 2.296 1.838 2.578Q1.556 2.86 1.06 2.86ZM1.06 2.78Q1.22 2.78 1.33 2.556Q1.44 2.332 1.44 1.8Q1.44 1.268 1.33 1.044Q1.22 0.82 1.06 0.82Q0.9 0.82 0.79 1.044Q0.68 1.268 0.68 1.8Q0.68 2.332 0.79 2.556Q0.9 2.78 1.06 2.78ZM2.44 2.74L2.68 2.68L2.68 0.92L2.44 0.86L2.44 0.8L2.8 0.8Q3.036 0.8 3.172 0.952Q3.224 1.012 3.26 1.1Q3.32 1.012 3.408 0.94Q3.608 0.78 3.856 0.78Q4.068 0.78 4.174 0.878Q4.28 0.976 4.28 1.16Q4.28 1.296 4.198 1.378Q4.116 1.46 3.98 1.46Q3.924 1.46 3.868 1.452L3.82 1.44L3.82 0.88Q3.616 0.88 3.448 1.04Q3.368 1.12 3.32 1.2L3.32 2.68L3.56 2.74L3.56 2.8L2.44 2.8L2.44 2.74ZM5.24 2.86Q4.884 2.86 4.692 2.708Q4.5 2.556 4.5 2.32Q4.5 2.164 4.568 2.012Q4.596 1.94 4.64 1.88Q4.804 1.84 4.996 1.808Q5.428 1.736 5.76 1.72L5.76 1.6Q5.76 1.156 5.652 0.988Q5.544 0.82 5.32 0.82Q5.236 0.82 5.176 0.84L5.12 0.86L5.12 1.46L5.068 1.472Q5.004 1.48 4.96 1.48Q4.824 1.48 4.742 1.398Q4.66 1.316 4.66 1.18Q4.66 0.996 4.846 0.868Q5.032 0.74 5.4 0.74Q5.712 0.74 5.938 0.85Q6.164 0.96 6.282 1.154Q6.4 1.348 6.4 1.6L6.4 2.68L6.64 2.74L6.64 2.8L6.28 2.8Q6.04 2.8 5.908 2.652Q5.852 2.592 5.82 2.5Q5.764 2.6 5.688 2.68Q5.508 2.86 5.24 2.86ZM5.4 2.72Q5.548 2.72 5.668 2.56Q5.712 2.5 5.76 2.4L5.76 1.82Q5.576 1.82 5.408 1.84Q5.284 1.856 5.24 1.86Q5.22 1.904 5.2 1.98Q5.16 2.132 5.16 2.28Q5.16 2.504 5.228 2.612Q5.296 2.72 5.4 2.72ZM7.96 2.86Q7.448 2.86 7.164 2.578Q6.88 2.296 6.88 1.8Q6.88 1.304 7.164 1.022Q7.448 0.74 7.96 0.74Q8.328 0.74 8.514 0.868Q8.7 0.996 8.7 1.18Q8.7 1.316 8.618 1.398Q8.536 1.48 8.4 1.48Q8.344 1.48 8.288 1.472L8.24 1.46L8.24 0.86L8.184 0.84Q8.124 0.82 8.04 0.82Q7.812 0.82 7.686 1.036Q7.56 1.252 7.56 1.8Q7.56 2.332 7.686 2.546Q7.812 2.76 8.04 2.76Q8.196 2.76 8.33 2.686Q8.464 2.612 8.542 2.49Q8.62 2.368 8.62 2.24L8.72 2.24Q8.72 2.4 8.624 2.544Q8.528 2.688 8.356 2.774Q8.184 2.86 7.96 2.86ZM9 2.74L9.24 2.68L9.24 0.12L9 0.0599997L9 0L9.52 0Q9.88 0 9.88 0.36L9.88 2.68L10.12 2.74L10.12 2.8L9 2.8L9 2.74ZM11.44 2.86Q10.928 2.86 10.644 2.578Q10.36 2.296 10.36 1.8Q10.36 1.476 10.484 1.236Q10.608 0.996 10.83 0.868Q11.052 0.74 11.34 0.74Q11.628 0.74 11.846 0.848Q12.064 0.956 12.182 1.138Q12.3 1.32 12.3 1.54Q12.3 1.64 12.28 1.712L12.26 1.78Q12.088 1.816 11.888 1.84Q11.468 1.9 11.04 1.9Q11.04 2.364 11.168 2.562Q11.296 2.76 11.52 2.76Q11.676 2.76 11.81 2.686Q11.944 2.612 12.022 2.49Q12.1 2.368 12.1 2.24L12.2 2.24Q12.2 2.4 12.104 2.544Q12.008 2.688 11.836 2.774Q11.664 2.86 11.44 2.86ZM11.04 1.8Q11.296 1.8 11.456 1.78Q11.524 1.776 11.6 1.76Q11.604 1.74 11.62 1.672Q11.64 1.572 11.64 1.46Q11.64 1.128 11.552 0.974Q11.464 0.82 11.34 0.82Q11.04 0.82 11.04 1.8Z">
</path>
</g>
</svg>
