<svg xmlns="http://www.w3.org/2000/svg" xmlns:xlink="http://www.w3.org/1999/xlink" width="57.77000045776367" height="15" viewBox="0 0 57.77000045776367 15" fill="none">
<g  clip-path="url(#clip-path-0)">
<path     fill="#C74634"  d="M24.9943 4.882L28.8043 4.882L26.7918 1.63141L23.0918 7.50248L21.4093 7.50248L25.9093 0.458697C25.9215 0.441204 25.9343 0.424093 25.9475 0.40736C25.9608 0.390627 25.9745 0.374304 25.9885 0.358391C26.0028 0.342475 26.0175 0.326998 26.0325 0.31196C26.0478 0.296922 26.0633 0.282347 26.0793 0.268237C26.0953 0.254124 26.1118 0.240502 26.1285 0.22737C26.1455 0.214238 26.1625 0.201619 26.18 0.189512C26.1975 0.177405 26.2155 0.165832 26.2338 0.154793C26.252 0.143755 26.2705 0.13327 26.2893 0.123339C26.3083 0.113408 26.3275 0.104049 26.3468 0.095261C26.3663 0.0864729 26.386 0.0782719 26.4058 0.070658C26.4258 0.0630441 26.446 0.0560308 26.4663 0.0496184C26.4868 0.0432057 26.5073 0.0374051 26.5278 0.0322164C26.5485 0.0270277 26.5693 0.0224605 26.5903 0.0185144C26.6113 0.0145683 26.6325 0.0112504 26.6535 0.00856082C26.6748 0.00587123 26.696 0.0038147 26.717 0.00239119C26.7385 0.00096768 26.7598 0.000179745 26.781 2.73823e-05C26.8025 -0.000124981 26.8238 0.000358501 26.845 0.00147782C26.8665 0.00259715 26.8878 0.00435033 26.9088 0.00673734C26.93 0.00912438 26.951 0.012141 26.972 0.0157873C26.993 0.0194335 27.014 0.0237029 27.0348 0.0285955C27.0555 0.0334879 27.076 0.0389949 27.0965 0.0451163C27.117 0.0512377 27.1373 0.0579624 27.1573 0.0652908C27.1773 0.0726194 27.197 0.0805383 27.2165 0.0890479C27.236 0.0975572 27.2553 0.106642 27.2743 0.116302C27.2935 0.125963 27.3123 0.136181 27.3305 0.146958C27.349 0.157735 27.367 0.16905 27.3848 0.180905C27.4025 0.19276 27.4198 0.205132 27.4368 0.218023C27.4538 0.230914 27.4705 0.2443 27.4865 0.258182C27.5028 0.272063 27.5185 0.286413 27.534 0.301235C27.5495 0.316056 27.5643 0.331321 27.5785 0.347031C27.593 0.362739 27.607 0.378867 27.6203 0.39541C27.6338 0.411951 27.6468 0.428879 27.6593 0.446195L32.1719 7.50248L30.4894 7.50248L29.6968 6.18974L25.8418 6.18974L25.0017 4.882M42.4846 6.18974L42.4846 0.0711246L41.0546 0.0711246L41.0546 6.79235C41.0546 6.83906 41.0591 6.88529 41.0683 6.93105C41.0776 6.97683 41.0913 7.02122 41.1096 7.0642C41.1278 7.10718 41.1503 7.14789 41.1768 7.18632C41.2033 7.22475 41.2336 7.26014 41.2671 7.29244C41.3011 7.32707 41.3378 7.35798 41.3778 7.38518C41.4181 7.41239 41.4606 7.43534 41.5051 7.45402C41.5498 7.47272 41.5958 7.48678 41.6433 7.49618C41.6908 7.50561 41.7388 7.51021 41.7871 7.50998L48.2872 7.50998L49.1347 6.19724L42.4771 6.19724M18.8417 5.09704C18.8828 5.09704 18.924 5.09604 18.965 5.09401C19.0061 5.09201 19.0471 5.08899 19.088 5.08494C19.1289 5.08091 19.1697 5.07588 19.2104 5.06983C19.2511 5.06381 19.2916 5.05678 19.3319 5.04875C19.3722 5.04075 19.4123 5.03173 19.4522 5.02172C19.4921 5.01175 19.5317 5.00079 19.5711 4.98884C19.6104 4.97689 19.6495 4.96399 19.6882 4.95014C19.7269 4.93628 19.7652 4.9215 19.8032 4.90575C19.8412 4.89002 19.8788 4.87337 19.916 4.85577C19.9532 4.83819 19.9899 4.81971 20.0261 4.80031C20.0624 4.78093 20.0982 4.76068 20.1334 4.73952C20.1687 4.71837 20.2034 4.69639 20.2376 4.67353C20.2718 4.65068 20.3054 4.627 20.3385 4.6025C20.3715 4.57802 20.4039 4.55274 20.4357 4.52663C20.4675 4.50053 20.4986 4.47367 20.5291 4.44607C20.5595 4.41846 20.5893 4.39011 20.6184 4.361C20.6475 4.33195 20.6758 4.30217 20.7034 4.27169C20.731 4.24123 20.7579 4.2101 20.784 4.17829C20.81 4.14649 20.8353 4.11408 20.8598 4.08105C20.8843 4.04802 20.908 4.01441 20.9308 3.98021C20.9537 3.946 20.9757 3.91127 20.9968 3.87599C21.018 3.84073 21.0382 3.80495 21.0576 3.76867C21.077 3.73241 21.0955 3.6957 21.113 3.6585C21.1306 3.62134 21.1473 3.58376 21.163 3.54575C21.1787 3.50775 21.1935 3.46939 21.2074 3.43066C21.2212 3.39195 21.2341 3.35292 21.2461 3.31356C21.258 3.2742 21.269 3.23457 21.279 3.19466C21.289 3.15478 21.298 3.11467 21.306 3.07434C21.314 3.03401 21.321 2.9935 21.3271 2.95279C21.3331 2.91214 21.3381 2.87133 21.3422 2.8304C21.3462 2.78946 21.3492 2.74846 21.3512 2.70737C21.3533 2.66632 21.3543 2.62521 21.3543 2.58408C21.3543 2.54297 21.3533 2.50186 21.3512 2.46078C21.3492 2.4197 21.3462 2.3787 21.3422 2.33777C21.3381 2.29684 21.3331 2.25604 21.3271 2.21536C21.321 2.17468 21.314 2.13417 21.306 2.09383C21.298 2.0535 21.289 2.01338 21.279 1.97349C21.269 1.93359 21.258 1.89397 21.2461 1.85461C21.2341 1.81526 21.2212 1.77622 21.2074 1.7375C21.1935 1.69877 21.1787 1.66041 21.163 1.62242C21.1473 1.58442 21.1306 1.54683 21.113 1.50966C21.0955 1.47248 21.077 1.43575 21.0576 1.39948C21.0382 1.36321 21.018 1.32744 20.9968 1.29217C20.9757 1.25689 20.9537 1.22215 20.9308 1.18796C20.908 1.15376 20.8843 1.12015 20.8598 1.08712C20.8353 1.05408 20.81 1.02167 20.784 0.989882C20.7579 0.958091 20.731 0.926958 20.7034 0.896485C20.6758 0.866012 20.6475 0.836236 20.6184 0.807156C20.5893 0.778073 20.5595 0.749723 20.5291 0.722105C20.4986 0.694485 20.4675 0.66763 20.4357 0.64154C20.4039 0.615451 20.3715 0.590156 20.3385 0.565657C20.3054 0.541157 20.2718 0.517485 20.2376 0.494636C20.2034 0.471787 20.1687 0.44979 20.1334 0.428649C20.0982 0.407505 20.0624 0.387239 20.0261 0.367853C19.9899 0.348464 19.9532 0.329981 19.916 0.312397C19.8788 0.294812 19.8412 0.278151 19.8032 0.262413C19.7652 0.246674 19.7269 0.231877 19.6882 0.218022C19.6495 0.204167 19.6104 0.19127 19.5711 0.179332C19.5317 0.167393 19.4921 0.156428 19.4522 0.146435C19.4123 0.136442 19.3722 0.127434 19.3319 0.11941C19.2916 0.111387 19.2511 0.104358 19.2104 0.0983236C19.1697 0.0922892 19.1289 0.0872563 19.088 0.0832251C19.0471 0.0791941 19.0061 0.0761695 18.965 0.0741516C18.924 0.0721335 18.8828 0.0711246 18.8417 0.0711246L12.5916 0.0711246L12.5916 7.50248L14.0191 7.50248L14.0191 1.38637L18.7542 1.38637C18.7739 1.38637 18.7936 1.38685 18.8132 1.38782C18.8329 1.38878 18.8525 1.39023 18.8721 1.39216C18.8917 1.39409 18.9112 1.3965 18.9307 1.39938C18.9502 1.40227 18.9695 1.40564 18.9888 1.40948C19.0081 1.41332 19.0273 1.41763 19.0464 1.42241C19.0655 1.42719 19.0845 1.43244 19.1033 1.43816C19.1222 1.44387 19.1408 1.45004 19.1593 1.45667C19.1779 1.4633 19.1962 1.47039 19.2144 1.47792C19.2326 1.48545 19.2506 1.49342 19.2684 1.50184C19.2862 1.51026 19.3037 1.5191 19.3211 1.52838C19.3384 1.53766 19.3556 1.54736 19.3724 1.55748C19.3893 1.5676 19.406 1.57813 19.4223 1.58906C19.4387 1.6 19.4548 1.61133 19.4706 1.62305C19.4864 1.63478 19.5019 1.64689 19.5171 1.65937C19.5323 1.67186 19.5472 1.68471 19.5618 1.69793C19.5764 1.71115 19.5906 1.72472 19.6045 1.73864C19.6185 1.75255 19.632 1.7668 19.6452 1.78139C19.6585 1.79597 19.6713 1.81087 19.6838 1.82609C19.6963 1.8413 19.7084 1.85682 19.7201 1.87263C19.7318 1.88844 19.7432 1.90453 19.7541 1.92089C19.765 1.93726 19.7756 1.95388 19.7857 1.97077C19.7958 1.98765 19.8055 2.00477 19.8147 2.02213C19.824 2.03949 19.8329 2.05707 19.8413 2.07486C19.8497 2.09265 19.8577 2.11064 19.8652 2.12883C19.8727 2.14701 19.8798 2.16537 19.8864 2.1839C19.8931 2.20244 19.8993 2.22112 19.905 2.23996C19.9107 2.25879 19.9159 2.27776 19.9207 2.29685C19.9255 2.31594 19.9298 2.33514 19.9336 2.35445C19.9375 2.37375 19.9408 2.39314 19.9437 2.41261C19.9466 2.43208 19.949 2.45161 19.951 2.4712C19.9529 2.49079 19.9543 2.51041 19.9553 2.53007C19.9563 2.54972 19.9567 2.5694 19.9567 2.58908C19.9567 2.60878 19.9563 2.62843 19.9553 2.64809C19.9543 2.66777 19.9529 2.68739 19.951 2.70697C19.949 2.72658 19.9466 2.7461 19.9437 2.76556C19.9408 2.78504 19.9375 2.80442 19.9336 2.82372C19.9298 2.84302 19.9255 2.86223 19.9207 2.8813C19.9159 2.90041 19.9107 2.91939 19.905 2.93822C19.8993 2.95707 19.8931 2.97575 19.8864 2.99425C19.8798 3.0128 19.8727 3.03116 19.8652 3.04934C19.8577 3.06754 19.8497 3.08552 19.8413 3.1033C19.8329 3.1211 19.824 3.13868 19.8147 3.15603C19.8055 3.17341 19.7958 3.19054 19.7857 3.20739C19.7756 3.22429 19.765 3.24092 19.7541 3.25727C19.7432 3.27365 19.7318 3.28973 19.7201 3.30553C19.7084 3.32136 19.6963 3.33686 19.6838 3.35207C19.6713 3.36729 19.6585 3.3822 19.6452 3.39677C19.632 3.41138 19.6185 3.42563 19.6045 3.43953C19.5906 3.45346 19.5764 3.46704 19.5618 3.48024C19.5472 3.49347 19.5323 3.50632 19.5171 3.5188C19.5019 3.5313 19.4864 3.5434 19.4706 3.5551C19.4548 3.56686 19.4387 3.57818 19.4223 3.58911C19.406 3.60006 19.3893 3.61059 19.3724 3.62069C19.3556 3.63082 19.3385 3.64052 19.3211 3.64977C19.3037 3.65907 19.2862 3.66792 19.2684 3.67633C19.2506 3.68475 19.2326 3.69273 19.2144 3.70026C19.1962 3.70778 19.1779 3.71486 19.1593 3.72148C19.1408 3.72814 19.1222 3.73431 19.1033 3.74001C19.0845 3.74574 19.0655 3.75099 19.0464 3.75574C19.0273 3.76054 19.0081 3.76484 18.9888 3.76869C18.9695 3.77254 18.9502 3.77589 18.9307 3.77877C18.9112 3.78167 18.8917 3.7841 18.8721 3.786C18.8525 3.78795 18.8329 3.7894 18.8132 3.79035C18.7936 3.79132 18.7739 3.7918 18.7542 3.7918L14.7266 3.7918L18.9917 7.50248L21.0643 7.50248L18.1992 5.09704L18.8417 5.09704ZM3.81143 7.50248L8.12901 7.50248C8.18881 7.50093 8.24851 7.49795 8.30812 7.4935C8.36777 7.48908 8.42724 7.4832 8.48659 7.4759C8.54594 7.4686 8.6051 7.45985 8.664 7.4497C8.72295 7.43954 8.78157 7.42794 8.83992 7.41494C8.8983 7.40196 8.95633 7.38756 9.014 7.37176C9.07168 7.35595 9.12893 7.33877 9.18576 7.32022C9.24261 7.30167 9.29898 7.28174 9.35486 7.26044C9.41074 7.23916 9.46606 7.21653 9.52086 7.19257C9.57566 7.16862 9.62984 7.14336 9.68339 7.11678C9.73697 7.09023 9.78987 7.06237 9.84207 7.03324C9.89432 7.00411 9.9458 6.97373 9.99655 6.94213C10.0473 6.91052 10.0973 6.87769 10.1465 6.84366C10.1956 6.80963 10.244 6.77442 10.2914 6.73806C10.3389 6.70171 10.3855 6.66423 10.4311 6.62562C10.4768 6.58701 10.5215 6.5473 10.5652 6.50655C10.609 6.46579 10.6517 6.42398 10.6935 6.38112C10.7352 6.33832 10.7759 6.29451 10.8155 6.2497C10.8551 6.20489 10.8936 6.15916 10.931 6.1125C10.9684 6.06584 11.0047 6.01831 11.0398 5.9699C11.0749 5.92149 11.1088 5.87228 11.1415 5.82222C11.1743 5.77219 11.2058 5.72138 11.2361 5.66979C11.2664 5.61823 11.2954 5.56597 11.3231 5.51299C11.3509 5.46003 11.3774 5.40642 11.4026 5.35216C11.4277 5.29792 11.4516 5.24309 11.4741 5.18768C11.4966 5.13229 11.5178 5.07638 11.5376 5.01995C11.5575 4.96354 11.5759 4.90665 11.593 4.84934C11.6101 4.79203 11.6257 4.73435 11.64 4.67626C11.6543 4.6182 11.6672 4.55984 11.6787 4.50113C11.6902 4.44244 11.7002 4.38351 11.7088 4.32432C11.7175 4.26516 11.7247 4.2058 11.7304 4.14626C11.7362 4.08675 11.7405 4.02712 11.7434 3.96735C11.7463 3.90764 11.7477 3.84786 11.7477 3.78805C11.7477 3.72824 11.7463 3.66847 11.7434 3.60874C11.7405 3.549 11.7362 3.48937 11.7304 3.42983C11.7247 3.37032 11.7175 3.31098 11.7088 3.25177C11.7002 3.19261 11.6902 3.13368 11.6787 3.07497C11.6672 3.01628 11.6543 2.95789 11.64 2.89983C11.6257 2.84177 11.6101 2.78406 11.593 2.72675C11.5759 2.66944 11.5575 2.61258 11.5376 2.55615C11.5178 2.49973 11.4966 2.44382 11.4741 2.38842C11.4516 2.33302 11.4277 2.2782 11.4026 2.22395C11.3774 2.1697 11.3509 2.11609 11.3231 2.06312C11.2954 2.01015 11.2664 1.95788 11.2361 1.90631C11.2058 1.85474 11.1743 1.80393 11.1415 1.75389C11.1088 1.70384 11.0749 1.65461 11.0398 1.6062C11.0047 1.55779 10.9684 1.51026 10.931 1.4636C10.8936 1.41694 10.8551 1.37122 10.8155 1.32642C10.7759 1.28162 10.7352 1.23781 10.6935 1.19497C10.6517 1.15214 10.609 1.11033 10.5652 1.06957C10.5215 1.0288 10.4768 0.989107 10.4311 0.950497C10.3855 0.911885 10.3389 0.874401 10.2914 0.838039C10.244 0.801677 10.1956 0.766481 10.1465 0.732455C10.0973 0.698426 10.0473 0.665605 9.99655 0.633989C9.9458 0.602373 9.89432 0.572003 9.84207 0.542875C9.78987 0.513747 9.73697 0.485897 9.68339 0.459322C9.62984 0.432747 9.57566 0.407482 9.52086 0.383528C9.46606 0.359569 9.41074 0.336949 9.35486 0.315666C9.29898 0.294379 9.24261 0.274455 9.18576 0.255892C9.12893 0.237329 9.07168 0.220149 9.014 0.204351C8.95633 0.188554 8.8983 0.174157 8.83992 0.161161C8.78157 0.148166 8.72295 0.136586 8.664 0.126423C8.6051 0.116259 8.54594 0.107524 8.48659 0.100217C8.42724 0.0929091 8.36777 0.0870383 8.30812 0.0826037C8.24851 0.0781691 8.18881 0.0751763 8.12901 0.0736253L3.81143 0.0736253C3.74965 0.072022 3.68787 0.0719607 3.62607 0.0734415C3.5643 0.0749225 3.50259 0.0779436 3.44094 0.0825047C3.37932 0.0870658 3.31784 0.0931616 3.25649 0.100792C3.19516 0.108422 3.13406 0.117578 3.07319 0.128258C3.01231 0.138938 2.95173 0.151131 2.89146 0.164834C2.83121 0.178538 2.7713 0.193737 2.7118 0.21043C2.6523 0.227123 2.59323 0.24529 2.53465 0.264931C2.47604 0.284572 2.41796 0.305664 2.36041 0.328203C2.30287 0.350742 2.24591 0.374704 2.18956 0.400089C2.13321 0.425471 2.07752 0.452243 2.02251 0.480406C1.96749 0.508566 1.91321 0.538084 1.85966 0.568957C1.80612 0.599828 1.75338 0.632016 1.70144 0.665522C1.6495 0.699026 1.59843 0.733805 1.54823 0.769859C1.49802 0.805911 1.44875 0.843195 1.40041 0.88171C1.35206 0.920222 1.30471 0.959919 1.25835 1.0008C1.21199 1.04167 1.16668 1.08368 1.12241 1.12682C1.07815 1.16996 1.03498 1.21418 0.992925 1.25947C0.950866 1.30476 0.909963 1.35108 0.870215 1.39841C0.830466 1.44575 0.791923 1.49404 0.754585 1.5433C0.717247 1.59256 0.681161 1.64272 0.646325 1.69378C0.611492 1.74484 0.577951 1.79674 0.545706 1.84948C0.51346 1.90221 0.48255 1.95571 0.452974 2.00999C0.423398 2.06427 0.395195 2.11925 0.368365 2.17494C0.341534 2.23062 0.316106 2.28694 0.292086 2.3439C0.268063 2.40085 0.245477 2.45837 0.224326 2.51644C0.203175 2.57452 0.183485 2.63311 0.165257 2.69217C0.147029 2.75123 0.130284 2.81072 0.115024 2.8706C0.0997642 2.93051 0.0860072 2.99078 0.0737532 3.05134C0.0614992 3.11195 0.0507638 3.17278 0.0415466 3.23389C0.0323294 3.29503 0.024642 3.35634 0.0184844 3.41785C0.0123267 3.47936 0.00770665 3.541 0.00462409 3.60271C0.00154136 3.66447 0 3.72624 0 3.78805C0 3.84986 0.00154136 3.91164 0.00462409 3.97338C0.00770665 4.03512 0.0123267 4.09673 0.0184844 4.15824C0.024642 4.21975 0.0323294 4.28109 0.0415466 4.3422C0.0507638 4.40331 0.0614995 4.46417 0.0737535 4.52476C0.0860072 4.58534 0.0997642 4.64558 0.115025 4.70549C0.130285 4.7654 0.147029 4.82486 0.165257 4.88392C0.183485 4.94301 0.203175 5.0016 0.224326 5.05966C0.245477 5.11774 0.268063 5.17525 0.292086 5.23221C0.316106 5.28917 0.341534 5.34551 0.368365 5.40117C0.395195 5.45688 0.423398 5.51186 0.452974 5.56612C0.48255 5.62041 0.51346 5.67392 0.545706 5.72663C0.577951 5.77939 0.611492 5.83127 0.646325 5.88233C0.681161 5.93339 0.717247 5.98355 0.754585 6.03281C0.791923 6.08207 0.830466 6.13038 0.870215 6.17769C0.909963 6.22504 0.950866 6.27135 0.992925 6.31664C1.03498 6.36195 1.07815 6.40615 1.12241 6.44929C1.16668 6.49244 1.21199 6.53445 1.25835 6.57531C1.30471 6.61619 1.35206 6.6559 1.40041 6.69441C1.44875 6.73291 1.49802 6.7702 1.54823 6.80625C1.59843 6.84231 1.6495 6.87709 1.70144 6.9106C1.75338 6.9441 1.80612 6.97628 1.85966 7.00714C1.91321 7.03802 1.96749 7.06755 2.02251 7.09571C2.07752 7.12386 2.13321 7.15064 2.18956 7.17602C2.24591 7.20142 2.30287 7.22538 2.36042 7.24791C2.41797 7.27046 2.47604 7.29154 2.53465 7.31117C2.59323 7.33082 2.6523 7.34898 2.7118 7.36568C2.7713 7.38238 2.83121 7.39756 2.89146 7.41126C2.95173 7.42497 3.01231 7.43717 3.07319 7.44784C3.13406 7.45855 3.19516 7.4677 3.25649 7.47532C3.31784 7.48295 3.37932 7.48905 3.44094 7.4936C3.50259 7.49818 3.5643 7.5012 3.62607 7.50266C3.68787 7.50416 3.74965 7.50408 3.81143 7.50248ZM8.03151 6.19474L3.90643 6.19474C3.8679 6.19349 3.82943 6.19134 3.791 6.18824C3.75257 6.18514 3.71425 6.18114 3.676 6.17619C3.63777 6.17126 3.59967 6.16541 3.56172 6.15863C3.52377 6.15188 3.48599 6.14421 3.44839 6.1356C3.41082 6.12703 3.37347 6.11755 3.33634 6.10715C3.29922 6.09677 3.26236 6.08549 3.22576 6.07334C3.18919 6.06119 3.15291 6.04816 3.11694 6.03426C3.08099 6.02036 3.04539 6.0056 3.01013 5.98998C2.97488 5.97437 2.94003 5.95792 2.90556 5.94062C2.87111 5.92334 2.83708 5.90524 2.80348 5.88631C2.7699 5.8674 2.7368 5.84768 2.70415 5.82715C2.6715 5.80664 2.63938 5.78534 2.60775 5.76326C2.57615 5.74121 2.54508 5.7184 2.51457 5.69482C2.48404 5.67127 2.45411 5.64701 2.42475 5.62201C2.3954 5.597 2.36667 5.57132 2.33855 5.54492C2.31043 5.51857 2.28296 5.49151 2.25614 5.4638C2.22933 5.4361 2.20319 5.40777 2.17774 5.37881C2.15228 5.34986 2.12753 5.32033 2.1035 5.29017C2.07947 5.26002 2.05617 5.22931 2.03361 5.19803C2.01105 5.16678 1.98926 5.13499 1.96823 5.10266C1.9472 5.07036 1.92696 5.03755 1.90751 5.00425C1.88806 4.97096 1.86942 4.93723 1.85159 4.90303C1.83376 4.86885 1.81676 4.83426 1.80059 4.79926C1.78443 4.76425 1.76911 4.72889 1.75464 4.69314C1.74018 4.65738 1.72658 4.62133 1.71385 4.58492C1.70112 4.54854 1.68927 4.51185 1.6783 4.47487C1.66733 4.43792 1.65726 4.40071 1.64808 4.36325C1.6389 4.32582 1.63062 4.28816 1.62326 4.25031C1.61589 4.21247 1.60943 4.17447 1.60389 4.13631C1.59835 4.09815 1.59373 4.0599 1.59003 4.02149C1.58633 3.98313 1.58355 3.94468 1.5817 3.90617C1.57984 3.86766 1.57892 3.8291 1.57892 3.79055C1.57892 3.75199 1.57984 3.71346 1.5817 3.67495C1.58355 3.63644 1.58633 3.59799 1.59003 3.5596C1.59373 3.52122 1.59835 3.48294 1.60389 3.44478C1.60943 3.40663 1.61589 3.36864 1.62326 3.33079C1.63063 3.29293 1.6389 3.2553 1.64808 3.21784C1.65726 3.18038 1.66733 3.14318 1.6783 3.10622C1.68927 3.06926 1.70112 3.03258 1.71385 2.99618C1.72658 2.95979 1.74018 2.92371 1.75464 2.88796C1.76911 2.85222 1.78443 2.81684 1.80059 2.78184C1.81676 2.74686 1.83376 2.71227 1.85159 2.67807C1.86942 2.64389 1.88806 2.61016 1.90751 2.57685C1.92696 2.54357 1.9472 2.51076 1.96823 2.47845C1.98926 2.44613 2.01105 2.41434 2.03361 2.38307C2.05617 2.3518 2.07947 2.32109 2.1035 2.29094C2.12753 2.26079 2.15228 2.23124 2.17774 2.20229C2.20319 2.17332 2.22933 2.145 2.25614 2.1173C2.28296 2.08959 2.31043 2.06255 2.33855 2.03617C2.36667 2.00979 2.3954 1.9841 2.42475 1.95911C2.45411 1.93411 2.48404 1.90983 2.51457 1.88627C2.54508 1.86272 2.57615 1.83991 2.60775 1.81784C2.63938 1.79578 2.6715 1.77449 2.70415 1.75397C2.7368 1.73345 2.7699 1.71373 2.80351 1.6948C2.83711 1.67588 2.87111 1.65777 2.90556 1.64048C2.94003 1.62319 2.97488 1.60674 3.01013 1.59113C3.04539 1.57551 3.08099 1.56076 3.11694 1.54686C3.15291 1.53296 3.18919 1.51993 3.22576 1.50777C3.26236 1.49562 3.29922 1.48435 3.33634 1.47397C3.37347 1.46358 3.41082 1.4541 3.44839 1.44551C3.48599 1.43693 3.52377 1.42925 3.56172 1.42248C3.59967 1.41571 3.63777 1.40986 3.676 1.40492C3.71425 1.39998 3.75257 1.39597 3.791 1.39287C3.82943 1.38978 3.8679 1.38761 3.90643 1.38637L8.03151 1.38637C8.07166 1.38507 8.11181 1.38478 8.15196 1.3855C8.19214 1.38622 8.23226 1.38794 8.27234 1.39067C8.31242 1.39339 8.35239 1.39712 8.39229 1.40186C8.43219 1.40659 8.47192 1.41231 8.51152 1.41904C8.55112 1.42576 8.59055 1.43347 8.62975 1.44217C8.66897 1.45087 8.70795 1.46054 8.74667 1.47119C8.7854 1.48185 8.82382 1.49346 8.86198 1.50604C8.90013 1.51861 8.93795 1.53214 8.97543 1.54661C9.0129 1.56108 9.04998 1.57648 9.08668 1.59282C9.12338 1.60915 9.15966 1.62639 9.19548 1.64454C9.23133 1.66269 9.26668 1.68172 9.30156 1.70164C9.33646 1.72156 9.37081 1.74234 9.40464 1.76398C9.43849 1.78563 9.47179 1.8081 9.50449 1.83141C9.53721 1.85472 9.56931 1.87884 9.60082 1.90376C9.63234 1.92868 9.66322 1.95437 9.69342 1.98084C9.72364 2.0073 9.75317 2.03451 9.78202 2.06246C9.81089 2.0904 9.83904 2.11905 9.86645 2.14841C9.8939 2.17777 9.92057 2.20779 9.94647 2.23849C9.9724 2.26918 9.99752 2.3005 10.0219 2.33246C10.0462 2.36441 10.0697 2.39695 10.0925 2.43008C10.1152 2.46321 10.1371 2.4969 10.1581 2.53112C10.1791 2.56535 10.1993 2.60008 10.2186 2.63531C10.2379 2.67057 10.2563 2.70625 10.2738 2.7424C10.2913 2.77859 10.3079 2.81517 10.3235 2.85215C10.3392 2.88916 10.3539 2.92651 10.3677 2.96422C10.3815 3.00198 10.3944 3.04003 10.4063 3.07839C10.4182 3.11677 10.4291 3.15541 10.439 3.19431C10.449 3.23324 10.458 3.2724 10.466 3.31176C10.474 3.35114 10.481 3.3907 10.487 3.43041C10.493 3.47014 10.498 3.51 10.502 3.54995C10.5061 3.58994 10.5091 3.62999 10.5111 3.6701C10.5131 3.71023 10.5141 3.75039 10.5141 3.79055C10.5141 3.83073 10.5131 3.87089 10.5111 3.91099C10.5091 3.95113 10.5061 3.99118 10.502 4.03114C10.498 4.07112 10.493 4.11098 10.487 4.15069C10.481 4.19042 10.474 4.22998 10.466 4.26934C10.458 4.30872 10.449 4.34787 10.439 4.38678C10.4291 4.42569 10.4182 4.46435 10.4063 4.5027C10.3944 4.54109 10.3815 4.57914 10.3677 4.61687C10.3539 4.65461 10.3392 4.69196 10.3235 4.72894C10.3079 4.76595 10.2913 4.80253 10.2738 4.83869C10.2563 4.87485 10.2379 4.91055 10.2186 4.94578C10.1993 4.98104 10.1791 5.01577 10.1581 5.04998C10.1371 5.08421 10.1152 5.11789 10.0925 5.15102C10.0697 5.18418 10.0462 5.21671 10.0219 5.24864C9.99752 5.2806 9.9724 5.31193 9.94647 5.34263C9.92057 5.37334 9.8939 5.40334 9.86645 5.4327C9.83904 5.46205 9.81089 5.49071 9.78202 5.51864C9.75317 5.5466 9.72364 5.57382 9.69342 5.60028C9.66322 5.62673 9.63234 5.65244 9.60082 5.67734C9.56931 5.70227 9.53721 5.72638 9.50449 5.74968C9.47179 5.77301 9.43849 5.79549 9.40464 5.81712C9.37081 5.83877 9.33646 5.85955 9.30156 5.87946C9.26668 5.89938 9.23133 5.91841 9.19548 5.93657C9.15966 5.95472 9.12338 5.97197 9.08668 5.9883C9.04998 6.00463 9.0129 6.02003 8.97543 6.03448C8.93795 6.04899 8.90013 6.06251 8.86198 6.07507C8.82382 6.08767 8.7854 6.09927 8.74667 6.10992C8.70795 6.12058 8.66897 6.13025 8.62975 6.13893C8.59055 6.14763 8.55112 6.15536 8.51152 6.16206C8.47192 6.16881 8.43219 6.17454 8.39229 6.17926C8.35239 6.18399 8.31242 6.18771 8.27234 6.19044C8.23226 6.19319 8.19214 6.19491 8.15199 6.19561C8.11184 6.19634 8.07166 6.19604 8.03151 6.19474ZM35.1544 7.50248L39.562 7.50248L40.397 6.19474L35.2519 6.19474C35.2119 6.19604 35.1717 6.19634 35.1314 6.19561C35.0914 6.19491 35.0512 6.19319 35.0112 6.19044C34.9712 6.18771 34.9312 6.18399 34.8912 6.17926C34.8514 6.17454 34.8117 6.16881 34.7719 6.16206C34.7324 6.15536 34.6929 6.14763 34.6537 6.13893C34.6147 6.13025 34.5757 6.12058 34.5367 6.10992C34.4982 6.09927 34.4597 6.08767 34.4214 6.07507C34.3834 6.06251 34.3454 6.04899 34.3079 6.03448C34.2707 6.02003 34.2337 6.00463 34.1967 5.9883C34.1602 5.97197 34.1239 5.95472 34.0879 5.93657C34.0522 5.91841 34.0169 5.89938 33.9819 5.87946C33.9472 5.85955 33.9129 5.83877 33.8789 5.81712C33.8452 5.79549 33.8119 5.77301 33.7789 5.74968C33.7464 5.72638 33.7142 5.70227 33.6827 5.67734C33.6512 5.65244 33.6204 5.62673 33.5902 5.60028C33.5599 5.57382 33.5304 5.5466 33.5014 5.51864C33.4727 5.49071 33.4444 5.46205 33.4169 5.4327C33.3897 5.40334 33.3629 5.37334 33.3369 5.34263C33.3112 5.31193 33.2862 5.28062 33.2617 5.24867C33.2374 5.21671 33.2139 5.18418 33.1909 5.15102C33.1684 5.11792 33.1464 5.08424 33.1254 5.04998C33.1044 5.01577 33.0844 4.98104 33.0649 4.94578C33.0457 4.91055 33.0272 4.87485 33.0097 4.83869C32.9922 4.80253 32.9757 4.76595 32.9599 4.72894C32.9444 4.69196 32.9297 4.65461 32.9157 4.61687C32.9022 4.57914 32.8892 4.54109 32.8772 4.5027C32.8654 4.46435 32.8544 4.42569 32.8444 4.38678C32.8344 4.34787 32.8254 4.30872 32.8174 4.26934C32.8094 4.22998 32.8024 4.19042 32.7964 4.15069C32.7904 4.11098 32.7854 4.07112 32.7814 4.03114C32.7774 3.99118 32.7744 3.95113 32.7724 3.91099C32.7704 3.87089 32.7694 3.83073 32.7694 3.79055C32.7694 3.75039 32.7704 3.71023 32.7724 3.6701C32.7744 3.62999 32.7774 3.58994 32.7814 3.54995C32.7854 3.51 32.7904 3.47014 32.7964 3.43041C32.8024 3.3907 32.8094 3.35114 32.8174 3.31176C32.8254 3.2724 32.8344 3.23324 32.8444 3.19431C32.8544 3.15541 32.8654 3.11677 32.8772 3.07839C32.8892 3.04003 32.9022 3.00198 32.9157 2.96422C32.9297 2.92651 32.9444 2.88916 32.9599 2.85215C32.9757 2.81517 32.9922 2.77859 33.0097 2.7424C33.0272 2.70625 33.0457 2.67057 33.0649 2.63531C33.0844 2.60008 33.1044 2.56535 33.1254 2.53112C33.1464 2.4969 33.1684 2.46321 33.1909 2.43008C33.2139 2.39695 33.2374 2.36441 33.2617 2.33246C33.2862 2.3005 33.3112 2.26918 33.3369 2.23849C33.3629 2.20779 33.3897 2.17777 33.4169 2.14841C33.4444 2.11905 33.4727 2.0904 33.5014 2.06246C33.5304 2.03451 33.5599 2.0073 33.5902 1.98084C33.6204 1.95437 33.6512 1.92868 33.6827 1.90376C33.7142 1.87884 33.7464 1.85472 33.7789 1.83141C33.8119 1.8081 33.8452 1.78563 33.8789 1.76398C33.9129 1.74234 33.9472 1.72156 33.9819 1.70164C34.0169 1.68172 34.0522 1.66269 34.0879 1.64454C34.1239 1.62639 34.1602 1.60915 34.1967 1.59282C34.2337 1.57648 34.2707 1.56108 34.3079 1.54661C34.3454 1.53214 34.3834 1.51861 34.4214 1.50604C34.4597 1.49346 34.4982 1.48185 34.5367 1.47119C34.5757 1.46054 34.6147 1.45087 34.6537 1.44217C34.6929 1.43347 34.7324 1.42576 34.7719 1.41904C34.8117 1.41231 34.8514 1.40659 34.8912 1.40186C34.9312 1.39712 34.9712 1.39339 35.0112 1.39067C35.0512 1.38794 35.0914 1.38622 35.1314 1.3855C35.1717 1.38478 35.2119 1.38507 35.2519 1.38637L39.4395 1.38637L40.2845 0.0736253L35.1544 0.0736253C35.0927 0.072022 35.0309 0.0719607 34.9692 0.0734415C34.9074 0.0749223 34.8457 0.0779433 34.7839 0.0825047C34.7224 0.0870658 34.6609 0.0931616 34.5994 0.100792C34.5382 0.108422 34.4772 0.117578 34.4162 0.128258C34.3554 0.138938 34.2949 0.15113 34.2344 0.164834C34.1744 0.178538 34.1144 0.193736 34.0549 0.21043C33.9954 0.227123 33.9364 0.24529 33.8777 0.264931C33.8192 0.284572 33.7609 0.305664 33.7034 0.328203C33.6459 0.350742 33.5892 0.374704 33.5327 0.400089C33.4764 0.425468 33.4207 0.452241 33.3654 0.480406C33.3104 0.508566 33.2562 0.538084 33.2027 0.568957C33.1492 0.599828 33.0964 0.632016 33.0444 0.665522C32.9927 0.699026 32.9417 0.733805 32.8912 0.769859C32.8412 0.805911 32.7919 0.843195 32.7434 0.88171C32.6951 0.920222 32.6479 0.959919 32.6014 1.0008C32.5551 1.04167 32.5099 1.08368 32.4654 1.12682C32.4214 1.16996 32.3781 1.21417 32.3359 1.25947C32.2939 1.30476 32.2531 1.35108 32.2131 1.39841C32.1736 1.44574 32.1351 1.49404 32.0976 1.5433C32.0604 1.59256 32.0244 1.64272 31.9894 1.69378C31.9546 1.74484 31.9211 1.79674 31.8886 1.84948C31.8566 1.90221 31.8256 1.95571 31.7959 2.00999C31.7664 2.06427 31.7384 2.11925 31.7114 2.17494C31.6846 2.23062 31.6591 2.28694 31.6351 2.3439C31.6111 2.40085 31.5886 2.45837 31.5674 2.51644C31.5464 2.57452 31.5266 2.63311 31.5084 2.69217C31.4901 2.75123 31.4734 2.81072 31.4581 2.8706C31.4429 2.93051 31.4291 2.99078 31.4169 3.05134C31.4046 3.11195 31.3939 3.17278 31.3846 3.23389C31.3754 3.29503 31.3676 3.35634 31.3616 3.41785C31.3556 3.47936 31.3509 3.541 31.3476 3.60271C31.3446 3.66447 31.3431 3.72624 31.3431 3.78805C31.3431 3.84986 31.3446 3.91164 31.3476 3.97338C31.3509 4.03512 31.3556 4.09673 31.3616 4.15824C31.3676 4.21975 31.3754 4.28109 31.3846 4.3422C31.3939 4.40331 31.4046 4.46417 31.4169 4.52476C31.4291 4.58534 31.4429 4.64558 31.4581 4.70549C31.4734 4.7654 31.4901 4.82486 31.5084 4.88392C31.5266 4.94301 31.5464 5.0016 31.5674 5.05966C31.5886 5.11774 31.6111 5.17525 31.6351 5.23221C31.6591 5.28917 31.6846 5.34551 31.7114 5.40117C31.7384 5.45688 31.7664 5.51186 31.7959 5.56612C31.8256 5.62041 31.8566 5.67392 31.8886 5.72663C31.9211 5.77939 31.9546 5.83127 31.9894 5.88233C32.0244 5.93339 32.0604 5.98355 32.0976 6.03281C32.1351 6.08207 32.1736 6.13038 32.2131 6.17769C32.2531 6.22504 32.2939 6.27135 32.3359 6.31664C32.3781 6.36195 32.4214 6.40615 32.4654 6.44929C32.5099 6.49244 32.5551 6.53445 32.6014 6.57531C32.6479 6.61619 32.6951 6.6559 32.7434 6.69441C32.7919 6.73291 32.8412 6.7702 32.8912 6.80625C32.9417 6.84231 32.9927 6.87709 33.0444 6.9106C33.0964 6.9441 33.1492 6.97628 33.2027 7.00714C33.2562 7.03802 33.3104 7.06755 33.3654 7.09571C33.4207 7.12386 33.4764 7.15064 33.5327 7.17602C33.5892 7.20142 33.6459 7.22538 33.7034 7.24791C33.7609 7.27046 33.8192 7.29154 33.8777 7.31117C33.9364 7.33082 33.9954 7.34898 34.0549 7.36568C34.1144 7.38238 34.1744 7.39756 34.2344 7.41126C34.2949 7.42497 34.3554 7.43717 34.4162 7.44784C34.4772 7.45855 34.5382 7.4677 34.5994 7.47532C34.6609 7.48295 34.7224 7.48905 34.7839 7.4936C34.8457 7.49818 34.9074 7.5012 34.9692 7.50266C35.0309 7.50416 35.0927 7.50408 35.1544 7.50248ZM52.6223 6.19474C52.5573 6.19476 52.4925 6.19216 52.4278 6.18694C52.3633 6.18171 52.2988 6.17389 52.2345 6.16343C52.1705 6.15298 52.107 6.13995 52.0438 6.12435C51.9808 6.10877 51.9185 6.09065 51.857 6.06999C51.7955 6.04936 51.7348 6.02626 51.675 6.0007C51.6155 5.97515 51.5568 5.94722 51.4993 5.91691C51.442 5.88661 51.386 5.85405 51.331 5.8192C51.2763 5.78434 51.223 5.74733 51.171 5.70817C51.1193 5.66902 51.0693 5.62781 51.0208 5.58458C50.9723 5.54137 50.9258 5.49624 50.8808 5.44923C50.836 5.40222 50.7933 5.35348 50.7523 5.303C50.7115 5.25254 50.6728 5.20048 50.636 5.14685C50.5995 5.09324 50.565 5.03823 50.5328 4.98182C50.5008 4.92541 50.4707 4.8678 50.443 4.80898C50.4155 4.75017 50.3905 4.69031 50.3677 4.62945C50.3452 4.56859 50.325 4.50693 50.3072 4.44442L56.4124 4.44442L57.2524 3.13418L50.3072 3.13418C50.325 3.07166 50.3452 3.00998 50.3677 2.94907C50.3905 2.88821 50.4155 2.82832 50.443 2.76946C50.4705 2.71062 50.5005 2.65299 50.5325 2.59653C50.5648 2.54012 50.599 2.48508 50.6355 2.43144C50.6723 2.3778 50.711 2.32573 50.7518 2.27523C50.7928 2.22473 50.8355 2.17598 50.8803 2.12895C50.9253 2.08193 50.9718 2.03679 51.0203 1.99355C51.0688 1.95031 51.119 1.90911 51.1708 1.86993C51.2228 1.83076 51.276 1.79375 51.3305 1.7589C51.3855 1.72405 51.4415 1.69148 51.499 1.66119C51.5565 1.63089 51.6153 1.60297 51.6748 1.57743C51.7345 1.55188 51.7953 1.5288 51.8568 1.50818C51.9183 1.48755 51.9808 1.46946 52.0438 1.45389C52.1068 1.43832 52.1705 1.42533 52.2345 1.41492C52.2985 1.40451 52.363 1.39671 52.4278 1.39153C52.4925 1.38635 52.5573 1.38379 52.6223 1.38387L56.8124 1.38387L57.6499 0.0711248L52.5248 0.0711248C52.465 0.0726761 52.4053 0.0756689 52.3458 0.0801035C52.2863 0.084538 52.2268 0.0904091 52.1673 0.0977167C52.108 0.105024 52.0488 0.11376 51.9898 0.123923C51.931 0.134087 51.8723 0.145667 51.8138 0.158662C51.7555 0.171658 51.6975 0.186055 51.6398 0.201852C51.5823 0.21765 51.525 0.23483 51.468 0.253394C51.4113 0.271958 51.355 0.291881 51.299 0.313165C51.243 0.334449 51.1878 0.357071 51.133 0.381028C51.0783 0.404984 51.024 0.430249 50.9705 0.456824C50.917 0.483396 50.864 0.511247 50.8118 0.540377C50.7598 0.569505 50.7083 0.599875 50.6573 0.631491C50.6065 0.663107 50.5565 0.695928 50.5073 0.729957C50.4583 0.763983 50.41 0.799179 50.3625 0.835541C50.315 0.8719 50.2685 0.909387 50.2227 0.947999C50.1772 0.986609 50.1325 1.0263 50.0885 1.06707C50.045 1.10784 50.0022 1.14964 49.9602 1.19247C49.9187 1.23531 49.878 1.27912 49.8382 1.32392C49.7987 1.36872 49.7602 1.41445 49.7227 1.4611C49.6855 1.50776 49.6492 1.5553 49.614 1.6037C49.579 1.65211 49.545 1.70134 49.5122 1.75139C49.4797 1.80143 49.4482 1.85224 49.4177 1.90381C49.3875 1.95538 49.3585 2.00765 49.3307 2.06062C49.303 2.11359 49.2765 2.1672 49.2512 2.22145C49.2262 2.2757 49.2022 2.33052 49.1797 2.38592C49.1572 2.44132 49.1362 2.49723 49.1162 2.55364C49.0965 2.61008 49.078 2.66694 49.061 2.72425C49.044 2.78156 49.0282 2.83927 49.0137 2.89733C48.9997 2.95539 48.9867 3.01378 48.9752 3.07247C48.9637 3.13118 48.9537 3.19011 48.945 3.24927C48.9365 3.30848 48.9292 3.36782 48.9235 3.42733C48.9177 3.48687 48.9135 3.5465 48.9105 3.60624C48.9075 3.66597 48.906 3.72574 48.906 3.78555C48.906 3.84536 48.9075 3.90514 48.9105 3.96485C48.9135 4.02462 48.9177 4.08425 48.9235 4.14376C48.9292 4.2033 48.9365 4.26266 48.945 4.32182C48.9537 4.38101 48.9637 4.43994 48.9752 4.49863C48.9867 4.55734 48.9997 4.6157 49.0137 4.67376C49.0282 4.73185 49.044 4.78953 49.061 4.84684C49.078 4.90415 49.0965 4.96104 49.1162 5.01745C49.1362 5.07388 49.1572 5.12979 49.1797 5.18518C49.2022 5.24059 49.2262 5.29542 49.2512 5.34966C49.2765 5.40392 49.303 5.45753 49.3307 5.51049C49.3585 5.56345 49.3875 5.61573 49.4177 5.66729C49.4482 5.71888 49.4797 5.76969 49.5122 5.81972C49.545 5.86978 49.579 5.91899 49.614 5.9674C49.6492 6.01581 49.6855 6.06334 49.7227 6.11C49.7602 6.15666 49.7987 6.20239 49.8382 6.24717C49.878 6.29198 49.9187 6.33582 49.9602 6.37862C50.0022 6.42148 50.045 6.46329 50.0885 6.50405C50.1325 6.5448 50.1772 6.58451 50.2227 6.62312C50.2685 6.66173 50.315 6.69921 50.3625 6.73556C50.41 6.77192 50.4583 6.80713 50.5073 6.84116C50.5565 6.87519 50.6065 6.90802 50.6573 6.93963C50.7083 6.97123 50.7598 7.00161 50.8118 7.03072C50.864 7.05987 50.917 7.08773 50.9705 7.11428C51.024 7.14086 51.0783 7.16612 51.133 7.19007C51.1878 7.21403 51.243 7.23666 51.299 7.25794C51.355 7.27924 51.4113 7.29917 51.468 7.31772C51.525 7.33627 51.5823 7.35345 51.6398 7.36926C51.6975 7.38506 51.7555 7.39946 51.8138 7.41244C51.8723 7.42544 51.931 7.43702 51.9898 7.44717C52.0488 7.45735 52.108 7.4661 52.1673 7.4734C52.2268 7.4807 52.2863 7.48658 52.3458 7.491C52.4053 7.49545 52.465 7.49843 52.5248 7.49998L56.9324 7.49998L57.7699 6.19224L52.6198 6.19224">
</path>
</g>
<defs>
<clipPath id="clip-path-0">
<path d="M0 15L57.77 15L57.77 0L0 0L0 15Z" fill="white"/>
</clipPath>
</defs>
</svg>
