<svg xmlns="http://www.w3.org/2000/svg" xmlns:xlink="http://www.w3.org/1999/xlink" width="57.77000045776367" height="15" viewBox="0 0 57.77000045776367 15" fill="none">
<path     fill="#C74634"  d="M24.9943 8.482L28.8043 8.482L26.7918 5.23141L23.0918 11.1025L21.4093 11.1025L25.9093 4.0587C25.9215 4.0412 25.9343 4.02409 25.9475 4.00736C25.9608 3.99063 25.9745 3.9743 25.9885 3.95839C26.0028 3.94248 26.0175 3.927 26.0325 3.91196C26.0478 3.89692 26.0633 3.88235 26.0793 3.86824C26.0953 3.85412 26.1118 3.8405 26.1285 3.82737C26.1455 3.81424 26.1625 3.80162 26.18 3.78951C26.1975 3.7774 26.2155 3.76583 26.2338 3.75479C26.252 3.74375 26.2705 3.73327 26.2893 3.72334C26.3083 3.71341 26.3275 3.70405 26.3468 3.69526C26.3663 3.68647 26.386 3.67827 26.4058 3.67066C26.4258 3.66304 26.446 3.65603 26.4663 3.64962C26.4868 3.64321 26.5073 3.6374 26.5278 3.63222C26.5485 3.62703 26.5693 3.62246 26.5903 3.61851C26.6113 3.61457 26.6325 3.61125 26.6535 3.60856C26.6748 3.60587 26.696 3.60381 26.717 3.60239C26.7385 3.60097 26.7598 3.60018 26.781 3.60003C26.8025 3.59987 26.8238 3.60036 26.845 3.60148C26.8665 3.6026 26.8878 3.60435 26.9088 3.60674C26.93 3.60912 26.951 3.61214 26.972 3.61579C26.993 3.61943 27.014 3.6237 27.0348 3.6286C27.0555 3.63349 27.076 3.63899 27.0965 3.64512C27.117 3.65124 27.1373 3.65796 27.1573 3.66529C27.1773 3.67262 27.197 3.68054 27.2165 3.68905C27.236 3.69756 27.2553 3.70664 27.2743 3.7163C27.2935 3.72596 27.3123 3.73618 27.3305 3.74696C27.349 3.75773 27.367 3.76905 27.3848 3.7809C27.4025 3.79276 27.4198 3.80513 27.4368 3.81802C27.4538 3.83091 27.4705 3.8443 27.4865 3.85818C27.5028 3.87206 27.5185 3.88641 27.534 3.90124C27.5495 3.91606 27.5643 3.93132 27.5785 3.94703C27.593 3.96274 27.607 3.97887 27.6203 3.99541C27.6338 4.01195 27.6468 4.02888 27.6593 4.04619L32.1719 11.1025L30.4894 11.1025L29.6968 9.78974L25.8418 9.78974L25.0017 8.482M42.4846 9.78974L42.4846 3.67112L41.0546 3.67112L41.0546 10.3923C41.0546 10.4391 41.0591 10.4853 41.0683 10.531C41.0776 10.5768 41.0913 10.6212 41.1096 10.6642C41.1278 10.7072 41.1503 10.7479 41.1768 10.7863C41.2033 10.8248 41.2336 10.8601 41.2671 10.8924C41.3011 10.9271 41.3378 10.958 41.3778 10.9852C41.4181 11.0124 41.4606 11.0353 41.5051 11.054C41.5498 11.0727 41.5958 11.0868 41.6433 11.0962C41.6908 11.1056 41.7388 11.1102 41.7871 11.11L48.2872 11.11L49.1347 9.79724L42.4771 9.79724M18.8417 8.69704C18.8828 8.69704 18.924 8.69604 18.965 8.69401C19.0061 8.69201 19.0471 8.68899 19.088 8.68493C19.1289 8.68091 19.1697 8.67588 19.2104 8.66983C19.2511 8.66381 19.2916 8.65678 19.3319 8.64875C19.3722 8.64075 19.4123 8.63173 19.4522 8.62172C19.4921 8.61175 19.5317 8.60079 19.5711 8.58884C19.6104 8.57689 19.6495 8.56399 19.6882 8.55013C19.7269 8.53628 19.7652 8.52151 19.8032 8.50575C19.8412 8.49002 19.8788 8.47337 19.916 8.45577C19.9532 8.43819 19.9899 8.41971 20.0261 8.40031C20.0624 8.38093 20.0982 8.36068 20.1334 8.33952C20.1687 8.31837 20.2034 8.29639 20.2376 8.27353C20.2718 8.25068 20.3054 8.227 20.3385 8.2025C20.3715 8.17802 20.4039 8.15274 20.4357 8.12663C20.4675 8.10053 20.4986 8.07367 20.5291 8.04607C20.5595 8.01846 20.5893 7.99011 20.6184 7.961C20.6475 7.93195 20.6758 7.90217 20.7034 7.87169C20.731 7.84123 20.7579 7.8101 20.784 7.77829C20.81 7.74649 20.8353 7.71408 20.8598 7.68105C20.8843 7.64802 20.908 7.61441 20.9308 7.58021C20.9537 7.546 20.9757 7.51127 20.9968 7.47599C21.018 7.44073 21.0382 7.40495 21.0576 7.36867C21.077 7.33241 21.0955 7.2957 21.113 7.2585C21.1306 7.22134 21.1473 7.18376 21.163 7.14575C21.1787 7.10775 21.1935 7.06939 21.2074 7.03066C21.2212 6.99195 21.2341 6.95292 21.2461 6.91356C21.258 6.8742 21.269 6.83457 21.279 6.79466C21.289 6.75478 21.298 6.71467 21.306 6.67434C21.314 6.63401 21.321 6.5935 21.3271 6.55279C21.3331 6.51214 21.3381 6.47133 21.3422 6.4304C21.3462 6.38946 21.3492 6.34846 21.3512 6.30737C21.3533 6.26632 21.3543 6.22521 21.3543 6.18408C21.3543 6.14297 21.3533 6.10186 21.3512 6.06078C21.3492 6.0197 21.3462 5.9787 21.3422 5.93777C21.3381 5.89684 21.3331 5.85604 21.3271 5.81536C21.321 5.77468 21.314 5.73417 21.306 5.69383C21.298 5.65349 21.289 5.61338 21.279 5.57349C21.269 5.53359 21.258 5.49397 21.2461 5.45461C21.2341 5.41526 21.2212 5.37622 21.2074 5.3375C21.1935 5.29877 21.1787 5.26041 21.163 5.22242C21.1473 5.18442 21.1306 5.14683 21.113 5.10966C21.0955 5.07248 21.077 5.03575 21.0576 4.99949C21.0382 4.96321 21.018 4.92744 20.9968 4.89217C20.9757 4.85689 20.9537 4.82215 20.9308 4.78796C20.908 4.75376 20.8843 4.72015 20.8598 4.68712C20.8353 4.65408 20.81 4.62167 20.784 4.58988C20.7579 4.55809 20.731 4.52696 20.7034 4.49648C20.6758 4.46601 20.6475 4.43624 20.6184 4.40716C20.5893 4.37807 20.5595 4.34972 20.5291 4.32211C20.4986 4.29449 20.4675 4.26763 20.4357 4.24154C20.4039 4.21545 20.3715 4.19016 20.3385 4.16566C20.3054 4.14116 20.2718 4.11749 20.2376 4.09464C20.2034 4.07179 20.1687 4.04979 20.1334 4.02865C20.0982 4.0075 20.0624 3.98724 20.0261 3.96785C19.9899 3.94846 19.9532 3.92998 19.916 3.9124C19.8788 3.89481 19.8412 3.87815 19.8032 3.86241C19.7652 3.84667 19.7269 3.83188 19.6882 3.81802C19.6495 3.80417 19.6104 3.79127 19.5711 3.77933C19.5317 3.76739 19.4921 3.75643 19.4522 3.74643C19.4123 3.73644 19.3722 3.72743 19.3319 3.71941C19.2916 3.71139 19.2511 3.70436 19.2104 3.69832C19.1697 3.69229 19.1289 3.68726 19.088 3.68322C19.0471 3.67919 19.0061 3.67617 18.965 3.67415C18.924 3.67213 18.8828 3.67112 18.8417 3.67112L12.5916 3.67112L12.5916 11.1025L14.0191 11.1025L14.0191 4.98637L18.7542 4.98637C18.7739 4.98637 18.7936 4.98685 18.8132 4.98781C18.8329 4.98878 18.8525 4.99023 18.8721 4.99216C18.8917 4.99409 18.9112 4.9965 18.9307 4.99938C18.9502 5.00227 18.9695 5.00564 18.9888 5.00948C19.0081 5.01332 19.0273 5.01763 19.0464 5.02241C19.0655 5.02719 19.0845 5.03244 19.1033 5.03816C19.1222 5.04387 19.1408 5.05004 19.1593 5.05667C19.1779 5.0633 19.1962 5.07039 19.2144 5.07792C19.2326 5.08545 19.2506 5.09342 19.2684 5.10184C19.2862 5.11026 19.3037 5.1191 19.3211 5.12838C19.3384 5.13766 19.3556 5.14736 19.3724 5.15748C19.3893 5.1676 19.406 5.17813 19.4223 5.18906C19.4387 5.2 19.4548 5.21133 19.4706 5.22305C19.4864 5.23478 19.5019 5.24689 19.5171 5.25937C19.5323 5.27186 19.5472 5.28471 19.5618 5.29793C19.5764 5.31115 19.5906 5.32472 19.6045 5.33864C19.6185 5.35255 19.632 5.36681 19.6452 5.38139C19.6585 5.39597 19.6713 5.41087 19.6838 5.42609C19.6963 5.4413 19.7084 5.45682 19.7201 5.47263C19.7318 5.48844 19.7432 5.50453 19.7541 5.52089C19.765 5.53726 19.7756 5.55388 19.7857 5.57077C19.7958 5.58765 19.8055 5.60477 19.8147 5.62213C19.824 5.63949 19.8329 5.65707 19.8413 5.67486C19.8497 5.69265 19.8577 5.71064 19.8652 5.72883C19.8727 5.74701 19.8798 5.76537 19.8864 5.7839C19.8931 5.80244 19.8993 5.82112 19.905 5.83996C19.9107 5.85879 19.9159 5.87776 19.9207 5.89685C19.9255 5.91594 19.9298 5.93514 19.9336 5.95445C19.9375 5.97375 19.9408 5.99314 19.9437 6.01261C19.9466 6.03208 19.949 6.05161 19.951 6.0712C19.9529 6.09079 19.9543 6.11041 19.9553 6.13006C19.9563 6.14972 19.9567 6.1694 19.9567 6.18908C19.9567 6.20878 19.9563 6.22843 19.9553 6.24809C19.9543 6.26777 19.9529 6.28739 19.951 6.30697C19.949 6.32658 19.9466 6.3461 19.9437 6.36556C19.9408 6.38504 19.9375 6.40442 19.9336 6.42372C19.9298 6.44302 19.9255 6.46223 19.9207 6.48131C19.9159 6.50041 19.9107 6.51939 19.905 6.53822C19.8993 6.55707 19.8931 6.57575 19.8864 6.59425C19.8798 6.6128 19.8727 6.63116 19.8652 6.64934C19.8577 6.66754 19.8497 6.68552 19.8413 6.7033C19.8329 6.7211 19.824 6.73868 19.8147 6.75603C19.8055 6.77341 19.7958 6.79054 19.7857 6.80739C19.7756 6.82429 19.765 6.84092 19.7541 6.85727C19.7432 6.87365 19.7318 6.88973 19.7201 6.90553C19.7084 6.92136 19.6963 6.93686 19.6838 6.95207C19.6713 6.96729 19.6585 6.9822 19.6452 6.99677C19.632 7.01138 19.6185 7.02563 19.6045 7.03953C19.5906 7.05346 19.5764 7.06704 19.5618 7.08024C19.5472 7.09347 19.5323 7.10632 19.5171 7.1188C19.5019 7.1313 19.4864 7.1434 19.4706 7.1551C19.4548 7.16686 19.4387 7.17818 19.4223 7.18911C19.406 7.20006 19.3893 7.21059 19.3724 7.22069C19.3556 7.23082 19.3385 7.24052 19.3211 7.24977C19.3037 7.25907 19.2862 7.26792 19.2684 7.27633C19.2506 7.28475 19.2326 7.29273 19.2144 7.30026C19.1962 7.30778 19.1779 7.31486 19.1593 7.32148C19.1408 7.32814 19.1222 7.33431 19.1033 7.34001C19.0845 7.34574 19.0655 7.35099 19.0464 7.35574C19.0273 7.36054 19.0081 7.36484 18.9888 7.36869C18.9695 7.37254 18.9502 7.37589 18.9307 7.37877C18.9112 7.38167 18.8917 7.3841 18.8721 7.386C18.8525 7.38795 18.8329 7.3894 18.8132 7.39035C18.7936 7.39132 18.7739 7.3918 18.7542 7.3918L14.7266 7.3918L18.9917 11.1025L21.0643 11.1025L18.1992 8.69704L18.8417 8.69704ZM3.81143 11.1025L8.12901 11.1025C8.18881 11.1009 8.24851 11.098 8.30812 11.0935C8.36777 11.0891 8.42724 11.0832 8.48659 11.0759C8.54594 11.0686 8.6051 11.0598 8.664 11.0497C8.72295 11.0395 8.78157 11.0279 8.83992 11.0149C8.8983 11.002 8.95633 10.9876 9.014 10.9718C9.07168 10.956 9.12893 10.9388 9.18576 10.9202C9.24261 10.9017 9.29898 10.8817 9.35486 10.8604C9.41074 10.8392 9.46606 10.8165 9.52086 10.7926C9.57566 10.7686 9.62984 10.7434 9.68339 10.7168C9.73697 10.6902 9.78987 10.6624 9.84207 10.6332C9.89432 10.6041 9.9458 10.5737 9.99655 10.5421C10.0473 10.5105 10.0973 10.4777 10.1465 10.4437C10.1956 10.4096 10.244 10.3744 10.2914 10.3381C10.3389 10.3017 10.3855 10.2642 10.4311 10.2256C10.4768 10.187 10.5215 10.1473 10.5652 10.1065C10.609 10.0658 10.6517 10.024 10.6935 9.98112C10.7352 9.93832 10.7759 9.89451 10.8155 9.8497C10.8551 9.80489 10.8936 9.75916 10.931 9.7125C10.9684 9.66584 11.0047 9.61831 11.0398 9.5699C11.0749 9.52149 11.1088 9.47228 11.1415 9.42222C11.1743 9.37219 11.2058 9.32138 11.2361 9.26979C11.2664 9.21823 11.2954 9.16597 11.3231 9.11299C11.3509 9.06003 11.3774 9.00642 11.4026 8.95216C11.4277 8.89792 11.4516 8.84309 11.4741 8.78768C11.4966 8.73229 11.5178 8.67638 11.5376 8.61995C11.5575 8.56354 11.5759 8.50665 11.593 8.44934C11.6101 8.39203 11.6257 8.33435 11.64 8.27626C11.6543 8.2182 11.6672 8.15984 11.6787 8.10113C11.6902 8.04244 11.7002 7.98351 11.7088 7.92432C11.7175 7.86516 11.7247 7.8058 11.7304 7.74626C11.7362 7.68675 11.7405 7.62712 11.7434 7.56735C11.7463 7.50764 11.7477 7.44786 11.7477 7.38805C11.7477 7.32824 11.7463 7.26847 11.7434 7.20874C11.7405 7.149 11.7362 7.08937 11.7304 7.02983C11.7247 6.97032 11.7175 6.91098 11.7088 6.85177C11.7002 6.79261 11.6902 6.73368 11.6787 6.67497C11.6672 6.61628 11.6543 6.55789 11.64 6.49983C11.6257 6.44177 11.6101 6.38406 11.593 6.32675C11.5759 6.26944 11.5575 6.21258 11.5376 6.15615C11.5178 6.09973 11.4966 6.04382 11.4741 5.98842C11.4516 5.93302 11.4277 5.8782 11.4026 5.82395C11.3774 5.7697 11.3509 5.71609 11.3231 5.66312C11.2954 5.61015 11.2664 5.55788 11.2361 5.50631C11.2058 5.45474 11.1743 5.40393 11.1415 5.35388C11.1088 5.30384 11.0749 5.25461 11.0398 5.2062C11.0047 5.15779 10.9684 5.11026 10.931 5.0636C10.8936 5.01694 10.8551 4.97122 10.8155 4.92642C10.7759 4.88162 10.7352 4.8378 10.6935 4.79497C10.6517 4.75214 10.609 4.71033 10.5652 4.66957C10.5215 4.6288 10.4768 4.58911 10.4311 4.5505C10.3855 4.51189 10.3389 4.4744 10.2914 4.43804C10.244 4.40168 10.1956 4.36648 10.1465 4.33245C10.0973 4.29843 10.0473 4.2656 9.99655 4.23399C9.9458 4.20237 9.89432 4.172 9.84207 4.14287C9.78987 4.11375 9.73697 4.0859 9.68339 4.05932C9.62984 4.03275 9.57566 4.00748 9.52086 3.98353C9.46606 3.95957 9.41074 3.93695 9.35486 3.91567C9.29898 3.89438 9.24261 3.87446 9.18576 3.85589C9.12893 3.83733 9.07168 3.82015 9.014 3.80435C8.95633 3.78855 8.8983 3.77416 8.83992 3.76116C8.78157 3.74817 8.72295 3.73659 8.664 3.72642C8.6051 3.71626 8.54594 3.70752 8.48659 3.70022C8.42724 3.69291 8.36777 3.68704 8.30812 3.6826C8.24851 3.67817 8.18881 3.67518 8.12901 3.67363L3.81143 3.67363C3.74965 3.67202 3.68787 3.67196 3.62607 3.67344C3.5643 3.67492 3.50259 3.67794 3.44094 3.6825C3.37932 3.68707 3.31784 3.69316 3.25649 3.70079C3.19516 3.70842 3.13406 3.71758 3.07319 3.72826C3.01231 3.73894 2.95173 3.75113 2.89146 3.76483C2.83121 3.77854 2.7713 3.79374 2.7118 3.81043C2.6523 3.82712 2.59323 3.84529 2.53465 3.86493C2.47604 3.88457 2.41796 3.90566 2.36041 3.9282C2.30287 3.95074 2.24591 3.9747 2.18956 4.00009C2.13321 4.02547 2.07752 4.05224 2.02251 4.08041C1.96749 4.10857 1.91321 4.13808 1.85966 4.16896C1.80612 4.19983 1.75338 4.23202 1.70144 4.26552C1.6495 4.29903 1.59843 4.33381 1.54823 4.36986C1.49802 4.40591 1.44875 4.44319 1.40041 4.48171C1.35206 4.52022 1.30471 4.55992 1.25835 4.6008C1.21199 4.64167 1.16668 4.68368 1.12241 4.72682C1.07815 4.76996 1.03498 4.81418 0.992925 4.85947C0.950866 4.90476 0.909963 4.95108 0.870215 4.99841C0.830466 5.04575 0.791923 5.09404 0.754585 5.1433C0.717247 5.19256 0.681161 5.24272 0.646325 5.29378C0.611492 5.34484 0.577951 5.39674 0.545706 5.44948C0.51346 5.50221 0.48255 5.55571 0.452974 5.60999C0.423398 5.66427 0.395195 5.71925 0.368365 5.77494C0.341534 5.83062 0.316106 5.88694 0.292086 5.9439C0.268063 6.00085 0.245477 6.05837 0.224326 6.11644C0.203175 6.17452 0.183485 6.23311 0.165257 6.29217C0.147029 6.35123 0.130284 6.41072 0.115024 6.4706C0.0997642 6.53051 0.0860072 6.59078 0.0737532 6.65134C0.0614992 6.71195 0.0507638 6.77278 0.0415466 6.83389C0.0323294 6.89503 0.024642 6.95634 0.0184844 7.01785C0.0123267 7.07936 0.00770665 7.141 0.00462409 7.20271C0.00154136 7.26447 0 7.32624 0 7.38805C0 7.44986 0.00154136 7.51164 0.00462409 7.57338C0.00770665 7.63512 0.0123267 7.69673 0.0184844 7.75824C0.024642 7.81975 0.0323294 7.88109 0.0415466 7.9422C0.0507638 8.00331 0.0614995 8.06417 0.0737535 8.12476C0.0860072 8.18534 0.0997642 8.24558 0.115025 8.30549C0.130285 8.3654 0.147029 8.42486 0.165257 8.48392C0.183485 8.54301 0.203175 8.60159 0.224326 8.65966C0.245477 8.71774 0.268063 8.77525 0.292086 8.83221C0.316106 8.88917 0.341534 8.94551 0.368365 9.00117C0.395195 9.05688 0.423398 9.11186 0.452974 9.16612C0.48255 9.22041 0.51346 9.27392 0.545706 9.32663C0.577951 9.37939 0.611492 9.43127 0.646325 9.48233C0.681161 9.53339 0.717247 9.58355 0.754585 9.63281C0.791923 9.68207 0.830466 9.73038 0.870215 9.77769C0.909963 9.82504 0.950866 9.87135 0.992925 9.91664C1.03498 9.96194 1.07815 10.0062 1.12241 10.0493C1.16668 10.0924 1.21199 10.1345 1.25835 10.1753C1.30471 10.2162 1.35206 10.2559 1.40041 10.2944C1.44875 10.3329 1.49802 10.3702 1.54823 10.4063C1.59843 10.4423 1.6495 10.4771 1.70144 10.5106C1.75338 10.5441 1.80612 10.5763 1.85966 10.6071C1.91321 10.638 1.96749 10.6675 2.02251 10.6957C2.07752 10.7239 2.13321 10.7506 2.18956 10.776C2.24591 10.8014 2.30287 10.8254 2.36042 10.8479C2.41797 10.8705 2.47604 10.8915 2.53465 10.9112C2.59323 10.9308 2.6523 10.949 2.7118 10.9657C2.7713 10.9824 2.83121 10.9976 2.89146 11.0113C2.95173 11.025 3.01231 11.0372 3.07319 11.0478C3.13406 11.0585 3.19516 11.0677 3.25649 11.0753C3.31784 11.083 3.37932 11.0891 3.44094 11.0936C3.50259 11.0982 3.5643 11.1012 3.62607 11.1027C3.68787 11.1042 3.74965 11.1041 3.81143 11.1025ZM8.03151 9.79474L3.90643 9.79474C3.8679 9.79349 3.82943 9.79134 3.791 9.78824C3.75257 9.78514 3.71425 9.78114 3.676 9.77619C3.63777 9.77126 3.59967 9.76541 3.56172 9.75863C3.52377 9.75188 3.48599 9.74421 3.44839 9.7356C3.41082 9.72703 3.37347 9.71755 3.33634 9.70715C3.29922 9.69677 3.26236 9.68549 3.22576 9.67334C3.18919 9.66119 3.15291 9.64816 3.11694 9.63426C3.08099 9.62036 3.04539 9.6056 3.01013 9.58998C2.97488 9.57437 2.94003 9.55792 2.90556 9.54062C2.87111 9.52334 2.83708 9.50524 2.80348 9.48631C2.7699 9.4674 2.7368 9.44768 2.70415 9.42715C2.6715 9.40664 2.63938 9.38534 2.60775 9.36326C2.57615 9.34121 2.54508 9.3184 2.51457 9.29482C2.48404 9.27127 2.45411 9.24701 2.42475 9.22201C2.3954 9.197 2.36667 9.17132 2.33855 9.14492C2.31043 9.11856 2.28296 9.09151 2.25614 9.0638C2.22933 9.0361 2.20319 9.00777 2.17774 8.97881C2.15228 8.94986 2.12753 8.92033 2.1035 8.89017C2.07947 8.86002 2.05617 8.82931 2.03361 8.79803C2.01105 8.76678 1.98926 8.73499 1.96823 8.70266C1.9472 8.67036 1.92696 8.63755 1.90751 8.60425C1.88806 8.57096 1.86942 8.53723 1.85159 8.50303C1.83376 8.46885 1.81676 8.43426 1.80059 8.39926C1.78443 8.36425 1.76911 8.32889 1.75464 8.29314C1.74018 8.25738 1.72658 8.22132 1.71385 8.18492C1.70112 8.14854 1.68927 8.11185 1.6783 8.07487C1.66733 8.03792 1.65726 8.00071 1.64808 7.96325C1.6389 7.92582 1.63062 7.88816 1.62326 7.85031C1.61589 7.81247 1.60943 7.77447 1.60389 7.73631C1.59835 7.69815 1.59373 7.6599 1.59003 7.62149C1.58633 7.58313 1.58355 7.54468 1.5817 7.50617C1.57984 7.46766 1.57892 7.4291 1.57892 7.39055C1.57892 7.35199 1.57984 7.31346 1.5817 7.27495C1.58355 7.23644 1.58633 7.19799 1.59003 7.1596C1.59373 7.12122 1.59835 7.08294 1.60389 7.04478C1.60943 7.00663 1.61589 6.96864 1.62326 6.93079C1.63063 6.89293 1.6389 6.8553 1.64808 6.81784C1.65726 6.78039 1.66733 6.74318 1.6783 6.70622C1.68927 6.66926 1.70112 6.63258 1.71385 6.59618C1.72658 6.55979 1.74018 6.52371 1.75464 6.48796C1.76911 6.45222 1.78443 6.41684 1.80059 6.38184C1.81676 6.34686 1.83376 6.31227 1.85159 6.27807C1.86942 6.24389 1.88806 6.21016 1.90751 6.17685C1.92696 6.14357 1.9472 6.11076 1.96823 6.07845C1.98926 6.04613 2.01105 6.01434 2.03361 5.98307C2.05617 5.9518 2.07947 5.92109 2.1035 5.89094C2.12753 5.86079 2.15228 5.83124 2.17774 5.80229C2.20319 5.77332 2.22933 5.745 2.25614 5.7173C2.28296 5.68959 2.31043 5.66255 2.33855 5.63617C2.36667 5.60979 2.3954 5.5841 2.42475 5.55911C2.45411 5.53411 2.48404 5.50983 2.51457 5.48627C2.54508 5.46272 2.57615 5.43991 2.60775 5.41784C2.63938 5.39578 2.6715 5.37449 2.70415 5.35397C2.7368 5.33345 2.7699 5.31373 2.80351 5.2948C2.83711 5.27588 2.87111 5.25777 2.90556 5.24048C2.94003 5.22319 2.97488 5.20674 3.01013 5.19113C3.04539 5.17551 3.08099 5.16076 3.11694 5.14686C3.15291 5.13296 3.18919 5.11993 3.22576 5.10777C3.26236 5.09562 3.29922 5.08435 3.33634 5.07397C3.37347 5.06358 3.41082 5.0541 3.44839 5.04551C3.48599 5.03693 3.52377 5.02925 3.56172 5.02248C3.59967 5.01571 3.63777 5.00986 3.676 5.00492C3.71425 4.99998 3.75257 4.99597 3.791 4.99287C3.82943 4.98978 3.8679 4.98761 3.90643 4.98637L8.03151 4.98637C8.07166 4.98507 8.11181 4.98478 8.15196 4.9855C8.19214 4.98622 8.23226 4.98794 8.27234 4.99067C8.31242 4.99339 8.35239 4.99712 8.39229 5.00186C8.43219 5.00659 8.47192 5.01231 8.51152 5.01904C8.55112 5.02576 8.59055 5.03347 8.62975 5.04217C8.66897 5.05087 8.70795 5.06054 8.74667 5.07119C8.7854 5.08184 8.82382 5.09346 8.86198 5.10604C8.90013 5.11861 8.93795 5.13214 8.97543 5.14661C9.0129 5.16108 9.04998 5.17649 9.08668 5.19282C9.12338 5.20915 9.15966 5.22639 9.19548 5.24454C9.23133 5.26269 9.26668 5.28172 9.30156 5.30164C9.33646 5.32156 9.37081 5.34234 9.40464 5.36398C9.43849 5.38563 9.47179 5.4081 9.50449 5.43141C9.53721 5.45472 9.56931 5.47884 9.60082 5.50376C9.63234 5.52868 9.66322 5.55437 9.69342 5.58084C9.72364 5.6073 9.75317 5.63451 9.78202 5.66246C9.81089 5.6904 9.83904 5.71905 9.86645 5.74841C9.8939 5.77777 9.92057 5.80779 9.94647 5.83849C9.9724 5.86918 9.99752 5.9005 10.0219 5.93246C10.0462 5.96441 10.0697 5.99695 10.0925 6.03008C10.1152 6.06321 10.1371 6.0969 10.1581 6.13112C10.1791 6.16535 10.1993 6.20008 10.2186 6.23531C10.2379 6.27057 10.2563 6.30625 10.2738 6.3424C10.2913 6.37859 10.3079 6.41517 10.3235 6.45215C10.3392 6.48916 10.3539 6.52651 10.3677 6.56422C10.3815 6.60198 10.3944 6.64003 10.4063 6.67839C10.4182 6.71677 10.4291 6.75541 10.439 6.79431C10.449 6.83324 10.458 6.8724 10.466 6.91176C10.474 6.95114 10.481 6.9907 10.487 7.03041C10.493 7.07014 10.498 7.11 10.502 7.14995C10.5061 7.18994 10.5091 7.22999 10.5111 7.2701C10.5131 7.31023 10.5141 7.35039 10.5141 7.39055C10.5141 7.43073 10.5131 7.47089 10.5111 7.51099C10.5091 7.55113 10.5061 7.59118 10.502 7.63114C10.498 7.67112 10.493 7.71098 10.487 7.75069C10.481 7.79042 10.474 7.82998 10.466 7.86934C10.458 7.90872 10.449 7.94787 10.439 7.98678C10.4291 8.02569 10.4182 8.06435 10.4063 8.1027C10.3944 8.14108 10.3815 8.17914 10.3677 8.21687C10.3539 8.25461 10.3392 8.29196 10.3235 8.32895C10.3079 8.36595 10.2913 8.40253 10.2738 8.43869C10.2563 8.47485 10.2379 8.51055 10.2186 8.54578C10.1993 8.58104 10.1791 8.61577 10.1581 8.64998C10.1371 8.68421 10.1152 8.71789 10.0925 8.75102C10.0697 8.78418 10.0462 8.81671 10.0219 8.84864C9.99752 8.8806 9.9724 8.91193 9.94647 8.94263C9.92057 8.97334 9.8939 9.00334 9.86645 9.0327C9.83904 9.06205 9.81089 9.09071 9.78202 9.11864C9.75317 9.1466 9.72364 9.17382 9.69342 9.20028C9.66322 9.22673 9.63234 9.25244 9.60082 9.27734C9.56931 9.30227 9.53721 9.32638 9.50449 9.34968C9.47179 9.37301 9.43849 9.39549 9.40464 9.41712C9.37081 9.43877 9.33646 9.45955 9.30156 9.47946C9.26668 9.49938 9.23133 9.51841 9.19548 9.53657C9.15966 9.55472 9.12338 9.57197 9.08668 9.5883C9.04998 9.60463 9.0129 9.62003 8.97543 9.63449C8.93795 9.64899 8.90013 9.66251 8.86198 9.67507C8.82382 9.68767 8.7854 9.69927 8.74667 9.70992C8.70795 9.72058 8.66897 9.73025 8.62975 9.73893C8.59055 9.74763 8.55112 9.75536 8.51152 9.76206C8.47192 9.76881 8.43219 9.77454 8.39229 9.77926C8.35239 9.78399 8.31242 9.78771 8.27234 9.79044C8.23226 9.79319 8.19214 9.79491 8.15199 9.79561C8.11184 9.79634 8.07166 9.79604 8.03151 9.79474ZM35.1544 11.1025L39.562 11.1025L40.397 9.79474L35.2519 9.79474C35.2119 9.79604 35.1717 9.79634 35.1314 9.79561C35.0914 9.79491 35.0512 9.79319 35.0112 9.79044C34.9712 9.78771 34.9312 9.78399 34.8912 9.77926C34.8514 9.77454 34.8117 9.76881 34.7719 9.76206C34.7324 9.75536 34.6929 9.74763 34.6537 9.73893C34.6147 9.73025 34.5757 9.72058 34.5367 9.70992C34.4982 9.69927 34.4597 9.68767 34.4214 9.67507C34.3834 9.66251 34.3454 9.64899 34.3079 9.63449C34.2707 9.62003 34.2337 9.60463 34.1967 9.5883C34.1602 9.57197 34.1239 9.55472 34.0879 9.53657C34.0522 9.51841 34.0169 9.49938 33.9819 9.47946C33.9472 9.45955 33.9129 9.43877 33.8789 9.41712C33.8452 9.39549 33.8119 9.37301 33.7789 9.34968C33.7464 9.32638 33.7142 9.30227 33.6827 9.27734C33.6512 9.25244 33.6204 9.22673 33.5902 9.20028C33.5599 9.17382 33.5304 9.1466 33.5014 9.11864C33.4727 9.09071 33.4444 9.06205 33.4169 9.0327C33.3897 9.00334 33.3629 8.97334 33.3369 8.94263C33.3112 8.91193 33.2862 8.88062 33.2617 8.84867C33.2374 8.81671 33.2139 8.78418 33.1909 8.75102C33.1684 8.71792 33.1464 8.68423 33.1254 8.64998C33.1044 8.61577 33.0844 8.58104 33.0649 8.54578C33.0457 8.51055 33.0272 8.47485 33.0097 8.43869C32.9922 8.40253 32.9757 8.36595 32.9599 8.32895C32.9444 8.29196 32.9297 8.25461 32.9157 8.21687C32.9022 8.17914 32.8892 8.14108 32.8772 8.1027C32.8654 8.06435 32.8544 8.02569 32.8444 7.98678C32.8344 7.94787 32.8254 7.90872 32.8174 7.86934C32.8094 7.82998 32.8024 7.79042 32.7964 7.75069C32.7904 7.71098 32.7854 7.67112 32.7814 7.63114C32.7774 7.59118 32.7744 7.55113 32.7724 7.51099C32.7704 7.47089 32.7694 7.43073 32.7694 7.39055C32.7694 7.35039 32.7704 7.31023 32.7724 7.2701C32.7744 7.22999 32.7774 7.18994 32.7814 7.14995C32.7854 7.11 32.7904 7.07014 32.7964 7.03041C32.8024 6.9907 32.8094 6.95114 32.8174 6.91176C32.8254 6.8724 32.8344 6.83324 32.8444 6.79431C32.8544 6.75541 32.8654 6.71677 32.8772 6.67839C32.8892 6.64003 32.9022 6.60198 32.9157 6.56422C32.9297 6.52651 32.9444 6.48916 32.9599 6.45215C32.9757 6.41517 32.9922 6.37859 33.0097 6.3424C33.0272 6.30625 33.0457 6.27057 33.0649 6.23531C33.0844 6.20008 33.1044 6.16535 33.1254 6.13112C33.1464 6.0969 33.1684 6.06321 33.1909 6.03008C33.2139 5.99695 33.2374 5.96441 33.2617 5.93246C33.2862 5.9005 33.3112 5.86918 33.3369 5.83849C33.3629 5.80779 33.3897 5.77777 33.4169 5.74841C33.4444 5.71905 33.4727 5.6904 33.5014 5.66246C33.5304 5.63451 33.5599 5.6073 33.5902 5.58084C33.6204 5.55437 33.6512 5.52868 33.6827 5.50376C33.7142 5.47884 33.7464 5.45472 33.7789 5.43141C33.8119 5.4081 33.8452 5.38563 33.8789 5.36398C33.9129 5.34234 33.9472 5.32156 33.9819 5.30164C34.0169 5.28172 34.0522 5.26269 34.0879 5.24454C34.1239 5.22639 34.1602 5.20915 34.1967 5.19282C34.2337 5.17649 34.2707 5.16108 34.3079 5.14661C34.3454 5.13214 34.3834 5.11861 34.4214 5.10604C34.4597 5.09346 34.4982 5.08184 34.5367 5.07119C34.5757 5.06054 34.6147 5.05087 34.6537 5.04217C34.6929 5.03347 34.7324 5.02576 34.7719 5.01904C34.8117 5.01231 34.8514 5.00659 34.8912 5.00186C34.9312 4.99712 34.9712 4.99339 35.0112 4.99067C35.0512 4.98794 35.0914 4.98622 35.1314 4.9855C35.1717 4.98478 35.2119 4.98507 35.2519 4.98637L39.4395 4.98637L40.2845 3.67363L35.1544 3.67363C35.0927 3.67202 35.0309 3.67196 34.9692 3.67344C34.9074 3.67492 34.8457 3.67794 34.7839 3.6825C34.7224 3.68707 34.6609 3.69316 34.5994 3.70079C34.5382 3.70842 34.4772 3.71758 34.4162 3.72826C34.3554 3.73894 34.2949 3.75113 34.2344 3.76483C34.1744 3.77854 34.1144 3.79374 34.0549 3.81043C33.9954 3.82712 33.9364 3.84529 33.8777 3.86493C33.8192 3.88457 33.7609 3.90566 33.7034 3.9282C33.6459 3.95074 33.5892 3.9747 33.5327 4.00009C33.4764 4.02547 33.4207 4.05224 33.3654 4.08041C33.3104 4.10857 33.2562 4.13808 33.2027 4.16896C33.1492 4.19983 33.0964 4.23202 33.0444 4.26552C32.9927 4.29903 32.9417 4.33381 32.8912 4.36986C32.8412 4.40591 32.7919 4.44319 32.7434 4.48171C32.6951 4.52022 32.6479 4.55992 32.6014 4.6008C32.5551 4.64167 32.5099 4.68368 32.4654 4.72682C32.4214 4.76996 32.3781 4.81417 32.3359 4.85947C32.2939 4.90476 32.2531 4.95108 32.2131 4.99841C32.1736 5.04574 32.1351 5.09404 32.0976 5.1433C32.0604 5.19256 32.0244 5.24272 31.9894 5.29378C31.9546 5.34484 31.9211 5.39674 31.8886 5.44948C31.8566 5.50221 31.8256 5.55571 31.7959 5.60999C31.7664 5.66427 31.7384 5.71925 31.7114 5.77494C31.6846 5.83062 31.6591 5.88694 31.6351 5.9439C31.6111 6.00085 31.5886 6.05837 31.5674 6.11644C31.5464 6.17452 31.5266 6.23311 31.5084 6.29217C31.4901 6.35123 31.4734 6.41072 31.4581 6.4706C31.4429 6.53051 31.4291 6.59078 31.4169 6.65134C31.4046 6.71195 31.3939 6.77278 31.3846 6.83389C31.3754 6.89503 31.3676 6.95634 31.3616 7.01785C31.3556 7.07936 31.3509 7.141 31.3476 7.20271C31.3446 7.26447 31.3431 7.32624 31.3431 7.38805C31.3431 7.44986 31.3446 7.51164 31.3476 7.57338C31.3509 7.63512 31.3556 7.69673 31.3616 7.75824C31.3676 7.81975 31.3754 7.88109 31.3846 7.9422C31.3939 8.00331 31.4046 8.06417 31.4169 8.12476C31.4291 8.18534 31.4429 8.24558 31.4581 8.30549C31.4734 8.3654 31.4901 8.42486 31.5084 8.48392C31.5266 8.54301 31.5464 8.60159 31.5674 8.65966C31.5886 8.71774 31.6111 8.77525 31.6351 8.83221C31.6591 8.88917 31.6846 8.94551 31.7114 9.00117C31.7384 9.05688 31.7664 9.11186 31.7959 9.16612C31.8256 9.22041 31.8566 9.27392 31.8886 9.32663C31.9211 9.37939 31.9546 9.43127 31.9894 9.48233C32.0244 9.53339 32.0604 9.58355 32.0976 9.63281C32.1351 9.68207 32.1736 9.73038 32.2131 9.77769C32.2531 9.82504 32.2939 9.87135 32.3359 9.91664C32.3781 9.96194 32.4214 10.0062 32.4654 10.0493C32.5099 10.0924 32.5551 10.1345 32.6014 10.1753C32.6479 10.2162 32.6951 10.2559 32.7434 10.2944C32.7919 10.3329 32.8412 10.3702 32.8912 10.4063C32.9417 10.4423 32.9927 10.4771 33.0444 10.5106C33.0964 10.5441 33.1492 10.5763 33.2027 10.6071C33.2562 10.638 33.3104 10.6675 33.3654 10.6957C33.4207 10.7239 33.4764 10.7506 33.5327 10.776C33.5892 10.8014 33.6459 10.8254 33.7034 10.8479C33.7609 10.8705 33.8192 10.8915 33.8777 10.9112C33.9364 10.9308 33.9954 10.949 34.0549 10.9657C34.1144 10.9824 34.1744 10.9976 34.2344 11.0113C34.2949 11.025 34.3554 11.0372 34.4162 11.0478C34.4772 11.0585 34.5382 11.0677 34.5994 11.0753C34.6609 11.083 34.7224 11.0891 34.7839 11.0936C34.8457 11.0982 34.9074 11.1012 34.9692 11.1027C35.0309 11.1042 35.0927 11.1041 35.1544 11.1025ZM52.6223 9.79474C52.5573 9.79476 52.4925 9.79216 52.4278 9.78694C52.3633 9.78171 52.2988 9.77389 52.2345 9.76343C52.1705 9.75298 52.107 9.73995 52.0438 9.72435C51.9808 9.70877 51.9185 9.69065 51.857 9.66999C51.7955 9.64936 51.7348 9.62626 51.675 9.6007C51.6155 9.57515 51.5568 9.54722 51.4993 9.51691C51.442 9.48661 51.386 9.45405 51.331 9.4192C51.2763 9.38434 51.223 9.34733 51.171 9.30817C51.1193 9.26902 51.0693 9.22781 51.0208 9.18458C50.9723 9.14137 50.9258 9.09624 50.8808 9.04923C50.836 9.00222 50.7933 8.95348 50.7523 8.903C50.7115 8.85254 50.6728 8.80048 50.636 8.74685C50.5995 8.69324 50.565 8.63823 50.5328 8.58182C50.5008 8.52541 50.4707 8.4678 50.443 8.40898C50.4155 8.35017 50.3905 8.29031 50.3677 8.22945C50.3452 8.16859 50.325 8.10693 50.3072 8.04442L56.4124 8.04442L57.2524 6.73418L50.3072 6.73418C50.325 6.67166 50.3452 6.60998 50.3677 6.54907C50.3905 6.48821 50.4155 6.42832 50.443 6.36946C50.4705 6.31062 50.5005 6.25299 50.5325 6.19653C50.5648 6.14012 50.599 6.08508 50.6355 6.03144C50.6723 5.9778 50.711 5.92573 50.7518 5.87523C50.7928 5.82473 50.8355 5.77598 50.8803 5.72895C50.9253 5.68193 50.9718 5.63679 51.0203 5.59355C51.0688 5.55031 51.119 5.50911 51.1708 5.46993C51.2228 5.43076 51.276 5.39375 51.3305 5.3589C51.3855 5.32405 51.4415 5.29148 51.499 5.26119C51.5565 5.23089 51.6153 5.20297 51.6748 5.17742C51.7345 5.15188 51.7953 5.1288 51.8568 5.10818C51.9183 5.08755 51.9808 5.06946 52.0438 5.05389C52.1068 5.03832 52.1705 5.02533 52.2345 5.01492C52.2985 5.00451 52.363 4.99671 52.4278 4.99153C52.4925 4.98634 52.5573 4.98379 52.6223 4.98387L56.8124 4.98387L57.6499 3.67112L52.5248 3.67112C52.465 3.67268 52.4053 3.67567 52.3458 3.6801C52.2863 3.68454 52.2268 3.69041 52.1673 3.69772C52.108 3.70502 52.0488 3.71376 51.9898 3.72392C51.931 3.73409 51.8723 3.74567 51.8138 3.75866C51.7555 3.77166 51.6975 3.78605 51.6398 3.80185C51.5823 3.81765 51.525 3.83483 51.468 3.85339C51.4113 3.87196 51.355 3.89188 51.299 3.91317C51.243 3.93445 51.1878 3.95707 51.133 3.98103C51.0783 4.00498 51.024 4.03025 50.9705 4.05682C50.917 4.0834 50.864 4.11125 50.8118 4.14038C50.7598 4.1695 50.7083 4.19988 50.6573 4.23149C50.6065 4.26311 50.5565 4.29593 50.5073 4.32996C50.4583 4.36398 50.41 4.39918 50.3625 4.43554C50.315 4.4719 50.2685 4.50939 50.2227 4.548C50.1772 4.58661 50.1325 4.6263 50.0885 4.66707C50.045 4.70784 50.0022 4.74964 49.9602 4.79247C49.9187 4.83531 49.878 4.87912 49.8382 4.92392C49.7987 4.96872 49.7602 5.01445 49.7227 5.0611C49.6855 5.10776 49.6492 5.1553 49.614 5.2037C49.579 5.25211 49.545 5.30134 49.5122 5.35139C49.4797 5.40143 49.4482 5.45224 49.4177 5.50381C49.3875 5.55538 49.3585 5.60765 49.3307 5.66062C49.303 5.71359 49.2765 5.7672 49.2512 5.82145C49.2262 5.8757 49.2022 5.93052 49.1797 5.98592C49.1572 6.04132 49.1362 6.09723 49.1162 6.15364C49.0965 6.21008 49.078 6.26694 49.061 6.32425C49.044 6.38156 49.0282 6.43927 49.0137 6.49733C48.9997 6.55539 48.9867 6.61378 48.9752 6.67247C48.9637 6.73118 48.9537 6.79011 48.945 6.84927C48.9365 6.90848 48.9292 6.96782 48.9235 7.02733C48.9177 7.08687 48.9135 7.1465 48.9105 7.20624C48.9075 7.26597 48.906 7.32574 48.906 7.38555C48.906 7.44536 48.9075 7.50514 48.9105 7.56485C48.9135 7.62462 48.9177 7.68425 48.9235 7.74376C48.9292 7.8033 48.9365 7.86266 48.945 7.92182C48.9537 7.98101 48.9637 8.03994 48.9752 8.09863C48.9867 8.15734 48.9997 8.2157 49.0137 8.27376C49.0282 8.33185 49.044 8.38953 49.061 8.44684C49.078 8.50415 49.0965 8.56104 49.1162 8.61745C49.1362 8.67388 49.1572 8.72979 49.1797 8.78518C49.2022 8.84059 49.2262 8.89542 49.2512 8.94966C49.2765 9.00392 49.303 9.05753 49.3307 9.11049C49.3585 9.16345 49.3875 9.21573 49.4177 9.26729C49.4482 9.31888 49.4797 9.36969 49.5122 9.41972C49.545 9.46978 49.579 9.51899 49.614 9.5674C49.6492 9.61581 49.6855 9.66334 49.7227 9.71C49.7602 9.75666 49.7987 9.80239 49.8382 9.84717C49.878 9.89198 49.9187 9.93582 49.9602 9.97862C50.0022 10.0215 50.045 10.0633 50.0885 10.104C50.1325 10.1448 50.1772 10.1845 50.2227 10.2231C50.2685 10.2617 50.315 10.2992 50.3625 10.3356C50.41 10.3719 50.4583 10.4071 50.5073 10.4412C50.5565 10.4752 50.6065 10.508 50.6573 10.5396C50.7083 10.5712 50.7598 10.6016 50.8118 10.6307C50.864 10.6599 50.917 10.6877 50.9705 10.7143C51.024 10.7409 51.0783 10.7661 51.133 10.7901C51.1878 10.814 51.243 10.8367 51.299 10.8579C51.355 10.8792 51.4113 10.8992 51.468 10.9177C51.525 10.9363 51.5823 10.9535 51.6398 10.9693C51.6975 10.9851 51.7555 10.9995 51.8138 11.0124C51.8723 11.0254 51.931 11.037 51.9898 11.0472C52.0488 11.0573 52.108 11.0661 52.1673 11.0734C52.2268 11.0807 52.2863 11.0866 52.3458 11.091C52.4053 11.0955 52.465 11.0984 52.5248 11.1L56.9324 11.1L57.7699 9.79224L52.6198 9.79224">
</path>
</svg>
