<svg xmlns="http://www.w3.org/2000/svg" xmlns:xlink="http://www.w3.org/1999/xlink" width="231" height="30" viewBox="0 0 231 30" fill="none">
<g  clip-path="url(#clip-path-0)">
<path     fill="#C74634"  d="M24.9943 4.88037L28.8043 4.88037L26.7918 1.63087L23.0918 7.49998L21.4093 7.49998L25.9093 0.458544C25.9215 0.441057 25.9343 0.423952 25.9475 0.407224C25.9608 0.390497 25.9745 0.374179 25.9885 0.358272C26.0028 0.342361 26.0175 0.326889 26.0325 0.311856C26.0478 0.296823 26.0633 0.282253 26.0793 0.268148C26.0953 0.25404 26.1118 0.240422 26.1285 0.227295C26.1455 0.214167 26.1625 0.201552 26.18 0.189449C26.1975 0.177346 26.2155 0.165777 26.2338 0.154742C26.252 0.143707 26.2705 0.133226 26.2893 0.123298C26.3083 0.113371 26.3275 0.104014 26.3468 0.0952293C26.3663 0.0864441 26.386 0.0782458 26.4058 0.0706345C26.4258 0.0630231 26.446 0.0560122 26.4663 0.0496019C26.4868 0.0431913 26.5073 0.0373927 26.5278 0.0322057C26.5485 0.0270187 26.5693 0.022453 26.5903 0.0185082C26.6113 0.0145634 26.6325 0.0112467 26.6535 0.00855797C26.6748 0.00586928 26.696 0.00381343 26.717 0.00239039C26.7385 0.000967358 26.7598 0.000179685 26.781 2.73732e-05C26.8025 -0.000124939 26.8238 0.000358382 26.845 0.00147733C26.8665 0.00259629 26.8878 0.00434888 26.9088 0.0067351C26.93 0.00912134 26.951 0.012137 26.972 0.015782C26.993 0.0194271 27.014 0.023695 27.0348 0.028586C27.0555 0.0334768 27.076 0.0389819 27.0965 0.0451013C27.117 0.0512206 27.1373 0.0579431 27.1573 0.065269C27.1773 0.0725952 27.197 0.0805115 27.2165 0.0890182C27.236 0.0975247 27.2553 0.106607 27.2743 0.116264C27.2935 0.125921 27.3123 0.136136 27.3305 0.146909C27.349 0.157682 27.367 0.168994 27.3848 0.180845C27.4025 0.192696 27.4198 0.205064 27.4368 0.217951C27.4538 0.230837 27.4705 0.244219 27.4865 0.258097C27.5028 0.271972 27.5185 0.286317 27.534 0.301135C27.5495 0.31595 27.5643 0.331211 27.5785 0.346916C27.593 0.362618 27.607 0.378741 27.6203 0.395279C27.6338 0.411814 27.6468 0.428736 27.6593 0.446046L32.1719 7.49998L30.4894 7.49998L29.6968 6.18768L25.8418 6.18768L25.0017 4.88037M42.4846 6.18768L42.4846 0.0711009L41.0546 0.0711009L41.0546 6.79009C41.0546 6.83678 41.0591 6.883 41.0683 6.92874C41.0776 6.97451 41.0913 7.01888 41.1096 7.06185C41.1278 7.10482 41.1503 7.14551 41.1768 7.18393C41.2033 7.22235 41.2336 7.25772 41.2671 7.29001C41.3011 7.32463 41.3378 7.35553 41.3778 7.38272C41.4181 7.40992 41.4606 7.43287 41.5051 7.45154C41.5498 7.47024 41.5958 7.48428 41.6433 7.49368C41.6908 7.50311 41.7388 7.50771 41.7871 7.50748L48.2872 7.50748L49.1347 6.19518L42.4771 6.19518M18.8417 5.09534C18.8828 5.09534 18.924 5.09434 18.965 5.09232C19.0061 5.09032 19.0471 5.08729 19.088 5.08324C19.1289 5.07922 19.1697 5.07419 19.2104 5.06814C19.2511 5.06212 19.2916 5.0551 19.3319 5.04707C19.3722 5.03907 19.4123 5.03005 19.4522 5.02005C19.4921 5.01008 19.5317 4.99913 19.5711 4.98718C19.6104 4.97523 19.6495 4.96234 19.6882 4.94849C19.7269 4.93464 19.7652 4.91987 19.8032 4.90412C19.8412 4.8884 19.8788 4.87175 19.916 4.85415C19.9532 4.83658 19.9899 4.81811 20.0261 4.79871C20.0624 4.77934 20.0982 4.75909 20.1334 4.73794C20.1687 4.7168 20.2034 4.69483 20.2376 4.67198C20.2718 4.64913 20.3054 4.62546 20.3385 4.60096C20.3715 4.57649 20.4039 4.55122 20.4357 4.52513C20.4675 4.49903 20.4986 4.47218 20.5291 4.44459C20.5595 4.41699 20.5893 4.38865 20.6184 4.35955C20.6475 4.3305 20.6758 4.30073 20.7034 4.27026C20.731 4.23982 20.7579 4.2087 20.784 4.1769C20.81 4.14511 20.8353 4.11271 20.8598 4.07969C20.8843 4.04667 20.908 4.01308 20.9308 3.97888C20.9537 3.94469 20.9757 3.90997 20.9968 3.8747C21.018 3.83945 21.0382 3.80368 21.0576 3.76741C21.077 3.73117 21.0955 3.69447 21.113 3.65728C21.1306 3.62014 21.1473 3.58257 21.163 3.54457C21.1787 3.50658 21.1935 3.46823 21.2074 3.42951C21.2212 3.39082 21.2341 3.3518 21.2461 3.31246C21.258 3.27311 21.269 3.23349 21.279 3.1936C21.289 3.15373 21.298 3.11364 21.306 3.07332C21.314 3.033 21.321 2.9925 21.3271 2.95181C21.3331 2.91117 21.3381 2.87037 21.3422 2.82945C21.3462 2.78853 21.3492 2.74754 21.3512 2.70647C21.3533 2.66543 21.3543 2.62433 21.3543 2.58321C21.3543 2.54212 21.3533 2.50103 21.3512 2.45996C21.3492 2.4189 21.3462 2.37791 21.3422 2.337C21.3381 2.29608 21.3331 2.25529 21.3271 2.21462C21.321 2.17395 21.314 2.13346 21.306 2.09314C21.298 2.05281 21.289 2.01271 21.279 1.97283C21.269 1.93295 21.258 1.89334 21.2461 1.854C21.2341 1.81465 21.2212 1.77563 21.2074 1.73692C21.1935 1.69821 21.1787 1.65986 21.163 1.62188C21.1473 1.58389 21.1306 1.54632 21.113 1.50916C21.0955 1.47199 21.077 1.43528 21.0576 1.39902C21.0382 1.36276 21.018 1.327 20.9968 1.29174C20.9757 1.25647 20.9537 1.22175 20.9308 1.18757C20.908 1.15338 20.8843 1.11978 20.8598 1.08676C20.8353 1.05373 20.81 1.02133 20.784 0.989553C20.7579 0.957772 20.731 0.926649 20.7034 0.896186C20.6758 0.865723 20.6475 0.835958 20.6184 0.806887C20.5893 0.777814 20.5595 0.749473 20.5291 0.721865C20.4986 0.694254 20.4675 0.667408 20.4357 0.641327C20.4039 0.615246 20.3715 0.58996 20.3385 0.565468C20.3054 0.540977 20.2718 0.517313 20.2376 0.494471C20.2034 0.47163 20.1687 0.44964 20.1334 0.428506C20.0982 0.407369 20.0624 0.38711 20.0261 0.36773C19.9899 0.348348 19.9532 0.329871 19.916 0.312293C19.8788 0.294714 19.8412 0.278059 19.8032 0.262326C19.7652 0.246592 19.7269 0.2318 19.6882 0.21795C19.6495 0.204099 19.6104 0.191206 19.5711 0.179272C19.5317 0.167338 19.4921 0.156376 19.4522 0.146386C19.4123 0.136396 19.3722 0.127391 19.3319 0.119371C19.2916 0.11135 19.2511 0.104323 19.2104 0.0982909C19.1697 0.0922585 19.1289 0.0872272 19.088 0.0831974C19.0471 0.0791677 19.0061 0.0761442 18.965 0.074127C18.924 0.0721095 18.8828 0.0711009 18.8417 0.0711009L12.5916 0.0711009L12.5916 7.49998L14.0191 7.49998L14.0191 1.38591L18.7542 1.38591C18.7739 1.38591 18.7936 1.38639 18.8132 1.38735C18.8329 1.38832 18.8525 1.38977 18.8721 1.3917C18.8917 1.39362 18.9112 1.39603 18.9307 1.39892C18.9502 1.40181 18.9695 1.40517 18.9888 1.40901C19.0081 1.41285 19.0273 1.41716 19.0464 1.42194C19.0655 1.42672 19.0845 1.43196 19.1033 1.43768C19.1222 1.44339 19.1408 1.44956 19.1593 1.45619C19.1779 1.46282 19.1962 1.4699 19.2144 1.47743C19.2326 1.48496 19.2506 1.49293 19.2684 1.50134C19.2862 1.50976 19.3037 1.5186 19.3211 1.52787C19.3384 1.53715 19.3556 1.54684 19.3724 1.55696C19.3893 1.56708 19.406 1.5776 19.4223 1.58853C19.4387 1.59946 19.4548 1.61079 19.4706 1.62251C19.4864 1.63423 19.5019 1.64634 19.5171 1.65882C19.5323 1.6713 19.5472 1.68415 19.5618 1.69737C19.5764 1.71058 19.5906 1.72414 19.6045 1.73806C19.6185 1.75197 19.632 1.76622 19.6452 1.7808C19.6585 1.79537 19.6713 1.81027 19.6838 1.82548C19.6963 1.84069 19.7084 1.8562 19.7201 1.87201C19.7318 1.88781 19.7432 1.90389 19.7541 1.92025C19.765 1.93661 19.7756 1.95323 19.7857 1.97011C19.7958 1.98699 19.8055 2.0041 19.8147 2.02146C19.824 2.03881 19.8329 2.05638 19.8413 2.07417C19.8497 2.09196 19.8577 2.10994 19.8652 2.12812C19.8727 2.1463 19.8798 2.16465 19.8864 2.18318C19.8931 2.2017 19.8993 2.22038 19.905 2.23921C19.9107 2.25804 19.9159 2.277 19.9207 2.29609C19.9255 2.31517 19.9298 2.33436 19.9336 2.35366C19.9375 2.37296 19.9408 2.39234 19.9437 2.41181C19.9466 2.43127 19.949 2.4508 19.951 2.47038C19.9529 2.48996 19.9543 2.50958 19.9553 2.52922C19.9563 2.54887 19.9567 2.56854 19.9567 2.58821C19.9567 2.60791 19.9563 2.62756 19.9553 2.64721C19.9543 2.66688 19.9529 2.6865 19.951 2.70607C19.949 2.72567 19.9466 2.74519 19.9437 2.76464C19.9408 2.78411 19.9375 2.80348 19.9336 2.82278C19.9298 2.84208 19.9255 2.86127 19.9207 2.88035C19.9159 2.89944 19.9107 2.91842 19.905 2.93724C19.8993 2.95608 19.8931 2.97476 19.8864 2.99325C19.8798 3.0118 19.8727 3.03015 19.8652 3.04832C19.8577 3.06652 19.8497 3.08449 19.8413 3.10226C19.8329 3.12006 19.824 3.13763 19.8147 3.15498C19.8055 3.17235 19.7958 3.18947 19.7857 3.20632C19.7756 3.22322 19.765 3.23984 19.7541 3.25619C19.7432 3.27256 19.7318 3.28864 19.7201 3.30443C19.7084 3.32026 19.6963 3.33575 19.6838 3.35095C19.6713 3.36617 19.6585 3.38107 19.6452 3.39564C19.632 3.41024 19.6185 3.42449 19.6045 3.43839C19.5906 3.45231 19.5764 3.46588 19.5618 3.47908C19.5472 3.4923 19.5323 3.50515 19.5171 3.51763C19.5019 3.53012 19.4864 3.54222 19.4706 3.55392C19.4548 3.56567 19.4387 3.57699 19.4223 3.58792C19.406 3.59886 19.3893 3.60939 19.3724 3.61949C19.3556 3.62961 19.3385 3.63931 19.3211 3.64856C19.3037 3.65785 19.2862 3.6667 19.2684 3.6751C19.2506 3.68353 19.2326 3.6915 19.2144 3.69902C19.1962 3.70655 19.1779 3.71362 19.1593 3.72025C19.1408 3.72689 19.1222 3.73307 19.1033 3.73877C19.0845 3.74449 19.0655 3.74974 19.0464 3.75449C19.0273 3.75929 19.0081 3.76359 18.9888 3.76744C18.9695 3.77129 18.9502 3.77464 18.9307 3.77751C18.9112 3.78041 18.8917 3.78284 18.8721 3.78474C18.8525 3.78669 18.8329 3.78814 18.8132 3.78909C18.7936 3.79006 18.7739 3.79054 18.7542 3.79054L14.7266 3.79054L18.9917 7.49998L21.0643 7.49998L18.1992 5.09534L18.8417 5.09534ZM3.81143 7.49998L8.12901 7.49998C8.18881 7.49843 8.24851 7.49546 8.30812 7.49101C8.36777 7.48658 8.42724 7.48071 8.48659 7.47341C8.54594 7.46611 8.6051 7.45736 8.664 7.44722C8.72295 7.43707 8.78157 7.42547 8.83992 7.41247C8.8983 7.3995 8.95633 7.3851 9.014 7.3693C9.07168 7.3535 9.12893 7.33633 9.18576 7.31778C9.24261 7.29924 9.29898 7.27931 9.35486 7.25802C9.41074 7.23675 9.46606 7.21413 9.52086 7.19018C9.57566 7.16623 9.62984 7.14099 9.68339 7.11441C9.73697 7.08787 9.78987 7.06002 9.84207 7.0309C9.89432 7.00178 9.9458 6.97141 9.99655 6.93982C10.0473 6.90822 10.0973 6.8754 10.1465 6.84138C10.1956 6.80736 10.244 6.77217 10.2914 6.73582C10.3389 6.69948 10.3855 6.66201 10.4311 6.62341C10.4768 6.58482 10.5215 6.54512 10.5652 6.50438C10.609 6.46364 10.6517 6.42184 10.6935 6.379C10.7352 6.33621 10.7759 6.29241 10.8155 6.24762C10.8551 6.20283 10.8936 6.15711 10.931 6.11046C10.9684 6.06382 11.0047 6.0163 11.0398 5.96791C11.0749 5.91952 11.1088 5.87033 11.1415 5.82028C11.1743 5.77027 11.2058 5.71947 11.2361 5.66791C11.2664 5.61636 11.2954 5.56412 11.3231 5.51115C11.3509 5.45821 11.3774 5.40462 11.4026 5.35038C11.4277 5.29616 11.4516 5.24134 11.4741 5.18595C11.4966 5.13059 11.5178 5.07469 11.5376 5.01828C11.5575 4.96189 11.5759 4.90502 11.593 4.84773C11.6101 4.79044 11.6257 4.73277 11.64 4.6747C11.6543 4.61666 11.6672 4.55832 11.6787 4.49963C11.6902 4.44096 11.7002 4.38205 11.7088 4.32288C11.7175 4.26374 11.7247 4.2044 11.7304 4.14488C11.7362 4.08539 11.7405 4.02577 11.7434 3.96603C11.7463 3.90634 11.7477 3.84658 11.7477 3.78679C11.7477 3.72699 11.7463 3.66725 11.7434 3.60754C11.7405 3.54782 11.7362 3.48821 11.7304 3.42869C11.7247 3.3692 11.7175 3.30988 11.7088 3.25069C11.7002 3.19155 11.6902 3.13263 11.6787 3.07394C11.6672 3.01528 11.6543 2.95691 11.64 2.89887C11.6257 2.84083 11.6101 2.78314 11.593 2.72584C11.5759 2.66855 11.5575 2.61171 11.5376 2.55529C11.5178 2.4989 11.4966 2.44301 11.4741 2.38762C11.4516 2.33224 11.4277 2.27744 11.4026 2.22321C11.3774 2.16897 11.3509 2.11538 11.3231 2.06243C11.2954 2.00948 11.2664 1.95723 11.2361 1.90568C11.2058 1.85412 11.1743 1.80333 11.1415 1.7533C11.1088 1.70327 11.0749 1.65406 11.0398 1.60567C11.0047 1.55728 10.9684 1.50976 10.931 1.46311C10.8936 1.41647 10.8551 1.37076 10.8155 1.32598C10.7759 1.28119 10.7352 1.23739 10.6935 1.19457C10.6517 1.15175 10.609 1.10996 10.5652 1.06921C10.5215 1.02845 10.4768 0.988778 10.4311 0.950181C10.3855 0.911582 10.3389 0.87411 10.2914 0.83776C10.244 0.801411 10.1956 0.766226 10.1465 0.732211C10.0973 0.698193 10.0473 0.665383 9.99655 0.633778C9.9458 0.602173 9.89432 0.571812 9.84207 0.542694C9.78987 0.513576 9.73697 0.485735 9.68339 0.459169C9.62984 0.432603 9.57566 0.407347 9.52086 0.3834C9.46606 0.359449 9.41074 0.336837 9.35486 0.31556C9.29898 0.294281 9.24261 0.274364 9.18576 0.255807C9.12893 0.23725 9.07168 0.220076 9.014 0.204283C8.95633 0.188491 8.8983 0.174099 8.83992 0.161108C8.78157 0.148116 8.72295 0.136541 8.664 0.126381C8.6051 0.116221 8.54594 0.107488 8.48659 0.100183C8.42724 0.0928782 8.36777 0.0870093 8.30812 0.0825762C8.24851 0.0781431 8.18881 0.0751513 8.12901 0.0736008L3.81143 0.0736008C3.74965 0.071998 3.68787 0.0719368 3.62607 0.0734171C3.5643 0.0748976 3.50259 0.0779176 3.44094 0.0824772C3.37932 0.0870368 3.31784 0.0931306 3.25649 0.100758C3.19516 0.108386 3.13406 0.117538 3.07319 0.128215C3.01231 0.138892 2.95173 0.15108 2.89146 0.164779C2.83121 0.178479 2.7713 0.193672 2.7118 0.21036C2.6523 0.227048 2.59323 0.245208 2.53465 0.264843C2.47604 0.284478 2.41796 0.305562 2.36041 0.328094C2.30287 0.350625 2.24591 0.374579 2.18956 0.399955C2.13321 0.425329 2.07752 0.452093 2.02251 0.480246C1.96749 0.508397 1.91321 0.537905 1.85966 0.568768C1.80612 0.599628 1.75338 0.631806 1.70144 0.665301C1.6495 0.698793 1.59843 0.733561 1.54823 0.769603C1.49802 0.805642 1.44875 0.842914 1.40041 0.881416C1.35206 0.919915 1.30471 0.959599 1.25835 1.00046C1.21199 1.04132 1.16668 1.08332 1.12241 1.12644C1.07815 1.16957 1.03498 1.21377 0.992925 1.25905C0.950866 1.30433 0.909963 1.35063 0.870215 1.39795C0.830466 1.44526 0.791923 1.49354 0.754585 1.54279C0.717247 1.59203 0.681161 1.64218 0.646325 1.69322C0.611492 1.74426 0.577951 1.79614 0.545706 1.84886C0.51346 1.90158 0.48255 1.95506 0.452974 2.00932C0.423398 2.06358 0.395195 2.11855 0.368365 2.17421C0.341534 2.22988 0.316106 2.28618 0.292086 2.34312C0.268063 2.40005 0.245477 2.45755 0.224326 2.5156C0.203175 2.57367 0.183485 2.63223 0.165257 2.69127C0.147029 2.75032 0.130284 2.80978 0.115024 2.86965C0.0997642 2.92954 0.0860072 2.98978 0.0737532 3.05032C0.0614992 3.11091 0.0507638 3.17173 0.0415466 3.23282C0.0323294 3.29393 0.024642 3.35523 0.0184844 3.41672C0.0123267 3.47821 0.00770665 3.53982 0.00462409 3.60151C0.00154136 3.66325 0 3.72499 0 3.78679C0 3.84858 0.00154136 3.91034 0.00462409 3.97206C0.00770665 4.03377 0.0123267 4.09536 0.0184844 4.15686C0.024642 4.21835 0.0323294 4.27966 0.0415466 4.34075C0.0507638 4.40184 0.0614995 4.46269 0.0737535 4.52325C0.0860072 4.58382 0.0997642 4.64403 0.115025 4.70392C0.130285 4.76381 0.147029 4.82326 0.165257 4.8823C0.183485 4.94136 0.203175 4.99993 0.224326 5.05797C0.245477 5.11604 0.268063 5.17353 0.292086 5.23047C0.316106 5.28741 0.341534 5.34373 0.368365 5.39937C0.395195 5.45506 0.423398 5.51003 0.452974 5.56427C0.48255 5.61854 0.51346 5.67203 0.545706 5.72472C0.577951 5.77746 0.611492 5.82933 0.646325 5.88037C0.681161 5.93142 0.717247 5.98156 0.754585 6.0308C0.791923 6.08004 0.830466 6.12834 0.870215 6.17563C0.909963 6.22297 0.950866 6.26927 0.992925 6.31453C1.03498 6.35983 1.07815 6.40402 1.12241 6.44714C1.16668 6.49028 1.21199 6.53228 1.25835 6.57312C1.30471 6.61399 1.35206 6.65368 1.40041 6.69218C1.44875 6.73067 1.49802 6.76794 1.54823 6.80399C1.59843 6.84003 1.6495 6.8748 1.70144 6.9083C1.75338 6.94179 1.80612 6.97396 1.85966 7.00481C1.91321 7.03568 1.96749 7.0652 2.02251 7.09334C2.07752 7.12149 2.13321 7.14826 2.18956 7.17363C2.24591 7.19903 2.30287 7.22297 2.36042 7.2455C2.41797 7.26804 2.47604 7.28911 2.53465 7.30874C2.59323 7.32838 2.6523 7.34653 2.7118 7.36323C2.7713 7.37993 2.83121 7.3951 2.89146 7.4088C2.95173 7.42249 3.01231 7.43469 3.07319 7.44537C3.13406 7.45606 3.19516 7.46521 3.25649 7.47284C3.31784 7.48046 3.37932 7.48656 3.44094 7.49111C3.50259 7.49568 3.5643 7.49871 3.62607 7.50016C3.68787 7.50166 3.74965 7.50158 3.81143 7.49998ZM8.03151 6.19268L3.90643 6.19268C3.8679 6.19143 3.82943 6.18928 3.791 6.18618C3.75257 6.18308 3.71425 6.17908 3.676 6.17413C3.63777 6.16921 3.59967 6.16336 3.56172 6.15658C3.52377 6.14983 3.48599 6.14216 3.44839 6.13356C3.41082 6.12499 3.37347 6.11551 3.33634 6.10512C3.29922 6.09474 3.26236 6.08347 3.22576 6.07132C3.18919 6.05917 3.15291 6.04615 3.11694 6.03225C3.08099 6.01835 3.04539 6.00361 3.01013 5.98798C2.97488 5.97238 2.94003 5.95594 2.90556 5.93864C2.87111 5.92137 2.83708 5.90327 2.80348 5.88435C2.7699 5.86545 2.7368 5.84573 2.70415 5.82521C2.6715 5.80471 2.63938 5.78341 2.60775 5.76134C2.57615 5.73929 2.54508 5.7165 2.51457 5.69293C2.48404 5.66938 2.45411 5.64513 2.42475 5.62014C2.3954 5.59514 2.36667 5.56947 2.33855 5.54307C2.31043 5.51673 2.28296 5.48968 2.25614 5.46199C2.22933 5.43429 2.20319 5.40597 2.17774 5.37702C2.15228 5.34808 2.12753 5.31856 2.1035 5.28841C2.07947 5.25827 2.05617 5.22757 2.03361 5.1963C2.01105 5.16506 1.98926 5.13329 1.96823 5.10097C1.9472 5.06867 1.92696 5.03587 1.90751 5.00258C1.88806 4.96931 1.86942 4.93559 1.85159 4.90139C1.83376 4.86722 1.81676 4.83265 1.80059 4.79766C1.78443 4.76267 1.76911 4.72732 1.75464 4.69158C1.74018 4.65583 1.72658 4.61979 1.71385 4.58339C1.70112 4.54702 1.68927 4.51035 1.6783 4.47338C1.66733 4.43644 1.65726 4.39924 1.64808 4.3618C1.6389 4.32438 1.63062 4.28674 1.62326 4.24889C1.61589 4.21107 1.60943 4.17308 1.60389 4.13493C1.59835 4.09679 1.59373 4.05855 1.59003 4.02015C1.58633 3.98181 1.58355 3.94336 1.5817 3.90487C1.57984 3.86637 1.57892 3.82783 1.57892 3.78929C1.57892 3.75074 1.57984 3.71222 1.5817 3.67373C1.58355 3.63523 1.58633 3.59679 1.59003 3.55842C1.59373 3.52005 1.59835 3.48178 1.60389 3.44364C1.60943 3.40549 1.61589 3.36752 1.62326 3.32968C1.63063 3.29183 1.6389 3.25422 1.64808 3.21677C1.65726 3.17933 1.66733 3.14213 1.6783 3.10519C1.68927 3.06824 1.70112 3.03157 1.71385 2.99518C1.72658 2.95881 1.74018 2.92274 1.75464 2.88699C1.76911 2.85128 1.78443 2.81591 1.80059 2.78091C1.81676 2.74594 1.83376 2.71137 1.85159 2.67718C1.86942 2.64301 1.88806 2.60929 1.90751 2.57599C1.92696 2.54272 1.9472 2.50993 1.96823 2.47762C1.98926 2.44532 2.01105 2.41353 2.03361 2.38228C2.05617 2.35102 2.07947 2.32032 2.1035 2.29018C2.12753 2.26004 2.15228 2.2305 2.17774 2.20155C2.20319 2.1726 2.22933 2.14428 2.25614 2.11659C2.28296 2.0889 2.31043 2.06187 2.33855 2.0355C2.36667 2.00913 2.3954 1.98344 2.42475 1.95846C2.45411 1.93346 2.48404 1.9092 2.51457 1.88565C2.54508 1.86209 2.57615 1.83929 2.60775 1.81724C2.63938 1.79518 2.6715 1.7739 2.70415 1.75339C2.7368 1.73287 2.7699 1.71316 2.80351 1.69424C2.83711 1.67532 2.87111 1.65722 2.90556 1.63994C2.94003 1.62265 2.97488 1.60621 3.01013 1.5906C3.04539 1.57499 3.08099 1.56024 3.11694 1.54634C3.15291 1.53245 3.18919 1.51942 3.22576 1.50727C3.26236 1.49512 3.29922 1.48386 3.33634 1.47348C3.37347 1.4631 3.41082 1.45362 3.44839 1.44503C3.48599 1.43645 3.52377 1.42877 3.56172 1.42201C3.59967 1.41524 3.63777 1.40939 3.676 1.40445C3.71425 1.39952 3.75257 1.3955 3.791 1.39241C3.82943 1.38932 3.8679 1.38715 3.90643 1.38591L8.03151 1.38591C8.07166 1.38461 8.11181 1.38432 8.15196 1.38504C8.19214 1.38576 8.23226 1.38748 8.27234 1.39021C8.31242 1.39293 8.35239 1.39666 8.39229 1.40139C8.43219 1.40612 8.47192 1.41184 8.51152 1.41857C8.55112 1.42529 8.59055 1.43299 8.62975 1.44169C8.66897 1.45038 8.70795 1.46005 8.74667 1.4707C8.7854 1.48135 8.82382 1.49296 8.86198 1.50554C8.90013 1.51811 8.93795 1.53163 8.97543 1.5461C9.0129 1.56056 9.04998 1.57596 9.08668 1.59229C9.12338 1.60861 9.15966 1.62585 9.19548 1.64399C9.23133 1.66213 9.26668 1.68116 9.30156 1.70107C9.33646 1.72099 9.37081 1.74176 9.40464 1.7634C9.43849 1.78503 9.47179 1.8075 9.50449 1.8308C9.53721 1.85411 9.56931 1.87821 9.60081 1.90312C9.63234 1.92804 9.66322 1.95372 9.69342 1.98018C9.72364 2.00663 9.75317 2.03383 9.78202 2.06177C9.81089 2.08971 9.83904 2.11835 9.86645 2.1477C9.8939 2.17704 9.92057 2.20706 9.94647 2.23774C9.9724 2.26842 9.99752 2.29974 10.0219 2.33168C10.0462 2.36362 10.0697 2.39615 10.0925 2.42927C10.1152 2.46239 10.1371 2.49607 10.1581 2.53027C10.1791 2.56449 10.1993 2.59921 10.2186 2.63443C10.2379 2.66968 10.2563 2.70535 10.2738 2.74149C10.2913 2.77766 10.3079 2.81423 10.3235 2.8512C10.3392 2.88819 10.3539 2.92554 10.3677 2.96323C10.3815 3.00098 10.3944 3.03902 10.4063 3.07737C10.4182 3.11574 10.4291 3.15435 10.439 3.19325C10.449 3.23217 10.458 3.27131 10.466 3.31066C10.474 3.35003 10.481 3.38957 10.487 3.42926C10.493 3.46898 10.498 3.50883 10.502 3.54877C10.5061 3.58874 10.5091 3.62878 10.5111 3.66888C10.5131 3.709 10.5141 3.74914 10.5141 3.78929C10.5141 3.82945 10.5131 3.8696 10.5111 3.90969C10.5091 3.94981 10.5061 3.98986 10.502 4.0298C10.498 4.06977 10.493 4.10961 10.487 4.14931C10.481 4.18903 10.474 4.22857 10.466 4.26791C10.458 4.30728 10.449 4.34643 10.439 4.38532C10.4291 4.42422 10.4182 4.46286 10.4063 4.5012C10.3944 4.53957 10.3815 4.57762 10.3677 4.61534C10.3539 4.65306 10.3392 4.6904 10.3235 4.72737C10.3079 4.76437 10.2913 4.80093 10.2738 4.83708C10.2563 4.87322 10.2379 4.90892 10.2186 4.94414C10.1993 4.97938 10.1791 5.0141 10.1581 5.0483C10.1371 5.08252 10.1152 5.11619 10.0925 5.14931C10.0697 5.18245 10.0462 5.21497 10.0219 5.24689C9.99752 5.27884 9.9724 5.31016 9.94647 5.34085C9.92057 5.37155 9.8939 5.40155 9.86645 5.43089C9.83904 5.46024 9.81089 5.48888 9.78202 5.5168C9.75317 5.54475 9.72364 5.57197 9.69342 5.59842C9.66322 5.62486 9.63234 5.65056 9.60081 5.67545C9.56931 5.70038 9.53721 5.72447 9.50449 5.74777C9.47179 5.77109 9.43849 5.79356 9.40464 5.81518C9.37081 5.83683 9.33646 5.8576 9.30156 5.8775C9.26668 5.89742 9.23133 5.91644 9.19548 5.93459C9.15966 5.95274 9.12338 5.96999 9.08668 5.98631C9.04998 6.00263 9.0129 6.01803 8.97543 6.03248C8.93795 6.04697 8.90013 6.0605 8.86198 6.07304C8.82382 6.08564 8.7854 6.09724 8.74667 6.10789C8.70795 6.11854 8.66897 6.12821 8.62975 6.13689C8.59055 6.14558 8.55112 6.15331 8.51152 6.16001C8.47192 6.16676 8.43219 6.17248 8.39229 6.1772C8.35239 6.18193 8.31242 6.18565 8.27234 6.18838C8.23226 6.19113 8.19214 6.19285 8.15199 6.19355C8.11184 6.19428 8.07166 6.19398 8.03151 6.19268ZM35.1544 7.49998L39.562 7.49998L40.397 6.19268L35.2519 6.19268C35.2119 6.19398 35.1717 6.19428 35.1314 6.19355C35.0914 6.19285 35.0512 6.19113 35.0112 6.18838C34.9712 6.18565 34.9312 6.18193 34.8912 6.1772C34.8514 6.17248 34.8117 6.16676 34.7719 6.16001C34.7324 6.15331 34.6929 6.14558 34.6537 6.13689C34.6147 6.12821 34.5757 6.11854 34.5367 6.10789C34.4982 6.09724 34.4597 6.08564 34.4214 6.07304C34.3834 6.0605 34.3454 6.04697 34.3079 6.03248C34.2707 6.01803 34.2337 6.00263 34.1967 5.98631C34.1602 5.96999 34.1239 5.95274 34.0879 5.93459C34.0522 5.91644 34.0169 5.89742 33.9819 5.8775C33.9472 5.8576 33.9129 5.83683 33.8789 5.81518C33.8452 5.79356 33.8119 5.77109 33.7789 5.74777C33.7464 5.72447 33.7142 5.70038 33.6827 5.67545C33.6512 5.65056 33.6204 5.62486 33.5902 5.59842C33.5599 5.57197 33.5304 5.54475 33.5014 5.5168C33.4727 5.48888 33.4444 5.46024 33.4169 5.43089C33.3897 5.40155 33.3629 5.37155 33.3369 5.34085C33.3112 5.31016 33.2862 5.27886 33.2617 5.24692C33.2374 5.21497 33.2139 5.18245 33.1909 5.14931C33.1684 5.11621 33.1464 5.08254 33.1254 5.0483C33.1044 5.0141 33.0844 4.97938 33.0649 4.94414C33.0457 4.90892 33.0272 4.87322 33.0097 4.83708C32.9922 4.80093 32.9757 4.76437 32.9599 4.72737C32.9444 4.6904 32.9297 4.65306 32.9157 4.61534C32.9022 4.57762 32.8892 4.53957 32.8772 4.5012C32.8654 4.46286 32.8544 4.42422 32.8444 4.38532C32.8344 4.34643 32.8254 4.30728 32.8174 4.26791C32.8094 4.22857 32.8024 4.18903 32.7964 4.14931C32.7904 4.10961 32.7854 4.06977 32.7814 4.0298C32.7774 3.98986 32.7744 3.94981 32.7724 3.90969C32.7704 3.8696 32.7694 3.82945 32.7694 3.78929C32.7694 3.74914 32.7704 3.709 32.7724 3.66888C32.7744 3.62878 32.7774 3.58874 32.7814 3.54877C32.7854 3.50883 32.7904 3.46898 32.7964 3.42926C32.8024 3.38957 32.8094 3.35003 32.8174 3.31066C32.8254 3.27131 32.8344 3.23217 32.8444 3.19325C32.8544 3.15435 32.8654 3.11574 32.8772 3.07737C32.8892 3.03902 32.9022 3.00098 32.9157 2.96323C32.9297 2.92554 32.9444 2.88819 32.9599 2.8512C32.9757 2.81423 32.9922 2.77766 33.0097 2.74149C33.0272 2.70535 33.0457 2.66968 33.0649 2.63443C33.0844 2.59921 33.1044 2.56449 33.1254 2.53027C33.1464 2.49607 33.1684 2.46239 33.1909 2.42927C33.2139 2.39615 33.2374 2.36362 33.2617 2.33168C33.2862 2.29973 33.3112 2.26842 33.3369 2.23774C33.3629 2.20706 33.3897 2.17704 33.4169 2.14769C33.4444 2.11835 33.4727 2.08971 33.5014 2.06177C33.5304 2.03383 33.5599 2.00663 33.5902 1.98018C33.6204 1.95372 33.6512 1.92804 33.6827 1.90312C33.7142 1.87821 33.7464 1.85411 33.7789 1.8308C33.8119 1.8075 33.8452 1.78503 33.8789 1.7634C33.9129 1.74176 33.9472 1.72099 33.9819 1.70107C34.0169 1.68116 34.0522 1.66213 34.0879 1.64399C34.1239 1.62585 34.1602 1.60861 34.1967 1.59229C34.2337 1.57596 34.2707 1.56056 34.3079 1.5461C34.3454 1.53163 34.3834 1.51811 34.4214 1.50554C34.4597 1.49296 34.4982 1.48135 34.5367 1.4707C34.5757 1.46005 34.6147 1.45038 34.6537 1.44169C34.6929 1.43299 34.7324 1.42529 34.7719 1.41857C34.8117 1.41184 34.8514 1.40612 34.8912 1.40139C34.9312 1.39666 34.9712 1.39293 35.0112 1.39021C35.0512 1.38748 35.0914 1.38576 35.1314 1.38504C35.1717 1.38432 35.2119 1.38461 35.2519 1.38591L39.4395 1.38591L40.2845 0.0736008L35.1544 0.0736008C35.0927 0.071998 35.0309 0.0719368 34.9692 0.0734171C34.9074 0.0748973 34.8457 0.0779174 34.7839 0.0824772C34.7224 0.0870368 34.6609 0.0931306 34.5994 0.100758C34.5382 0.108386 34.4772 0.117538 34.4162 0.128215C34.3554 0.138892 34.2949 0.15108 34.2344 0.164779C34.1744 0.178478 34.1144 0.193672 34.0549 0.21036C33.9954 0.227047 33.9364 0.245208 33.8777 0.264843C33.8192 0.284478 33.7609 0.305562 33.7034 0.328094C33.6459 0.350625 33.5892 0.374579 33.5327 0.399955C33.4764 0.425327 33.4207 0.45209 33.3654 0.480246C33.3104 0.508397 33.2562 0.537905 33.2027 0.568768C33.1492 0.599628 33.0964 0.631806 33.0444 0.665301C32.9927 0.698793 32.9417 0.733561 32.8912 0.769603C32.8412 0.805642 32.7919 0.842914 32.7434 0.881416C32.6951 0.919915 32.6479 0.959599 32.6014 1.00046C32.5551 1.04132 32.5099 1.08332 32.4654 1.12644C32.4214 1.16957 32.3781 1.21377 32.3359 1.25905C32.2939 1.30433 32.2531 1.35063 32.2131 1.39794C32.1736 1.44526 32.1351 1.49354 32.0976 1.54279C32.0604 1.59203 32.0244 1.64217 31.9894 1.69322C31.9546 1.74426 31.9211 1.79614 31.8886 1.84886C31.8566 1.90158 31.8256 1.95506 31.7959 2.00932C31.7664 2.06358 31.7384 2.11855 31.7114 2.17421C31.6846 2.22988 31.6591 2.28618 31.6351 2.34312C31.6111 2.40005 31.5886 2.45755 31.5674 2.5156C31.5464 2.57367 31.5266 2.63223 31.5084 2.69127C31.4901 2.75032 31.4734 2.80978 31.4581 2.86965C31.4429 2.92954 31.4291 2.98978 31.4169 3.05032C31.4046 3.11091 31.3939 3.17173 31.3846 3.23282C31.3754 3.29393 31.3676 3.35523 31.3616 3.41672C31.3556 3.47821 31.3509 3.53982 31.3476 3.60151C31.3446 3.66325 31.3431 3.72499 31.3431 3.78679C31.3431 3.84858 31.3446 3.91034 31.3476 3.97206C31.3509 4.03377 31.3556 4.09536 31.3616 4.15686C31.3676 4.21835 31.3754 4.27966 31.3846 4.34075C31.3939 4.40184 31.4046 4.46269 31.4169 4.52325C31.4291 4.58382 31.4429 4.64403 31.4581 4.70392C31.4734 4.76381 31.4901 4.82326 31.5084 4.8823C31.5266 4.94136 31.5464 4.99993 31.5674 5.05797C31.5886 5.11604 31.6111 5.17353 31.6351 5.23047C31.6591 5.28741 31.6846 5.34373 31.7114 5.39937C31.7384 5.45506 31.7664 5.51003 31.7959 5.56427C31.8256 5.61854 31.8566 5.67203 31.8886 5.72472C31.9211 5.77746 31.9546 5.82933 31.9894 5.88037C32.0244 5.93142 32.0604 5.98156 32.0976 6.0308C32.1351 6.08004 32.1736 6.12834 32.2131 6.17563C32.2531 6.22297 32.2939 6.26927 32.3359 6.31453C32.3781 6.35983 32.4214 6.40402 32.4654 6.44714C32.5099 6.49028 32.5551 6.53228 32.6014 6.57312C32.6479 6.61399 32.6951 6.65368 32.7434 6.69218C32.7919 6.73067 32.8412 6.76794 32.8912 6.80399C32.9417 6.84003 32.9927 6.8748 33.0444 6.9083C33.0964 6.94179 33.1492 6.97396 33.2027 7.00481C33.2562 7.03568 33.3104 7.0652 33.3654 7.09334C33.4207 7.12149 33.4764 7.14826 33.5327 7.17363C33.5892 7.19903 33.6459 7.22297 33.7034 7.2455C33.7609 7.26804 33.8192 7.28911 33.8777 7.30874C33.9364 7.32838 33.9954 7.34653 34.0549 7.36323C34.1144 7.37993 34.1744 7.3951 34.2344 7.4088C34.2949 7.42249 34.3554 7.43469 34.4162 7.44537C34.4772 7.45606 34.5382 7.46521 34.5994 7.47284C34.6609 7.48046 34.7224 7.48656 34.7839 7.49111C34.8457 7.49568 34.9074 7.49871 34.9692 7.50016C35.0309 7.50166 35.0927 7.50158 35.1544 7.49998ZM52.6223 6.19268C52.5573 6.1927 52.4925 6.1901 52.4278 6.18488C52.3633 6.17965 52.2988 6.17183 52.2345 6.16138C52.1705 6.15093 52.107 6.13791 52.0438 6.12231C51.9808 6.10674 51.9185 6.08862 51.857 6.06797C51.7955 6.04735 51.7348 6.02425 51.675 5.99871C51.6155 5.97316 51.5568 5.94524 51.4993 5.91494C51.442 5.88465 51.386 5.8521 51.331 5.81726C51.2763 5.78241 51.223 5.74542 51.171 5.70627C51.1193 5.66713 51.0693 5.62594 51.0208 5.58272C50.9723 5.53952 50.9258 5.49441 50.8808 5.44741C50.836 5.40042 50.7933 5.3517 50.7523 5.30124C50.7115 5.25079 50.6728 5.19875 50.636 5.14513C50.5995 5.09154 50.565 5.03655 50.5328 4.98016C50.5008 4.92377 50.4707 4.86617 50.443 4.80738C50.4155 4.74859 50.3905 4.68875 50.3677 4.62791C50.3452 4.56707 50.325 4.50543 50.3072 4.44294L56.4124 4.44294L57.2524 3.13313L50.3072 3.13313C50.325 3.07064 50.3452 3.00898 50.3677 2.94809C50.3905 2.88724 50.4155 2.82738 50.443 2.76854C50.4705 2.70972 50.5005 2.6521 50.5325 2.59566C50.5648 2.53927 50.599 2.48425 50.6355 2.43063C50.6723 2.37701 50.711 2.32496 50.7518 2.27448C50.7928 2.22399 50.8355 2.17525 50.8803 2.12824C50.9253 2.08123 50.9718 2.03612 51.0203 1.99289C51.0688 1.94966 51.119 1.90847 51.1708 1.86931C51.2228 1.83015 51.276 1.79315 51.3305 1.75832C51.3855 1.72348 51.4415 1.69092 51.499 1.66063C51.5565 1.63035 51.6153 1.60244 51.6748 1.5769C51.7345 1.55136 51.7953 1.52829 51.8568 1.50768C51.9183 1.48706 51.9808 1.46897 52.0438 1.45341C52.1068 1.43784 52.1705 1.42486 52.2345 1.41445C52.2985 1.40404 52.363 1.39625 52.4278 1.39107C52.4925 1.38588 52.5573 1.38333 52.6223 1.38341L56.8124 1.38341L57.6499 0.0711012L52.5248 0.0711012C52.465 0.0726519 52.4053 0.0756437 52.3458 0.0800768C52.2863 0.0845099 52.2268 0.090379 52.1673 0.0976842C52.108 0.104989 52.0488 0.113722 51.9898 0.123882C51.931 0.134042 51.8723 0.145618 51.8138 0.158609C51.7555 0.171601 51.6975 0.185993 51.6398 0.201785C51.5823 0.217578 51.525 0.234752 51.468 0.25331C51.4113 0.271867 51.355 0.291784 51.299 0.313061C51.243 0.334338 51.1878 0.356952 51.133 0.380901C51.0783 0.40485 51.024 0.430106 50.9705 0.456672C50.917 0.483235 50.864 0.511076 50.8118 0.540197C50.7598 0.569315 50.7083 0.599676 50.6573 0.631281C50.6065 0.662886 50.5565 0.695696 50.5073 0.729714C50.4582 0.763729 50.41 0.798913 50.3625 0.835263C50.315 0.87161 50.2685 0.909084 50.2227 0.947684C50.1772 0.986281 50.1325 1.02596 50.0885 1.06671C50.045 1.10747 50.0022 1.14926 49.9602 1.19208C49.9187 1.2349 49.878 1.2787 49.8382 1.32348C49.7987 1.36826 49.7602 1.41397 49.7227 1.46062C49.6855 1.50726 49.6492 1.55478 49.614 1.60317C49.579 1.65156 49.545 1.70077 49.5122 1.7508C49.4797 1.80083 49.4482 1.85163 49.4177 1.90318C49.3875 1.95473 49.3585 2.00698 49.3307 2.05994C49.303 2.11289 49.2765 2.16648 49.2512 2.22071C49.2262 2.27494 49.2022 2.32975 49.1797 2.38513C49.1572 2.44051 49.1362 2.4964 49.1162 2.55279C49.0965 2.60921 49.078 2.66605 49.061 2.72334C49.044 2.78064 49.0282 2.83833 49.0137 2.89637C48.9997 2.95441 48.9867 3.01278 48.9752 3.07144C48.9637 3.13013 48.9537 3.18905 48.945 3.24819C48.9365 3.30738 48.9292 3.3667 48.9235 3.42619C48.9177 3.48571 48.9135 3.54532 48.9105 3.60504C48.9075 3.66475 48.906 3.72449 48.906 3.78429C48.906 3.84408 48.9075 3.90384 48.9105 3.96353C48.9135 4.02328 48.9177 4.08289 48.9235 4.14238C48.9292 4.2019 48.9365 4.26124 48.945 4.32038C48.9537 4.37955 48.9637 4.43846 48.9752 4.49713C48.9867 4.55582 48.9997 4.61416 49.0137 4.6722C49.0282 4.73027 49.044 4.78794 49.061 4.84523C49.078 4.90252 49.0965 4.95939 49.1162 5.01578C49.1362 5.07219 49.1572 5.12809 49.1797 5.18345C49.2022 5.23884 49.2262 5.29366 49.2512 5.34788C49.2765 5.40212 49.303 5.45571 49.3307 5.50865C49.3585 5.5616 49.3875 5.61386 49.4177 5.66541C49.4482 5.71697 49.4797 5.76777 49.5122 5.81778C49.545 5.86783 49.579 5.91702 49.614 5.96541C49.6492 6.0138 49.6855 6.06132 49.7227 6.10796C49.7602 6.15461 49.7987 6.20033 49.8382 6.24509C49.878 6.28989 49.9187 6.33371 49.9602 6.3765C50.0022 6.41934 50.045 6.46114 50.0885 6.50188C50.1325 6.54262 50.1772 6.58232 50.2227 6.62091C50.2685 6.65951 50.315 6.69698 50.3625 6.73332C50.41 6.76967 50.4582 6.80486 50.5073 6.83888C50.5565 6.8729 50.6065 6.90572 50.6573 6.93732C50.7083 6.96891 50.7598 6.99928 50.8118 7.02838C50.864 7.05752 50.917 7.08537 50.9705 7.11192C51.024 7.13849 51.0783 7.16373 51.133 7.18768C51.1878 7.21163 51.243 7.23425 51.299 7.25552C51.355 7.27682 51.4113 7.29674 51.468 7.31528C51.525 7.33383 51.5823 7.351 51.6398 7.3668C51.6975 7.3826 51.7555 7.397 51.8138 7.40997C51.8723 7.42297 51.931 7.43454 51.9898 7.44469C52.0488 7.45486 52.108 7.46361 52.1673 7.47091C52.2268 7.47821 52.2863 7.48408 52.3458 7.48851C52.4053 7.49296 52.465 7.49593 52.5248 7.49748L56.9324 7.49748L57.7699 6.19018L52.6198 6.19018">
</path>
</g>
<defs>
<clipPath id="clip-path-0">
<path d="M0 30L231 30L231 0L0 0L0 30Z" fill="white"/>
</clipPath>
</defs>
</svg>
