<svg xmlns="http://www.w3.org/2000/svg" xmlns:xlink="http://www.w3.org/1999/xlink" width="70" height="15" viewBox="0 0 70 15" fill="none">
<path     fill="#C74634"  d="M30.2857 8.3506L34.9022 8.3506L32.4636 4.45509L27.9804 11.491L25.9417 11.491L31.3943 3.0497C31.4091 3.02874 31.4246 3.00823 31.4406 2.98818C31.4567 2.96813 31.4734 2.94857 31.4903 2.9295C31.5076 2.91042 31.5255 2.89187 31.5436 2.87385C31.5621 2.85583 31.5809 2.83837 31.6003 2.82146C31.6197 2.80454 31.6397 2.78822 31.66 2.77248C31.6806 2.75674 31.7012 2.74162 31.7224 2.72711C31.7436 2.7126 31.7654 2.69873 31.7875 2.6855C31.8096 2.67228 31.832 2.65971 31.8548 2.64781C31.8778 2.63591 31.9011 2.62469 31.9244 2.61416C31.9481 2.60363 31.972 2.5938 31.9959 2.58468C32.0202 2.57555 32.0447 2.56715 32.0692 2.55946C32.0941 2.55178 32.1189 2.54483 32.1437 2.53861C32.1689 2.53239 32.194 2.52692 32.2195 2.52219C32.2449 2.51746 32.2707 2.51348 32.2961 2.51026C32.3219 2.50704 32.3476 2.50457 32.3731 2.50287C32.3991 2.50116 32.4249 2.50022 32.4506 2.50003C32.4767 2.49985 32.5024 2.50043 32.5282 2.50177C32.5542 2.50311 32.58 2.50521 32.6054 2.50807C32.6312 2.51093 32.6566 2.51455 32.6821 2.51892C32.7075 2.52329 32.7329 2.52841 32.7581 2.53427C32.7832 2.54013 32.8081 2.54673 32.8329 2.55407C32.8578 2.5614 32.8823 2.56946 32.9065 2.57824C32.9308 2.58703 32.9547 2.59652 32.9783 2.60672C33.002 2.61691 33.0253 2.6278 33.0483 2.63938C33.0716 2.65095 33.0943 2.6632 33.1165 2.67611C33.1389 2.68903 33.1607 2.70259 33.1822 2.7168C33.2037 2.731 33.2246 2.74583 33.2452 2.76128C33.2658 2.77673 33.2861 2.79277 33.3055 2.80941C33.3252 2.82604 33.3443 2.84324 33.363 2.861C33.3818 2.87876 33.3997 2.89706 33.417 2.91588C33.4345 2.93471 33.4515 2.95404 33.4676 2.97386C33.4839 2.99368 33.4997 3.01397 33.5148 3.03472L38.9827 11.491L36.944 11.491L35.9837 9.9178L31.3125 9.9178L30.2947 8.3506M51.4786 9.9178L51.4786 2.58524L49.7459 2.58524L49.7459 10.64C49.7459 10.6959 49.7513 10.7513 49.7625 10.8062C49.7738 10.8611 49.7904 10.9142 49.8125 10.9658C49.8346 11.0173 49.8619 11.066 49.894 11.1121C49.9261 11.1582 49.9628 11.2006 50.0034 11.2393C50.0446 11.2808 50.0891 11.3178 50.1376 11.3504C50.1863 11.383 50.2378 11.4105 50.2918 11.4329C50.346 11.4553 50.4017 11.4722 50.4593 11.4834C50.5168 11.4947 50.575 11.5002 50.6335 11.5L58.5097 11.5L59.5366 9.92679L51.4696 9.92679M22.8305 8.6083C22.8804 8.6083 22.9302 8.6071 22.9799 8.60468C23.0297 8.60228 23.0794 8.59865 23.129 8.5938C23.1786 8.58897 23.228 8.58295 23.2772 8.5757C23.3266 8.56848 23.3756 8.56006 23.4245 8.55044C23.4734 8.54085 23.522 8.53003 23.5703 8.51804C23.6186 8.50609 23.6666 8.49296 23.7143 8.47864C23.762 8.46432 23.8093 8.44885 23.8562 8.43225C23.9031 8.41565 23.9496 8.39794 23.9956 8.37906C24.0416 8.36022 24.0872 8.34026 24.1322 8.31916C24.1773 8.2981 24.2218 8.27595 24.2657 8.2527C24.3096 8.22948 24.353 8.2052 24.3957 8.17985C24.4384 8.1545 24.4805 8.12816 24.522 8.10077C24.5634 8.07339 24.6041 8.04501 24.6441 8.01564C24.6842 7.98631 24.7234 7.95601 24.7619 7.92473C24.8004 7.89344 24.8382 7.86126 24.8751 7.82818C24.912 7.79509 24.9481 7.76111 24.9833 7.72623C25.0186 7.69141 25.0529 7.65573 25.0864 7.6192C25.1198 7.5827 25.1523 7.54539 25.184 7.50728C25.2156 7.46916 25.2462 7.43032 25.2759 7.39074C25.3056 7.35116 25.3342 7.31088 25.3619 7.26989C25.3896 7.2289 25.4162 7.18727 25.4419 7.14499C25.4675 7.10274 25.492 7.05986 25.5155 7.01638C25.539 6.97293 25.5614 6.92894 25.5827 6.88435C25.604 6.83982 25.6242 6.79478 25.6433 6.74924C25.6623 6.70369 25.6803 6.65772 25.697 6.61131C25.7138 6.56492 25.7294 6.51814 25.7439 6.47098C25.7584 6.42381 25.7717 6.37632 25.7838 6.32849C25.7959 6.2807 25.8068 6.23263 25.8165 6.1843C25.8262 6.13596 25.8347 6.08742 25.842 6.03863C25.8493 5.98991 25.8555 5.94101 25.8603 5.89195C25.8652 5.8429 25.8689 5.79375 25.8713 5.74452C25.8738 5.69532 25.875 5.64605 25.875 5.59676C25.875 5.5475 25.8738 5.49823 25.8713 5.44901C25.8689 5.39978 25.8652 5.35064 25.8603 5.30159C25.8555 5.25254 25.8493 5.20364 25.842 5.15489C25.8347 5.10614 25.8262 5.05759 25.8165 5.00925C25.8068 4.96091 25.7959 4.91284 25.7838 4.86503C25.7717 4.81722 25.7584 4.76974 25.7439 4.72257C25.7294 4.67541 25.7138 4.62862 25.697 4.58222C25.6803 4.53581 25.6623 4.48984 25.6433 4.44431C25.6242 4.39877 25.604 4.35373 25.5827 4.30918C25.5614 4.26462 25.539 4.22061 25.5155 4.17715C25.492 4.13368 25.4675 4.09081 25.4419 4.04854C25.4162 4.00626 25.3896 3.96463 25.3619 3.92366C25.3342 3.88267 25.3056 3.84239 25.2759 3.8028C25.2462 3.76322 25.2156 3.72438 25.184 3.68628C25.1523 3.64818 25.1198 3.61087 25.0864 3.57435C25.0529 3.53783 25.0186 3.50215 24.9833 3.4673C24.9481 3.43244 24.912 3.39847 24.8751 3.36537C24.8382 3.33227 24.8004 3.30009 24.7619 3.26882C24.7234 3.23756 24.6842 3.20724 24.6441 3.17788C24.6041 3.14852 24.5634 3.12016 24.522 3.09277C24.4805 3.06539 24.4384 3.03903 24.3957 3.01369C24.353 2.98835 24.3096 2.96407 24.2657 2.94084C24.2218 2.9176 24.1773 2.89545 24.1322 2.87438C24.0872 2.8533 24.0416 2.83334 23.9956 2.81448C23.9496 2.79561 23.9031 2.77788 23.8562 2.76128C23.8093 2.74467 23.762 2.72922 23.7143 2.71491C23.6666 2.7006 23.6186 2.68746 23.5703 2.67549C23.522 2.66351 23.4734 2.65272 23.4245 2.6431C23.3756 2.63349 23.3266 2.62506 23.2772 2.61783C23.228 2.6106 23.1786 2.60457 23.129 2.59974C23.0794 2.59491 23.0297 2.59128 22.9799 2.58886C22.9302 2.58644 22.8804 2.58524 22.8305 2.58524L15.2573 2.58524L15.2573 11.491L16.987 11.491L16.987 4.16143L22.7245 4.16143C22.7484 4.16143 22.7722 4.162 22.796 4.16316C22.8199 4.16432 22.8436 4.16605 22.8674 4.16837C22.8911 4.17068 22.9147 4.17356 22.9383 4.17703C22.9619 4.18049 22.9854 4.18452 23.0088 4.18912C23.0322 4.19372 23.0554 4.19889 23.0786 4.20462C23.1017 4.21035 23.1247 4.21664 23.1475 4.22349C23.1703 4.23033 23.193 4.23773 23.2154 4.24568C23.2379 4.25363 23.2601 4.26211 23.2821 4.27114C23.3041 4.28017 23.326 4.28972 23.3475 4.29981C23.3691 4.3099 23.3904 4.3205 23.4114 4.33162C23.4324 4.34274 23.4532 4.35436 23.4736 4.36649C23.4941 4.37861 23.5142 4.39123 23.534 4.40434C23.5539 4.41744 23.5734 4.43102 23.5925 4.44507C23.6117 4.45912 23.6305 4.47363 23.6489 4.4886C23.6673 4.50356 23.6854 4.51896 23.703 4.53481C23.7207 4.55065 23.738 4.56691 23.7549 4.58359C23.7717 4.60027 23.7882 4.61734 23.8042 4.63482C23.8202 4.6523 23.8358 4.67015 23.8509 4.68839C23.866 4.70662 23.8807 4.72521 23.8949 4.74416C23.9091 4.76311 23.9228 4.78239 23.9361 4.802C23.9493 4.82162 23.9621 4.84154 23.9743 4.86177C23.9866 4.882 23.9983 4.90252 24.0096 4.92332C24.0208 4.94413 24.0315 4.96519 24.0417 4.98652C24.0519 5.00784 24.0616 5.0294 24.0707 5.05119C24.0798 5.07298 24.0884 5.09499 24.0964 5.1172C24.1045 5.13941 24.112 5.1618 24.1189 5.18437C24.1258 5.20694 24.1322 5.22967 24.1379 5.25255C24.1437 5.27543 24.149 5.29844 24.1536 5.32158C24.1583 5.34471 24.1624 5.36794 24.1658 5.39128C24.1694 5.41461 24.1723 5.43802 24.1746 5.46149C24.177 5.48497 24.1787 5.50848 24.1799 5.53204C24.181 5.55559 24.1816 5.57917 24.1816 5.60275C24.1816 5.62637 24.181 5.64992 24.1799 5.67347C24.1787 5.69706 24.177 5.72058 24.1746 5.74404C24.1723 5.76754 24.1694 5.79094 24.1658 5.81425C24.1624 5.83759 24.1583 5.86082 24.1536 5.88395C24.149 5.90708 24.1438 5.9301 24.138 5.95296C24.1322 5.97586 24.1258 5.9986 24.1189 6.02116C24.112 6.04376 24.1045 6.06614 24.0964 6.08832C24.0884 6.11055 24.0798 6.13255 24.0707 6.15433C24.0616 6.17615 24.0519 6.19769 24.0417 6.219C24.0315 6.24033 24.0208 6.2614 24.0096 6.28219C23.9983 6.30302 23.9866 6.32355 23.9743 6.34374C23.9621 6.364 23.9493 6.38393 23.9361 6.40352C23.9228 6.42315 23.9091 6.44242 23.8949 6.46136C23.8807 6.48033 23.866 6.4989 23.8509 6.51712C23.8358 6.53537 23.8202 6.55323 23.8042 6.5707C23.7882 6.5882 23.7717 6.60528 23.7549 6.62194C23.738 6.63863 23.7207 6.65491 23.703 6.67073C23.6854 6.68658 23.6673 6.70198 23.6489 6.71693C23.6305 6.73192 23.6117 6.74642 23.5925 6.76044C23.5734 6.77453 23.5539 6.7881 23.534 6.8012C23.5142 6.81432 23.4941 6.82694 23.4736 6.83904C23.4532 6.85118 23.4324 6.86281 23.4114 6.87389C23.3904 6.88504 23.3691 6.89565 23.3475 6.90572C23.326 6.91582 23.3041 6.92537 23.2821 6.93439C23.2601 6.94341 23.2379 6.95189 23.2154 6.95984C23.193 6.96781 23.1703 6.97521 23.1475 6.98204C23.1247 6.9889 23.1017 6.99519 23.0786 7.00089C23.0554 7.00664 23.0322 7.0118 23.0088 7.01641C22.9854 7.02102 22.9619 7.02504 22.9383 7.02849C22.9147 7.03196 22.8911 7.03487 22.8674 7.03715C22.8436 7.03948 22.8199 7.04122 22.796 7.04236C22.7722 7.04353 22.7484 7.0441 22.7245 7.0441L17.8443 7.0441L23.0123 11.491L25.5236 11.491L22.052 8.6083L22.8305 8.6083ZM4.61831 11.491L9.84994 11.491C9.9224 11.4891 9.99474 11.4856 10.067 11.4802C10.1392 11.4749 10.2113 11.4679 10.2832 11.4591C10.3551 11.4504 10.4268 11.4399 10.4982 11.4277C10.5696 11.4156 10.6406 11.4017 10.7114 11.3861C10.7821 11.3705 10.8524 11.3533 10.9223 11.3343C10.9922 11.3154 11.0615 11.2948 11.1304 11.2726C11.1993 11.2503 11.2676 11.2265 11.3353 11.2009C11.403 11.1754 11.47 11.1483 11.5364 11.1196C11.6028 11.0909 11.6685 11.0606 11.7334 11.0288C11.7983 10.9969 11.8624 10.9636 11.9257 10.9287C11.989 10.8937 12.0513 10.8573 12.1128 10.8195C12.1743 10.7816 12.2349 10.7422 12.2945 10.7015C12.3541 10.6607 12.4126 10.6185 12.4701 10.5749C12.5277 10.5313 12.5841 10.4864 12.6394 10.4402C12.6947 10.3939 12.7489 10.3463 12.8019 10.2975C12.8549 10.2486 12.9067 10.1985 12.9573 10.1472C13.0079 10.0959 13.0571 10.0434 13.1051 9.98965C13.1531 9.93596 13.1998 9.88115 13.2451 9.82523C13.2904 9.76932 13.3344 9.71235 13.3769 9.65434C13.4195 9.59632 13.4606 9.53735 13.5002 9.47736C13.5399 9.4174 13.5781 9.35651 13.6148 9.29469C13.6515 9.2329 13.6867 9.17027 13.7203 9.10678C13.7539 9.04331 13.786 8.97906 13.8165 8.91404C13.847 8.84904 13.8759 8.78333 13.9032 8.71693C13.9305 8.65055 13.9561 8.58355 13.9801 8.51592C14.0042 8.44831 14.0265 8.38014 14.0472 8.31146C14.0679 8.24278 14.0869 8.17365 14.1042 8.10404C14.1216 8.03446 14.1372 7.96452 14.1511 7.89416C14.165 7.82383 14.1772 7.7532 14.1876 7.68227C14.1981 7.61138 14.2068 7.54024 14.2138 7.46889C14.2208 7.39757 14.226 7.3261 14.2295 7.25449C14.233 7.18293 14.2347 7.11128 14.2347 7.0396C14.2347 6.96793 14.233 6.89631 14.2295 6.82472C14.226 6.75313 14.2208 6.68166 14.2138 6.61032C14.2068 6.539 14.1981 6.46789 14.1876 6.39693C14.1772 6.32603 14.165 6.2554 14.1511 6.18505C14.1372 6.11472 14.1216 6.04475 14.1042 5.97517C14.0869 5.90559 14.0679 5.83643 14.0472 5.76775C14.0265 5.69906 14.0042 5.63092 13.9801 5.56329C13.9561 5.49568 13.9305 5.42868 13.9032 5.36229C13.8759 5.2959 13.847 5.2302 13.8165 5.16518C13.786 5.10017 13.7539 5.03593 13.7203 4.97245C13.6867 4.90897 13.6515 4.84633 13.6148 4.78453C13.5781 4.72273 13.5399 4.66184 13.5002 4.60186C13.4606 4.54188 13.4195 4.48289 13.3769 4.42488C13.3344 4.36686 13.2904 4.3099 13.2451 4.25398C13.1998 4.19807 13.1531 4.14327 13.1051 4.08958C13.0571 4.0359 13.0079 3.98339 12.9573 3.93206C12.9067 3.88072 12.8549 3.83063 12.8019 3.78177C12.7489 3.73291 12.6947 3.68535 12.6394 3.63908C12.5841 3.59281 12.5277 3.54788 12.4701 3.50431C12.4126 3.46073 12.3541 3.41855 12.2945 3.37778C12.2349 3.337 12.1743 3.29766 12.1128 3.25977C12.0513 3.22189 11.989 3.18549 11.9257 3.15058C11.8624 3.11568 11.7983 3.0823 11.7334 3.05045C11.6685 3.0186 11.6028 2.98833 11.5364 2.95962C11.47 2.93091 11.403 2.9038 11.3353 2.87829C11.2676 2.85278 11.1993 2.82891 11.1304 2.80666C11.0615 2.78442 10.9922 2.76383 10.9223 2.74489C10.8524 2.72596 10.7821 2.70871 10.7114 2.69314C10.6406 2.67756 10.5696 2.66369 10.4982 2.65151C10.4268 2.63933 10.3551 2.62886 10.2832 2.6201C10.2113 2.61134 10.1392 2.60431 10.067 2.59899C9.99474 2.59368 9.9224 2.59009 9.84994 2.58823L4.61831 2.58823C4.54346 2.58631 4.4686 2.58624 4.39372 2.58801C4.31886 2.58979 4.2441 2.59341 4.1694 2.59887C4.09472 2.60434 4.02023 2.61165 3.94589 2.62079C3.87158 2.62993 3.79755 2.64091 3.72378 2.6537C3.65002 2.6665 3.57662 2.68112 3.50358 2.69754C3.43058 2.71396 3.35799 2.73217 3.2859 2.75218C3.2138 2.77219 3.14222 2.79396 3.07124 2.81749C3.00022 2.84103 2.92985 2.86631 2.86012 2.89332C2.79039 2.92033 2.72138 2.94905 2.65309 2.97947C2.58481 3.00989 2.51734 3.04197 2.45067 3.07572C2.38401 3.10947 2.31823 3.14484 2.25336 3.18184C2.18848 3.21883 2.12457 3.25741 2.06164 3.29756C1.9987 3.33771 1.93682 3.37939 1.87599 3.4226C1.81516 3.46581 1.75545 3.51049 1.69688 3.55664C1.6383 3.6028 1.58092 3.65037 1.52475 3.69936C1.46857 3.74834 1.41366 3.79868 1.36003 3.85038C1.30639 3.90208 1.25409 3.95507 1.20313 4.00935C1.15217 4.06363 1.1026 4.11913 1.05444 4.17586C1.00628 4.23258 0.959575 4.29046 0.914332 4.3495C0.869089 4.40853 0.825364 4.46864 0.783153 4.52983C0.740946 4.59102 0.700305 4.65322 0.661233 4.71641C0.62216 4.77961 0.584706 4.84373 0.548869 4.90878C0.513032 4.97383 0.478859 5.03972 0.446348 5.10645C0.413838 5.17318 0.383026 5.24068 0.353921 5.30893C0.324812 5.37719 0.297445 5.44612 0.271816 5.5157C0.246187 5.58531 0.22233 5.65552 0.200242 5.7263C0.178155 5.79708 0.157866 5.86837 0.139375 5.94014C0.120884 6.01193 0.104215 6.08415 0.0893669 6.15673C0.0745187 6.22936 0.0615105 6.30227 0.050342 6.37551C0.0391736 6.44877 0.0298587 6.52225 0.0223975 6.59596C0.0149363 6.66968 0.00933816 6.74354 0.00560302 6.8175C0.00186767 6.89151 0 6.96553 0 7.0396C0 7.11368 0.00186767 7.18772 0.00560302 7.26171C0.00933816 7.33569 0.0149363 7.40953 0.0223975 7.48324C0.0298587 7.55696 0.0391736 7.63046 0.050342 7.7037C0.0615105 7.77694 0.074519 7.84987 0.0893672 7.92248C0.104215 7.99509 0.120884 8.06727 0.139375 8.13907C0.157866 8.21087 0.178155 8.28213 0.200242 8.3529C0.22233 8.42371 0.246187 8.49392 0.271816 8.5635C0.297445 8.63311 0.324812 8.70203 0.353921 8.77029C0.383026 8.83856 0.413838 8.90607 0.446348 8.97277C0.478859 9.03954 0.513032 9.10543 0.548869 9.17045C0.584706 9.23551 0.62216 9.29964 0.661233 9.3628C0.700305 9.42603 0.740946 9.48821 0.783153 9.5494C0.825364 9.61059 0.869089 9.6707 0.914332 9.72973C0.959575 9.78876 1.00628 9.84666 1.05444 9.90335C1.1026 9.96011 1.15217 10.0156 1.20313 10.0699C1.25409 10.1242 1.30639 10.1771 1.36003 10.2288C1.41366 10.2806 1.46857 10.3309 1.52475 10.3799C1.58092 10.4289 1.6383 10.4764 1.69688 10.5226C1.75545 10.5687 1.81516 10.6134 1.87599 10.6566C1.93682 10.6998 1.9987 10.7415 2.06164 10.7817C2.12457 10.8218 2.18848 10.8604 2.25336 10.8974C2.31823 10.9344 2.38401 10.9698 2.45067 11.0035C2.51734 11.0372 2.58481 11.0693 2.65309 11.0998C2.72138 11.1302 2.79039 11.1589 2.86012 11.1859C2.92985 11.2129 3.00022 11.2382 3.07124 11.2617C3.14222 11.2853 3.2138 11.307 3.2859 11.327C3.35799 11.3471 3.43058 11.3653 3.50358 11.3817C3.57662 11.3981 3.65002 11.4127 3.72378 11.4255C3.79755 11.4383 3.87158 11.4493 3.94589 11.4584C4.02023 11.4676 4.09472 11.4749 4.1694 11.4804C4.2441 11.4858 4.31886 11.4895 4.39372 11.4912C4.4686 11.493 4.54346 11.4929 4.61831 11.491ZM9.73179 9.92379L4.73342 9.92379C4.68674 9.92229 4.64012 9.91971 4.59356 9.916C4.547 9.91228 4.50056 9.90749 4.45421 9.90155C4.40789 9.89565 4.36173 9.88864 4.31574 9.88052C4.26976 9.87243 4.22398 9.86323 4.17842 9.85292C4.13289 9.84264 4.08764 9.83129 4.04265 9.81882C3.99766 9.80638 3.95301 9.79287 3.90866 9.77831C3.86434 9.76374 3.82039 9.74813 3.7768 9.73147C3.73324 9.71481 3.6901 9.69713 3.64738 9.6784C3.60467 9.6597 3.56244 9.63999 3.52067 9.61925C3.47892 9.59854 3.4377 9.57685 3.39698 9.55416C3.3563 9.53151 3.31619 9.50787 3.27663 9.48326C3.23706 9.45869 3.19814 9.43316 3.15982 9.4067C3.12153 9.38027 3.08387 9.35295 3.04691 9.32469C3.00992 9.29646 2.97364 9.26739 2.93808 9.23743C2.90251 9.20746 2.86769 9.17669 2.83362 9.14504C2.79955 9.11346 2.76627 9.08104 2.73377 9.04784C2.70128 9.01463 2.66961 8.98068 2.63877 8.94598C2.60792 8.91128 2.57794 8.87589 2.54882 8.83975C2.51969 8.80362 2.49147 8.76682 2.46413 8.72933C2.4368 8.69187 2.41039 8.65379 2.38491 8.61504C2.35943 8.57633 2.3349 8.53701 2.31133 8.4971C2.28776 8.45721 2.26518 8.41679 2.24357 8.3758C2.22197 8.33484 2.20137 8.29339 2.18178 8.25144C2.16219 8.20949 2.14363 8.16712 2.12611 8.12427C2.10858 8.08142 2.0921 8.03821 2.07667 7.99458C2.06125 7.95098 2.04689 7.90702 2.0336 7.8627C2.02031 7.81841 2.0081 7.77382 1.99698 7.72893C1.98586 7.68407 1.97583 7.63894 1.9669 7.59358C1.95798 7.54824 1.95015 7.50269 1.94344 7.45696C1.93673 7.41124 1.93113 7.36539 1.92664 7.31936C1.92215 7.27339 1.91879 7.22731 1.91654 7.18116C1.9143 7.13501 1.91318 7.08881 1.91318 7.0426C1.91318 6.99639 1.9143 6.95022 1.91654 6.90407C1.91879 6.85792 1.92215 6.81183 1.92664 6.76584C1.93113 6.71984 1.93673 6.67396 1.94344 6.62824C1.95015 6.58251 1.95798 6.53699 1.9669 6.49162C1.97583 6.44625 1.98586 6.40116 1.99698 6.35627C2.0081 6.31138 2.02031 6.26679 2.0336 6.2225C2.04689 6.17821 2.06125 6.13425 2.07667 6.09062C2.0921 6.04702 2.10858 6.00378 2.12611 5.96093C2.14363 5.91811 2.16219 5.87571 2.18178 5.83376C2.20137 5.79184 2.22197 5.75039 2.24357 5.7094C2.26518 5.66844 2.28776 5.62802 2.31133 5.5881C2.3349 5.54822 2.35943 5.5089 2.38491 5.47018C2.41039 5.43145 2.4368 5.39335 2.46413 5.35587C2.49147 5.3184 2.5197 5.2816 2.54882 5.24547C2.57794 5.20934 2.60792 5.17392 2.63877 5.13922C2.66961 5.10452 2.70128 5.07057 2.73377 5.03737C2.76627 5.00417 2.79955 4.97177 2.83362 4.94016C2.86769 4.90854 2.90251 4.87776 2.93808 4.8478C2.97364 4.81784 3.00992 4.78875 3.04691 4.76052C3.08387 4.73228 3.12153 4.70495 3.15982 4.67851C3.19814 4.65206 3.23706 4.62655 3.27663 4.60196C3.31619 4.57737 3.3563 4.55373 3.39701 4.53106C3.43773 4.50837 3.47892 4.48668 3.52067 4.46596C3.56244 4.44524 3.60467 4.42552 3.64738 4.40681C3.6901 4.3881 3.73324 4.37041 3.7768 4.35376C3.82039 4.3371 3.86434 4.32149 3.90866 4.30692C3.95301 4.29235 3.99766 4.27885 4.04265 4.26641C4.08764 4.25396 4.13289 4.2426 4.17842 4.23231C4.22398 4.22202 4.26976 4.21281 4.31574 4.2047C4.36173 4.19659 4.40789 4.18958 4.45421 4.18366C4.50056 4.17774 4.547 4.17293 4.59356 4.16922C4.64012 4.16551 4.68674 4.16292 4.73342 4.16143L9.73179 4.16143C9.78044 4.15987 9.82909 4.15953 9.87774 4.16039C9.92643 4.16125 9.97505 4.16331 10.0236 4.16658C10.0722 4.16985 10.1206 4.17432 10.169 4.17999C10.2173 4.18566 10.2654 4.19252 10.3134 4.20058C10.3614 4.20863 10.4092 4.21788 10.4567 4.2283C10.5042 4.23872 10.5514 4.25032 10.5984 4.26308C10.6453 4.27585 10.6918 4.28977 10.7381 4.30484C10.7843 4.31991 10.8301 4.33612 10.8755 4.35346C10.9209 4.37081 10.9659 4.38926 11.0103 4.40884C11.0548 4.42841 11.0988 4.44907 11.1422 4.47082C11.1856 4.49257 11.2285 4.51538 11.2707 4.53925C11.313 4.56312 11.3546 4.58802 11.3956 4.61396C11.4366 4.6399 11.477 4.66683 11.5166 4.69477C11.5563 4.7227 11.5952 4.7516 11.6333 4.78147C11.6715 4.81133 11.7089 4.84212 11.7455 4.87384C11.7822 4.90555 11.8179 4.93816 11.8529 4.97165C11.8879 5.00514 11.922 5.03948 11.9552 5.07466C11.9884 5.10984 12.0208 5.14582 12.0522 5.18261C12.0836 5.21939 12.114 5.25693 12.1435 5.29522C12.173 5.33351 12.2015 5.37251 12.2291 5.41222C12.2566 5.45192 12.2831 5.49229 12.3086 5.53329C12.3341 5.57432 12.3585 5.61594 12.3819 5.65816C12.4053 5.70041 12.4275 5.74317 12.4487 5.7865C12.47 5.82986 12.4901 5.8737 12.509 5.91802C12.528 5.96237 12.5459 6.00714 12.5626 6.05233C12.5793 6.09758 12.5949 6.14318 12.6093 6.18915C12.6237 6.23515 12.6369 6.28144 12.649 6.32807C12.6611 6.37473 12.672 6.42165 12.6816 6.46882C12.6913 6.51602 12.6998 6.56342 12.7071 6.61101C12.7144 6.65862 12.7205 6.70639 12.7253 6.75427C12.7302 6.80219 12.7338 6.85019 12.7363 6.89826C12.7387 6.94635 12.7399 6.99447 12.7399 7.0426C12.7399 7.09075 12.7387 7.13888 12.7363 7.18694C12.7339 7.23504 12.7302 7.28304 12.7253 7.33093C12.7205 7.37884 12.7144 7.42661 12.7071 7.47419C12.6998 7.52181 12.6913 7.56921 12.6816 7.61638C12.672 7.66358 12.6611 7.7105 12.649 7.75713C12.6369 7.80376 12.6237 7.85008 12.6093 7.89605C12.5949 7.94205 12.5793 7.98765 12.5626 8.03287C12.5459 8.07809 12.528 8.12286 12.509 8.16718C12.4901 8.21153 12.47 8.25537 12.4487 8.2987C12.4275 8.34203 12.4053 8.38482 12.3819 8.42704C12.3585 8.46929 12.3341 8.51091 12.3086 8.5519C12.2831 8.59293 12.2566 8.63329 12.2291 8.673C12.2015 8.71273 12.173 8.75172 12.1435 8.78998C12.114 8.82828 12.0836 8.86582 12.0522 8.90262C12.0208 8.93942 11.9884 8.97538 11.9552 9.01056C11.922 9.04574 11.8879 9.08008 11.8529 9.11355C11.8179 9.14705 11.7822 9.17968 11.7455 9.21139C11.7089 9.24309 11.6715 9.2739 11.6333 9.30374C11.5952 9.33362 11.5563 9.3625 11.5166 9.39043C11.477 9.41839 11.4366 9.44533 11.3956 9.47125C11.3546 9.4972 11.313 9.5221 11.2707 9.54595C11.2285 9.56984 11.1856 9.59264 11.1422 9.61439C11.0988 9.63615 11.0548 9.65683 11.0103 9.67639C10.9659 9.69596 10.9209 9.71442 10.8755 9.73174C10.8301 9.74912 10.7843 9.76533 10.7381 9.78037C10.6918 9.79548 10.6453 9.80938 10.5984 9.82215C10.5514 9.83491 10.5042 9.84651 10.4567 9.8569C10.4092 9.86733 10.3614 9.87659 10.3134 9.88462C10.2654 9.89271 10.2173 9.89958 10.169 9.90524C10.1206 9.9109 10.0722 9.91537 10.0236 9.91863C9.97505 9.92193 9.92643 9.924 9.87778 9.92484C9.82912 9.92571 9.78044 9.92535 9.73179 9.92379ZM42.5967 11.491L47.9374 11.491L48.9492 9.92379L42.7148 9.92379C42.6664 9.92535 42.6176 9.92571 42.5688 9.92484C42.5204 9.924 42.4716 9.92193 42.4231 9.91863C42.3746 9.91537 42.3262 9.9109 42.2777 9.90524C42.2295 9.89958 42.1814 9.89271 42.1332 9.88462C42.0854 9.87659 42.0375 9.86733 41.9899 9.8569C41.9427 9.84651 41.8954 9.83491 41.8482 9.82215C41.8015 9.80938 41.7549 9.79548 41.7085 9.78037C41.6625 9.76533 41.6164 9.74912 41.571 9.73174C41.5258 9.71442 41.481 9.69596 41.4362 9.67639C41.3919 9.65683 41.348 9.63615 41.3044 9.61439C41.2611 9.59264 41.2184 9.56984 41.1759 9.54595C41.1338 9.5221 41.0923 9.4972 41.0511 9.47125C41.0102 9.44533 40.97 9.41839 40.93 9.39043C40.8906 9.3625 40.8515 9.33362 40.8133 9.30374C40.7752 9.2739 40.7379 9.24309 40.7013 9.21139C40.6646 9.17968 40.6289 9.14705 40.5937 9.11355C40.5589 9.08008 40.5246 9.04574 40.4913 9.01056C40.4583 8.97538 40.4259 8.93942 40.3944 8.90262C40.3632 8.86582 40.3329 8.82831 40.3032 8.79001C40.2738 8.75172 40.2453 8.71273 40.2175 8.673C40.1902 8.63332 40.1636 8.59296 40.1381 8.5519C40.1127 8.51091 40.0884 8.46929 40.0648 8.42704C40.0415 8.38482 40.0191 8.34203 39.9978 8.2987C39.9766 8.25537 39.9566 8.21153 39.9376 8.16718C39.9188 8.12286 39.9009 8.07809 39.8839 8.03287C39.8676 7.98765 39.8518 7.94205 39.8373 7.89605C39.8231 7.85008 39.8097 7.80376 39.7976 7.75713C39.7855 7.7105 39.7746 7.66358 39.7649 7.61638C39.7552 7.56921 39.7467 7.52181 39.7394 7.47419C39.7322 7.42661 39.7261 7.37884 39.7213 7.33093C39.7164 7.28304 39.7128 7.23504 39.7104 7.18694C39.7079 7.13888 39.7067 7.09075 39.7067 7.0426C39.7067 6.99447 39.7079 6.94635 39.7104 6.89826C39.7128 6.85019 39.7164 6.80219 39.7213 6.75427C39.7261 6.70639 39.7322 6.65862 39.7394 6.61101C39.7467 6.56342 39.7552 6.51602 39.7649 6.46882C39.7746 6.42165 39.7855 6.37473 39.7976 6.32807C39.8097 6.28144 39.8231 6.23515 39.8373 6.18915C39.8518 6.14318 39.8676 6.09758 39.8839 6.05233C39.9009 6.00714 39.9188 5.96237 39.9376 5.91802C39.9566 5.8737 39.9766 5.82986 39.9978 5.7865C40.0191 5.74317 40.0415 5.70041 40.0648 5.65816C40.0884 5.61594 40.1127 5.57432 40.1381 5.53329C40.1636 5.49229 40.1902 5.45192 40.2175 5.41222C40.2453 5.37251 40.2738 5.33351 40.3032 5.29522C40.3329 5.25692 40.3632 5.21939 40.3944 5.18261C40.4259 5.14582 40.4583 5.10984 40.4913 5.07466C40.5246 5.03948 40.5589 5.00514 40.5937 4.97165C40.6289 4.93816 40.6646 4.90555 40.7013 4.87384C40.7379 4.84212 40.7752 4.81133 40.8133 4.78147C40.8515 4.7516 40.8906 4.7227 40.93 4.69477C40.97 4.66683 41.0102 4.6399 41.0511 4.61396C41.0923 4.58802 41.1338 4.56312 41.1759 4.53925C41.2184 4.51538 41.2611 4.49257 41.3044 4.47082C41.348 4.44907 41.3919 4.4284 41.4362 4.40884C41.481 4.38926 41.5258 4.37081 41.571 4.35346C41.6164 4.33612 41.6625 4.31991 41.7085 4.30484C41.7549 4.28977 41.8015 4.27585 41.8482 4.26308C41.8954 4.25032 41.9427 4.23872 41.9899 4.2283C42.0375 4.21788 42.0854 4.20863 42.1332 4.20058C42.1814 4.19252 42.2295 4.18566 42.2777 4.17999C42.3262 4.17432 42.3746 4.16985 42.4231 4.16658C42.4716 4.16331 42.5204 4.16125 42.5688 4.16039C42.6176 4.15953 42.6664 4.15987 42.7148 4.16143L47.7889 4.16143L48.8129 2.58823L42.5967 2.58823C42.5219 2.58631 42.4471 2.58624 42.3722 2.58801C42.2974 2.58979 42.2226 2.59341 42.1478 2.59887C42.0732 2.60434 41.9987 2.61165 41.9242 2.62079C41.85 2.62993 41.7761 2.64091 41.7021 2.6537C41.6285 2.6665 41.5552 2.68111 41.4819 2.69754C41.4092 2.71396 41.3365 2.73217 41.2644 2.75218C41.1923 2.77218 41.1208 2.79396 41.0496 2.81749C40.9787 2.84103 40.9082 2.86631 40.8385 2.89332C40.7688 2.92033 40.7 2.94905 40.6316 2.97947C40.5634 3.00988 40.4959 3.04197 40.4289 3.07572C40.3623 3.10947 40.2965 3.14484 40.2317 3.18184C40.1669 3.21883 40.103 3.25741 40.04 3.29756C39.9772 3.33771 39.9155 3.37939 39.8543 3.4226C39.7937 3.46581 39.734 3.51049 39.6752 3.55664C39.6168 3.6028 39.5595 3.65037 39.5032 3.69936C39.4471 3.74834 39.3923 3.79868 39.3384 3.85038C39.2851 3.90208 39.2326 3.95507 39.1814 4.00935C39.1306 4.06363 39.0812 4.11913 39.0327 4.17586C38.9848 4.23258 38.9382 4.29046 38.8928 4.3495C38.8476 4.40853 38.804 4.46864 38.7616 4.52983C38.7195 4.59102 38.6789 4.65322 38.6395 4.71641C38.6007 4.77961 38.5632 4.84373 38.5271 4.90878C38.4914 4.97383 38.4574 5.03972 38.4247 5.10645C38.3923 5.17318 38.3614 5.24067 38.3323 5.30893C38.3033 5.37719 38.276 5.44612 38.2502 5.5157C38.2248 5.58531 38.2009 5.65552 38.1787 5.7263C38.1566 5.79708 38.1363 5.86837 38.1179 5.94014C38.0994 6.01193 38.0827 6.08415 38.0679 6.15673C38.053 6.22936 38.04 6.30227 38.0288 6.37551C38.0176 6.44877 38.0082 6.52225 38.0009 6.59596C37.9937 6.66968 37.9879 6.74354 37.984 6.8175C37.9803 6.89151 37.9785 6.96553 37.9785 7.0396C37.9785 7.11368 37.9803 7.18772 37.984 7.26171C37.9879 7.33569 37.9937 7.40953 38.0009 7.48324C38.0082 7.55696 38.0176 7.63046 38.0288 7.7037C38.04 7.77694 38.053 7.84987 38.0679 7.92248C38.0827 7.99509 38.0994 8.06727 38.1179 8.13907C38.1363 8.21087 38.1566 8.28213 38.1787 8.3529C38.2009 8.42371 38.2248 8.49392 38.2502 8.5635C38.276 8.63311 38.3033 8.70203 38.3323 8.77029C38.3614 8.83856 38.3923 8.90607 38.4247 8.97277C38.4574 9.03954 38.4914 9.10543 38.5271 9.17045C38.5632 9.23551 38.6007 9.29964 38.6395 9.3628C38.6789 9.42603 38.7195 9.48821 38.7616 9.5494C38.804 9.61059 38.8476 9.6707 38.8928 9.72973C38.9382 9.78876 38.9848 9.84666 39.0327 9.90335C39.0812 9.96011 39.1306 10.0156 39.1814 10.0699C39.2326 10.1242 39.2851 10.1771 39.3384 10.2288C39.3923 10.2806 39.4471 10.3309 39.5032 10.3799C39.5595 10.4289 39.6168 10.4764 39.6752 10.5226C39.734 10.5687 39.7937 10.6134 39.8543 10.6566C39.9155 10.6998 39.9772 10.7415 40.04 10.7817C40.103 10.8218 40.1669 10.8604 40.2317 10.8974C40.2965 10.9344 40.3623 10.9698 40.4289 11.0035C40.4959 11.0372 40.5634 11.0693 40.6316 11.0998C40.7 11.1302 40.7688 11.1589 40.8385 11.1859C40.9082 11.2129 40.9787 11.2382 41.0496 11.2617C41.1208 11.2853 41.1923 11.307 41.2644 11.327C41.3365 11.3471 41.4092 11.3653 41.4819 11.3817C41.5552 11.3981 41.6285 11.4127 41.7021 11.4255C41.7761 11.4383 41.85 11.4493 41.9242 11.4584C41.9987 11.4676 42.0732 11.4749 42.1478 11.4804C42.2226 11.4858 42.2974 11.4895 42.3722 11.4912C42.4471 11.493 42.5219 11.4929 42.5967 11.491ZM63.7625 9.92379C63.6838 9.92382 63.6053 9.9207 63.5268 9.91444C63.4487 9.90818 63.3705 9.8988 63.2927 9.88627C63.2151 9.87375 63.1382 9.85813 63.0615 9.83944C62.9852 9.82077 62.9098 9.79904 62.8352 9.77429C62.7607 9.74957 62.6871 9.72188 62.6147 9.69126C62.5426 9.66063 62.4714 9.62716 62.4017 9.59084C62.3324 9.55452 62.2645 9.51551 62.1979 9.47374C62.1315 9.43196 62.067 9.38762 62.004 9.34069C61.9413 9.29376 61.8807 9.24438 61.8219 9.19257C61.7632 9.14079 61.7068 9.0867 61.6523 9.03036C61.5981 8.97403 61.5463 8.91563 61.4966 8.85513C61.4472 8.79466 61.4003 8.73227 61.3557 8.66799C61.3115 8.60375 61.2697 8.53782 61.2306 8.47022C61.1918 8.40262 61.1555 8.33358 61.1219 8.2631C61.0885 8.19262 61.0582 8.12088 61.0307 8.04795C61.0034 7.97501 60.9789 7.90111 60.9574 7.8262L68.355 7.8262L69.3728 6.256L60.9574 6.256C60.9789 6.18109 61.0034 6.10716 61.0307 6.03417C61.0582 5.96123 61.0885 5.88946 61.1219 5.81893C61.1552 5.74842 61.1915 5.67935 61.2303 5.61168C61.2694 5.54408 61.3109 5.47812 61.3551 5.41385C61.3997 5.34956 61.4466 5.28716 61.496 5.22664C61.5457 5.16613 61.5975 5.10769 61.6517 5.05134C61.7062 4.99499 61.7626 4.9409 61.8213 4.88908C61.8801 4.83726 61.941 4.78788 62.0037 4.74093C62.0667 4.69399 62.1312 4.64963 62.1973 4.60787C62.2639 4.56611 62.3318 4.52707 62.4014 4.49077C62.4711 4.45446 62.5423 4.421 62.6144 4.39039C62.6868 4.35978 62.7604 4.33212 62.8349 4.3074C62.9095 4.28269 62.9852 4.261 63.0615 4.24234C63.1379 4.22369 63.2151 4.20812 63.2927 4.19565C63.3702 4.18317 63.4484 4.17383 63.5268 4.16761C63.6053 4.1614 63.6838 4.15834 63.7625 4.15843L68.8396 4.15843L69.8545 2.58524L63.6444 2.58524C63.572 2.5871 63.4996 2.59068 63.4275 2.596C63.3554 2.60131 63.2833 2.60835 63.2112 2.6171C63.1394 2.62586 63.0676 2.63633 62.9961 2.64851C62.9249 2.66069 62.8537 2.67457 62.7828 2.69014C62.7123 2.70572 62.642 2.72297 62.572 2.7419C62.5023 2.76083 62.4329 2.78142 62.3639 2.80367C62.2951 2.82591 62.227 2.84979 62.1591 2.8753C62.0912 2.9008 62.0243 2.92791 61.958 2.95662C61.8916 2.98533 61.8259 3.01561 61.761 3.04746C61.6962 3.0793 61.632 3.11268 61.5687 3.14759C61.5057 3.1825 61.4433 3.21889 61.3815 3.25678C61.32 3.29467 61.2594 3.334 61.1997 3.37478C61.1403 3.41556 61.0819 3.45774 61.0243 3.50131C60.9668 3.54489 60.9104 3.58981 60.855 3.63608C60.7998 3.68235 60.7456 3.72992 60.6923 3.77878C60.6396 3.82763 60.5878 3.87773 60.5369 3.92906C60.4866 3.98039 60.4372 4.0329 60.3891 4.08659C60.3412 4.14028 60.2946 4.19507 60.2491 4.25099C60.204 4.30691 60.1601 4.36387 60.1173 4.42188C60.0749 4.4799 60.0337 4.53889 59.994 4.59887C59.9547 4.65884 59.9165 4.71973 59.8795 4.78153C59.8429 4.84333 59.8077 4.90597 59.7741 4.96945C59.7405 5.03293 59.7084 5.09718 59.6778 5.16219C59.6475 5.2272 59.6184 5.2929 59.5911 5.35929C59.5639 5.42568 59.5384 5.49269 59.5142 5.56029C59.4903 5.62793 59.4679 5.69607 59.4473 5.76475C59.4267 5.83343 59.4076 5.90259 59.39 5.97217C59.373 6.04175 59.3573 6.11172 59.3434 6.18205C59.3294 6.25241 59.3173 6.32304 59.3067 6.39394C59.2964 6.46489 59.2876 6.536 59.2806 6.60732C59.2737 6.67867 59.2685 6.75014 59.2649 6.82172C59.2613 6.89331 59.2594 6.96493 59.2594 7.03661C59.2594 7.10828 59.2613 7.17993 59.2649 7.25149C59.2685 7.32311 59.2737 7.39458 59.2806 7.46589C59.2876 7.53724 59.2964 7.60838 59.3067 7.67928C59.3173 7.75021 59.3294 7.82084 59.3434 7.89116C59.3573 7.96152 59.373 8.03146 59.39 8.10104C59.4076 8.17065 59.4267 8.23978 59.4473 8.30847C59.4679 8.37715 59.4903 8.44532 59.5142 8.51292C59.5384 8.58055 59.5639 8.64756 59.5911 8.71393C59.6184 8.78033 59.6475 8.84605 59.6778 8.91104C59.7084 8.97607 59.7405 9.04031 59.7741 9.10378C59.8077 9.16725 59.8429 9.22991 59.8795 9.29169C59.9165 9.35351 59.9547 9.4144 59.994 9.47437C60.0337 9.53436 60.0749 9.59333 60.1173 9.65134C60.1601 9.70936 60.204 9.76632 60.2491 9.82224C60.2946 9.87815 60.3412 9.93296 60.3891 9.98663C60.4372 10.0403 60.4866 10.0929 60.5369 10.1442C60.5878 10.1955 60.6396 10.2456 60.6923 10.2945C60.7456 10.3433 60.7998 10.3909 60.855 10.4372C60.9104 10.4834 60.9668 10.5283 61.0243 10.5719C61.0819 10.6155 61.1403 10.6577 61.1997 10.6985C61.2594 10.7392 61.32 10.7786 61.3815 10.8165C61.4433 10.8543 61.5057 10.8907 61.5687 10.9256C61.632 10.9606 61.6962 10.9939 61.761 11.0258C61.8259 11.0576 61.8916 11.0879 61.958 11.1166C62.0243 11.1453 62.0912 11.1724 62.1591 11.1979C62.227 11.2235 62.2951 11.2473 62.3639 11.2696C62.4329 11.2918 62.5023 11.3124 62.572 11.3313C62.642 11.3503 62.7123 11.3675 62.7828 11.3831C62.8537 11.3987 62.9249 11.4125 62.9961 11.4247C63.0676 11.4369 63.1394 11.4474 63.2112 11.4561C63.2833 11.4649 63.3554 11.4719 63.4275 11.4772C63.4996 11.4826 63.572 11.4861 63.6444 11.488L68.9851 11.488L69.9999 9.92079L63.7595 9.92079">
</path>
</svg>
