<svg xmlns="http://www.w3.org/2000/svg" xmlns:xlink="http://www.w3.org/1999/xlink" width="70" height="15" viewBox="0 0 70 15" fill="none">
<path     fill="#C74634"  d="M30.2857 8.8506L34.9022 8.8506L32.4636 4.95509L27.9804 11.991L25.9417 11.991L31.3943 3.5497C31.4091 3.52874 31.4246 3.50823 31.4406 3.48818C31.4567 3.46813 31.4734 3.44857 31.4903 3.4295C31.5076 3.41042 31.5255 3.39187 31.5436 3.37385C31.5621 3.35583 31.5809 3.33837 31.6003 3.32146C31.6197 3.30454 31.6397 3.28822 31.66 3.27248C31.6806 3.25674 31.7012 3.24162 31.7224 3.22711C31.7436 3.2126 31.7654 3.19873 31.7875 3.1855C31.8096 3.17228 31.832 3.15971 31.8548 3.14781C31.8778 3.13591 31.9011 3.12469 31.9244 3.11416C31.9481 3.10363 31.972 3.0938 31.9959 3.08468C32.0202 3.07555 32.0447 3.06715 32.0692 3.05946C32.0941 3.05178 32.1189 3.04483 32.1437 3.03861C32.1689 3.03239 32.194 3.02692 32.2195 3.02219C32.2449 3.01746 32.2707 3.01348 32.2961 3.01026C32.3219 3.00704 32.3476 3.00457 32.3731 3.00287C32.3991 3.00116 32.4249 3.00022 32.4506 3.00003C32.4767 2.99985 32.5024 3.00043 32.5282 3.00177C32.5542 3.00311 32.58 3.00521 32.6054 3.00807C32.6312 3.01093 32.6566 3.01455 32.6821 3.01892C32.7075 3.02329 32.7329 3.02841 32.7581 3.03427C32.7832 3.04013 32.8081 3.04673 32.8329 3.05407C32.8578 3.0614 32.8823 3.06946 32.9065 3.07824C32.9308 3.08703 32.9547 3.09652 32.9783 3.10672C33.002 3.11691 33.0253 3.1278 33.0483 3.13938C33.0716 3.15095 33.0943 3.1632 33.1165 3.17611C33.1389 3.18903 33.1607 3.20259 33.1822 3.2168C33.2037 3.231 33.2246 3.24583 33.2452 3.26128C33.2658 3.27673 33.2861 3.29277 33.3055 3.30941C33.3252 3.32604 33.3443 3.34324 33.363 3.361C33.3818 3.37876 33.3997 3.39706 33.417 3.41588C33.4345 3.43471 33.4515 3.45404 33.4676 3.47386C33.4839 3.49368 33.4997 3.51397 33.5148 3.53472L38.9827 11.991L36.944 11.991L35.9837 10.4178L31.3125 10.4178L30.2947 8.8506M51.4786 10.4178L51.4786 3.08524L49.7459 3.08524L49.7459 11.14C49.7459 11.1959 49.7513 11.2513 49.7625 11.3062C49.7738 11.3611 49.7904 11.4142 49.8125 11.4658C49.8346 11.5173 49.8619 11.566 49.894 11.6121C49.9261 11.6582 49.9628 11.7006 50.0034 11.7393C50.0446 11.7808 50.0891 11.8178 50.1376 11.8504C50.1863 11.883 50.2378 11.9105 50.2918 11.9329C50.346 11.9553 50.4017 11.9722 50.4593 11.9834C50.5168 11.9947 50.575 12.0002 50.6335 12L58.5097 12L59.5366 10.4268L51.4696 10.4268M22.8305 9.1083C22.8804 9.1083 22.9302 9.1071 22.9799 9.10468C23.0297 9.10228 23.0794 9.09865 23.129 9.0938C23.1786 9.08897 23.228 9.08295 23.2772 9.0757C23.3266 9.06848 23.3756 9.06006 23.4245 9.05044C23.4734 9.04085 23.522 9.03003 23.5703 9.01804C23.6186 9.00609 23.6666 8.99296 23.7143 8.97864C23.762 8.96432 23.8093 8.94885 23.8562 8.93225C23.9031 8.91565 23.9496 8.89794 23.9956 8.87906C24.0416 8.86022 24.0872 8.84026 24.1322 8.81916C24.1773 8.7981 24.2218 8.77595 24.2657 8.7527C24.3096 8.72948 24.353 8.7052 24.3957 8.67985C24.4384 8.6545 24.4805 8.62816 24.522 8.60077C24.5634 8.57339 24.6041 8.54501 24.6441 8.51564C24.6842 8.48631 24.7234 8.45601 24.7619 8.42473C24.8004 8.39344 24.8382 8.36126 24.8751 8.32818C24.912 8.2951 24.9481 8.26111 24.9833 8.22623C25.0186 8.19141 25.0529 8.15573 25.0864 8.1192C25.1198 8.0827 25.1523 8.04539 25.184 8.00728C25.2156 7.96916 25.2462 7.93032 25.2759 7.89074C25.3056 7.85116 25.3342 7.81088 25.3619 7.76989C25.3896 7.7289 25.4162 7.68727 25.4419 7.64499C25.4675 7.60274 25.492 7.55986 25.5155 7.51638C25.539 7.47293 25.5614 7.42894 25.5827 7.38435C25.604 7.33982 25.6242 7.29478 25.6433 7.24924C25.6623 7.20369 25.6803 7.15772 25.697 7.11131C25.7138 7.06492 25.7294 7.01814 25.7439 6.97098C25.7584 6.92381 25.7717 6.87632 25.7838 6.82849C25.7959 6.7807 25.8068 6.73263 25.8165 6.6843C25.8262 6.63596 25.8347 6.58742 25.842 6.53863C25.8493 6.48991 25.8555 6.44101 25.8603 6.39195C25.8652 6.3429 25.8689 6.29375 25.8713 6.24452C25.8738 6.19532 25.875 6.14605 25.875 6.09676C25.875 6.0475 25.8738 5.99823 25.8713 5.94901C25.8689 5.89978 25.8652 5.85064 25.8603 5.80159C25.8555 5.75254 25.8493 5.70364 25.842 5.65489C25.8347 5.60614 25.8262 5.55759 25.8165 5.50925C25.8068 5.46091 25.7959 5.41284 25.7838 5.36503C25.7717 5.31722 25.7584 5.26974 25.7439 5.22257C25.7294 5.17541 25.7138 5.12862 25.697 5.08222C25.6803 5.03581 25.6623 4.98984 25.6433 4.94431C25.6242 4.89877 25.604 4.85373 25.5827 4.80918C25.5614 4.76462 25.539 4.72061 25.5155 4.67715C25.492 4.63368 25.4675 4.59081 25.4419 4.54854C25.4162 4.50626 25.3896 4.46463 25.3619 4.42366C25.3342 4.38267 25.3056 4.34239 25.2759 4.3028C25.2462 4.26322 25.2156 4.22437 25.184 4.18628C25.1523 4.14818 25.1198 4.11087 25.0864 4.07435C25.0529 4.03783 25.0186 4.00215 24.9833 3.9673C24.9481 3.93244 24.912 3.89847 24.8751 3.86537C24.8382 3.83227 24.8004 3.80009 24.7619 3.76882C24.7234 3.73756 24.6842 3.70724 24.6441 3.67788C24.6041 3.64852 24.5634 3.62016 24.522 3.59277C24.4805 3.56539 24.4384 3.53903 24.3957 3.51369C24.353 3.48835 24.3096 3.46407 24.2657 3.44084C24.2218 3.4176 24.1773 3.39545 24.1322 3.37438C24.0872 3.3533 24.0416 3.33334 23.9956 3.31448C23.9496 3.29561 23.9031 3.27788 23.8562 3.26128C23.8093 3.24467 23.762 3.22922 23.7143 3.21491C23.6666 3.2006 23.6186 3.18746 23.5703 3.17549C23.522 3.16351 23.4734 3.15272 23.4245 3.1431C23.3756 3.13349 23.3266 3.12506 23.2772 3.11783C23.228 3.1106 23.1786 3.10457 23.129 3.09974C23.0794 3.09491 23.0297 3.09128 22.9799 3.08886C22.9302 3.08644 22.8804 3.08524 22.8305 3.08524L15.2573 3.08524L15.2573 11.991L16.987 11.991L16.987 4.66143L22.7245 4.66143C22.7484 4.66143 22.7722 4.662 22.796 4.66316C22.8199 4.66432 22.8436 4.66605 22.8674 4.66837C22.8911 4.67068 22.9147 4.67356 22.9383 4.67703C22.9619 4.68049 22.9854 4.68452 23.0088 4.68912C23.0322 4.69372 23.0554 4.69889 23.0786 4.70462C23.1017 4.71035 23.1247 4.71664 23.1475 4.72349C23.1703 4.73033 23.193 4.73773 23.2154 4.74568C23.2379 4.75363 23.2601 4.76211 23.2821 4.77114C23.3041 4.78017 23.326 4.78972 23.3475 4.79981C23.3691 4.8099 23.3904 4.8205 23.4114 4.83162C23.4324 4.84274 23.4532 4.85436 23.4736 4.86649C23.4941 4.87861 23.5142 4.89123 23.534 4.90434C23.5539 4.91744 23.5734 4.93102 23.5925 4.94507C23.6117 4.95912 23.6305 4.97363 23.6489 4.9886C23.6673 5.00356 23.6854 5.01896 23.703 5.03481C23.7207 5.05065 23.738 5.06691 23.7549 5.08359C23.7717 5.10027 23.7882 5.11734 23.8042 5.13482C23.8202 5.1523 23.8358 5.17015 23.8509 5.18839C23.866 5.20662 23.8807 5.22521 23.8949 5.24416C23.9091 5.26311 23.9228 5.28239 23.9361 5.302C23.9493 5.32162 23.9621 5.34154 23.9743 5.36177C23.9866 5.382 23.9983 5.40252 24.0096 5.42332C24.0208 5.44413 24.0315 5.46519 24.0417 5.48652C24.0519 5.50784 24.0616 5.5294 24.0707 5.55119C24.0798 5.57298 24.0884 5.59499 24.0964 5.6172C24.1045 5.63941 24.112 5.6618 24.1189 5.68437C24.1258 5.70694 24.1322 5.72967 24.1379 5.75255C24.1437 5.77543 24.149 5.79844 24.1536 5.82158C24.1583 5.84471 24.1624 5.86794 24.1658 5.89128C24.1694 5.91461 24.1723 5.93802 24.1746 5.96149C24.177 5.98497 24.1787 6.00848 24.1799 6.03204C24.181 6.05559 24.1816 6.07917 24.1816 6.10275C24.1816 6.12637 24.181 6.14992 24.1799 6.17347C24.1787 6.19706 24.177 6.22058 24.1746 6.24404C24.1723 6.26754 24.1694 6.29094 24.1658 6.31425C24.1624 6.33759 24.1583 6.36082 24.1536 6.38395C24.149 6.40708 24.1438 6.4301 24.138 6.45296C24.1322 6.47586 24.1258 6.4986 24.1189 6.52116C24.112 6.54376 24.1045 6.56614 24.0964 6.58832C24.0884 6.61055 24.0798 6.63255 24.0707 6.65433C24.0616 6.67615 24.0519 6.69769 24.0417 6.719C24.0315 6.74033 24.0208 6.7614 24.0096 6.78219C23.9983 6.80302 23.9866 6.82355 23.9743 6.84374C23.9621 6.864 23.9493 6.88393 23.9361 6.90352C23.9228 6.92315 23.9091 6.94242 23.8949 6.96136C23.8807 6.98033 23.866 6.9989 23.8509 7.01712C23.8358 7.03537 23.8202 7.05323 23.8042 7.0707C23.7882 7.0882 23.7717 7.10528 23.7549 7.12194C23.738 7.13863 23.7207 7.15491 23.703 7.17073C23.6854 7.18658 23.6673 7.20198 23.6489 7.21693C23.6305 7.23192 23.6117 7.24642 23.5925 7.26044C23.5734 7.27453 23.5539 7.2881 23.534 7.3012C23.5142 7.31432 23.4941 7.32694 23.4736 7.33904C23.4532 7.35118 23.4324 7.36281 23.4114 7.37389C23.3904 7.38504 23.3691 7.39565 23.3475 7.40572C23.326 7.41582 23.3041 7.42537 23.2821 7.43439C23.2601 7.44341 23.2379 7.45189 23.2154 7.45984C23.193 7.46781 23.1703 7.47521 23.1475 7.48204C23.1247 7.4889 23.1017 7.49519 23.0786 7.50089C23.0554 7.50664 23.0322 7.5118 23.0088 7.51641C22.9854 7.52102 22.9619 7.52504 22.9383 7.52849C22.9147 7.53196 22.8911 7.53487 22.8674 7.53715C22.8436 7.53948 22.8199 7.54122 22.796 7.54236C22.7722 7.54353 22.7484 7.5441 22.7245 7.5441L17.8443 7.5441L23.0123 11.991L25.5236 11.991L22.052 9.1083L22.8305 9.1083ZM4.61831 11.991L9.84994 11.991C9.9224 11.9891 9.99474 11.9856 10.067 11.9802C10.1392 11.9749 10.2113 11.9679 10.2832 11.9591C10.3551 11.9504 10.4268 11.9399 10.4982 11.9277C10.5696 11.9156 10.6406 11.9017 10.7114 11.8861C10.7821 11.8705 10.8524 11.8533 10.9223 11.8343C10.9922 11.8154 11.0615 11.7948 11.1304 11.7726C11.1993 11.7503 11.2676 11.7265 11.3353 11.7009C11.403 11.6754 11.47 11.6483 11.5364 11.6196C11.6028 11.5909 11.6685 11.5606 11.7334 11.5288C11.7983 11.4969 11.8624 11.4636 11.9257 11.4287C11.989 11.3937 12.0513 11.3573 12.1128 11.3195C12.1743 11.2816 12.2349 11.2422 12.2945 11.2015C12.3541 11.1607 12.4126 11.1185 12.4701 11.0749C12.5277 11.0313 12.5841 10.9864 12.6394 10.9402C12.6947 10.8939 12.7489 10.8463 12.8019 10.7975C12.8549 10.7486 12.9067 10.6985 12.9573 10.6472C13.0079 10.5959 13.0571 10.5434 13.1051 10.4897C13.1531 10.436 13.1998 10.3811 13.2451 10.3252C13.2904 10.2693 13.3344 10.2124 13.3769 10.1543C13.4195 10.0963 13.4606 10.0374 13.5002 9.97736C13.5399 9.9174 13.5781 9.85651 13.6148 9.79469C13.6515 9.7329 13.6867 9.67027 13.7203 9.60678C13.7539 9.54331 13.786 9.47906 13.8165 9.41404C13.847 9.34904 13.8759 9.28333 13.9032 9.21693C13.9305 9.15055 13.9561 9.08355 13.9801 9.01592C14.0042 8.94831 14.0265 8.88014 14.0472 8.81146C14.0679 8.74278 14.0869 8.67365 14.1042 8.60404C14.1216 8.53446 14.1372 8.46452 14.1511 8.39416C14.165 8.32383 14.1772 8.2532 14.1876 8.18227C14.1981 8.11138 14.2068 8.04024 14.2138 7.96889C14.2208 7.89757 14.226 7.8261 14.2295 7.75449C14.233 7.68293 14.2347 7.61128 14.2347 7.5396C14.2347 7.46793 14.233 7.39631 14.2295 7.32472C14.226 7.25313 14.2208 7.18166 14.2138 7.11032C14.2068 7.039 14.1981 6.96789 14.1876 6.89693C14.1772 6.82603 14.165 6.7554 14.1511 6.68505C14.1372 6.61472 14.1216 6.54475 14.1042 6.47517C14.0869 6.40559 14.0679 6.33643 14.0472 6.26775C14.0265 6.19906 14.0042 6.13092 13.9801 6.06329C13.9561 5.99568 13.9305 5.92868 13.9032 5.86229C13.8759 5.7959 13.847 5.7302 13.8165 5.66518C13.786 5.60017 13.7539 5.53593 13.7203 5.47245C13.6867 5.40897 13.6515 5.34633 13.6148 5.28453C13.5781 5.22273 13.5399 5.16184 13.5002 5.10186C13.4606 5.04188 13.4195 4.98289 13.3769 4.92488C13.3344 4.86686 13.2904 4.8099 13.2451 4.75398C13.1998 4.69807 13.1531 4.64327 13.1051 4.58958C13.0571 4.5359 13.0079 4.48339 12.9573 4.43206C12.9067 4.38072 12.8549 4.33063 12.8019 4.28177C12.7489 4.23291 12.6947 4.18535 12.6394 4.13908C12.5841 4.0928 12.5277 4.04788 12.4701 4.00431C12.4126 3.96073 12.3541 3.91855 12.2945 3.87778C12.2349 3.837 12.1743 3.79766 12.1128 3.75977C12.0513 3.72189 11.989 3.68549 11.9257 3.65058C11.8624 3.61568 11.7983 3.5823 11.7334 3.55045C11.6685 3.5186 11.6028 3.48833 11.5364 3.45962C11.47 3.43091 11.403 3.4038 11.3353 3.37829C11.2676 3.35278 11.1993 3.32891 11.1304 3.30666C11.0615 3.28442 10.9922 3.26383 10.9223 3.24489C10.8524 3.22596 10.7821 3.20871 10.7114 3.19314C10.6406 3.17756 10.5696 3.16369 10.4982 3.15151C10.4268 3.13933 10.3551 3.12886 10.2832 3.1201C10.2113 3.11134 10.1392 3.10431 10.067 3.09899C9.99474 3.09368 9.9224 3.09009 9.84994 3.08823L4.61831 3.08823C4.54346 3.08631 4.4686 3.08624 4.39372 3.08801C4.31886 3.08979 4.2441 3.09341 4.1694 3.09887C4.09472 3.10434 4.02023 3.11165 3.94589 3.12079C3.87158 3.12993 3.79755 3.14091 3.72378 3.1537C3.65002 3.1665 3.57662 3.18112 3.50358 3.19754C3.43058 3.21396 3.35799 3.23217 3.2859 3.25218C3.2138 3.27219 3.14222 3.29396 3.07124 3.31749C3.00022 3.34103 2.92985 3.36631 2.86012 3.39332C2.79039 3.42033 2.72138 3.44905 2.65309 3.47947C2.58481 3.50989 2.51734 3.54197 2.45067 3.57572C2.38401 3.60947 2.31823 3.64484 2.25336 3.68184C2.18848 3.71883 2.12457 3.75741 2.06164 3.79756C1.9987 3.83771 1.93682 3.87939 1.87599 3.9226C1.81516 3.96581 1.75545 4.01049 1.69688 4.05664C1.6383 4.1028 1.58092 4.15037 1.52475 4.19936C1.46857 4.24834 1.41366 4.29868 1.36003 4.35038C1.30639 4.40208 1.25409 4.45507 1.20313 4.50935C1.15217 4.56363 1.1026 4.61913 1.05444 4.67586C1.00628 4.73258 0.959575 4.79046 0.914332 4.8495C0.869089 4.90853 0.825364 4.96864 0.783153 5.02983C0.740946 5.09102 0.700305 5.15322 0.661233 5.21641C0.62216 5.27961 0.584706 5.34373 0.548869 5.40878C0.513032 5.47383 0.478859 5.53972 0.446348 5.60645C0.413838 5.67318 0.383026 5.74068 0.353921 5.80893C0.324812 5.87719 0.297445 5.94612 0.271816 6.0157C0.246187 6.08531 0.22233 6.15552 0.200242 6.2263C0.178155 6.29708 0.157866 6.36837 0.139375 6.44014C0.120884 6.51193 0.104215 6.58415 0.0893669 6.65673C0.0745187 6.72936 0.0615105 6.80227 0.050342 6.87551C0.0391736 6.94877 0.0298587 7.02225 0.0223975 7.09596C0.0149363 7.16968 0.00933816 7.24354 0.00560302 7.3175C0.00186767 7.39151 0 7.46553 0 7.5396C0 7.61368 0.00186767 7.68772 0.00560302 7.76171C0.00933816 7.83569 0.0149363 7.90953 0.0223975 7.98324C0.0298587 8.05696 0.0391736 8.13046 0.050342 8.2037C0.0615105 8.27694 0.074519 8.34987 0.0893672 8.42248C0.104215 8.49508 0.120884 8.56727 0.139375 8.63907C0.157866 8.71087 0.178155 8.78213 0.200242 8.8529C0.22233 8.92371 0.246187 8.99392 0.271816 9.0635C0.297445 9.13311 0.324812 9.20203 0.353921 9.27029C0.383026 9.33856 0.413838 9.40607 0.446348 9.47277C0.478859 9.53954 0.513032 9.60543 0.548869 9.67045C0.584706 9.73551 0.62216 9.79964 0.661233 9.8628C0.700305 9.92603 0.740946 9.98821 0.783153 10.0494C0.825364 10.1106 0.869089 10.1707 0.914332 10.2297C0.959575 10.2888 1.00628 10.3467 1.05444 10.4034C1.1026 10.4601 1.15217 10.5156 1.20313 10.5699C1.25409 10.6242 1.30639 10.6771 1.36003 10.7288C1.41366 10.7806 1.46857 10.8309 1.52475 10.8799C1.58092 10.9289 1.6383 10.9764 1.69688 11.0226C1.75545 11.0687 1.81516 11.1134 1.87599 11.1566C1.93682 11.1998 1.9987 11.2415 2.06164 11.2817C2.12457 11.3218 2.18848 11.3604 2.25336 11.3974C2.31823 11.4344 2.38401 11.4698 2.45067 11.5035C2.51734 11.5372 2.58481 11.5693 2.65309 11.5998C2.72138 11.6302 2.79039 11.6589 2.86012 11.6859C2.92985 11.7129 3.00022 11.7382 3.07124 11.7617C3.14222 11.7853 3.2138 11.807 3.2859 11.827C3.35799 11.8471 3.43058 11.8653 3.50358 11.8817C3.57662 11.8981 3.65002 11.9127 3.72378 11.9255C3.79755 11.9383 3.87158 11.9493 3.94589 11.9584C4.02023 11.9676 4.09472 11.9749 4.1694 11.9804C4.2441 11.9858 4.31886 11.9895 4.39372 11.9912C4.4686 11.993 4.54346 11.9929 4.61831 11.991ZM9.73179 10.4238L4.73342 10.4238C4.68674 10.4223 4.64012 10.4197 4.59356 10.416C4.547 10.4123 4.50056 10.4075 4.45421 10.4016C4.40789 10.3957 4.36173 10.3886 4.31574 10.3805C4.26976 10.3724 4.22398 10.3632 4.17842 10.3529C4.13289 10.3426 4.08764 10.3313 4.04265 10.3188C3.99766 10.3064 3.95301 10.2929 3.90866 10.2783C3.86434 10.2637 3.82039 10.2481 3.7768 10.2315C3.73324 10.2148 3.6901 10.1971 3.64738 10.1784C3.60467 10.1597 3.56244 10.14 3.52067 10.1192C3.47892 10.0985 3.4377 10.0768 3.39698 10.0542C3.3563 10.0315 3.31619 10.0079 3.27663 9.98326C3.23706 9.95869 3.19814 9.93316 3.15982 9.9067C3.12153 9.88027 3.08387 9.85295 3.04691 9.82469C3.00992 9.79646 2.97364 9.76739 2.93808 9.73743C2.90251 9.70746 2.86769 9.67669 2.83362 9.64504C2.79955 9.61346 2.76627 9.58104 2.73377 9.54784C2.70128 9.51463 2.66961 9.48068 2.63877 9.44598C2.60792 9.41128 2.57794 9.37589 2.54882 9.33975C2.51969 9.30362 2.49147 9.26682 2.46413 9.22933C2.4368 9.19187 2.41039 9.15379 2.38491 9.11504C2.35943 9.07633 2.3349 9.03701 2.31133 8.9971C2.28776 8.95721 2.26518 8.91679 2.24357 8.8758C2.22197 8.83484 2.20137 8.79339 2.18178 8.75144C2.16219 8.70949 2.14363 8.66712 2.12611 8.62427C2.10858 8.58142 2.0921 8.53821 2.07667 8.49458C2.06125 8.45098 2.04689 8.40702 2.0336 8.3627C2.02031 8.31841 2.0081 8.27382 1.99698 8.22893C1.98586 8.18407 1.97583 8.13894 1.9669 8.09358C1.95798 8.04824 1.95015 8.00269 1.94344 7.95696C1.93673 7.91124 1.93113 7.86539 1.92664 7.81936C1.92215 7.77339 1.91879 7.72731 1.91654 7.68116C1.9143 7.63501 1.91318 7.58881 1.91318 7.5426C1.91318 7.49639 1.9143 7.45022 1.91654 7.40407C1.91879 7.35792 1.92215 7.31183 1.92664 7.26584C1.93113 7.21984 1.93673 7.17396 1.94344 7.12824C1.95015 7.08251 1.95798 7.03699 1.9669 6.99162C1.97583 6.94625 1.98586 6.90116 1.99698 6.85627C2.0081 6.81138 2.02031 6.76679 2.0336 6.7225C2.04689 6.67821 2.06125 6.63425 2.07667 6.59062C2.0921 6.54702 2.10858 6.50378 2.12611 6.46093C2.14363 6.41811 2.16219 6.37571 2.18178 6.33376C2.20137 6.29184 2.22197 6.25039 2.24357 6.2094C2.26518 6.16844 2.28776 6.12802 2.31133 6.0881C2.3349 6.04822 2.35943 6.0089 2.38491 5.97018C2.41039 5.93145 2.4368 5.89335 2.46413 5.85587C2.49147 5.8184 2.5197 5.7816 2.54882 5.74547C2.57794 5.70934 2.60792 5.67392 2.63877 5.63922C2.66961 5.60452 2.70128 5.57057 2.73377 5.53737C2.76627 5.50417 2.79955 5.47177 2.83362 5.44016C2.86769 5.40854 2.90251 5.37776 2.93808 5.3478C2.97364 5.31784 3.00992 5.28875 3.04691 5.26052C3.08387 5.23228 3.12153 5.20495 3.15982 5.17851C3.19814 5.15206 3.23706 5.12655 3.27663 5.10196C3.31619 5.07737 3.3563 5.05373 3.39701 5.03106C3.43773 5.00837 3.47892 4.98668 3.52067 4.96596C3.56244 4.94524 3.60467 4.92552 3.64738 4.90681C3.6901 4.8881 3.73324 4.87041 3.7768 4.85376C3.82039 4.8371 3.86434 4.82149 3.90866 4.80692C3.95301 4.79235 3.99766 4.77885 4.04265 4.76641C4.08764 4.75396 4.13289 4.7426 4.17842 4.73231C4.22398 4.72202 4.26976 4.71281 4.31574 4.7047C4.36173 4.69659 4.40789 4.68958 4.45421 4.68366C4.50056 4.67774 4.547 4.67293 4.59356 4.66922C4.64012 4.66551 4.68674 4.66292 4.73342 4.66143L9.73179 4.66143C9.78044 4.65987 9.82909 4.65953 9.87774 4.66039C9.92643 4.66125 9.97505 4.66331 10.0236 4.66658C10.0722 4.66985 10.1206 4.67432 10.169 4.67999C10.2173 4.68566 10.2654 4.69252 10.3134 4.70058C10.3614 4.70863 10.4092 4.71788 10.4567 4.7283C10.5042 4.73872 10.5514 4.75032 10.5984 4.76308C10.6453 4.77585 10.6918 4.78977 10.7381 4.80484C10.7843 4.81991 10.8301 4.83612 10.8755 4.85346C10.9209 4.87081 10.9659 4.88926 11.0103 4.90884C11.0548 4.92841 11.0988 4.94907 11.1422 4.97082C11.1856 4.99257 11.2285 5.01538 11.2707 5.03925C11.313 5.06312 11.3546 5.08802 11.3956 5.11396C11.4366 5.1399 11.477 5.16683 11.5166 5.19477C11.5563 5.2227 11.5952 5.2516 11.6333 5.28147C11.6715 5.31133 11.7089 5.34212 11.7455 5.37384C11.7822 5.40555 11.8179 5.43816 11.8529 5.47165C11.8879 5.50514 11.922 5.53948 11.9552 5.57466C11.9884 5.60984 12.0208 5.64582 12.0522 5.68261C12.0836 5.71939 12.114 5.75693 12.1435 5.79522C12.173 5.83351 12.2015 5.87251 12.2291 5.91222C12.2566 5.95192 12.2831 5.99229 12.3086 6.03329C12.3341 6.07432 12.3585 6.11594 12.3819 6.15816C12.4053 6.20041 12.4275 6.24317 12.4487 6.2865C12.47 6.32986 12.4901 6.3737 12.509 6.41802C12.528 6.46237 12.5459 6.50714 12.5626 6.55233C12.5793 6.59758 12.5949 6.64318 12.6093 6.68915C12.6237 6.73515 12.6369 6.78144 12.649 6.82807C12.6611 6.87473 12.672 6.92165 12.6816 6.96882C12.6913 7.01602 12.6998 7.06342 12.7071 7.11101C12.7144 7.15862 12.7205 7.20639 12.7253 7.25427C12.7302 7.30219 12.7338 7.35019 12.7363 7.39826C12.7387 7.44635 12.7399 7.49447 12.7399 7.5426C12.7399 7.59075 12.7387 7.63888 12.7363 7.68694C12.7339 7.73504 12.7302 7.78304 12.7253 7.83093C12.7205 7.87884 12.7144 7.92661 12.7071 7.97419C12.6998 8.02181 12.6913 8.06921 12.6816 8.11638C12.672 8.16358 12.6611 8.2105 12.649 8.25713C12.6369 8.30375 12.6237 8.35008 12.6093 8.39605C12.5949 8.44205 12.5793 8.48765 12.5626 8.53287C12.5459 8.57809 12.528 8.62286 12.509 8.66718C12.4901 8.71153 12.47 8.75537 12.4487 8.7987C12.4275 8.84203 12.4053 8.88482 12.3819 8.92704C12.3585 8.96929 12.3341 9.01091 12.3086 9.0519C12.2831 9.09293 12.2566 9.13329 12.2291 9.173C12.2015 9.21273 12.173 9.25172 12.1435 9.28998C12.114 9.32828 12.0836 9.36582 12.0522 9.40262C12.0208 9.43942 11.9884 9.47538 11.9552 9.51056C11.922 9.54574 11.8879 9.58008 11.8529 9.61355C11.8179 9.64705 11.7822 9.67968 11.7455 9.71139C11.7089 9.74309 11.6715 9.7739 11.6333 9.80374C11.5952 9.83362 11.5563 9.8625 11.5166 9.89043C11.477 9.91839 11.4366 9.94533 11.3956 9.97125C11.3546 9.9972 11.313 10.0221 11.2707 10.046C11.2285 10.0698 11.1856 10.0926 11.1422 10.1144C11.0988 10.1361 11.0548 10.1568 11.0103 10.1764C10.9659 10.196 10.9209 10.2144 10.8755 10.2317C10.8301 10.2491 10.7843 10.2653 10.7381 10.2804C10.6918 10.2955 10.6453 10.3094 10.5984 10.3221C10.5514 10.3349 10.5042 10.3465 10.4567 10.3569C10.4092 10.3673 10.3614 10.3766 10.3134 10.3846C10.2654 10.3927 10.2173 10.3996 10.169 10.4052C10.1206 10.4109 10.0722 10.4154 10.0236 10.4186C9.97505 10.4219 9.92643 10.424 9.87778 10.4248C9.82912 10.4257 9.78044 10.4253 9.73179 10.4238ZM42.5967 11.991L47.9374 11.991L48.9492 10.4238L42.7148 10.4238C42.6664 10.4253 42.6176 10.4257 42.5688 10.4248C42.5204 10.424 42.4716 10.4219 42.4231 10.4186C42.3746 10.4154 42.3262 10.4109 42.2777 10.4052C42.2295 10.3996 42.1814 10.3927 42.1332 10.3846C42.0854 10.3766 42.0375 10.3673 41.9899 10.3569C41.9427 10.3465 41.8954 10.3349 41.8482 10.3221C41.8015 10.3094 41.7549 10.2955 41.7085 10.2804C41.6625 10.2653 41.6164 10.2491 41.571 10.2317C41.5258 10.2144 41.481 10.196 41.4362 10.1764C41.3919 10.1568 41.348 10.1361 41.3044 10.1144C41.2611 10.0926 41.2184 10.0698 41.1759 10.046C41.1338 10.0221 41.0923 9.9972 41.0511 9.97125C41.0102 9.94533 40.97 9.91839 40.93 9.89043C40.8906 9.8625 40.8515 9.83362 40.8133 9.80374C40.7752 9.7739 40.7379 9.74309 40.7013 9.71139C40.6646 9.67968 40.6289 9.64705 40.5937 9.61355C40.5589 9.58008 40.5246 9.54574 40.4913 9.51056C40.4583 9.47538 40.4259 9.43942 40.3944 9.40262C40.3632 9.36582 40.3329 9.32831 40.3032 9.29001C40.2738 9.25172 40.2453 9.21273 40.2175 9.173C40.1902 9.13332 40.1636 9.09296 40.1381 9.0519C40.1127 9.01091 40.0884 8.96929 40.0648 8.92704C40.0415 8.88482 40.0191 8.84203 39.9978 8.7987C39.9766 8.75537 39.9566 8.71153 39.9376 8.66718C39.9188 8.62286 39.9009 8.57809 39.8839 8.53287C39.8676 8.48765 39.8518 8.44205 39.8373 8.39605C39.8231 8.35008 39.8097 8.30375 39.7976 8.25713C39.7855 8.2105 39.7746 8.16358 39.7649 8.11638C39.7552 8.06921 39.7467 8.02181 39.7394 7.97419C39.7322 7.92661 39.7261 7.87884 39.7213 7.83093C39.7164 7.78304 39.7128 7.73504 39.7104 7.68694C39.7079 7.63888 39.7067 7.59075 39.7067 7.5426C39.7067 7.49447 39.7079 7.44635 39.7104 7.39826C39.7128 7.35019 39.7164 7.30219 39.7213 7.25427C39.7261 7.20639 39.7322 7.15862 39.7394 7.11101C39.7467 7.06342 39.7552 7.01602 39.7649 6.96882C39.7746 6.92165 39.7855 6.87473 39.7976 6.82807C39.8097 6.78144 39.8231 6.73515 39.8373 6.68915C39.8518 6.64318 39.8676 6.59758 39.8839 6.55233C39.9009 6.50714 39.9188 6.46237 39.9376 6.41802C39.9566 6.3737 39.9766 6.32986 39.9978 6.2865C40.0191 6.24317 40.0415 6.20041 40.0648 6.15816C40.0884 6.11594 40.1127 6.07432 40.1381 6.03329C40.1636 5.99229 40.1902 5.95192 40.2175 5.91222C40.2453 5.87251 40.2738 5.83351 40.3032 5.79522C40.3329 5.75692 40.3632 5.71939 40.3944 5.68261C40.4259 5.64582 40.4583 5.60984 40.4913 5.57466C40.5246 5.53948 40.5589 5.50514 40.5937 5.47165C40.6289 5.43816 40.6646 5.40555 40.7013 5.37384C40.7379 5.34212 40.7752 5.31133 40.8133 5.28147C40.8515 5.2516 40.8906 5.2227 40.93 5.19477C40.97 5.16683 41.0102 5.1399 41.0511 5.11396C41.0923 5.08802 41.1338 5.06312 41.1759 5.03925C41.2184 5.01538 41.2611 4.99257 41.3044 4.97082C41.348 4.94907 41.3919 4.9284 41.4362 4.90884C41.481 4.88926 41.5258 4.87081 41.571 4.85346C41.6164 4.83612 41.6625 4.81991 41.7085 4.80484C41.7549 4.78977 41.8015 4.77585 41.8482 4.76308C41.8954 4.75032 41.9427 4.73872 41.9899 4.7283C42.0375 4.71788 42.0854 4.70863 42.1332 4.70058C42.1814 4.69252 42.2295 4.68566 42.2777 4.67999C42.3262 4.67432 42.3746 4.66985 42.4231 4.66658C42.4716 4.66331 42.5204 4.66125 42.5688 4.66039C42.6176 4.65953 42.6664 4.65987 42.7148 4.66143L47.7889 4.66143L48.8129 3.08823L42.5967 3.08823C42.5219 3.08631 42.4471 3.08624 42.3722 3.08801C42.2974 3.08979 42.2226 3.09341 42.1478 3.09887C42.0732 3.10434 41.9987 3.11165 41.9242 3.12079C41.85 3.12993 41.7761 3.14091 41.7021 3.1537C41.6285 3.1665 41.5552 3.18111 41.4819 3.19754C41.4092 3.21396 41.3365 3.23217 41.2644 3.25218C41.1923 3.27218 41.1208 3.29396 41.0496 3.31749C40.9787 3.34103 40.9082 3.36631 40.8385 3.39332C40.7688 3.42033 40.7 3.44905 40.6316 3.47947C40.5634 3.50988 40.4959 3.54197 40.4289 3.57572C40.3623 3.60947 40.2965 3.64484 40.2317 3.68184C40.1669 3.71883 40.103 3.75741 40.04 3.79756C39.9772 3.83771 39.9155 3.87939 39.8543 3.9226C39.7937 3.96581 39.734 4.01049 39.6752 4.05664C39.6168 4.1028 39.5595 4.15037 39.5032 4.19936C39.4471 4.24834 39.3923 4.29868 39.3384 4.35038C39.2851 4.40208 39.2326 4.45507 39.1814 4.50935C39.1306 4.56363 39.0812 4.61913 39.0327 4.67586C38.9848 4.73258 38.9382 4.79046 38.8928 4.8495C38.8476 4.90853 38.804 4.96864 38.7616 5.02983C38.7195 5.09102 38.6789 5.15322 38.6395 5.21641C38.6007 5.27961 38.5632 5.34373 38.5271 5.40878C38.4914 5.47383 38.4574 5.53972 38.4247 5.60645C38.3923 5.67318 38.3614 5.74067 38.3323 5.80893C38.3033 5.87719 38.276 5.94612 38.2502 6.0157C38.2248 6.08531 38.2009 6.15552 38.1787 6.2263C38.1566 6.29708 38.1363 6.36837 38.1179 6.44014C38.0994 6.51193 38.0827 6.58415 38.0679 6.65673C38.053 6.72936 38.04 6.80227 38.0288 6.87551C38.0176 6.94877 38.0082 7.02225 38.0009 7.09596C37.9937 7.16968 37.9879 7.24354 37.984 7.3175C37.9803 7.39151 37.9785 7.46553 37.9785 7.5396C37.9785 7.61368 37.9803 7.68772 37.984 7.76171C37.9879 7.83569 37.9937 7.90953 38.0009 7.98324C38.0082 8.05696 38.0176 8.13046 38.0288 8.2037C38.04 8.27694 38.053 8.34987 38.0679 8.42248C38.0827 8.49508 38.0994 8.56727 38.1179 8.63907C38.1363 8.71087 38.1566 8.78213 38.1787 8.8529C38.2009 8.92371 38.2248 8.99392 38.2502 9.0635C38.276 9.13311 38.3033 9.20203 38.3323 9.27029C38.3614 9.33856 38.3923 9.40607 38.4247 9.47277C38.4574 9.53954 38.4914 9.60543 38.5271 9.67045C38.5632 9.73551 38.6007 9.79964 38.6395 9.8628C38.6789 9.92603 38.7195 9.98821 38.7616 10.0494C38.804 10.1106 38.8476 10.1707 38.8928 10.2297C38.9382 10.2888 38.9848 10.3467 39.0327 10.4034C39.0812 10.4601 39.1306 10.5156 39.1814 10.5699C39.2326 10.6242 39.2851 10.6771 39.3384 10.7288C39.3923 10.7806 39.4471 10.8309 39.5032 10.8799C39.5595 10.9289 39.6168 10.9764 39.6752 11.0226C39.734 11.0687 39.7937 11.1134 39.8543 11.1566C39.9155 11.1998 39.9772 11.2415 40.04 11.2817C40.103 11.3218 40.1669 11.3604 40.2317 11.3974C40.2965 11.4344 40.3623 11.4698 40.4289 11.5035C40.4959 11.5372 40.5634 11.5693 40.6316 11.5998C40.7 11.6302 40.7688 11.6589 40.8385 11.6859C40.9082 11.7129 40.9787 11.7382 41.0496 11.7617C41.1208 11.7853 41.1923 11.807 41.2644 11.827C41.3365 11.8471 41.4092 11.8653 41.4819 11.8817C41.5552 11.8981 41.6285 11.9127 41.7021 11.9255C41.7761 11.9383 41.85 11.9493 41.9242 11.9584C41.9987 11.9676 42.0732 11.9749 42.1478 11.9804C42.2226 11.9858 42.2974 11.9895 42.3722 11.9912C42.4471 11.993 42.5219 11.9929 42.5967 11.991ZM63.7625 10.4238C63.6838 10.4238 63.6053 10.4207 63.5268 10.4144C63.4487 10.4082 63.3705 10.3988 63.2927 10.3863C63.2151 10.3737 63.1382 10.3581 63.0615 10.3394C62.9852 10.3208 62.9098 10.299 62.8352 10.2743C62.7607 10.2496 62.6871 10.2219 62.6147 10.1913C62.5426 10.1606 62.4714 10.1272 62.4017 10.0908C62.3324 10.0545 62.2645 10.0155 62.1979 9.97374C62.1315 9.93196 62.067 9.88762 62.004 9.84069C61.9413 9.79376 61.8807 9.74438 61.8219 9.69257C61.7632 9.64079 61.7068 9.5867 61.6523 9.53036C61.5981 9.47403 61.5463 9.41563 61.4966 9.35513C61.4472 9.29466 61.4003 9.23227 61.3557 9.16799C61.3115 9.10375 61.2697 9.03782 61.2306 8.97022C61.1918 8.90262 61.1555 8.83358 61.1219 8.7631C61.0885 8.69262 61.0582 8.62088 61.0307 8.54795C61.0034 8.47501 60.9789 8.40111 60.9574 8.3262L68.355 8.3262L69.3728 6.756L60.9574 6.756C60.9789 6.68109 61.0034 6.60716 61.0307 6.53417C61.0582 6.46123 61.0885 6.38946 61.1219 6.31893C61.1552 6.24842 61.1915 6.17935 61.2303 6.11168C61.2694 6.04408 61.3109 5.97812 61.3551 5.91385C61.3997 5.84956 61.4466 5.78716 61.496 5.72664C61.5457 5.66613 61.5975 5.60769 61.6517 5.55134C61.7062 5.49499 61.7626 5.4409 61.8213 5.38908C61.8801 5.33726 61.941 5.28788 62.0037 5.24093C62.0667 5.19399 62.1312 5.14963 62.1973 5.10787C62.2639 5.06611 62.3318 5.02707 62.4014 4.99077C62.4711 4.95446 62.5423 4.921 62.6144 4.89039C62.6868 4.85978 62.7604 4.83212 62.8349 4.8074C62.9095 4.78269 62.9852 4.761 63.0615 4.74234C63.1379 4.72369 63.2151 4.70812 63.2927 4.69565C63.3702 4.68317 63.4484 4.67383 63.5268 4.66761C63.6053 4.6614 63.6838 4.65834 63.7625 4.65843L68.8396 4.65843L69.8545 3.08524L63.6444 3.08524C63.572 3.0871 63.4996 3.09068 63.4275 3.096C63.3554 3.10131 63.2833 3.10835 63.2112 3.1171C63.1394 3.12586 63.0676 3.13633 62.9961 3.14851C62.9249 3.16069 62.8537 3.17457 62.7828 3.19014C62.7123 3.20572 62.642 3.22297 62.572 3.2419C62.5023 3.26083 62.4329 3.28142 62.3639 3.30367C62.2951 3.32591 62.227 3.34979 62.1591 3.3753C62.0912 3.4008 62.0243 3.42791 61.958 3.45662C61.8916 3.48533 61.8259 3.51561 61.761 3.54746C61.6962 3.5793 61.632 3.61268 61.5687 3.64759C61.5057 3.6825 61.4433 3.71889 61.3815 3.75678C61.32 3.79467 61.2594 3.834 61.1997 3.87478C61.1403 3.91556 61.0819 3.95774 61.0243 4.00131C60.9668 4.04489 60.9104 4.08981 60.855 4.13608C60.7998 4.18235 60.7456 4.22992 60.6923 4.27878C60.6396 4.32763 60.5878 4.37773 60.5369 4.42906C60.4866 4.48039 60.4372 4.5329 60.3891 4.58659C60.3412 4.64028 60.2946 4.69507 60.2491 4.75099C60.204 4.80691 60.1601 4.86387 60.1173 4.92188C60.0749 4.9799 60.0337 5.03889 59.994 5.09887C59.9547 5.15884 59.9165 5.21973 59.8795 5.28153C59.8429 5.34333 59.8077 5.40597 59.7741 5.46945C59.7405 5.53293 59.7084 5.59718 59.6778 5.66219C59.6475 5.7272 59.6184 5.7929 59.5911 5.85929C59.5639 5.92568 59.5384 5.99269 59.5142 6.06029C59.4903 6.12793 59.4679 6.19607 59.4473 6.26475C59.4267 6.33343 59.4076 6.40259 59.39 6.47217C59.373 6.54175 59.3573 6.61172 59.3434 6.68205C59.3294 6.75241 59.3173 6.82304 59.3067 6.89394C59.2964 6.96489 59.2876 7.036 59.2806 7.10732C59.2737 7.17867 59.2685 7.25014 59.2649 7.32172C59.2613 7.39331 59.2594 7.46493 59.2594 7.53661C59.2594 7.60828 59.2613 7.67993 59.2649 7.75149C59.2685 7.82311 59.2737 7.89458 59.2806 7.96589C59.2876 8.03724 59.2964 8.10838 59.3067 8.17928C59.3173 8.25021 59.3294 8.32084 59.3434 8.39116C59.3573 8.46152 59.373 8.53146 59.39 8.60104C59.4076 8.67065 59.4267 8.73978 59.4473 8.80847C59.4679 8.87715 59.4903 8.94532 59.5142 9.01292C59.5384 9.08055 59.5639 9.14756 59.5911 9.21393C59.6184 9.28033 59.6475 9.34605 59.6778 9.41104C59.7084 9.47607 59.7405 9.54031 59.7741 9.60378C59.8077 9.66725 59.8429 9.72991 59.8795 9.79169C59.9165 9.85351 59.9547 9.9144 59.994 9.97437C60.0337 10.0344 60.0749 10.0933 60.1173 10.1513C60.1601 10.2094 60.204 10.2663 60.2491 10.3222C60.2946 10.3782 60.3412 10.433 60.3891 10.4866C60.4372 10.5403 60.4866 10.5929 60.5369 10.6442C60.5878 10.6955 60.6396 10.7456 60.6923 10.7945C60.7456 10.8433 60.7998 10.8909 60.855 10.9372C60.9104 10.9834 60.9668 11.0283 61.0243 11.0719C61.0819 11.1155 61.1403 11.1577 61.1997 11.1985C61.2594 11.2392 61.32 11.2786 61.3815 11.3165C61.4433 11.3543 61.5057 11.3907 61.5687 11.4256C61.632 11.4606 61.6962 11.4939 61.761 11.5258C61.8259 11.5576 61.8916 11.5879 61.958 11.6166C62.0243 11.6453 62.0912 11.6724 62.1591 11.6979C62.227 11.7235 62.2951 11.7473 62.3639 11.7696C62.4329 11.7918 62.5023 11.8124 62.572 11.8313C62.642 11.8503 62.7123 11.8675 62.7828 11.8831C62.8537 11.8987 62.9249 11.9125 62.9961 11.9247C63.0676 11.9369 63.1394 11.9474 63.2112 11.9561C63.2833 11.9649 63.3554 11.9719 63.4275 11.9772C63.4996 11.9826 63.572 11.9861 63.6444 11.988L68.9851 11.988L69.9999 10.4208L63.7595 10.4208">
</path>
</svg>
